0
SECTION
2
HEADER
9
$INSUNITS
70
4
9
$ACADVER
1
AC1014
9
$HANDSEED
5
FFFF
0
ENDSEC
0
SECTION
2
TABLES
0
TABLE
2
VPORT
5
8
100
AcDbSymbolTable
0
ENDTAB
0
TABLE
2
LTYPE
5
5
100
AcDbSymbolTable
0
LTYPE
5
14
100
AcDbSymbolTableRecord
100
AcDbLinetypeTableRecord
2
BYBLOCK
70
0
0
LTYPE
5
15
100
AcDbSymbolTableRecord
100
AcDbLinetypeTableRecord
2
BYLAYER
70
0
0
LTYPE
5
16
100
AcDbSymbolTableRecord
100
AcDbLinetypeTableRecord
2
DASHED
70
0
3
Dashed __ __ __ __ __ __ __ __ __ __ __ __ __ _
72
65
73
2
40
0.75
49
0.5
74
0
49
-0.25
74
0
0
ENDTAB
0
TABLE
2
LAYER
5
2
100
AcDbSymbolTable
70
2
0
LAYER
5
50
100
AcDbSymbolTableRecord
100
AcDbLayerTableRecord
2
0
70
0
62
7
6
CONTINUOUS
0
ENDTAB
0
TABLE
2
STYLE
5
3
100
AcDbSymbolTable
70
1
0
STYLE
5
11
100
AcDbSymbolTableRecord
100
AcDbTextStyleTableRecord
2
STANDARD
70
0
0
ENDTAB
0
TABLE
2
VIEW
5
6
100
AcDbSymbolTable
70
0
0
ENDTAB
0
TABLE
2
UCS
5
7
100
AcDbSymbolTable
70
0
0
ENDTAB
0
TABLE
2
APPID
5
9
100
AcDbSymbolTable
70
2
0
APPID
5
12
100
AcDbSymbolTableRecord
100
AcDbRegAppTableRecord
2
ACAD
70
0
0
ENDTAB
0
TABLE
2
DIMSTYLE
5
A
100
AcDbSymbolTable
70
1
0
ENDTAB
0
TABLE
2
BLOCK_RECORD
5
1
100
AcDbSymbolTable
70
1
0
BLOCK_RECORD
5
1F
100
AcDbSymbolTableRecord
100
AcDbBlockTableRecord
2
*MODEL_SPACE
0
BLOCK_RECORD
5
1B
100
AcDbSymbolTableRecord
100
AcDbBlockTableRecord
2
*PAPER_SPACE
0
ENDTAB
0
ENDSEC
0
SECTION
2
BLOCKS
0
BLOCK
5
20
100
AcDbEntity
100
AcDbBlockBegin
2
*MODEL_SPACE
0
ENDBLK
5
21
100
AcDbEntity
100
AcDbBlockEnd
0
BLOCK
5
1C
100
AcDbEntity
100
AcDbBlockBegin
2
*PAPER_SPACE
0
ENDBLK
5
1D
100
AcDbEntity
100
AcDbBlockEnd
0
ENDSEC
0
SECTION
2
ENTITIES
0
LWPOLYLINE
5
100
100
AcDbEntity
8
0
100
AcDbPolyline
90
8
70
1
43
0.0
10
28.100000894069712
20
19.399999761581423
42
0.41421356237309437
10
26.100000894069709
20
17.399999761581423
10
26.100000894069709
20
-16.400000238418574
42
0.41421356237309437
10
28.100000894069712
20
-18.400000238418571
10
61.900000894069713
20
-18.400000238418578
42
0.41421356237309404
10
63.900000894069713
20
-16.400000238418574
10
63.900000894069713
20
17.399999761581423
42
0.4142135623730947
10
61.90000089406972
20
19.399999761581423
0
CIRCLE
5
101
100
AcDbEntity
8
0
100
AcDbCircle
10
28.500000894069686
20
-16.000000238418576
30
0
40
0.80000000000000071
210
0
220
0
230
1
0
CIRCLE
5
102
100
AcDbEntity
8
0
100
AcDbCircle
10
28.500000894069686
20
16.999999761581421
30
0
40
0.79999999999999627
210
0
220
0
230
1
0
CIRCLE
5
103
100
AcDbEntity
8
0
100
AcDbCircle
10
61.5000008940697
20
-16.000000238418583
30
0
40
0.80000000000000071
210
0
220
0
230
1
0
CIRCLE
5
104
100
AcDbEntity
8
0
100
AcDbCircle
10
61.500000894069714
20
16.999999761581424
30
0
40
0.80000000000000071
210
0
220
0
230
1
0
LWPOLYLINE
5
105
100
AcDbEntity
8
0
100
AcDbPolyline
90
4
70
1
43
0.0
10
40.793491894069682
20
1.6249997615814193
10
40.793491894069682
20
-0.62500023841858099
10
40.471902894069686
20
-0.62500023841858099
10
40.471902894069686
20
1.6249997615814193
0
LWPOLYLINE
5
106
100
AcDbEntity
8
0
100
AcDbPolyline
90
4
70
1
43
0.0
10
31.462545894069677
20
1.6249997615814191
10
32.135295894069671
20
-0.62500023841858132
10
31.802616894069679
20
-0.62500023841858132
10
31.11877789406968
20
1.6249997615814191
0
LWPOLYLINE
5
107
100
AcDbEntity
8
0
100
AcDbPolyline
90
4
70
1
43
0.0
10
53.293491894069675
20
4.6249997615814191
10
53.293491894069675
20
2.3749997615814191
10
52.971902894069686
20
2.3749997615814191
10
52.971902894069686
20
4.6249997615814191
0
LWPOLYLINE
5
108
100
AcDbEntity
8
0
100
AcDbPolyline
90
4
70
1
43
0.0
10
36.349804894069678
20
0.72821376158142115
10
36.774893894069677
20
1.6249997615814191
10
37.078000894069675
20
1.6249997615814191
10
36.486571894069684
20
0.43892876158141969
0
LWPOLYLINE
5
109
100
AcDbEntity
8
0
100
AcDbPolyline
90
4
70
1
43
0.0
10
53.441348894069677
20
3.6799997615814197
10
54.176938894069679
20
3.6799997615814197
10
54.176938894069679
20
3.4357137615814217
10
53.441348894069677
20
3.4357137615814217
0
LWPOLYLINE
5
110
100
AcDbEntity
8
0
100
AcDbPolyline
90
4
70
1
43
0.0
10
53.441348894069677
20
2.6514287615814194
10
54.528098894069679
20
2.6514287615814194
10
54.528098894069679
20
2.3749997615814191
10
53.441348894069677
20
2.3749997615814191
0
LWPOLYLINE
5
111
100
AcDbEntity
8
0
100
AcDbPolyline
90
4
70
1
43
0.0
10
38.849804894069678
20
0.72821376158142115
10
39.274893894069685
20
1.6249997615814193
10
39.578000894069675
20
1.6249997615814193
10
38.986571894069684
20
0.43892876158141997
0
LWPOLYLINE
5
112
100
AcDbEntity
8
0
100
AcDbPolyline
90
8
70
1
43
0.0
10
56.477330894069681
20
2.9407137615814207
10
55.826759894069689
20
2.9407137615814207
10
55.660420894069688
20
2.3749997615814191
10
55.364705894069672
20
2.3749997615814191
10
56.011580894069667
20
4.4803567615814224
10
56.148348894069656
20
4.0239287615814225
10
55.889598894069685
20
3.1464287615814204
10
56.414491894069684
20
3.1464287615814204
0
LWPOLYLINE
5
113
100
AcDbEntity
8
0
100
AcDbPolyline
90
4
70
1
43
0.0
10
56.462545894069684
20
4.62499976158142
10
57.135295894069685
20
2.3749997615814191
10
56.802616894069672
20
2.3749997615814191
10
56.118777894069666
20
4.62499976158142
0
LWPOLYLINE
5
114
100
AcDbEntity
8
0
100
AcDbPolyline
90
4
70
1
43
0.0
10
53.441348894069677
20
4.3485707615814189
10
53.441348894069677
20
4.6249997615814191
10
54.520705894069685
20
4.62499976158142
10
54.520705894069685
20
4.3485707615814198
0
LWPOLYLINE
5
115
100
AcDbEntity
8
0
100
AcDbPolyline
90
12
70
1
43
0.0
10
55.728804894069683
20
-11.590000238418581
10
55.429393894069676
20
-11.33285723841858
10
55.429393894069676
20
-10.69321423841858
10
55.795339894069684
20
-10.375000238418579
10
56.183464894069687
20
-10.375000238418579
10
56.183464894069687
20
-10.651429238418579
10
55.93580489406969
20
-10.651429238418579
10
55.747286894069674
20
-10.815357238418581
10
55.747286894069674
20
-11.213929238418579
10
55.887750894069669
20
-11.329643238418576
10
56.183464894069672
20
-11.32964323841858
10
56.183464894069687
20
-11.590000238418581
0
LWPOLYLINE
5
116
100
AcDbEntity
8
0
100
AcDbPolyline
90
4
70
1
43
0.0
10
55.793491894069675
20
-7.37500023841858
10
55.793491894069675
20
-9.6250002384185809
10
55.471902894069686
20
-9.6250002384185809
10
55.471902894069686
20
-7.3750002384185809
0
LWPOLYLINE
5
117
100
AcDbEntity
8
0
100
AcDbPolyline
90
12
70
1
43
0.0
10
30.823062894069679
20
-12.625000238418579
10
30.405366894069672
20
-12.261786238418576
10
30.405366894069683
20
-10.72214323841858
10
30.80458089406968
20
-10.375000238418579
10
31.196402894069681
20
-10.375000238418579
10
31.196402894069681
20
-10.651429238418579
10
30.933955894069676
20
-10.651429238418579
10
30.723259894069681
20
-10.834643238418579
10
30.723259894069681
20
-12.152500238418579
10
30.948741894069684
20
-12.348571238418579
10
31.196402894069681
20
-12.348571238418579
10
31.196402894069681
20
-12.625000238418579
0
LWPOLYLINE
5
118
100
AcDbEntity
8
0
100
AcDbPolyline
90
4
70
1
43
0.0
10
56.039304894069687
20
-6.62500023841858
10
55.366554894069679
20
-4.3750002384185809
10
55.688143894069682
20
-4.3750002384185809
10
56.371982894069689
20
-6.62500023841858
0
LWPOLYLINE
5
119
100
AcDbEntity
8
0
100
AcDbPolyline
90
4
70
1
43
0.0
10
34.160304894069675
20
-11.821429238418579
10
34.160304894069675
20
-12.416071238418578
10
33.339696894069675
20
-11.014643238418579
10
33.339696894069675
20
-10.40714323841858
0
LWPOLYLINE
5
120
100
AcDbEntity
8
0
100
AcDbPolyline
90
4
70
1
43
0.0
10
40.37209889406968
20
-7.6385712384185798
10
40.37209889406968
20
-7.37500023841858
10
42.127902894069678
20
-7.37500023841858
10
42.127902894069678
20
-7.6385712384185798
0
LWPOLYLINE
5
121
100
AcDbEntity
8
0
100
AcDbPolyline
90
4
70
1
43
0.0
10
53.844259894069673
20
-8.0596432384185803
10
54.261955894069693
20
-7.37500023841858
10
54.583545894069672
20
-7.37500023841858
10
53.999509894069675
20
-8.3071432384185808
0
LWPOLYLINE
5
122
100
AcDbEntity
8
0
100
AcDbPolyline
90
8
70
1
43
0.0
10
48.831321894069681
20
-7.6514292384185776
10
48.831321894069681
20
-7.37500023841858
10
49.182482894069679
20
-7.37500023841858
10
49.544732894069682
20
-7.6932142384185784
10
49.544732894069682
20
-8.0114292384185788
10
49.226839894069684
20
-8.0114292384185788
10
49.226839894069684
20
-7.8153572384185797
10
49.038321894069682
20
-7.6514292384185776
0
LWPOLYLINE
5
123
100
AcDbEntity
8
0
100
AcDbPolyline
90
4
70
1
43
0.0
10
53.441348894069677
20
-5.3682142384185809
10
54.27674189406968
20
-5.3682142384185809
10
54.27674189406968
20
-5.6125002384185807
10
53.441348894069677
20
-5.6125002384185807
0
LWPOLYLINE
5
124
100
AcDbEntity
8
0
100
AcDbPolyline
90
12
70
1
43
0.0
10
46.776741894069659
20
-9.1525002384185807
10
46.77674189406968
20
-7.8346432384185789
10
46.566045894069688
20
-7.6514292384185776
10
46.344259894069694
20
-7.6514292384185776
10
46.344259894069694
20
-7.37500023841858
10
46.695420894069684
20
-7.37500023841858
10
47.094634894069678
20
-7.7221432384185782
10
47.094634894069678
20
-9.2617862384185798
10
46.676938894069679
20
-9.6250002384185809
10
46.344259894069673
20
-9.6250002384185809
10
46.344259894069694
20
-9.3485712384185806
10
46.551259894069688
20
-9.3485712384185806
0
LWPOLYLINE
5
125
100
AcDbEntity
8
0
100
AcDbPolyline
90
4
70
1
43
0.0
10
35.941348894069677
20
-12.348571238418579
10
37.028098894069679
20
-12.348571238418579
10
37.028098894069679
20
-12.625000238418579
10
35.941348894069677
20
-12.625000238418579
0
LWPOLYLINE
5
126
100
AcDbEntity
8
0
100
AcDbPolyline
90
4
70
1
43
0.0
10
53.500491894069683
20
-8.6028572384185811
10
53.65204589406968
20
-8.8503572384185816
10
53.182598894069685
20
-9.6250002384185809
10
52.857312894069679
20
-9.6250002384185809
0
LWPOLYLINE
5
127
100
AcDbEntity
8
0
100
AcDbPolyline
90
4
70
1
43
0.0
10
35.941348894069677
20
-11.320000238418579
10
36.676937894069681
20
-11.320000238418579
10
36.676937894069681
20
-11.564286238418582
10
35.941348894069677
20
-11.564286238418582
0
LWPOLYLINE
5
128
100
AcDbEntity
8
0
100
AcDbPolyline
90
12
70
1
43
0.0
10
59.219446894069691
20
-8.2460712384185815
10
59.219446894069691
20
-7.8153572384185797
10
59.034625894069691
20
-7.6546432384185801
10
58.428411894069683
20
-7.6546432384185801
10
58.428411894069683
20
-7.37500023841858
10
59.175089894069686
20
-7.37500023841858
10
59.537339894069689
20
-7.6932142384185784
10
59.537339894069689
20
-8.3457142384185783
10
59.186179894069681
20
-8.6510712384185808
10
58.428411894069683
20
-8.6510712384185808
10
58.428411894069683
20
-8.4067862384185812
10
59.034625894069691
20
-8.4067862384185812
0
LWPOLYLINE
5
129
100
AcDbEntity
8
0
100
AcDbPolyline
90
12
70
1
43
0.0
10
36.787830894069685
20
-9.6250002384185809
10
36.787830894069685
20
-9.3710712384185815
10
36.49581289406968
20
-9.6250002384185809
10
36.325777894069688
20
-9.6250002384185809
10
36.325777894069674
20
-9.3485712384185806
10
36.503205894069673
20
-9.3485712384185806
10
36.77674189406968
20
-9.1107142384185789
10
36.77674189406968
20
-8.62857123841858
10
36.325777894069674
20
-8.62857123841858
10
36.325777894069674
20
-8.4325002384185801
10
37.094634894069678
20
-8.4325002384185801
10
37.094634894069678
20
-9.6250002384185809
0
LWPOLYLINE
5
130
100
AcDbEntity
8
0
100
AcDbPolyline
90
4
70
1
43
0.0
10
40.793491894069682
20
16.624999761581417
10
40.793491894069682
20
14.374999761581417
10
40.475598894069684
20
14.374999761581417
10
40.475598894069684
20
16.624999761581417
0
LWPOLYLINE
5
131
100
AcDbEntity
8
0
100
AcDbPolyline
90
4
70
1
43
0.0
10
35.372098894069673
20
16.361428761581415
10
35.37209889406968
20
16.624999761581417
10
37.127902894069678
20
16.624999761581417
10
37.127902894069678
20
16.361428761581415
0
LWPOLYLINE
5
132
100
AcDbEntity
8
0
100
AcDbPolyline
90
4
70
1
43
0.0
10
43.589205894069693
20
11.374999761581414
10
43.589205894069678
20
13.624999761581416
10
43.910795894069693
20
13.624999761581416
10
43.910795894069693
20
11.374999761581414
0
LWPOLYLINE
5
133
100
AcDbEntity
8
0
100
AcDbPolyline
90
4
70
1
43
0.0
10
33.293491894069682
20
16.624999761581417
10
33.293491894069682
20
14.374999761581417
10
32.975598894069684
20
14.374999761581417
10
32.975598894069684
20
16.624999761581417
0
LWPOLYLINE
5
134
100
AcDbEntity
8
0
100
AcDbPolyline
90
4
70
1
43
0.0
10
30.94134889406968
20
13.348570761581421
10
30.94134889406968
20
13.624999761581416
10
32.020705894069678
20
13.624999761581416
10
32.020705894069678
20
13.348570761581421
0
LWPOLYLINE
5
135
100
AcDbEntity
8
0
100
AcDbPolyline
90
4
70
1
43
0.0
10
33.441348894069677
20
16.348570761581417
10
33.441348894069677
20
16.624999761581417
10
34.524402894069681
20
16.624999761581417
10
34.524402894069681
20
16.348570761581417
0
LWPOLYLINE
5
136
100
AcDbEntity
8
0
100
AcDbPolyline
90
4
70
1
43
0.0
10
30.94134889406968
20
11.651428761581414
10
32.028098894069679
20
11.651428761581414
10
32.028098894069679
20
11.374999761581414
10
30.94134889406968
20
11.374999761581414
0
LWPOLYLINE
5
137
100
AcDbEntity
8
0
100
AcDbPolyline
90
4
70
1
43
0.0
10
39.239777894069682
20
11.374999761581414
10
39.239777894069682
20
13.624999761581416
10
39.561366894069678
20
13.624999761581416
10
39.561366894069678
20
11.374999761581414
0
LWPOLYLINE
5
138
100
AcDbEntity
8
0
100
AcDbPolyline
90
4
70
1
43
0.0
10
33.441348894069677
20
15.631785761581414
10
34.27674189406968
20
15.631785761581414
10
34.27674189406968
20
15.38749976158142
10
33.441348894069677
20
15.38749976158142
0
LWPOLYLINE
5
139
100
AcDbEntity
8
0
100
AcDbPolyline
90
4
70
1
43
0.0
10
48.441348894069677
20
12.631785761581416
10
49.27674189406968
20
12.631785761581416
10
49.27674189406968
20
12.387499761581417
10
48.441348894069677
20
12.387499761581417
0
LWPOLYLINE
5
140
100
AcDbEntity
8
0
100
AcDbPolyline
90
4
70
1
43
0.0
10
36.089205894069678
20
16.23285676158142
10
36.410795894069679
20
16.23285676158142
10
36.410795894069679
20
14.374999761581417
10
36.089205894069678
20
14.374999761581417
0
LWPOLYLINE
5
141
100
AcDbEntity
8
0
100
AcDbPolyline
90
4
70
1
43
0.0
10
43.441348894069669
20
16.348570761581417
10
43.441348894069677
20
16.624999761581417
10
44.524402894069667
20
16.624999761581417
10
44.524402894069667
20
16.348570761581417
0
LWPOLYLINE
5
142
100
AcDbEntity
8
0
100
AcDbPolyline
90
4
70
1
43
0.0
10
37.872098894069673
20
16.361428761581415
10
37.87209889406968
20
16.624999761581417
10
39.627902894069678
20
16.624999761581417
10
39.627902894069678
20
16.361428761581415
0
LWPOLYLINE
5
143
100
AcDbEntity
8
0
100
AcDbPolyline
90
4
70
1
43
0.0
10
36.055383894069678
20
13.464285761581415
10
36.188454894069679
20
12.946785761581413
10
35.80920189406968
20
11.493928761581413
10
35.689437894069684
20
12.033928761581411
0
LWPOLYLINE
5
144
100
AcDbEntity
8
0
100
AcDbPolyline
90
8
70
1
43
0.0
10
46.477330894069681
20
11.940713761581417
10
45.826759894069667
20
11.940713761581417
10
45.660420894069688
20
11.374999761581414
10
45.364705894069672
20
11.374999761581414
10
46.011580894069667
20
13.480356761581419
10
46.148348894069677
20
13.023928761581413
10
45.889598894069664
20
12.146428761581415
10
46.414491894069684
20
12.146428761581415
0
LWPOLYLINE
5
145
100
AcDbEntity
8
0
100
AcDbPolyline
90
5
70
1
43
0.0
10
47.894277894069681
20
16.358213761581418
10
47.886884894069688
20
16.624999761581417
10
49.59833089406969
20
16.624999761581417
10
49.59833089406969
20
16.393570761581419
10
49.568759894069686
20
16.358213761581418
0
LWPOLYLINE
5
146
100
AcDbEntity
8
0
100
AcDbPolyline
90
4
70
1
43
0.0
10
35.38337289406968
20
11.374999761581414
10
34.900988894069684
20
13.624999761581416
10
35.180438894069681
20
13.624999761581416
10
35.699417894069683
20
11.374999761581414
0
LWPOLYLINE
5
147
100
AcDbEntity
8
0
100
AcDbPolyline
90
4
70
1
43
0.0
10
54.056804894069685
20
15.220356761581417
10
54.489286894069679
20
14.374999761581417
10
54.156607894069694
20
14.374999761581417
10
53.73151889406968
20
15.220356761581417
0
LWPOLYLINE
5
148
100
AcDbEntity
8
0
100
AcDbPolyline
90
12
70
1
43
0.0
10
50.823063894069676
20
11.374999761581414
10
50.405366894069687
20
11.738213761581417
10
50.405366894069687
20
13.277856761581418
10
50.804580894069687
20
13.624999761581416
10
51.196402894069678
20
13.624999761581416
10
51.196402894069678
20
13.348570761581421
10
50.933955894069683
20
13.348570761581421
10
50.723259894069685
20
13.165356761581414
10
50.723259894069685
20
11.847499761581414
10
50.948741894069691
20
11.651428761581414
10
51.196402894069664
20
11.651428761581414
10
51.196402894069678
20
11.374999761581414
0
LWPOLYLINE
5
149
100
AcDbEntity
8
0
100
AcDbPolyline
90
4
70
1
43
0.0
10
40.941348894069677
20
16.348570761581417
10
40.941348894069677
20
16.624999761581417
10
42.024402894069681
20
16.624999761581417
10
42.024402894069681
20
16.348570761581417
0
LWPOLYLINE
5
150
100
AcDbEntity
8
0
100
AcDbPolyline
90
4
70
1
43
0.0
10
40.941348894069677
20
-12.348571238418579
10
42.028098894069679
20
-12.348571238418579
10
42.028098894069679
20
-12.625000238418579
10
40.941348894069677
20
-12.625000238418579
0
LWPOLYLINE
5
151
100
AcDbEntity
8
0
100
AcDbPolyline
90
4
70
1
43
0.0
10
45.793491894069675
20
-10.375000238418579
10
45.793491894069675
20
-12.625000238418579
10
45.475598894069677
20
-12.625000238418579
10
45.475598894069677
20
-10.375000238418579
0
LWPOLYLINE
5
152
100
AcDbEntity
8
0
100
AcDbPolyline
90
4
70
1
43
0.0
10
40.793491894069682
20
-10.375000238418579
10
40.793491894069682
20
-12.625000238418579
10
40.471902894069686
20
-12.625000238418579
10
40.471902894069686
20
-10.375000238418579
0
LWPOLYLINE
5
153
100
AcDbEntity
8
0
100
AcDbPolyline
90
4
70
1
43
0.0
10
55.941348894069677
20
-7.6514292384185776
10
55.941348894069677
20
-7.37500023841858
10
57.020705894069685
20
-7.37500023841858
10
57.020705894069685
20
-7.6514292384185776
0
LWPOLYLINE
5
154
100
AcDbEntity
8
0
100
AcDbPolyline
90
4
70
1
43
0.0
10
43.555383894069678
20
-7.5357142384185778
10
43.688454894069686
20
-8.0532142384185796
10
43.30920189406968
20
-9.5060712384185795
10
43.189437894069684
20
-8.9660712384185786
0
LWPOLYLINE
5
155
100
AcDbEntity
8
0
100
AcDbPolyline
90
4
70
1
43
0.0
10
54.306313894069675
20
-9.6250002384185809
10
52.916455894069671
20
-7.3750002384185809
10
53.252830894069675
20
-7.37500023841858
10
54.642688894069678
20
-9.6250002384185809
0
LWPOLYLINE
5
156
100
AcDbEntity
8
0
100
AcDbPolyline
90
4
70
1
43
0.0
10
33.191839894069673
20
-10.375000238418579
10
33.191839894069673
20
-12.625000238418579
10
32.910911894069685
20
-12.625000238418579
10
32.910911894069685
20
-10.375000238418579
0
LWPOLYLINE
5
157
100
AcDbEntity
8
0
100
AcDbPolyline
90
4
70
1
43
0.0
10
40.941348894069677
20
-11.320000238418579
10
41.676938894069679
20
-11.320000238418579
10
41.676938894069679
20
-11.564286238418582
10
40.941348894069677
20
-11.564286238418582
0
LWPOLYLINE
5
158
100
AcDbEntity
8
0
100
AcDbPolyline
90
4
70
1
43
0.0
10
43.191839894069687
20
-10.375000238418579
10
43.191839894069673
20
-12.625000238418579
10
42.910911894069685
20
-12.625000238418579
10
42.910911894069685
20
-10.375000238418579
0
LWPOLYLINE
5
159
100
AcDbEntity
8
0
100
AcDbPolyline
90
4
70
1
43
0.0
10
53.441348894069677
20
-4.6514292384185811
10
53.441348894069677
20
-4.3750002384185809
10
54.524402894069688
20
-4.3750002384185809
10
54.524402894069688
20
-4.6514292384185811
0
LWPOLYLINE
5
160
100
AcDbEntity
8
0
100
AcDbPolyline
90
4
70
1
43
0.0
10
56.342411894069677
20
-6.0239292384185781
10
56.830339894069688
20
-4.3750002384185809
10
57.133446894069678
20
-4.3750002384185809
10
56.482875894069679
20
-6.49321423841858
0
LWPOLYLINE
5
161
100
AcDbEntity
8
0
100
AcDbPolyline
90
4
70
1
43
0.0
10
53.293491894069675
20
-4.3750002384185809
10
53.293491894069675
20
-6.62500023841858
10
52.975598894069677
20
-6.62500023841858
10
52.975598894069677
20
-4.3750002384185809
0
LWPOLYLINE
5
162
100
AcDbEntity
8
0
100
AcDbPolyline
90
4
70
1
43
0.0
10
38.589205894069678
20
-10.767143238418576
10
38.910795894069679
20
-10.767143238418576
10
38.910795894069679
20
-12.625000238418579
10
38.589205894069678
20
-12.625000238418579
0
LWPOLYLINE
5
163
100
AcDbEntity
8
0
100
AcDbPolyline
90
4
70
1
43
0.0
10
30.94134889406968
20
-9.3485712384185806
10
32.028098894069679
20
-9.3485712384185806
10
32.028098894069679
20
-9.6250002384185809
10
30.94134889406968
20
-9.6250002384185809
0
LWPOLYLINE
5
164
100
AcDbEntity
8
0
100
AcDbPolyline
90
4
70
1
43
0.0
10
50.941348894069677
20
-0.34857123841858045
10
52.028098894069679
20
-0.34857123841858045
10
52.028098894069679
20
-0.62500023841858066
10
50.941348894069677
20
-0.62500023841858066
0
LWPOLYLINE
5
165
100
AcDbEntity
8
0
100
AcDbPolyline
90
8
70
1
43
0.0
10
37.938634894069679
20
-9.6250002384185809
10
37.938634894069679
20
-7.3750002384185809
10
38.256527894069677
20
-7.37500023841858
10
38.256527894069677
20
-8.3296432384185763
10
39.091920894069681
20
-8.3296432384185763
10
39.091920894069681
20
-8.554643238418576
10
38.256527894069677
20
-8.554643238418576
10
38.256527894069677
20
-9.6250002384185791
0
LWPOLYLINE
5
166
100
AcDbEntity
8
0
100
AcDbPolyline
90
4
70
1
43
0.0
10
42.98483989406968
20
-0.22000023841857896
10
42.98483989406968
20
1.6249997615814193
10
43.30642989406968
20
1.6249997615814193
10
43.30642989406968
20
-0.22000023841857896
0
LWPOLYLINE
5
167
100
AcDbEntity
8
0
100
AcDbPolyline
90
4
70
1
43
0.0
10
48.842411894069677
20
-0.023929238418583521
10
49.330339894069688
20
1.6249997615814196
10
49.633446894069678
20
1.6249997615814196
10
48.982875894069679
20
-0.49321423841858253
0
LWPOLYLINE
5
168
100
AcDbEntity
8
0
100
AcDbPolyline
90
4
70
1
43
0.0
10
44.160304894069675
20
-11.821429238418579
10
44.160304894069675
20
-12.416071238418578
10
43.339696894069675
20
-11.014643238418579
10
43.339696894069675
20
-10.40714323841858
0
LWPOLYLINE
5
169
100
AcDbEntity
8
0
100
AcDbPolyline
90
12
70
1
43
0.0
10
59.250866894069688
20
-6.0785712384185784
10
59.250866894069674
20
-4.9117862384185784
10
58.95515289406967
20
-4.6514292384185811
10
58.40068889406966
20
-4.6514292384185811
10
58.400688894069681
20
-4.3750002384185809
10
59.069741894069679
20
-4.3750002384185809
10
59.568759894069686
20
-4.80892923841858
10
59.568759894069686
20
-6.1717862384185809
10
59.047563894069683
20
-6.62500023841858
10
58.400688894069681
20
-6.62500023841858
10
58.400688894069681
20
-6.3485712384185797
10
58.940366894069683
20
-6.3485712384185797
0
LWPOLYLINE
5
170
100
AcDbEntity
8
0
100
AcDbPolyline
90
4
70
1
43
0.0
10
48.441348894069677
20
-5.3682142384185809
10
49.27674189406968
20
-5.3682142384185809
10
49.27674189406968
20
-5.6125002384185807
10
48.441348894069677
20
-5.6125002384185807
0
LWPOLYLINE
5
171
100
AcDbEntity
8
0
100
AcDbPolyline
90
8
70
1
43
0.0
10
47.929393894069676
20
-8.8792862384185813
10
48.247286894069674
20
-8.8792862384185813
10
48.247286894069674
20
-9.1750002384185816
10
48.446893894069675
20
-9.3485712384185806
10
48.683464894069687
20
-9.3485712384185806
10
48.683464894069687
20
-9.6250002384185809
10
48.313821894069676
20
-9.6250002384185809
10
47.929393894069676
20
-9.2907142384185786
0
LWPOLYLINE
5
172
100
AcDbEntity
8
0
100
AcDbPolyline
90
4
70
1
43
0.0
10
54.308161894069684
20
-0.62500023841858066
10
54.308161894069684
20
1.6249997615814196
10
54.58908989406968
20
1.6249997615814196
10
54.58908989406968
20
-0.62500023841858066
0
LWPOLYLINE
5
173
100
AcDbEntity
8
0
100
AcDbPolyline
90
4
70
1
43
0.0
10
44.473576894069694
20
-8.9917862384185785
10
44.832869894069688
20
-7.37500023841858
10
45.099012894069674
20
-7.37500023841858
10
44.613301894069664
20
-9.5607142384185799
0
LWPOLYLINE
5
174
100
AcDbEntity
8
0
100
AcDbPolyline
90
4
70
1
43
0.0
10
40.941348894069677
20
0.67999976158141917
10
41.676938894069679
20
0.67999976158141928
10
41.676938894069679
20
0.43571376158141911
10
40.941348894069677
20
0.43571376158141911
0
LWPOLYLINE
5
175
100
AcDbEntity
8
0
100
AcDbPolyline
90
4
70
1
43
0.0
10
50.793491894069689
20
1.6249997615814196
10
50.793491894069675
20
-0.62500023841858066
10
50.471902894069686
20
-0.62500023841858066
10
50.471902894069686
20
1.6249997615814196
0
LWPOLYLINE
5
176
100
AcDbEntity
8
0
100
AcDbPolyline
90
4
70
1
43
0.0
10
54.160304894069697
20
0.17857076158141749
10
54.160304894069675
20
-0.41607123841857857
10
53.339696894069689
20
0.98535676158141872
10
53.339696894069689
20
1.5928567615814218
0
LWPOLYLINE
5
177
100
AcDbEntity
8
0
100
AcDbPolyline
90
4
70
1
43
0.0
10
55.793491894069675
20
1.6249997615814196
10
55.793491894069675
20
-0.62500023841858066
10
55.475598894069677
20
-0.62500023841858066
10
55.475598894069677
20
1.6249997615814196
0
LWPOLYLINE
5
178
100
AcDbEntity
8
0
100
AcDbPolyline
90
12
70
1
43
0.0
10
30.872964894069675
20
-3.6250002384185809
10
30.422000894069676
20
-3.232857238418581
10
30.422000894069683
20
-1.7510712384185811
10
30.850786894069682
20
-1.3750002384185811
10
31.205643894069681
20
-1.3750002384185811
10
31.205643894069681
20
-1.6546432384185816
10
30.976464894069675
20
-1.6546432384185816
10
30.739893894069674
20
-1.8603572384185807
10
30.739893894069681
20
-3.1332142384185806
10
30.987554894069682
20
-3.3485712384185806
10
31.205643894069681
20
-3.3485712384185806
10
31.205643894069681
20
-3.6250002384185809
0
LWPOLYLINE
5
179
100
AcDbEntity
8
0
100
AcDbPolyline
90
4
70
1
43
0.0
10
36.089205894069678
20
-1.7671432384185808
10
36.410795894069679
20
-1.7671432384185808
10
36.410795894069679
20
-3.6250002384185809
10
36.089205894069678
20
-3.6250002384185809
0
LWPOLYLINE
5
180
100
AcDbEntity
8
0
100
AcDbPolyline
90
8
70
1
43
0.0
10
31.353500894069679
20
-1.3750002384185811
10
31.712054894069681
20
-1.3750002384185811
10
32.078000894069675
20
-1.6932142384185822
10
32.078000894069675
20
-2.1271432384185789
10
31.756411894069679
20
-2.1271432384185789
10
31.756411894069679
20
-1.8153572384185834
10
31.571589894069678
20
-1.6546432384185816
10
31.353500894069679
20
-1.6546432384185816
0
LWPOLYLINE
5
181
100
AcDbEntity
8
0
100
AcDbPolyline
90
4
70
1
43
0.0
10
45.793491894069689
20
1.6249997615814193
10
45.793491894069675
20
-0.62500023841858099
10
45.471902894069686
20
-0.62500023841858099
10
45.471902894069686
20
1.6249997615814193
0
LWPOLYLINE
5
182
100
AcDbEntity
8
0
100
AcDbPolyline
90
4
70
1
43
0.0
10
42.98483989406968
20
-0.34857123841858073
10
44.515161894069678
20
-0.34857123841858073
10
44.515161894069678
20
-0.62500023841858099
10
42.98483989406968
20
-0.62500023841858099
0
LWPOLYLINE
5
183
100
AcDbEntity
8
0
100
AcDbPolyline
90
4
70
1
43
0.0
10
55.941348894069677
20
0.63178576158141764
10
56.77674189406968
20
0.63178576158141775
10
56.77674189406968
20
0.38749976158141963
10
55.941348894069677
20
0.38749976158141963
0
LWPOLYLINE
5
184
100
AcDbEntity
8
0
100
AcDbPolyline
90
4
70
1
43
0.0
10
53.191839894069673
20
1.6249997615814196
10
53.191839894069673
20
-0.62500023841858066
10
52.910911894069685
20
-0.62500023841858066
10
52.910911894069685
20
1.6249997615814196
0
LWPOLYLINE
5
185
100
AcDbEntity
8
0
100
AcDbPolyline
90
4
70
1
43
0.0
10
50.941348894069677
20
0.6799997615814195
10
51.676938894069679
20
0.67999976158141962
10
51.676938894069679
20
0.43571376158141939
10
50.941348894069677
20
0.43571376158141939
0
LWPOLYLINE
5
186
100
AcDbEntity
8
0
100
AcDbPolyline
90
4
70
1
43
0.0
10
50.793491894069689
20
16.624999761581417
10
50.793491894069675
20
14.374999761581417
10
50.471902894069686
20
14.374999761581417
10
50.471902894069686
20
16.624999761581417
0
LWPOLYLINE
5
187
100
AcDbEntity
8
0
100
AcDbPolyline
90
4
70
1
43
0.0
10
50.941348894069677
20
14.651428761581418
10
52.028098894069679
20
14.651428761581418
10
52.028098894069679
20
14.374999761581417
10
50.941348894069677
20
14.374999761581417
0
LWPOLYLINE
5
188
100
AcDbEntity
8
0
100
AcDbPolyline
90
4
70
1
43
0.0
10
50.941348894069677
20
15.679999761581417
10
51.676938894069679
20
15.679999761581417
10
51.676938894069679
20
15.43571376158142
10
50.941348894069677
20
15.43571376158142
0
LWPOLYLINE
5
189
100
AcDbEntity
8
0
100
AcDbPolyline
90
4
70
1
43
0.0
10
43.293491894069682
20
16.624999761581417
10
43.293491894069682
20
14.374999761581417
10
42.975598894069684
20
14.374999761581417
10
42.975598894069684
20
16.624999761581417
0
LWPOLYLINE
5
190
100
AcDbEntity
8
0
100
AcDbPolyline
90
4
70
1
43
0.0
10
43.589205894069678
20
7.2328567615814183
10
43.910795894069693
20
7.2328567615814183
10
43.910795894069693
20
5.3749997615814156
10
43.589205894069693
20
5.3749997615814156
0
LWPOLYLINE
5
191
100
AcDbEntity
8
0
100
AcDbPolyline
90
4
70
1
43
0.0
10
48.441348894069677
20
13.348570761581421
10
48.441348894069677
20
13.624999761581416
10
49.524402894069667
20
13.624999761581416
10
49.524402894069667
20
13.348570761581421
0
LWPOLYLINE
5
192
100
AcDbEntity
8
0
100
AcDbPolyline
90
4
70
1
43
0.0
10
31.556804894069678
20
3.2203567615814181
10
31.989286894069675
20
2.3749997615814182
10
31.65660789406968
20
2.3749997615814182
10
31.231518894069676
20
3.2203567615814181
0
LWPOLYLINE
5
193
100
AcDbEntity
8
0
100
AcDbPolyline
90
4
70
1
43
0.0
10
36.089205894069678
20
4.2328567615814165
10
36.410795894069679
20
4.2328567615814165
10
36.410795894069679
20
2.3749997615814187
10
36.089205894069678
20
2.3749997615814182
0
LWPOLYLINE
5
194
100
AcDbEntity
8
0
100
AcDbPolyline
90
4
70
1
43
0.0
10
38.589205894069678
20
4.2328567615814165
10
38.910795894069679
20
4.2328567615814165
10
38.910795894069679
20
2.3749997615814187
10
38.589205894069678
20
2.3749997615814187
0
LWPOLYLINE
5
195
100
AcDbEntity
8
0
100
AcDbPolyline
90
8
70
1
43
0.0
10
37.938634894069679
20
11.374999761581414
10
37.938634894069679
20
13.624999761581416
10
38.256527894069677
20
13.624999761581416
10
38.256527894069677
20
12.670356761581413
10
39.091920894069681
20
12.670356761581413
10
39.091920894069681
20
12.445356761581419
10
38.256527894069677
20
12.445356761581419
10
38.256527894069677
20
11.374999761581414
0
LWPOLYLINE
5
196
100
AcDbEntity
8
0
100
AcDbPolyline
90
12
70
1
43
0.0
10
51.776741894069659
20
11.847499761581414
10
51.77674189406968
20
13.165356761581414
10
51.566045894069688
20
13.348570761581421
10
51.344259894069694
20
13.348570761581421
10
51.344259894069694
20
13.624999761581416
10
51.695420894069684
20
13.624999761581416
10
52.094634894069678
20
13.277856761581418
10
52.094634894069678
20
11.738213761581417
10
51.676938894069679
20
11.374999761581414
10
51.344259894069673
20
11.374999761581414
10
51.344259894069694
20
11.651428761581414
10
51.551259894069688
20
11.651428761581414
0
LWPOLYLINE
5
197
100
AcDbEntity
8
0
100
AcDbPolyline
90
12
70
1
43
0.0
10
41.77674189406968
20
11.847499761581414
10
41.77674189406968
20
13.165356761581414
10
41.566045894069681
20
13.348570761581421
10
41.34425989406968
20
13.348570761581421
10
41.34425989406968
20
13.624999761581416
10
41.695420894069677
20
13.624999761581416
10
42.094634894069678
20
13.277856761581418
10
42.094634894069678
20
11.738213761581417
10
41.676937894069681
20
11.374999761581414
10
41.34425989406968
20
11.374999761581414
10
41.34425989406968
20
11.651428761581414
10
41.55125989406968
20
11.651428761581414
0
LWPOLYLINE
5
198
100
AcDbEntity
8
0
100
AcDbPolyline
90
4
70
1
43
0.0
10
46.996863894069691
20
5.3749997615814156
10
46.734047894069676
20
5.3749997615814156
10
46.151860894069685
20
7.6249997615814173
10
46.421329894069686
20
7.6249997615814173
0
LWPOLYLINE
5
199
100
AcDbEntity
8
0
100
AcDbPolyline
90
4
70
1
43
0.0
10
36.996863894069676
20
11.374999761581414
10
36.734047894069676
20
11.374999761581414
10
36.151860894069685
20
13.624999761581416
10
36.421329894069679
20
13.624999761581416
0
LWPOLYLINE
5
200
100
AcDbEntity
8
0
100
AcDbPolyline
90
12
70
1
43
0.0
10
40.823062894069686
20
11.374999761581414
10
40.405366894069687
20
11.738213761581417
10
40.405366894069687
20
13.277856761581418
10
40.80458089406968
20
13.624999761581416
10
41.196402894069678
20
13.624999761581416
10
41.196402894069678
20
13.348570761581421
10
40.933955894069683
20
13.348570761581421
10
40.723259894069685
20
13.165356761581414
10
40.723259894069685
20
11.847499761581414
10
40.948741894069684
20
11.651428761581414
10
41.196402894069678
20
11.651428761581414
10
41.196402894069678
20
11.374999761581414
0
LWPOLYLINE
5
201
100
AcDbEntity
8
0
100
AcDbPolyline
90
6
70
1
43
0.0
10
41.087357894069676
20
3.2846427615814191
10
40.422000894069676
20
4.6249997615814191
10
40.758375894069673
20
4.6249997615814191
10
41.408946894069672
20
3.2524997615814213
10
41.408946894069686
20
2.3749997615814191
10
41.087357894069683
20
2.3749997615814187
0
LWPOLYLINE
5
202
100
AcDbEntity
8
0
100
AcDbPolyline
90
5
70
1
43
0.0
10
49.613116894069677
20
14.641785761581412
10
49.613116894069677
20
14.374999761581417
10
47.886884894069667
20
14.374999761581417
10
47.886884894069667
20
14.603213761581419
10
47.91275989406968
20
14.641785761581412
0
LWPOLYLINE
5
203
100
AcDbEntity
8
0
100
AcDbPolyline
90
4
70
1
43
0.0
10
58.252830894069675
20
7.6249997615814173
10
58.252830894069675
20
5.3749997615814173
10
57.931241894069672
20
5.3749997615814173
10
57.931241894069672
20
7.6249997615814173
0
LWPOLYLINE
5
204
100
AcDbEntity
8
0
100
AcDbPolyline
90
4
70
1
43
0.0
10
46.462545894069684
20
13.624999761581416
10
47.135295894069685
20
11.374999761581414
10
46.802616894069686
20
11.374999761581414
10
46.11877789406968
20
13.624999761581416
0
LWPOLYLINE
5
205
100
AcDbEntity
8
0
100
AcDbPolyline
90
4
70
1
43
0.0
10
50.691839894069673
20
4.6249997615814191
10
50.691839894069673
20
2.3749997615814191
10
50.410911894069685
20
2.3749997615814191
10
50.410911894069685
20
4.6249997615814191
0
LWPOLYLINE
5
206
100
AcDbEntity
8
0
100
AcDbPolyline
90
4
70
1
43
0.0
10
48.293491894069689
20
7.6249997615814173
10
48.293491894069675
20
5.3749997615814156
10
47.971902894069686
20
5.3749997615814156
10
47.971902894069686
20
7.6249997615814173
0
LWPOLYLINE
5
207
100
AcDbEntity
8
0
100
AcDbPolyline
90
4
70
1
43
0.0
10
48.005170894069678
20
14.770356761581422
10
49.069741894069679
20
16.229642761581413
10
49.476348894069687
20
16.229642761581413
10
48.411777894069687
20
14.770356761581422
0
LWPOLYLINE
5
208
100
AcDbEntity
8
0
100
AcDbPolyline
90
4
70
1
43
0.0
10
37.872098894069673
20
4.3614287615814211
10
37.87209889406968
20
4.6249997615814191
10
39.627902894069678
20
4.6249997615814191
10
39.627902894069678
20
4.3614287615814211
0
LWPOLYLINE
5
209
100
AcDbEntity
8
0
100
AcDbPolyline
90
4
70
1
43
0.0
10
56.349804894069692
20
6.7282137615814204
10
56.774893894069685
20
7.6249997615814173
10
57.078000894069675
20
7.6249997615814173
10
56.486571894069684
20
6.438928761581419
0
LWPOLYLINE
5
210
100
AcDbEntity
8
0
100
AcDbPolyline
90
4
70
1
43
0.0
10
51.660304894069697
20
3.1785707615814154
10
51.660304894069675
20
2.5839287615814213
10
50.839696894069689
20
3.9853567615814214
10
50.839696894069689
20
4.5928567615814213
0
LWPOLYLINE
5
211
100
AcDbEntity
8
0
100
AcDbPolyline
90
4
70
1
43
0.0
10
48.589205894069693
20
2.3749997615814191
10
48.589205894069693
20
4.6249997615814191
10
48.910795894069693
20
4.6249997615814191
10
48.910795894069693
20
2.3749997615814191
0
LWPOLYLINE
5
212
100
AcDbEntity
8
0
100
AcDbPolyline
90
4
70
1
43
0.0
10
48.441348894069677
20
6.6799997615814171
10
49.176938894069679
20
6.6799997615814171
10
49.176938894069679
20
6.4357137615814182
10
48.441348894069677
20
6.4357137615814182
0
LWPOLYLINE
5
213
100
AcDbEntity
8
0
100
AcDbPolyline
90
4
70
1
43
0.0
10
48.293491894069675
20
13.624999761581416
10
48.293491894069675
20
11.374999761581414
10
47.975598894069677
20
11.374999761581414
10
47.975598894069677
20
13.624999761581416
0
LWPOLYLINE
5
214
100
AcDbEntity
8
0
100
AcDbPolyline
90
4
70
1
43
0.0
10
51.808161894069684
20
5.3749997615814156
10
51.808161894069684
20
7.6249997615814173
10
52.08908989406968
20
7.6249997615814173
10
52.08908989406968
20
5.3749997615814156
0
LWPOLYLINE
5
215
100
AcDbEntity
8
0
100
AcDbPolyline
90
4
70
1
43
0.0
10
30.780554894069674
20
4.6249997615814191
10
30.780554894069681
20
2.3749997615814182
10
30.462661894069676
20
2.3749997615814182
10
30.462661894069676
20
4.6249997615814191
0
LWPOLYLINE
5
216
100
AcDbEntity
8
0
100
AcDbPolyline
90
4
70
1
43
0.0
10
30.793491894069682
20
13.624999761581416
10
30.793491894069682
20
11.374999761581414
10
30.471902894069682
20
11.374999761581414
10
30.471902894069682
20
13.624999761581416
0
LWPOLYLINE
5
217
100
AcDbEntity
8
0
100
AcDbPolyline
90
12
70
1
43
0.0
10
45.860027894069688
20
14.374999761581417
10
45.405366894069665
20
14.770356761581422
10
45.405366894069687
20
16.248928761581411
10
45.837848894069694
20
16.624999761581417
10
46.177920894069686
20
16.624999761581417
10
46.177920894069686
20
16.348570761581417
10
45.959830894069697
20
16.348570761581417
10
45.723259894069685
20
16.142856761581417
10
45.723259894069685
20
14.866785761581415
10
45.970920894069693
20
14.651428761581418
10
46.177920894069686
20
14.651428761581418
10
46.177920894069686
20
14.374999761581417
0
LWPOLYLINE
5
218
100
AcDbEntity
8
0
100
AcDbPolyline
90
4
70
1
43
0.0
10
46.808161894069684
20
2.3749997615814191
10
46.808161894069684
20
4.6249997615814191
10
47.08908989406968
20
4.6249997615814191
10
47.08908989406968
20
2.3749997615814191
0
LWPOLYLINE
5
219
100
AcDbEntity
8
0
100
AcDbPolyline
90
4
70
1
43
0.0
10
36.973576894069673
20
12.00821376158142
10
37.332869894069688
20
13.624999761581416
10
37.599012894069681
20
13.624999761581416
10
37.113301894069679
20
11.439285761581415
0
LWPOLYLINE
5
220
100
AcDbEntity
8
0
100
AcDbPolyline
90
4
70
1
43
0.0
10
35.372098894069673
20
4.3614287615814211
10
35.37209889406968
20
4.6249997615814191
10
37.127902894069678
20
4.6249997615814191
10
37.127902894069678
20
4.3614287615814211
0
LWPOLYLINE
5
221
100
AcDbEntity
8
0
100
AcDbPolyline
90
4
70
1
43
0.0
10
53.589205894069693
20
7.2328567615814183
10
53.910795894069693
20
7.2328567615814183
10
53.910795894069693
20
5.3749997615814173
10
53.589205894069693
20
5.3749997615814156
0
LWPOLYLINE
5
222
100
AcDbEntity
8
0
100
AcDbPolyline
90
4
70
1
43
0.0
10
45.38337289406968
20
5.3749997615814156
10
44.90098889406967
20
7.6249997615814173
10
45.180438894069681
20
7.6249997615814173
10
45.699417894069683
20
5.3749997615814156
0
LWPOLYLINE
5
223
100
AcDbEntity
8
0
100
AcDbPolyline
90
4
70
1
43
0.0
10
41.349804894069692
20
3.7282137615814186
10
41.774893894069677
20
4.6249997615814191
10
42.078000894069675
20
4.6249997615814191
10
41.486571894069684
20
3.4389287615814226
0
LWPOLYLINE
5
224
100
AcDbEntity
8
0
100
AcDbPolyline
90
4
70
1
43
0.0
10
30.94134889406968
20
12.679999761581415
10
31.676938894069686
20
12.679999761581415
10
31.676938894069675
20
12.435713761581418
10
30.941348894069669
20
12.435713761581418
0
LWPOLYLINE
5
225
100
AcDbEntity
8
0
100
AcDbPolyline
90
4
70
1
43
0.0
10
33.293491894069682
20
4.6249997615814191
10
33.293491894069682
20
2.3749997615814182
10
32.971902894069686
20
2.3749997615814182
10
32.971902894069686
20
4.6249997615814191
0
LWPOLYLINE
5
226
100
AcDbEntity
8
0
100
AcDbPolyline
90
8
70
1
43
0.0
10
57.938634894069679
20
14.374999761581417
10
57.938634894069679
20
16.624999761581417
10
58.256527894069677
20
16.624999761581417
10
58.256527894069677
20
15.67035676158142
10
59.091920894069681
20
15.67035676158142
10
59.091920894069681
20
15.445356761581417
10
58.256527894069677
20
15.445356761581417
10
58.256527894069677
20
14.374999761581417
0
LWPOLYLINE
5
227
100
AcDbEntity
8
0
100
AcDbPolyline
90
12
70
1
43
0.0
10
56.77674189406968
20
14.847499761581414
10
56.77674189406968
20
16.165356761581418
10
56.566045894069688
20
16.348570761581417
10
56.344259894069694
20
16.348570761581417
10
56.344259894069694
20
16.624999761581417
10
56.695420894069684
20
16.624999761581417
10
57.094634894069699
20
16.277856761581411
10
57.094634894069678
20
14.738213761581417
10
56.676938894069679
20
14.374999761581417
10
56.344259894069673
20
14.374999761581417
10
56.344259894069694
20
14.651428761581418
10
56.551259894069688
20
14.651428761581418
0
LWPOLYLINE
5
228
100
AcDbEntity
8
0
100
AcDbPolyline
90
4
70
1
43
0.0
10
43.849804894069692
20
3.7282137615814186
10
44.274893894069685
20
4.6249997615814191
10
44.578000894069675
20
4.6249997615814191
10
43.986571894069684
20
3.4389287615814226
0
LWPOLYLINE
5
229
100
AcDbEntity
8
0
100
AcDbPolyline
90
12
70
1
43
0.0
10
54.219446894069691
20
15.753928761581415
10
54.219446894069691
20
16.184642761581415
10
54.034625894069691
20
16.345356761581414
10
53.428411894069683
20
16.345356761581414
10
53.428411894069683
20
16.624999761581417
10
54.175089894069686
20
16.624999761581417
10
54.537339894069689
20
16.306785761581413
10
54.537339894069689
20
15.654285761581415
10
54.186179894069681
20
15.348928761581412
10
53.428411894069683
20
15.348928761581412
10
53.428411894069683
20
15.593213761581421
10
54.034625894069691
20
15.593213761581421
0
LWPOLYLINE
5
230
100
AcDbEntity
8
0
100
AcDbPolyline
90
4
70
1
43
0.0
10
42.87209889406968
20
7.3614287615814185
10
42.87209889406968
20
7.6249997615814173
10
44.627902894069678
20
7.6249997615814173
10
44.627902894069678
20
7.3614287615814185
0
LWPOLYLINE
5
231
100
AcDbEntity
8
0
100
AcDbPolyline
90
4
70
1
43
0.0
10
38.589205894069678
20
8.3749997615814191
10
38.589205894069678
20
10.624999761581417
10
38.910795894069679
20
10.624999761581417
10
38.910795894069679
20
8.3749997615814191
0
LWPOLYLINE
5
232
100
AcDbEntity
8
0
100
AcDbPolyline
90
4
70
1
43
0.0
10
36.660304894069675
20
6.1785707615814172
10
36.660304894069675
20
5.5839287615814186
10
35.839696894069675
20
6.9853567615814178
10
35.839696894069675
20
7.5928567615814195
0
LWPOLYLINE
5
233
100
AcDbEntity
8
0
100
AcDbPolyline
90
8
70
1
43
0.0
10
56.353500894069683
20
10.624999761581417
10
56.712054894069666
20
10.624999761581417
10
57.078000894069675
20
10.306785761581416
10
57.078000894069675
20
9.8728567615814153
10
56.756411894069686
20
9.8728567615814153
10
56.756411894069686
20
10.184642761581415
10
56.571589894069696
20
10.345356761581414
10
56.353500894069683
20
10.345356761581414
0
LWPOLYLINE
5
234
100
AcDbEntity
8
0
100
AcDbPolyline
90
4
70
1
43
0.0
10
58.441348894069677
20
10.348570761581421
10
58.441348894069677
20
10.624999761581417
10
59.520705894069685
20
10.624999761581417
10
59.520705894069685
20
10.348570761581421
0
LWPOLYLINE
5
235
100
AcDbEntity
8
0
100
AcDbPolyline
90
4
70
1
43
0.0
10
40.780554894069674
20
10.624999761581417
10
40.780554894069674
20
8.3749997615814191
10
40.462661894069676
20
8.3749997615814191
10
40.462661894069676
20
10.624999761581417
0
LWPOLYLINE
5
236
100
AcDbEntity
8
0
100
AcDbPolyline
90
8
70
1
43
0.0
10
47.938634894069679
20
8.3749997615814191
10
47.938634894069679
20
10.624999761581417
10
48.256527894069677
20
10.624999761581417
10
48.256527894069677
20
9.6703567615814165
10
49.091920894069681
20
9.6703567615814165
10
49.091920894069681
20
9.4453567615814169
10
48.256527894069677
20
9.4453567615814169
10
48.256527894069677
20
8.3749997615814191
0
LWPOLYLINE
5
237
100
AcDbEntity
8
0
100
AcDbPolyline
90
4
70
1
43
0.0
10
51.089205894069693
20
8.3749997615814191
10
51.089205894069693
20
10.624999761581417
10
51.410795894069693
20
10.624999761581417
10
51.410795894069693
20
8.3749997615814191
0
LWPOLYLINE
5
238
100
AcDbEntity
8
0
100
AcDbPolyline
90
8
70
1
43
0.0
10
57.078000894069675
20
9.1785707615814189
10
57.078000894069675
20
8.7092857615814161
10
56.689875894069687
20
8.3749997615814191
10
56.353500894069683
20
8.3749997615814191
10
56.353500894069683
20
8.6514287615814141
10
56.560500894069676
20
8.6514287615814141
10
56.756411894069672
20
8.8217857615814204
10
56.756411894069686
20
9.1785707615814189
0
LWPOLYLINE
5
239
100
AcDbEntity
8
0
100
AcDbPolyline
90
4
70
1
43
0.0
10
43.293491894069682
20
10.624999761581417
10
43.293491894069682
20
8.3749997615814191
10
42.975598894069684
20
8.3749997615814191
10
42.975598894069684
20
10.624999761581417
0
LWPOLYLINE
5
240
100
AcDbEntity
8
0
100
AcDbPolyline
90
4
70
1
43
0.0
10
48.441348894069677
20
7.3485707615814171
10
48.441348894069677
20
7.6249997615814173
10
49.520705894069685
20
7.6249997615814173
10
49.520705894069685
20
7.3485707615814171
0
LWPOLYLINE
5
241
100
AcDbEntity
8
0
100
AcDbPolyline
90
6
70
1
43
0.0
10
56.087357894069676
20
6.2846427615814164
10
55.422000894069683
20
7.6249997615814173
10
55.758375894069673
20
7.6249997615814173
10
56.408946894069686
20
6.2524997615814186
10
56.408946894069686
20
5.3749997615814173
10
56.087357894069676
20
5.3749997615814173
0
LWPOLYLINE
5
242
100
AcDbEntity
8
0
100
AcDbPolyline
90
4
70
1
43
0.0
10
53.280554894069695
20
10.624999761581417
10
53.280554894069695
20
8.3749997615814191
10
52.962661894069676
20
8.3749997615814191
10
52.962661894069676
20
10.624999761581417
0
LWPOLYLINE
5
243
100
AcDbEntity
8
0
100
AcDbPolyline
90
4
70
1
43
0.0
10
33.441348894069677
20
3.6799997615814184
10
34.176938894069686
20
3.6799997615814184
10
34.176938894069679
20
3.4357137615814208
10
33.441348894069669
20
3.4357137615814208
0
LWPOLYLINE
5
244
100
AcDbEntity
8
0
100
AcDbPolyline
90
4
70
1
43
0.0
10
43.441348894069677
20
9.6317857615814138
10
44.27674189406968
20
9.6317857615814138
10
44.27674189406968
20
9.3874997615814166
10
43.441348894069677
20
9.3874997615814166
0
LWPOLYLINE
5
245
100
AcDbEntity
8
0
100
AcDbPolyline
90
4
70
1
43
0.0
10
45.691839894069673
20
4.6249997615814191
10
45.691839894069673
20
2.3749997615814191
10
45.410911894069685
20
2.3749997615814191
10
45.410911894069685
20
4.6249997615814191
0
LWPOLYLINE
5
246
100
AcDbEntity
8
0
100
AcDbPolyline
90
4
70
1
43
0.0
10
35.691839894069673
20
7.6249997615814173
10
35.691839894069673
20
5.3749997615814156
10
35.410911894069685
20
5.3749997615814156
10
35.410911894069685
20
7.6249997615814173
0
LWPOLYLINE
5
247
100
AcDbEntity
8
0
100
AcDbPolyline
90
12
70
1
43
0.0
10
55.872964894069668
20
8.3749997615814191
10
55.422000894069683
20
8.7671427615814217
10
55.422000894069683
20
10.248928761581414
10
55.850786894069685
20
10.624999761581417
10
56.205643894069667
20
10.624999761581417
10
56.205643894069667
20
10.345356761581414
10
55.976464894069679
20
10.345356761581414
10
55.739893894069681
20
10.139642761581417
10
55.739893894069681
20
8.8667857615814167
10
55.987554894069675
20
8.6514287615814141
10
56.205643894069667
20
8.6514287615814141
10
56.205643894069667
20
8.3749997615814191
0
LWPOLYLINE
5
248
100
AcDbEntity
8
0
100
AcDbPolyline
90
4
70
1
43
0.0
10
32.872098894069673
20
7.3614287615814185
10
32.87209889406968
20
7.6249997615814173
10
34.627902894069678
20
7.6249997615814173
10
34.627902894069678
20
7.3614287615814185
0
LWPOLYLINE
5
249
100
AcDbEntity
8
0
100
AcDbPolyline
90
4
70
1
43
0.0
10
33.441348894069677
20
2.6514287615814185
10
34.528098894069679
20
2.6514287615814185
10
34.528098894069679
20
2.3749997615814182
10
33.441348894069677
20
2.3749997615814182
0
LWPOLYLINE
5
250
100
AcDbEntity
8
0
100
AcDbPolyline
90
4
70
1
43
0.0
10
46.089205894069693
20
10.232856761581415
10
46.410795894069693
20
10.232856761581415
10
46.410795894069693
20
8.3749997615814191
10
46.089205894069693
20
8.3749997615814191
0
LWPOLYLINE
5
251
100
AcDbEntity
8
0
100
AcDbPolyline
90
4
70
1
43
0.0
10
52.87209889406968
20
7.3614287615814185
10
52.87209889406968
20
7.6249997615814173
10
54.627902894069678
20
7.6249997615814173
10
54.627902894069678
20
7.3614287615814185
0
LWPOLYLINE
5
252
100
AcDbEntity
8
0
100
AcDbPolyline
90
12
70
1
43
0.0
10
41.719446894069677
20
9.753928761581415
10
41.719446894069677
20
10.184642761581415
10
41.534625894069677
20
10.345356761581414
10
40.928411894069683
20
10.345356761581414
10
40.928411894069683
20
10.624999761581417
10
41.675089894069686
20
10.624999761581417
10
42.037339894069689
20
10.306785761581416
10
42.037339894069689
20
9.6542857615814146
10
41.686179894069681
20
9.3489287615814174
10
40.928411894069683
20
9.3489287615814174
10
40.928411894069683
20
9.593213761581417
10
41.534625894069677
20
9.593213761581417
0
LWPOLYLINE
5
253
100
AcDbEntity
8
0
100
AcDbPolyline
90
4
70
1
43
0.0
10
46.973576894069694
20
6.0082137615814197
10
47.332869894069688
20
7.6249997615814173
10
47.599012894069674
20
7.6249997615814173
10
47.113301894069664
20
5.4392857615814165
0
LWPOLYLINE
5
254
100
AcDbEntity
8
0
100
AcDbPolyline
90
4
70
1
43
0.0
10
33.441348894069677
20
9.6317857615814138
10
34.27674189406968
20
9.6317857615814138
10
34.27674189406968
20
9.3874997615814166
10
33.441348894069677
20
9.3874997615814166
0
LWPOLYLINE
5
255
100
AcDbEntity
8
0
100
AcDbPolyline
90
4
70
1
43
0.0
10
38.280554894069674
20
7.6249997615814173
10
38.280554894069674
20
5.3749997615814156
10
37.962661894069676
20
5.3749997615814156
10
37.962661894069676
20
7.6249997615814173
0
LWPOLYLINE
5
256
100
AcDbEntity
8
0
100
AcDbPolyline
90
4
70
1
43
0.0
10
41.556804894069678
20
9.2203567615814173
10
41.989286894069686
20
8.3749997615814191
10
41.65660789406968
20
8.3749997615814191
10
41.23151889406968
20
9.2203567615814173
0
LWPOLYLINE
5
257
100
AcDbEntity
8
0
100
AcDbPolyline
90
4
70
1
43
0.0
10
33.589205894069678
20
7.2328567615814183
10
33.910795894069679
20
7.2328567615814183
10
33.910795894069679
20
5.3749997615814156
10
33.589205894069678
20
5.3749997615814156
0
LWPOLYLINE
5
258
100
AcDbEntity
8
0
100
AcDbPolyline
90
6
70
1
43
0.0
10
43.587357894069676
20
3.2846427615814191
10
42.922000894069676
20
4.6249997615814191
10
43.258375894069673
20
4.6249997615814191
10
43.908946894069686
20
3.2524997615814213
10
43.908946894069686
20
2.3749997615814191
10
43.587357894069683
20
2.3749997615814191
0
LWPOLYLINE
5
259
100
AcDbEntity
8
0
100
AcDbPolyline
90
4
70
1
43
0.0
10
46.660304894069697
20
3.1785707615814154
10
46.660304894069675
20
2.5839287615814213
10
45.839696894069689
20
3.9853567615814205
10
45.839696894069689
20
4.5928567615814213
0
LWPOLYLINE
5
260
100
AcDbEntity
8
0
100
AcDbPolyline
90
12
70
1
43
0.0
10
31.787830894069682
20
5.3749997615814156
10
31.787830894069682
20
5.628928761581415
10
31.495813894069677
20
5.3749997615814156
10
31.325777894069677
20
5.3749997615814156
10
31.325777894069677
20
5.6514287615814158
10
31.503205894069673
20
5.6514287615814158
10
31.77674189406968
20
5.8892857615814158
10
31.77674189406968
20
6.3714287615814165
10
31.325777894069677
20
6.3714287615814165
10
31.325777894069677
20
6.5674997615814164
10
32.094634894069678
20
6.5674997615814164
10
32.094634894069678
20
5.3749997615814156
0
LWPOLYLINE
5
261
100
AcDbEntity
8
0
100
AcDbPolyline
90
4
70
1
43
0.0
10
51.660304894069697
20
6.1785707615814172
10
51.660304894069675
20
5.5839287615814186
10
50.839696894069689
20
6.9853567615814178
10
50.839696894069689
20
7.5928567615814195
0
LWPOLYLINE
5
262
100
AcDbEntity
8
0
100
AcDbPolyline
90
4
70
1
43
0.0
10
39.056804894069678
20
6.2203567615814208
10
39.489286894069679
20
5.3749997615814156
10
39.15660789406968
20
5.3749997615814156
10
38.73151889406968
20
6.2203567615814208
0
LWPOLYLINE
5
263
100
AcDbEntity
8
0
100
AcDbPolyline
90
12
70
1
43
0.0
10
54.219446894069691
20
9.753928761581415
10
54.219446894069691
20
10.184642761581415
10
54.034625894069691
20
10.345356761581414
10
53.428411894069683
20
10.345356761581414
10
53.428411894069683
20
10.624999761581417
10
54.175089894069686
20
10.624999761581417
10
54.537339894069689
20
10.306785761581416
10
54.537339894069689
20
9.6542857615814146
10
54.186179894069681
20
9.3489287615814174
10
53.428411894069683
20
9.3489287615814174
10
53.428411894069683
20
9.593213761581417
10
54.034625894069691
20
9.593213761581417
0
LWPOLYLINE
5
264
100
AcDbEntity
8
0
100
AcDbPolyline
90
4
70
1
43
0.0
10
45.37209889406968
20
10.361428761581415
10
45.37209889406968
20
10.624999761581417
10
47.127902894069678
20
10.624999761581417
10
47.127902894069678
20
10.361428761581415
0
LWPOLYLINE
5
265
100
AcDbEntity
8
0
100
AcDbPolyline
90
4
70
1
43
0.0
10
38.589205894069678
20
16.23285676158142
10
38.910795894069679
20
16.23285676158142
10
38.910795894069679
20
14.374999761581417
10
38.589205894069678
20
14.374999761581417
0
LWPOLYLINE
5
266
100
AcDbEntity
8
0
100
AcDbPolyline
90
4
70
1
43
0.0
10
53.280554894069695
20
16.624999761581417
10
53.280554894069695
20
14.374999761581417
10
52.962661894069676
20
14.374999761581417
10
52.962661894069676
20
16.624999761581417
0
LWPOLYLINE
5
267
100
AcDbEntity
8
0
100
AcDbPolyline
90
4
70
1
43
0.0
10
59.239777894069675
20
14.374999761581417
10
59.239777894069675
20
16.624999761581417
10
59.561366894069678
20
16.624999761581417
10
59.561366894069678
20
14.374999761581417
0
LWPOLYLINE
5
268
100
AcDbEntity
8
0
100
AcDbPolyline
90
12
70
1
43
0.0
10
55.823063894069676
20
14.374999761581417
10
55.405366894069687
20
14.738213761581417
10
55.405366894069687
20
16.277856761581411
10
55.804580894069687
20
16.624999761581417
10
56.196402894069678
20
16.624999761581417
10
56.196402894069678
20
16.348570761581417
10
55.933955894069683
20
16.348570761581417
10
55.723259894069685
20
16.165356761581418
10
55.723259894069685
20
14.847499761581414
10
55.94874189406967
20
14.651428761581418
10
56.196402894069678
20
14.651428761581418
10
56.196402894069678
20
14.374999761581417
0
LWPOLYLINE
5
269
100
AcDbEntity
8
0
100
AcDbPolyline
90
4
70
1
43
0.0
10
33.589205894069678
20
11.374999761581414
10
33.589205894069678
20
13.624999761581416
10
33.910795894069679
20
13.624999761581416
10
33.910795894069679
20
11.374999761581414
0
LWPOLYLINE
5
270
100
AcDbEntity
8
0
100
AcDbPolyline
90
8
70
1
43
0.0
10
46.325777894069674
20
16.624999761581417
10
46.728688894069691
20
16.624999761581417
10
47.094634894069678
20
16.306785761581413
10
47.094634894069678
20
15.908213761581415
10
46.77674189406968
20
15.908213761581415
10
46.77674189406968
20
16.184642761581415
10
46.591920894069681
20
16.348570761581417
10
46.325777894069674
20
16.348570761581417
0
LWPOLYLINE
5
271
100
AcDbEntity
8
0
100
AcDbPolyline
90
12
70
1
43
0.0
10
46.787830894069685
20
14.374999761581417
10
46.787830894069685
20
14.628928761581417
10
46.495813894069684
20
14.374999761581417
10
46.325777894069674
20
14.374999761581417
10
46.325777894069674
20
14.651428761581418
10
46.50320589406968
20
14.651428761581418
10
46.77674189406968
20
14.889285761581416
10
46.77674189406968
20
15.371428761581413
10
46.325777894069674
20
15.371428761581413
10
46.325777894069674
20
15.567499761581418
10
47.094634894069678
20
15.567499761581418
10
47.094634894069678
20
14.374999761581417
0
LWPOLYLINE
5
272
100
AcDbEntity
8
0
100
AcDbPolyline
90
4
70
1
43
0.0
10
40.941348894069677
20
15.631785761581414
10
41.77674189406968
20
15.631785761581414
10
41.77674189406968
20
15.38749976158142
10
40.941348894069677
20
15.38749976158142
0
LWPOLYLINE
5
273
100
AcDbEntity
8
0
100
AcDbPolyline
90
4
70
1
43
0.0
10
30.372098894069673
20
16.361428761581415
10
30.372098894069673
20
16.624999761581417
10
32.127902894069678
20
16.624999761581417
10
32.127902894069678
20
16.361428761581415
0
LWPOLYLINE
5
274
100
AcDbEntity
8
0
100
AcDbPolyline
90
4
70
1
43
0.0
10
46.055383894069678
20
7.4642857615814169
10
46.188454894069686
20
6.9467857615814204
10
45.809201894069687
20
5.4939287615814187
10
45.689437894069691
20
6.0339287615814179
0
LWPOLYLINE
5
275
100
AcDbEntity
8
0
100
AcDbPolyline
90
4
70
1
43
0.0
10
43.441348894069677
20
15.631785761581414
10
44.27674189406968
20
15.631785761581414
10
44.27674189406968
20
15.38749976158142
10
43.441348894069677
20
15.38749976158142
0
LWPOLYLINE
5
276
100
AcDbEntity
8
0
100
AcDbPolyline
90
4
70
1
43
0.0
10
33.441348894069677
20
4.3485707615814189
10
33.441348894069677
20
4.6249997615814191
10
34.520705894069678
20
4.6249997615814191
10
34.520705894069678
20
4.3485707615814189
0
LWPOLYLINE
5
277
100
AcDbEntity
8
0
100
AcDbPolyline
90
4
70
1
43
0.0
10
50.941348894069677
20
16.348570761581417
10
50.941348894069677
20
16.624999761581417
10
52.020705894069685
20
16.624999761581417
10
52.020705894069685
20
16.348570761581417
0
LWPOLYLINE
5
278
100
AcDbEntity
8
0
100
AcDbPolyline
90
4
70
1
43
0.0
10
48.441348894069677
20
5.6514287615814158
10
49.528098894069679
20
5.6514287615814158
10
49.528098894069679
20
5.3749997615814156
10
48.441348894069677
20
5.3749997615814156
0
LWPOLYLINE
5
279
100
AcDbEntity
8
0
100
AcDbPolyline
90
4
70
1
43
0.0
10
51.808161894069684
20
2.3749997615814191
10
51.808161894069684
20
4.6249997615814191
10
52.08908989406968
20
4.6249997615814191
10
52.08908989406968
20
2.3749997615814191
0
LWPOLYLINE
5
280
100
AcDbEntity
8
0
100
AcDbPolyline
90
4
70
1
43
0.0
10
34.160304894069675
20
-2.8214292384185802
10
34.160304894069675
20
-3.4160712384185787
10
33.339696894069675
20
-2.0146432384185795
10
33.339696894069675
20
-1.4071432384185789
0
LWPOLYLINE
5
281
100
AcDbEntity
8
0
100
AcDbPolyline
90
8
70
1
43
0.0
10
59.247170894069683
20
-0.15250023841858057
10
59.247170894069683
20
1.62499976158142
10
59.557670894069688
20
1.62499976158142
10
59.557670894069688
20
-0.28107123841857984
10
59.162152894069692
20
-0.62500023841858043
10
58.829473894069686
20
-0.62500023841858043
10
58.829473894069665
20
-0.34857123841858018
10
59.021687894069657
20
-0.34857123841858018
0
LWPOLYLINE
5
282
100
AcDbEntity
8
0
100
AcDbPolyline
90
8
70
1
43
0.0
10
32.078000894069675
20
-2.8214292384185806
10
32.078000894069675
20
-3.2907142384185817
10
31.689875894069679
20
-3.6250002384185809
10
31.353500894069679
20
-3.6250002384185809
10
31.353500894069679
20
-3.3485712384185806
10
31.560500894069676
20
-3.3485712384185806
10
31.756411894069672
20
-3.1782142384185801
10
31.756411894069679
20
-2.8214292384185806
0
LWPOLYLINE
5
283
100
AcDbEntity
8
0
100
AcDbPolyline
90
4
70
1
43
0.0
10
48.539304894069687
20
-0.62500023841858099
10
47.866554894069679
20
1.6249997615814193
10
48.188143894069682
20
1.6249997615814193
10
48.871982894069689
20
-0.62500023841858066
0
LWPOLYLINE
5
284
100
AcDbEntity
8
0
100
AcDbPolyline
90
4
70
1
43
0.0
10
45.941348894069677
20
-0.34857123841858073
10
47.028098894069679
20
-0.34857123841858073
10
47.028098894069679
20
-0.62500023841858099
10
45.941348894069677
20
-0.62500023841858099
0
LWPOLYLINE
5
285
100
AcDbEntity
8
0
100
AcDbPolyline
90
4
70
1
43
0.0
10
50.941348894069677
20
1.3485707615814193
10
50.941348894069677
20
1.6249997615814196
10
52.020705894069685
20
1.6249997615814196
10
52.020705894069685
20
1.3485707615814193
0
LWPOLYLINE
5
286
100
AcDbEntity
8
0
100
AcDbPolyline
90
4
70
1
43
0.0
10
34.308161894069684
20
-3.6250002384185809
10
34.308161894069684
20
-1.3750002384185804
10
34.58908989406968
20
-1.3750002384185804
10
34.58908989406968
20
-3.6250002384185809
0
LWPOLYLINE
5
287
100
AcDbEntity
8
0
100
AcDbPolyline
90
4
70
1
43
0.0
10
45.941348894069677
20
0.67999976158141928
10
46.676938894069679
20
0.6799997615814195
10
46.676938894069679
20
0.43571376158141911
10
45.941348894069677
20
0.43571376158141911
0
LWPOLYLINE
5
288
100
AcDbEntity
8
0
100
AcDbPolyline
90
4
70
1
43
0.0
10
40.941348894069677
20
1.3485707615814191
10
40.941348894069677
20
1.6249997615814193
10
42.020705894069678
20
1.6249997615814193
10
42.020705894069678
20
1.3485707615814191
0
LWPOLYLINE
5
289
100
AcDbEntity
8
0
100
AcDbPolyline
90
4
70
1
43
0.0
10
45.941348894069677
20
1.3485707615814191
10
45.941348894069677
20
1.6249997615814193
10
47.020705894069685
20
1.6249997615814193
10
47.020705894069685
20
1.3485707615814191
0
LWPOLYLINE
5
290
100
AcDbEntity
8
0
100
AcDbPolyline
90
4
70
1
43
0.0
10
40.941348894069677
20
-0.34857123841858073
10
42.028098894069679
20
-0.34857123841858073
10
42.028098894069679
20
-0.62500023841858099
10
40.941348894069677
20
-0.62500023841858099
0
LWPOLYLINE
5
291
100
AcDbEntity
8
0
100
AcDbPolyline
90
4
70
1
43
0.0
10
55.793491894069675
20
-13.375000238418577
10
55.793491894069675
20
-15.625000238418579
10
55.471902894069686
20
-15.625000238418579
10
55.471902894069686
20
-13.375000238418577
0
LWPOLYLINE
5
292
100
AcDbEntity
8
0
100
AcDbPolyline
90
4
70
1
43
0.0
10
55.941348894069677
20
1.3485707615814198
10
55.941348894069677
20
1.6249997615814196
10
57.024402894069688
20
1.6249997615814196
10
57.024402894069688
20
1.3485707615814198
0
LWPOLYLINE
5
293
100
AcDbEntity
8
0
100
AcDbPolyline
90
4
70
1
43
0.0
10
50.941348894069677
20
-13.651429238418578
10
50.941348894069677
20
-13.375000238418577
10
52.020705894069685
20
-13.375000238418577
10
52.020705894069685
20
-13.651429238418578
0
LWPOLYLINE
5
294
100
AcDbEntity
8
0
100
AcDbPolyline
90
4
70
1
43
0.0
10
50.941348894069677
20
-14.320000238418578
10
51.676938894069679
20
-14.320000238418578
10
51.676938894069679
20
-14.564286238418575
10
50.941348894069677
20
-14.564286238418575
0
LWPOLYLINE
5
295
100
AcDbEntity
8
0
100
AcDbPolyline
90
4
70
1
43
0.0
10
54.160304894069697
20
-14.821429238418578
10
54.160304894069675
20
-15.416071238418581
10
53.339696894069689
20
-14.014643238418575
10
53.339696894069689
20
-13.407143238418575
0
LWPOLYLINE
5
296
100
AcDbEntity
8
0
100
AcDbPolyline
90
8
70
1
43
0.0
10
36.325777894069674
20
-7.37500023841858
10
36.728687894069679
20
-7.37500023841858
10
37.094634894069678
20
-7.6932142384185784
10
37.094634894069678
20
-8.0917862384185799
10
36.77674189406968
20
-8.0917862384185799
10
36.77674189406968
20
-7.8153572384185797
10
36.591920894069681
20
-7.6514292384185776
10
36.325777894069674
20
-7.6514292384185776
0
LWPOLYLINE
5
297
100
AcDbEntity
8
0
100
AcDbPolyline
90
4
70
1
43
0.0
10
53.191839894069673
20
-13.375000238418577
10
53.191839894069673
20
-15.625000238418579
10
52.910911894069685
20
-15.625000238418579
10
52.910911894069685
20
-13.375000238418577
0
LWPOLYLINE
5
298
100
AcDbEntity
8
0
100
AcDbPolyline
90
4
70
1
43
0.0
10
54.308161894069684
20
-15.625000238418579
10
54.308161894069684
20
-13.375000238418577
10
54.58908989406968
20
-13.375000238418577
10
54.58908989406968
20
-15.625000238418579
0
LWPOLYLINE
5
299
100
AcDbEntity
8
0
100
AcDbPolyline
90
4
70
1
43
0.0
10
55.941348894069677
20
-15.348571238418579
10
57.028098894069679
20
-15.348571238418579
10
57.028098894069679
20
-15.625000238418579
10
55.941348894069677
20
-15.625000238418579
0
LWPOLYLINE
5
300
100
AcDbEntity
8
0
100
AcDbPolyline
90
4
70
1
43
0.0
10
38.842411894069677
20
-15.023929238418576
10
39.330339894069681
20
-13.375000238418577
10
39.633446894069678
20
-13.375000238418577
10
38.982875894069686
20
-15.493214238418581
0
LWPOLYLINE
5
301
100
AcDbEntity
8
0
100
AcDbPolyline
90
4
70
1
43
0.0
10
50.941348894069677
20
-15.348571238418579
10
52.028098894069679
20
-15.348571238418579
10
52.028098894069679
20
-15.625000238418579
10
50.941348894069677
20
-15.625000238418579
0
LWPOLYLINE
5
302
100
AcDbEntity
8
0
100
AcDbPolyline
90
4
70
1
43
0.0
10
40.793491894069682
20
-13.375000238418577
10
40.793491894069682
20
-15.625000238418579
10
40.471902894069686
20
-15.625000238418579
10
40.471902894069686
20
-13.375000238418577
0
LWPOLYLINE
5
303
100
AcDbEntity
8
0
100
AcDbPolyline
90
4
70
1
43
0.0
10
50.793491894069689
20
-13.375000238418577
10
50.793491894069675
20
-15.625000238418579
10
50.471902894069686
20
-15.625000238418579
10
50.471902894069686
20
-13.375000238418577
0
LWPOLYLINE
5
304
100
AcDbEntity
8
0
100
AcDbPolyline
90
4
70
1
43
0.0
10
40.941348894069677
20
-15.348571238418579
10
42.028098894069679
20
-15.348571238418579
10
42.028098894069679
20
-15.625000238418579
10
40.941348894069677
20
-15.625000238418579
0
LWPOLYLINE
5
305
100
AcDbEntity
8
0
100
AcDbPolyline
90
4
70
1
43
0.0
10
48.441348894069677
20
-14.320000238418578
10
49.176938894069679
20
-14.320000238418578
10
49.176938894069679
20
-14.564286238418575
10
48.441348894069677
20
-14.564286238418575
0
LWPOLYLINE
5
306
100
AcDbEntity
8
0
100
AcDbPolyline
90
4
70
1
43
0.0
10
40.941348894069677
20
-13.651429238418578
10
40.941348894069677
20
-13.375000238418577
10
42.020705894069678
20
-13.375000238418577
10
42.020705894069678
20
-13.651429238418578
0
LWPOLYLINE
5
307
100
AcDbEntity
8
0
100
AcDbPolyline
90
4
70
1
43
0.0
10
45.941348894069677
20
-10.651429238418579
10
45.941348894069677
20
-10.375000238418579
10
47.024402894069667
20
-10.375000238418579
10
47.024402894069667
20
-10.651429238418579
0
LWPOLYLINE
5
308
100
AcDbEntity
8
0
100
AcDbPolyline
90
4
70
1
43
0.0
10
48.441348894069677
20
-13.651429238418578
10
48.441348894069677
20
-13.375000238418577
10
49.520705894069685
20
-13.375000238418577
10
49.520705894069685
20
-13.651429238418578
0
LWPOLYLINE
5
309
100
AcDbEntity
8
0
100
AcDbPolyline
90
4
70
1
43
0.0
10
40.941348894069677
20
-14.320000238418578
10
41.676938894069679
20
-14.320000238418578
10
41.676938894069679
20
-14.564286238418575
10
40.941348894069677
20
-14.564286238418575
0
LWPOLYLINE
5
310
100
AcDbEntity
8
0
100
AcDbPolyline
90
4
70
1
43
0.0
10
35.941348894069677
20
-14.320000238418578
10
36.676937894069681
20
-14.320000238418578
10
36.676937894069681
20
-14.564286238418575
10
35.941348894069677
20
-14.564286238418575
0
LWPOLYLINE
5
311
100
AcDbEntity
8
0
100
AcDbPolyline
90
4
70
1
43
0.0
10
48.441348894069677
20
-15.348571238418579
10
49.528098894069679
20
-15.348571238418579
10
49.528098894069679
20
-15.625000238418579
10
48.441348894069677
20
-15.625000238418579
0
LWPOLYLINE
5
312
100
AcDbEntity
8
0
100
AcDbPolyline
90
4
70
1
43
0.0
10
44.308161894069684
20
-15.625000238418579
10
44.308161894069684
20
-13.375000238418577
10
44.58908989406968
20
-13.375000238418577
10
44.58908989406968
20
-15.625000238418579
0
LWPOLYLINE
5
313
100
AcDbEntity
8
0
100
AcDbPolyline
90
4
70
1
43
0.0
10
48.293491894069689
20
-13.375000238418577
10
48.293491894069675
20
-15.625000238418579
10
47.971902894069686
20
-15.625000238418579
10
47.971902894069686
20
-13.375000238418577
0
LWPOLYLINE
5
314
100
AcDbEntity
8
0
100
AcDbPolyline
90
4
70
1
43
0.0
10
43.191839894069687
20
-13.375000238418577
10
43.191839894069673
20
-15.625000238418579
10
42.910911894069685
20
-15.625000238418579
10
42.910911894069685
20
-13.375000238418577
0
LWPOLYLINE
5
315
100
AcDbEntity
8
0
100
AcDbPolyline
90
4
70
1
43
0.0
10
45.37209889406968
20
-13.638571238418574
10
45.37209889406968
20
-13.375000238418577
10
47.127902894069678
20
-13.375000238418577
10
47.127902894069678
20
-13.63857123841858
0
LWPOLYLINE
5
316
100
AcDbEntity
8
0
100
AcDbPolyline
90
4
70
1
43
0.0
10
44.160304894069675
20
-14.821429238418578
10
44.160304894069675
20
-15.416071238418581
10
43.339696894069675
20
-14.014643238418575
10
43.339696894069675
20
-13.407143238418575
0
LWPOLYLINE
5
317
100
AcDbEntity
8
0
100
AcDbPolyline
90
4
70
1
43
0.0
10
46.089205894069693
20
-13.767143238418576
10
46.410795894069693
20
-13.767143238418576
10
46.410795894069693
20
-15.625000238418579
10
46.089205894069693
20
-15.625000238418579
0
LWPOLYLINE
5
318
100
AcDbEntity
8
0
100
AcDbPolyline
90
12
70
1
43
0.0
10
33.228804894069683
20
-14.590000238418579
10
32.929393894069676
20
-14.332857238418576
10
32.929393894069676
20
-13.693214238418578
10
33.295339894069677
20
-13.375000238418577
10
33.683464894069672
20
-13.375000238418577
10
33.683464894069679
20
-13.651429238418578
10
33.435804894069683
20
-13.651429238418578
10
33.247286894069674
20
-13.81535723841858
10
33.247286894069674
20
-14.213929238418576
10
33.387750894069669
20
-14.32964323841858
10
33.683464894069679
20
-14.32964323841858
10
33.683464894069679
20
-14.590000238418579
0
LWPOLYLINE
5
319
100
AcDbEntity
8
0
100
AcDbPolyline
90
4
70
1
43
0.0
10
48.589205894069693
20
-12.625000238418579
10
48.589205894069693
20
-10.375000238418579
10
48.910795894069693
20
-10.375000238418579
10
48.910795894069693
20
-12.625000238418579
0
LWPOLYLINE
5
320
100
AcDbEntity
8
0
100
AcDbPolyline
90
4
70
1
43
0.0
10
51.039304894069687
20
-12.625000238418579
10
50.366554894069679
20
-10.375000238418579
10
50.688143894069682
20
-10.375000238418579
10
51.371982894069689
20
-12.625000238418579
0
LWPOLYLINE
5
321
100
AcDbEntity
8
0
100
AcDbPolyline
90
8
70
1
43
0.0
10
33.831321894069681
20
-13.651429238418578
10
33.831321894069681
20
-13.375000238418577
10
34.182482894069679
20
-13.375000238418577
10
34.544732894069682
20
-13.693214238418578
10
34.544732894069682
20
-14.011429238418579
10
34.226839894069684
20
-14.011429238418579
10
34.226839894069684
20
-13.815357238418574
10
34.038321894069682
20
-13.651429238418578
0
LWPOLYLINE
5
322
100
AcDbEntity
8
0
100
AcDbPolyline
90
4
70
1
43
0.0
10
35.941348894069677
20
-15.348571238418579
10
37.028098894069679
20
-15.348571238418579
10
37.028098894069679
20
-15.625000238418579
10
35.941348894069677
20
-15.625000238418579
0
LWPOLYLINE
5
323
100
AcDbEntity
8
0
100
AcDbPolyline
90
12
70
1
43
0.0
10
56.749018894069678
20
-12.17500023841858
10
56.749018894069678
20
-11.70892923841858
10
56.61594689406968
20
-11.590000238418581
10
56.331321894069681
20
-11.590000238418581
10
56.331321894069681
20
-11.32964323841858
10
56.774893894069685
20
-11.32964323841858
10
57.070607894069681
20
-11.580357238418578
10
57.070607894069681
20
-12.290714238418579
10
56.686179894069681
20
-12.625000238418579
10
56.331321894069681
20
-12.625000238418579
10
56.331321894069681
20
-12.348571238418579
10
56.553107894069683
20
-12.348571238418579
0
LWPOLYLINE
5
324
100
AcDbEntity
8
0
100
AcDbPolyline
90
4
70
1
43
0.0
10
35.941348894069677
20
-13.651429238418578
10
35.941348894069677
20
-13.375000238418577
10
37.020705894069678
20
-13.375000238418577
10
37.020705894069678
20
-13.651429238418578
0
LWPOLYLINE
5
325
100
AcDbEntity
8
0
100
AcDbPolyline
90
4
70
1
43
0.0
10
38.539304894069687
20
-15.625000238418579
10
37.866554894069679
20
-13.375000238418577
10
38.188143894069675
20
-13.375000238418577
10
38.871982894069674
20
-15.625000238418579
0
LWPOLYLINE
5
326
100
AcDbEntity
8
0
100
AcDbPolyline
90
4
70
1
43
0.0
10
58.280554894069674
20
-7.37500023841858
10
58.280554894069674
20
-9.6250002384185809
10
57.962661894069676
20
-9.6250002384185809
10
57.962661894069676
20
-7.3750002384185809
0
LWPOLYLINE
5
327
100
AcDbEntity
8
0
100
AcDbPolyline
90
4
70
1
43
0.0
10
35.793491894069682
20
-13.375000238418577
10
35.793491894069682
20
-15.625000238418579
10
35.471902894069686
20
-15.625000238418579
10
35.471902894069686
20
-13.375000238418577
0
LWPOLYLINE
5
328
100
AcDbEntity
8
0
100
AcDbPolyline
90
12
70
1
43
0.0
10
31.77674189406968
20
-12.152500238418579
10
31.77674189406968
20
-10.834643238418579
10
31.566045894069674
20
-10.651429238418579
10
31.344259894069673
20
-10.651429238418579
10
31.34425989406968
20
-10.375000238418579
10
31.695420894069677
20
-10.375000238418579
10
32.094634894069678
20
-10.72214323841858
10
32.094634894069678
20
-12.261786238418582
10
31.676938894069675
20
-12.625000238418579
10
31.344259894069673
20
-12.625000238418579
10
31.34425989406968
20
-12.348571238418579
10
31.55125989406968
20
-12.348571238418579
0
LWPOLYLINE
5
329
100
AcDbEntity
8
0
100
AcDbPolyline
90
4
70
1
43
0.0
10
58.293491894069675
20
-10.375000238418579
10
58.293491894069675
20
-12.625000238418579
10
57.971902894069686
20
-12.625000238418579
10
57.971902894069686
20
-10.375000238418579
0
LWPOLYLINE
5
330
100
AcDbEntity
8
0
100
AcDbPolyline
90
4
70
1
43
0.0
10
51.342411894069677
20
-12.023929238418582
10
51.830339894069688
20
-10.375000238418579
10
52.133446894069678
20
-10.375000238418579
10
51.482875894069679
20
-12.493214238418577
0
LWPOLYLINE
5
331
100
AcDbEntity
8
0
100
AcDbPolyline
90
8
70
1
43
0.0
10
30.438634894069683
20
-15.625000238418579
10
30.438634894069683
20
-13.375000238418577
10
30.756527894069681
20
-13.375000238418577
10
30.756527894069681
20
-14.32964323841858
10
31.591920894069681
20
-14.32964323841858
10
31.591920894069681
20
-14.554643238418578
10
30.756527894069681
20
-14.554643238418578
10
30.756527894069681
20
-15.625000238418579
0
LWPOLYLINE
5
332
100
AcDbEntity
8
0
100
AcDbPolyline
90
4
70
1
43
0.0
10
55.941348894069677
20
-8.3200002384185794
10
56.676938894069679
20
-8.3200002384185794
10
56.676938894069679
20
-8.5642862384185783
10
55.941348894069677
20
-8.5642862384185783
0
LWPOLYLINE
5
333
100
AcDbEntity
8
0
100
AcDbPolyline
90
4
70
1
43
0.0
10
53.293491894069675
20
-10.375000238418579
10
53.293491894069675
20
-12.625000238418579
10
52.971902894069686
20
-12.625000238418579
10
52.971902894069686
20
-10.375000238418579
0
LWPOLYLINE
5
334
100
AcDbEntity
8
0
100
AcDbPolyline
90
4
70
1
43
0.0
10
55.941348894069677
20
-9.3485712384185806
10
57.028098894069679
20
-9.3485712384185806
10
57.028098894069679
20
-9.6250002384185809
10
55.941348894069677
20
-9.6250002384185809
0
LWPOLYLINE
5
335
100
AcDbEntity
8
0
100
AcDbPolyline
90
4
70
1
43
0.0
10
35.793491894069682
20
-10.375000238418579
10
35.793491894069682
20
-12.625000238418579
10
35.471902894069686
20
-12.625000238418579
10
35.471902894069686
20
-10.375000238418579
0
LWPOLYLINE
5
336
100
AcDbEntity
8
0
100
AcDbPolyline
90
4
70
1
43
0.0
10
58.441348894069677
20
-10.651429238418579
10
58.441348894069677
20
-10.375000238418579
10
59.520705894069685
20
-10.375000238418579
10
59.520705894069685
20
-10.651429238418579
0
LWPOLYLINE
5
337
100
AcDbEntity
8
0
100
AcDbPolyline
90
4
70
1
43
0.0
10
45.941348894069677
20
-11.368214238418579
10
46.77674189406968
20
-11.368214238418579
10
46.77674189406968
20
-11.612500238418582
10
45.941348894069677
20
-11.612500238418582
0
LWPOLYLINE
5
338
100
AcDbEntity
8
0
100
AcDbPolyline
90
4
70
1
43
0.0
10
53.441348894069677
20
-11.320000238418579
10
54.176938894069679
20
-11.320000238418579
10
54.176938894069679
20
-11.564286238418582
10
53.441348894069677
20
-11.564286238418582
0
LWPOLYLINE
5
339
100
AcDbEntity
8
0
100
AcDbPolyline
90
4
70
1
43
0.0
10
37.872098894069673
20
-10.638571238418582
10
37.87209889406968
20
-10.375000238418579
10
39.627902894069678
20
-10.375000238418579
10
39.627902894069678
20
-10.638571238418582
0
LWPOLYLINE
5
340
100
AcDbEntity
8
0
100
AcDbPolyline
90
12
70
1
43
0.0
10
34.249018894069685
20
-15.175000238418574
10
34.249018894069678
20
-14.708929238418577
10
34.11594689406968
20
-14.590000238418579
10
33.831321894069681
20
-14.590000238418579
10
33.831321894069681
20
-14.32964323841858
10
34.274893894069685
20
-14.32964323841858
10
34.570607894069674
20
-14.580357238418578
10
34.570607894069681
20
-15.290714238418577
10
34.186179894069681
20
-15.625000238418579
10
33.831321894069681
20
-15.625000238418579
10
33.831321894069681
20
-15.348571238418579
10
34.053107894069683
20
-15.348571238418579
0
LWPOLYLINE
5
341
100
AcDbEntity
8
0
100
AcDbPolyline
90
4
70
1
43
0.0
10
58.441348894069677
20
-12.348571238418579
10
59.528098894069679
20
-12.348571238418579
10
59.528098894069679
20
-12.625000238418579
10
58.441348894069677
20
-12.625000238418579
0
LWPOLYLINE
5
342
100
AcDbEntity
8
0
100
AcDbPolyline
90
8
70
1
43
0.0
10
32.929393894069676
20
-14.87928623841858
10
33.247286894069674
20
-14.87928623841858
10
33.247286894069674
20
-15.17500023841858
10
33.446893894069675
20
-15.348571238418579
10
33.683464894069679
20
-15.348571238418579
10
33.683464894069679
20
-15.625000238418579
10
33.313821894069676
20
-15.625000238418579
10
32.929393894069676
20
-15.290714238418577
0
LWPOLYLINE
5
343
100
AcDbEntity
8
0
100
AcDbPolyline
90
4
70
1
43
0.0
10
58.441348894069677
20
-11.320000238418579
10
59.176938894069679
20
-11.320000238418579
10
59.176938894069679
20
-11.564286238418582
10
58.441348894069677
20
-11.564286238418582
0
LWPOLYLINE
5
344
100
AcDbEntity
8
0
100
AcDbPolyline
90
4
70
1
43
0.0
10
53.441348894069677
20
-10.651429238418579
10
53.441348894069677
20
-10.375000238418579
10
54.520705894069685
20
-10.375000238418579
10
54.520705894069685
20
-10.651429238418579
0
LWPOLYLINE
5
345
100
AcDbEntity
8
0
100
AcDbPolyline
90
4
70
1
43
0.0
10
31.739777894069682
20
-15.625000238418579
10
31.739777894069682
20
-13.375000238418577
10
32.061366894069678
20
-13.375000238418577
10
32.061366894069678
20
-15.625000238418579
0
LWPOLYLINE
5
346
100
AcDbEntity
8
0
100
AcDbPolyline
90
8
70
1
43
0.0
10
55.429393894069676
20
-11.87928623841858
10
55.747286894069674
20
-11.87928623841858
10
55.747286894069674
20
-12.17500023841858
10
55.946893894069675
20
-12.348571238418579
10
56.183464894069687
20
-12.348571238418579
10
56.183464894069687
20
-12.625000238418579
10
55.813821894069676
20
-12.625000238418579
10
55.429393894069676
20
-12.290714238418579
0
LWPOLYLINE
5
347
100
AcDbEntity
8
0
100
AcDbPolyline
90
8
70
1
43
0.0
10
56.331321894069681
20
-10.651429238418579
10
56.331321894069681
20
-10.375000238418579
10
56.682482894069679
20
-10.375000238418579
10
57.044732894069682
20
-10.69321423841858
10
57.044732894069682
20
-11.011429238418579
10
56.726839894069684
20
-11.011429238418579
10
56.726839894069684
20
-10.815357238418581
10
56.538321894069682
20
-10.651429238418579
0
LWPOLYLINE
5
348
100
AcDbEntity
8
0
100
AcDbPolyline
90
4
70
1
43
0.0
10
59.056804894069685
20
-8.779643238418581
10
59.489286894069679
20
-9.6250002384185809
10
59.156607894069694
20
-9.6250002384185809
10
58.73151889406968
20
-8.779643238418581
0
LWPOLYLINE
5
349
100
AcDbEntity
8
0
100
AcDbPolyline
90
4
70
1
43
0.0
10
53.441348894069677
20
-12.348571238418579
10
54.528098894069679
20
-12.348571238418579
10
54.528098894069679
20
-12.625000238418579
10
53.441348894069677
20
-12.625000238418579
0
LWPOLYLINE
5
350
100
AcDbEntity
8
0
100
AcDbPolyline
90
4
70
1
43
0.0
10
35.941348894069677
20
-10.651429238418579
10
35.941348894069677
20
-10.375000238418579
10
37.020705894069678
20
-10.375000238418579
10
37.020705894069678
20
-10.651429238418579
0
LWPOLYLINE
5
351
100
AcDbEntity
8
0
100
AcDbPolyline
90
4
70
1
43
0.0
10
34.308161894069684
20
-12.625000238418579
10
34.308161894069684
20
-10.375000238418579
10
34.58908989406968
20
-10.375000238418579
10
34.58908989406968
20
-12.625000238418579
0
LWPOLYLINE
5
352
100
AcDbEntity
8
0
100
AcDbPolyline
90
4
70
1
43
0.0
10
44.308161894069684
20
-12.625000238418579
10
44.308161894069684
20
-10.375000238418579
10
44.58908989406968
20
-10.375000238418579
10
44.58908989406968
20
-12.625000238418579
0
LWPOLYLINE
5
353
100
AcDbEntity
8
0
100
AcDbPolyline
90
4
70
1
43
0.0
10
40.941348894069677
20
-10.651429238418579
10
40.941348894069677
20
-10.375000238418579
10
42.020705894069678
20
-10.375000238418579
10
42.020705894069678
20
-10.651429238418579
0
LWPOLYLINE
5
354
100
AcDbEntity
8
0
100
AcDbPolyline
90
4
70
1
43
0.0
10
55.941348894069677
20
-13.651429238418578
10
55.941348894069677
20
-13.375000238418577
10
57.020705894069685
20
-13.375000238418577
10
57.020705894069685
20
-13.651429238418578
0
LWPOLYLINE
5
355
100
AcDbEntity
8
0
100
AcDbPolyline
90
8
70
1
43
0.0
10
57.94233089406967
20
1.62499976158142
10
58.260223894069668
20
1.62499976158142
10
58.260223894069668
20
-0.15250023841858085
10
58.485705894069667
20
-0.34857123841858045
10
58.681616894069677
20
-0.34857123841858045
10
58.681616894069677
20
-0.62500023841858066
10
58.337848894069673
20
-0.62500023841858066
10
57.94233089406967
20
-0.28107123841858012
0
LWPOLYLINE
5
356
100
AcDbEntity
8
0
100
AcDbPolyline
90
4
70
1
43
0.0
10
55.941348894069677
20
-14.320000238418578
10
56.676938894069679
20
-14.320000238418578
10
56.676938894069679
20
-14.564286238418575
10
55.941348894069677
20
-14.564286238418575
0
LWPOLYLINE
5
357
100
AcDbEntity
8
0
100
AcDbPolyline
90
4
70
1
43
0.0
10
43.293491894069689
20
-4.3750002384185809
10
43.293491894069682
20
-6.62500023841858
10
42.971902894069686
20
-6.62500023841858
10
42.971902894069686
20
-4.3750002384185809
0
LWPOLYLINE
5
358
100
AcDbEntity
8
0
100
AcDbPolyline
90
12
70
1
43
0.0
10
59.250866894069688
20
-15.078571238418576
10
59.250866894069674
20
-13.911786238418578
10
58.95515289406967
20
-13.651429238418578
10
58.40068889406966
20
-13.651429238418578
10
58.400688894069681
20
-13.375000238418577
10
59.069741894069679
20
-13.375000238418577
10
59.568759894069686
20
-13.808929238418578
10
59.568759894069686
20
-15.171786238418576
10
59.047563894069683
20
-15.625000238418579
10
58.400688894069681
20
-15.625000238418579
10
58.400688894069681
20
-15.348571238418579
10
58.940366894069683
20
-15.348571238418579
0
LWPOLYLINE
5
359
100
AcDbEntity
8
0
100
AcDbPolyline
90
4
70
1
43
0.0
10
30.94134889406968
20
-7.6514292384185776
10
30.94134889406968
20
-7.37500023841858
10
32.020705894069678
20
-7.37500023841858
10
32.020705894069678
20
-7.6514292384185776
0
LWPOLYLINE
5
360
100
AcDbEntity
8
0
100
AcDbPolyline
90
4
70
1
43
0.0
10
48.293491894069675
20
-4.3750002384185809
10
48.293491894069675
20
-6.62500023841858
10
47.975598894069677
20
-6.62500023841858
10
47.975598894069677
20
-4.3750002384185809
0
LWPOLYLINE
5
361
100
AcDbEntity
8
0
100
AcDbPolyline
90
4
70
1
43
0.0
10
33.191839894069673
20
-1.3750002384185811
10
33.191839894069673
20
-3.6250002384185809
10
32.910911894069685
20
-3.6250002384185809
10
32.910911894069685
20
-1.3750002384185811
0
LWPOLYLINE
5
362
100
AcDbEntity
8
0
100
AcDbPolyline
90
4
70
1
43
0.0
10
43.441348894069677
20
-5.3200002384185812
10
44.176938894069679
20
-5.3200002384185812
10
44.176938894069679
20
-5.5642862384185783
10
43.441348894069677
20
-5.5642862384185783
0
LWPOLYLINE
5
363
100
AcDbEntity
8
0
100
AcDbPolyline
90
4
70
1
43
0.0
10
58.252830894069675
20
-13.375000238418577
10
58.252830894069675
20
-15.625000238418579
10
57.931241894069672
20
-15.625000238418579
10
57.931241894069672
20
-13.375000238418577
0
LWPOLYLINE
5
364
100
AcDbEntity
8
0
100
AcDbPolyline
90
4
70
1
43
0.0
10
43.441348894069691
20
-4.6514292384185811
10
43.441348894069677
20
-4.3750002384185809
10
44.520705894069685
20
-4.3750002384185809
10
44.520705894069685
20
-4.6514292384185811
0
LWPOLYLINE
5
365
100
AcDbEntity
8
0
100
AcDbPolyline
90
4
70
1
43
0.0
10
43.441348894069677
20
-6.3485712384185797
10
44.528098894069679
20
-6.3485712384185797
10
44.528098894069679
20
-6.62500023841858
10
43.441348894069677
20
-6.62500023841858
0
LWPOLYLINE
5
366
100
AcDbEntity
8
0
100
AcDbPolyline
90
6
70
1
43
0.0
10
46.087357894069676
20
-5.7153572384185818
10
45.422000894069683
20
-4.3750002384185809
10
45.758375894069673
20
-4.3750002384185809
10
46.408946894069686
20
-5.7475002384185814
10
46.408946894069686
20
-6.62500023841858
10
46.087357894069676
20
-6.62500023841858
0
LWPOLYLINE
5
367
100
AcDbEntity
8
0
100
AcDbPolyline
90
4
70
1
43
0.0
10
46.349804894069692
20
-5.2717862384185814
10
46.774893894069685
20
-4.3750002384185809
10
47.078000894069675
20
-4.3750002384185809
10
46.486571894069684
20
-5.5610712384185801
0
LWPOLYLINE
5
368
100
AcDbEntity
8
0
100
AcDbPolyline
90
4
70
1
43
0.0
10
48.441348894069677
20
-4.6514292384185811
10
48.441348894069677
20
-4.3750002384185809
10
49.524402894069667
20
-4.3750002384185809
10
49.524402894069667
20
-4.6514292384185811
0
LWPOLYLINE
5
369
100
AcDbEntity
8
0
100
AcDbPolyline
90
4
70
1
43
0.0
10
37.88337289406968
20
-3.6250002384185809
10
37.400988894069684
20
-1.3750002384185804
10
37.680438894069681
20
-1.3750002384185804
10
38.199417894069683
20
-3.6250002384185809
0
LWPOLYLINE
5
370
100
AcDbEntity
8
0
100
AcDbPolyline
90
4
70
1
43
0.0
10
46.039304894069687
20
-3.6250002384185809
10
45.366554894069679
20
-1.3750002384185804
10
45.688143894069682
20
-1.3750002384185804
10
46.371982894069689
20
-3.6250002384185809
0
LWPOLYLINE
5
371
100
AcDbEntity
8
0
100
AcDbPolyline
90
4
70
1
43
0.0
10
40.941348894069677
20
-3.3485712384185806
10
42.028098894069679
20
-3.3485712384185806
10
42.028098894069679
20
-3.6250002384185809
10
40.941348894069677
20
-3.6250002384185809
0
LWPOLYLINE
5
372
100
AcDbEntity
8
0
100
AcDbPolyline
90
4
70
1
43
0.0
10
40.793491894069682
20
-1.3750002384185804
10
40.793491894069682
20
-3.6250002384185809
10
40.471902894069686
20
-3.6250002384185809
10
40.471902894069686
20
-1.3750002384185804
0
LWPOLYLINE
5
373
100
AcDbEntity
8
0
100
AcDbPolyline
90
4
70
1
43
0.0
10
59.308161894069684
20
-3.6250002384185809
10
59.308161894069684
20
-1.37500023841858
10
59.58908989406968
20
-1.37500023841858
10
59.58908989406968
20
-3.6250002384185809
0
LWPOLYLINE
5
374
100
AcDbEntity
8
0
100
AcDbPolyline
90
4
70
1
43
0.0
10
40.941348894069677
20
-1.6514292384185807
10
40.941348894069677
20
-1.3750002384185804
10
42.020705894069678
20
-1.3750002384185804
10
42.020705894069678
20
-1.6514292384185807
0
LWPOLYLINE
5
375
100
AcDbEntity
8
0
100
AcDbPolyline
90
4
70
1
43
0.0
10
36.739777894069682
20
-6.62500023841858
10
36.739777894069682
20
-4.3750002384185809
10
37.061366894069678
20
-4.3750002384185809
10
37.061366894069678
20
-6.62500023841858
0
LWPOLYLINE
5
376
100
AcDbEntity
8
0
100
AcDbPolyline
90
11
70
1
43
0.0
10
51.708811894069683
20
-2.9370302384185787
10
51.708811894069683
20
-1.78101523841858
10
51.523990894069684
20
-1.6203012384185826
10
51.339168894069687
20
-1.6203012384185826
10
51.339168894069687
20
-1.3750002384185804
10
51.64071989406969
20
-1.3750002384185804
10
51.990907894069679
20
-1.6795112384185789
10
51.990907894069679
20
-3.0300752384185792
10
51.621264894069689
20
-3.34868423841858
10
51.498050894069664
20
-3.34868423841858
10
51.498050894069678
20
-3.1062032384185811
0
LWPOLYLINE
5
377
100
AcDbEntity
8
0
100
AcDbPolyline
90
4
70
1
43
0.0
10
56.089205894069693
20
-3.6250002384185809
10
56.089205894069693
20
-1.37500023841858
10
56.410795894069693
20
-1.37500023841858
10
56.410795894069693
20
-3.6250002384185809
0
LWPOLYLINE
5
378
100
AcDbEntity
8
0
100
AcDbPolyline
90
4
70
1
43
0.0
10
39.473576894069673
20
-2.9917862384185789
10
39.832869894069688
20
-1.3750002384185804
10
40.099012894069681
20
-1.3750002384185804
10
39.613301894069679
20
-3.5607142384185808
0
LWPOLYLINE
5
379
100
AcDbEntity
8
0
100
AcDbPolyline
90
4
70
1
43
0.0
10
48.441348894069677
20
-1.6514292384185807
10
48.441348894069677
20
-1.3750002384185804
10
49.520705894069685
20
-1.3750002384185804
10
49.520705894069685
20
-1.6514292384185807
0
LWPOLYLINE
5
380
100
AcDbEntity
8
0
100
AcDbPolyline
90
4
70
1
43
0.0
10
46.342411894069677
20
-3.0239292384185812
10
46.830339894069688
20
-1.3750002384185804
10
47.133446894069678
20
-1.3750002384185804
10
46.482875894069679
20
-3.4932142384185827
0
LWPOLYLINE
5
381
100
AcDbEntity
8
0
100
AcDbPolyline
90
4
70
1
43
0.0
10
48.441348894069677
20
-3.3485712384185806
10
49.528098894069679
20
-3.3485712384185806
10
49.528098894069679
20
-3.6250002384185809
10
48.441348894069677
20
-3.6250002384185809
0
LWPOLYLINE
5
382
100
AcDbEntity
8
0
100
AcDbPolyline
90
5
70
1
43
0.0
10
54.613116894069677
20
-3.358214238418582
10
54.613116894069677
20
-3.6250002384185809
10
52.886884894069667
20
-3.6250002384185809
10
52.886884894069667
20
-3.3967862384185787
10
52.91275989406968
20
-3.358214238418582
0
LWPOLYLINE
5
383
100
AcDbEntity
8
0
100
AcDbPolyline
90
4
70
1
43
0.0
10
40.941348894069677
20
-2.3200002384185803
10
41.676938894069679
20
-2.3200002384185803
10
41.676938894069679
20
-2.5642862384185783
10
40.941348894069677
20
-2.5642862384185783
0
LWPOLYLINE
5
384
100
AcDbEntity
8
0
100
AcDbPolyline
90
4
70
1
43
0.0
10
33.589205894069678
20
-4.7671432384185781
10
33.910795894069679
20
-4.7671432384185781
10
33.910795894069679
20
-6.62500023841858
10
33.589205894069678
20
-6.62500023841858
0
LWPOLYLINE
5
385
100
AcDbEntity
8
0
100
AcDbPolyline
90
4
70
1
43
0.0
10
48.293491894069689
20
-1.3750002384185804
10
48.293491894069675
20
-3.6250002384185809
10
47.971902894069686
20
-3.6250002384185809
10
47.971902894069686
20
-1.3750002384185804
0
LWPOLYLINE
5
386
100
AcDbEntity
8
0
100
AcDbPolyline
90
4
70
1
43
0.0
10
58.191839894069673
20
-1.37500023841858
10
58.191839894069673
20
-3.6250002384185809
10
57.910911894069685
20
-3.6250002384185809
10
57.910911894069685
20
-1.37500023841858
0
LWPOLYLINE
5
387
100
AcDbEntity
8
0
100
AcDbPolyline
90
4
70
1
43
0.0
10
38.280554894069674
20
-4.3750002384185809
10
38.280554894069674
20
-6.62500023841858
10
37.962661894069676
20
-6.62500023841858
10
37.962661894069676
20
-4.3750002384185809
0
LWPOLYLINE
5
388
100
AcDbEntity
8
0
100
AcDbPolyline
90
5
70
1
43
0.0
10
52.894277894069681
20
-1.6417862384185793
10
52.886884894069667
20
-1.3750002384185804
10
54.59833089406969
20
-1.37500023841858
10
54.59833089406969
20
-1.606429238418583
10
54.568759894069686
20
-1.6417862384185788
0
LWPOLYLINE
5
389
100
AcDbEntity
8
0
100
AcDbPolyline
90
4
70
1
43
0.0
10
40.941348894069677
20
-6.3485712384185797
10
42.028098894069679
20
-6.3485712384185797
10
42.028098894069679
20
-6.62500023841858
10
40.941348894069677
20
-6.62500023841858
0
LWPOLYLINE
5
390
100
AcDbEntity
8
0
100
AcDbPolyline
90
4
70
1
43
0.0
10
39.496863894069691
20
-3.6250002384185809
10
39.234047894069676
20
-3.6250002384185809
10
38.651860894069685
20
-1.3750002384185804
10
38.921329894069679
20
-1.3750002384185804
0
LWPOLYLINE
5
391
100
AcDbEntity
8
0
100
AcDbPolyline
90
4
70
1
43
0.0
10
30.793491894069682
20
-4.3750002384185809
10
30.793491894069682
20
-6.62500023841858
10
30.471902894069682
20
-6.62500023841858
10
30.471902894069682
20
-4.3750002384185809
0
LWPOLYLINE
5
392
100
AcDbEntity
8
0
100
AcDbPolyline
90
4
70
1
43
0.0
10
30.94134889406968
20
-4.6514292384185811
10
30.94134889406968
20
-4.3750002384185809
10
32.020705894069678
20
-4.3750002384185809
10
32.020705894069678
20
-4.6514292384185811
0
LWPOLYLINE
5
393
100
AcDbEntity
8
0
100
AcDbPolyline
90
4
70
1
43
0.0
10
30.94134889406968
20
-5.3200002384185812
10
31.676938894069686
20
-5.3200002384185812
10
31.676938894069675
20
-5.5642862384185783
10
30.941348894069669
20
-5.5642862384185783
0
LWPOLYLINE
5
394
100
AcDbEntity
8
0
100
AcDbPolyline
90
11
70
1
43
0.0
10
50.972768894069688
20
-1.6203012384185826
10
50.787946894069677
20
-1.78101523841858
10
50.787946894069677
20
-2.9370302384185787
10
50.998708894069665
20
-3.1062032384185811
10
50.998708894069665
20
-3.34868423841858
10
50.875493894069663
20
-3.34868423841858
10
50.509093894069679
20
-3.0300752384185792
10
50.509093894069679
20
-1.6795112384185789
10
50.856039894069681
20
-1.3750002384185804
10
51.20946989406967
20
-1.3750002384185804
10
51.209469894069684
20
-1.6203012384185826
0
LWPOLYLINE
5
395
100
AcDbEntity
8
0
100
AcDbPolyline
90
4
70
1
43
0.0
10
53.005170894069678
20
-3.2296432384185803
10
54.069741894069679
20
-1.7703572384185806
10
54.476348894069687
20
-1.7703572384185806
10
53.411777894069687
20
-3.2296432384185803
0
LWPOLYLINE
5
396
100
AcDbEntity
8
0
100
AcDbPolyline
90
4
70
1
43
0.0
10
59.160304894069675
20
-2.8214292384185797
10
59.160304894069675
20
-3.4160712384185787
10
58.339696894069689
20
-2.0146432384185786
10
58.339696894069689
20
-1.4071432384185778
0
LWPOLYLINE
5
397
100
AcDbEntity
8
0
100
AcDbPolyline
90
4
70
1
43
0.0
10
44.496863894069691
20
-9.6250002384185809
10
44.234047894069676
20
-9.6250002384185809
10
43.651860894069685
20
-7.37500023841858
10
43.921329894069686
20
-7.37500023841858
0
LWPOLYLINE
5
398
100
AcDbEntity
8
0
100
AcDbPolyline
90
4
70
1
43
0.0
10
48.441348894069677
20
-2.3200002384185803
10
49.176938894069679
20
-2.3200002384185803
10
49.176938894069679
20
-2.5642862384185783
10
48.441348894069677
20
-2.5642862384185783
0
LWPOLYLINE
5
399
100
AcDbEntity
8
0
100
AcDbPolyline
90
4
70
1
43
0.0
10
42.98483989406968
20
-3.2200002384185811
10
42.98483989406968
20
-1.3750002384185804
10
43.30642989406968
20
-1.3750002384185804
10
43.30642989406968
20
-3.2200002384185811
0
LWPOLYLINE
5
400
100
AcDbEntity
8
0
100
AcDbPolyline
90
4
70
1
43
0.0
10
51.128407894069682
20
-3.6250002384185809
10
51.128407894069682
20
-2.8580832384185784
10
51.368351894069676
20
-2.8580832384185784
10
51.368351894069676
20
-3.6250002384185809
0
LWPOLYLINE
5
401
100
AcDbEntity
8
0
100
AcDbPolyline
90
4
70
1
43
0.0
10
51.089205894069693
20
-9.6250002384185809
10
51.089205894069693
20
-7.3750002384185809
10
51.410795894069693
20
-7.37500023841858
10
51.410795894069693
20
-9.6250002384185809
0
LWPOLYLINE
5
402
100
AcDbEntity
8
0
100
AcDbPolyline
90
4
70
1
43
0.0
10
38.555383894069678
20
-1.5357142384185822
10
38.688454894069686
20
-2.0532142384185814
10
38.30920189406968
20
-3.5060712384185777
10
38.189437894069684
20
-2.9660712384185794
0
LWPOLYLINE
5
403
100
AcDbEntity
8
0
100
AcDbPolyline
90
4
70
1
43
0.0
10
35.372098894069673
20
-1.6385712384185784
10
35.37209889406968
20
-1.3750002384185804
10
37.127902894069678
20
-1.3750002384185804
10
37.127902894069678
20
-1.6385712384185784
0
LWPOLYLINE
5
404
100
AcDbEntity
8
0
100
AcDbPolyline
90
4
70
1
43
0.0
10
42.98483989406968
20
-3.3485712384185806
10
44.515161894069678
20
-3.3485712384185806
10
44.515161894069678
20
-3.6250002384185809
10
42.98483989406968
20
-3.6250002384185809
0
LWPOLYLINE
5
405
100
AcDbEntity
8
0
100
AcDbPolyline
90
12
70
1
43
0.0
10
39.219446894069677
20
-5.2460712384185815
10
39.219446894069677
20
-4.8153572384185805
10
39.034625894069677
20
-4.654643238418581
10
38.428411894069683
20
-4.654643238418581
10
38.428411894069683
20
-4.3750002384185809
10
39.175089894069686
20
-4.3750002384185809
10
39.537339894069675
20
-4.693214238418582
10
39.537339894069675
20
-5.3457142384185801
10
39.186179894069681
20
-5.6510712384185791
10
38.428411894069683
20
-5.6510712384185791
10
38.428411894069683
20
-5.4067862384185794
10
39.034625894069677
20
-5.4067862384185794
0
LWPOLYLINE
5
406
100
AcDbEntity
8
0
100
AcDbPolyline
90
12
70
1
43
0.0
10
49.249018894069678
20
-9.1750002384185816
10
49.249018894069678
20
-8.7089292384185804
10
49.11594689406968
20
-8.590000238418579
10
48.831321894069681
20
-8.590000238418579
10
48.831321894069681
20
-8.3296432384185763
10
49.274893894069685
20
-8.3296432384185763
10
49.570607894069681
20
-8.5803572384185802
10
49.570607894069681
20
-9.2907142384185786
10
49.186179894069681
20
-9.6250002384185809
10
48.831321894069681
20
-9.6250002384185809
10
48.831321894069681
20
-9.3485712384185806
10
49.053107894069683
20
-9.3485712384185806
0
LWPOLYLINE
5
407
100
AcDbEntity
8
0
100
AcDbPolyline
90
4
70
1
43
0.0
10
41.089205894069678
20
-7.767143238418579
10
41.410795894069679
20
-7.7671432384185781
10
41.410795894069679
20
-9.6250002384185809
10
41.089205894069678
20
-9.6250002384185809
0
LWPOLYLINE
5
408
100
AcDbEntity
8
0
100
AcDbPolyline
90
4
70
1
43
0.0
10
40.793491894069682
20
-4.3750002384185809
10
40.793491894069682
20
-6.62500023841858
10
40.471902894069686
20
-6.62500023841858
10
40.471902894069686
20
-4.3750002384185809
0
LWPOLYLINE
5
409
100
AcDbEntity
8
0
100
AcDbPolyline
90
4
70
1
43
0.0
10
33.589205894069678
20
-9.6250002384185809
10
33.589205894069678
20
-7.3750002384185809
10
33.910795894069679
20
-7.37500023841858
10
33.910795894069679
20
-9.6250002384185809
0
LWPOLYLINE
5
410
100
AcDbEntity
8
0
100
AcDbPolyline
90
4
70
1
43
0.0
10
39.239777894069682
20
-9.6250002384185809
10
39.239777894069682
20
-7.3750002384185809
10
39.561366894069678
20
-7.37500023841858
10
39.561366894069678
20
-9.6250002384185809
0
LWPOLYLINE
5
411
100
AcDbEntity
8
0
100
AcDbPolyline
90
4
70
1
43
0.0
10
40.941348894069677
20
-4.6514292384185811
10
40.941348894069677
20
-4.3750002384185809
10
42.020705894069678
20
-4.3750002384185809
10
42.020705894069678
20
-4.6514292384185811
0
LWPOLYLINE
5
412
100
AcDbEntity
8
0
100
AcDbPolyline
90
4
70
1
43
0.0
10
42.88337289406968
20
-9.6250002384185809
10
42.400988894069684
20
-7.3750002384185809
10
42.680438894069681
20
-7.37500023841858
10
43.199417894069683
20
-9.6250002384185809
0
LWPOLYLINE
5
413
100
AcDbEntity
8
0
100
AcDbPolyline
90
4
70
1
43
0.0
10
58.252830894069675
20
-4.3750002384185809
10
58.252830894069675
20
-6.62500023841858
10
57.931241894069672
20
-6.62500023841858
10
57.931241894069672
20
-4.3750002384185809
0
LWPOLYLINE
5
414
100
AcDbEntity
8
0
100
AcDbPolyline
90
12
70
1
43
0.0
10
35.860027894069681
20
-9.6250002384185809
10
35.405366894069687
20
-9.2296432384185803
10
35.405366894069687
20
-7.7510712384185796
10
35.83784889406968
20
-7.37500023841858
10
36.177920894069686
20
-7.37500023841858
10
36.177920894069679
20
-7.6514292384185776
10
35.959830894069675
20
-7.6514292384185776
10
35.72325989406967
20
-7.8571432384185789
10
35.723259894069685
20
-9.1332142384185797
10
35.970920894069678
20
-9.3485712384185806
10
36.177920894069679
20
-9.3485712384185806
10
36.177920894069679
20
-9.6250002384185809
0
LWPOLYLINE
5
415
100
AcDbEntity
8
0
100
AcDbPolyline
90
4
70
1
43
0.0
10
30.94134889406968
20
-8.3200002384185794
10
31.676938894069686
20
-8.3200002384185794
10
31.676938894069675
20
-8.5642862384185783
10
30.941348894069669
20
-8.5642862384185783
0
LWPOLYLINE
5
416
100
AcDbEntity
8
0
100
AcDbPolyline
90
8
70
1
43
0.0
10
35.438634894069679
20
-6.62500023841858
10
35.438634894069679
20
-4.3750002384185809
10
35.756527894069677
20
-4.3750002384185809
10
35.756527894069677
20
-5.3296432384185799
10
36.591920894069681
20
-5.3296432384185799
10
36.591920894069681
20
-5.5546432384185795
10
35.756527894069677
20
-5.5546432384185795
10
35.756527894069677
20
-6.62500023841858
0
LWPOLYLINE
5
417
100
AcDbEntity
8
0
100
AcDbPolyline
90
4
70
1
43
0.0
10
30.94134889406968
20
-6.3485712384185797
10
32.028098894069679
20
-6.3485712384185797
10
32.028098894069679
20
-6.62500023841858
10
30.94134889406968
20
-6.62500023841858
0
LWPOLYLINE
5
418
100
AcDbEntity
8
0
100
AcDbPolyline
90
12
70
1
43
0.0
10
48.228804894069683
20
-8.590000238418579
10
47.929393894069676
20
-8.3328572384185797
10
47.929393894069676
20
-7.6932142384185784
10
48.29533989406967
20
-7.37500023841858
10
48.683464894069687
20
-7.37500023841858
10
48.683464894069687
20
-7.6514292384185776
10
48.43580489406969
20
-7.6514292384185776
10
48.247286894069674
20
-7.8153572384185797
10
48.247286894069674
20
-8.2139292384185776
10
48.387750894069669
20
-8.3296432384185763
10
48.683464894069672
20
-8.3296432384185763
10
48.683464894069687
20
-8.5900002384185772
0
LWPOLYLINE
5
419
100
AcDbEntity
8
0
100
AcDbPolyline
90
4
70
1
43
0.0
10
51.089205894069693
20
-6.62500023841858
10
51.089205894069693
20
-4.3750002384185809
10
51.410795894069693
20
-4.3750002384185809
10
51.410795894069693
20
-6.62500023841858
0
LWPOLYLINE
5
420
100
AcDbEntity
8
0
100
AcDbPolyline
90
12
70
1
43
0.0
10
45.823063894069676
20
-9.6250002384185809
10
45.405366894069687
20
-9.2617862384185816
10
45.405366894069687
20
-7.7221432384185782
10
45.804580894069673
20
-7.37500023841858
10
46.196402894069678
20
-7.37500023841858
10
46.196402894069678
20
-7.6514292384185776
10
45.933955894069683
20
-7.6514292384185776
10
45.723259894069685
20
-7.834643238418578
10
45.723259894069685
20
-9.1525002384185807
10
45.948741894069691
20
-9.3485712384185806
10
46.196402894069664
20
-9.3485712384185806
10
46.196402894069678
20
-9.6250002384185809
0
LWPOLYLINE
5
421
100
AcDbEntity
8
0
100
AcDbPolyline
90
4
70
1
43
0.0
10
40.941348894069677
20
-5.3200002384185812
10
41.676938894069679
20
-5.3200002384185812
10
41.676938894069679
20
-5.5642862384185783
10
40.941348894069677
20
-5.5642862384185783
0
LWPOLYLINE
5
422
100
AcDbEntity
8
0
100
AcDbPolyline
90
4
70
1
43
0.0
10
30.793491894069682
20
-7.37500023841858
10
30.793491894069682
20
-9.6250002384185809
10
30.471902894069682
20
-9.6250002384185809
10
30.471902894069682
20
-7.3750002384185809
0
LWPOLYLINE
5
423
100
AcDbEntity
8
0
100
AcDbPolyline
90
4
70
1
43
0.0
10
32.872098894069673
20
-4.638571238418578
10
32.87209889406968
20
-4.3750002384185809
10
34.627902894069678
20
-4.3750002384185809
10
34.627902894069678
20
-4.638571238418578
0
LWPOLYLINE
5
424
100
AcDbEntity
8
0
100
AcDbPolyline
90
4
70
1
43
0.0
10
39.056804894069678
20
-5.7796432384185792
10
39.489286894069679
20
-6.62500023841858
10
39.15660789406968
20
-6.62500023841858
10
38.73151889406968
20
-5.7796432384185792
0
LWPOLYLINE
5
425
100
AcDbEntity
8
0
100
AcDbPolyline
90
8
70
1
43
0.0
10
54.247170894069683
20
11.847499761581414
10
54.247170894069683
20
13.624999761581416
10
54.557670894069688
20
13.624999761581416
10
54.557670894069688
20
11.718928761581417
10
54.162152894069692
20
11.374999761581414
10
53.829473894069686
20
11.374999761581414
10
53.829473894069686
20
11.651428761581414
10
54.021687894069679
20
11.651428761581414
0
LWPOLYLINE
5
426
100
AcDbEntity
8
0
100
AcDbPolyline
90
4
70
1
43
0.0
10
35.941348894069677
20
8.6514287615814141
10
37.028098894069679
20
8.6514287615814141
10
37.028098894069679
20
8.3749997615814191
10
35.941348894069677
20
8.3749997615814191
0
LWPOLYLINE
5
427
100
AcDbEntity
8
0
100
AcDbPolyline
90
6
70
1
43
0.0
10
36.087357894069676
20
0.28464276158141844
10
35.422000894069676
20
1.6249997615814191
10
35.758375894069673
20
1.6249997615814191
10
36.408946894069672
20
0.25249976158142062
10
36.408946894069686
20
-0.62500023841858132
10
36.087357894069683
20
-0.62500023841858132
0
LWPOLYLINE
5
428
100
AcDbEntity
8
0
100
AcDbPolyline
90
12
70
1
43
0.0
10
59.219446894069691
20
12.753928761581417
10
59.219446894069691
20
13.184642761581413
10
59.034625894069691
20
13.345356761581417
10
58.428411894069683
20
13.345356761581417
10
58.428411894069683
20
13.624999761581416
10
59.175089894069686
20
13.624999761581416
10
59.537339894069689
20
13.306785761581414
10
59.537339894069689
20
12.654285761581416
10
59.186179894069681
20
12.348928761581416
10
58.428411894069683
20
12.348928761581416
10
58.428411894069683
20
12.593213761581413
10
59.034625894069691
20
12.593213761581413
0
LWPOLYLINE
5
429
100
AcDbEntity
8
0
100
AcDbPolyline
90
4
70
1
43
0.0
10
58.441348894069677
20
9.6799997615814188
10
59.176938894069679
20
9.6799997615814188
10
59.176938894069679
20
9.4357137615814199
10
58.441348894069677
20
9.4357137615814199
0
LWPOLYLINE
5
430
100
AcDbEntity
8
0
100
AcDbPolyline
90
4
70
1
43
0.0
10
41.089205894069678
20
7.2328567615814183
10
41.410795894069679
20
7.2328567615814183
10
41.410795894069679
20
5.3749997615814156
10
41.089205894069678
20
5.3749997615814156
0
LWPOLYLINE
5
431
100
AcDbEntity
8
0
100
AcDbPolyline
90
4
70
1
43
0.0
10
58.441348894069677
20
8.6514287615814141
10
59.528098894069679
20
8.6514287615814141
10
59.528098894069679
20
8.3749997615814191
10
58.441348894069677
20
8.3749997615814191
0
LWPOLYLINE
5
432
100
AcDbEntity
8
0
100
AcDbPolyline
90
12
70
1
43
0.0
10
30.860027894069681
20
5.3749997615814156
10
30.405366894069683
20
5.7703567615814162
10
30.405366894069683
20
7.2489287615814195
10
30.83784889406968
20
7.6249997615814173
10
31.177920894069686
20
7.6249997615814173
10
31.177920894069679
20
7.3485707615814171
10
30.959830894069675
20
7.3485707615814171
10
30.72325989406967
20
7.1428567615814202
10
30.723259894069681
20
5.866785761581415
10
30.970920894069678
20
5.6514287615814158
10
31.177920894069679
20
5.6514287615814158
10
31.177920894069679
20
5.3749997615814156
0
LWPOLYLINE
5
433
100
AcDbEntity
8
0
100
AcDbPolyline
90
4
70
1
43
0.0
10
33.441348894069677
20
10.348570761581421
10
33.441348894069677
20
10.624999761581417
10
34.524402894069681
20
10.624999761581417
10
34.524402894069681
20
10.348570761581421
0
LWPOLYLINE
5
434
100
AcDbEntity
8
0
100
AcDbPolyline
90
12
70
1
43
0.0
10
59.250866894069688
20
5.9214287615814172
10
59.250866894069674
20
7.0882137615814216
10
58.95515289406967
20
7.3485707615814171
10
58.40068889406966
20
7.3485707615814171
10
58.400688894069681
20
7.6249997615814173
10
59.069741894069679
20
7.6249997615814173
10
59.568759894069686
20
7.19107076158142
10
59.568759894069686
20
5.8282137615814218
10
59.047563894069683
20
5.3749997615814173
10
58.400688894069681
20
5.3749997615814173
10
58.400688894069681
20
5.6514287615814158
10
58.940366894069683
20
5.6514287615814158
0
LWPOLYLINE
5
435
100
AcDbEntity
8
0
100
AcDbPolyline
90
4
70
1
43
0.0
10
40.37209889406968
20
7.3614287615814185
10
40.37209889406968
20
7.6249997615814173
10
42.127902894069678
20
7.6249997615814173
10
42.127902894069678
20
7.3614287615814185
0
LWPOLYLINE
5
436
100
AcDbEntity
8
0
100
AcDbPolyline
90
4
70
1
43
0.0
10
36.808161894069684
20
5.3749997615814156
10
36.808161894069684
20
7.6249997615814173
10
37.08908989406968
20
7.6249997615814173
10
37.08908989406968
20
5.3749997615814156
0
LWPOLYLINE
5
437
100
AcDbEntity
8
0
100
AcDbPolyline
90
4
70
1
43
0.0
10
35.793491894069682
20
10.624999761581417
10
35.793491894069682
20
8.3749997615814191
10
35.471902894069686
20
8.3749997615814191
10
35.471902894069686
20
10.624999761581417
0
LWPOLYLINE
5
438
100
AcDbEntity
8
0
100
AcDbPolyline
90
4
70
1
43
0.0
10
50.691839894069673
20
7.6249997615814173
10
50.691839894069673
20
5.3749997615814156
10
50.410911894069685
20
5.3749997615814156
10
50.410911894069685
20
7.6249997615814173
0
LWPOLYLINE
5
439
100
AcDbEntity
8
0
100
AcDbPolyline
90
8
70
1
43
0.0
10
31.325777894069677
20
7.6249997615814173
10
31.728688894069677
20
7.6249997615814173
10
32.094634894069678
20
7.3067857615814162
10
32.094634894069678
20
6.9082137615814183
10
31.77674189406968
20
6.9082137615814183
10
31.77674189406968
20
7.184642761581415
10
31.591920894069681
20
7.3485707615814171
10
31.325777894069677
20
7.3485707615814171
0
LWPOLYLINE
5
440
100
AcDbEntity
8
0
100
AcDbPolyline
90
12
70
1
43
0.0
10
31.719446894069677
20
3.7539287615814154
10
31.719446894069677
20
4.1846427615814168
10
31.534625894069677
20
4.3453567615814155
10
30.928411894069683
20
4.3453567615814155
10
30.928411894069683
20
4.6249997615814191
10
31.675089894069686
20
4.6249997615814191
10
32.037339894069675
20
4.306785761581418
10
32.037339894069675
20
3.654285761581415
10
31.686179894069674
20
3.3489287615814183
10
30.928411894069683
20
3.3489287615814183
10
30.928411894069683
20
3.5932137615814175
10
31.534625894069677
20
3.5932137615814175
0
LWPOLYLINE
5
441
100
AcDbEntity
8
0
100
AcDbPolyline
90
4
70
1
43
0.0
10
35.941348894069677
20
9.6799997615814188
10
36.676937894069681
20
9.6799997615814188
10
36.676937894069681
20
9.4357137615814199
10
35.941348894069677
20
9.4357137615814199
0
LWPOLYLINE
5
442
100
AcDbEntity
8
0
100
AcDbPolyline
90
4
70
1
43
0.0
10
58.293491894069675
20
10.624999761581417
10
58.293491894069675
20
8.3749997615814191
10
57.971902894069686
20
8.3749997615814191
10
57.971902894069686
20
10.624999761581417
0
LWPOLYLINE
5
443
100
AcDbEntity
8
0
100
AcDbPolyline
90
4
70
1
43
0.0
10
49.239777894069675
20
8.3749997615814191
10
49.239777894069675
20
10.624999761581417
10
49.561366894069678
20
10.624999761581417
10
49.561366894069678
20
8.3749997615814191
0
LWPOLYLINE
5
444
100
AcDbEntity
8
0
100
AcDbPolyline
90
4
70
1
43
0.0
10
43.441348894069669
20
10.348570761581421
10
43.441348894069677
20
10.624999761581417
10
44.524402894069667
20
10.624999761581417
10
44.524402894069667
20
10.348570761581421
0
LWPOLYLINE
5
445
100
AcDbEntity
8
0
100
AcDbPolyline
90
4
70
1
43
0.0
10
35.941348894069677
20
10.348570761581421
10
35.941348894069677
20
10.624999761581417
10
37.020705894069678
20
10.624999761581417
10
37.020705894069678
20
10.348570761581421
0
LWPOLYLINE
5
446
100
AcDbEntity
8
0
100
AcDbPolyline
90
4
70
1
43
0.0
10
33.441348894069677
20
0.67999976158141906
10
34.176938894069686
20
0.67999976158141906
10
34.176938894069679
20
0.43571376158141883
10
33.441348894069669
20
0.43571376158141883
0
LWPOLYLINE
5
447
100
AcDbEntity
8
0
100
AcDbPolyline
90
4
70
1
43
0.0
10
33.293491894069682
20
1.6249997615814191
10
33.293491894069682
20
-0.62500023841858132
10
32.971902894069686
20
-0.62500023841858132
10
32.971902894069686
20
1.6249997615814191
0
LWPOLYLINE
5
448
100
AcDbEntity
8
0
100
AcDbPolyline
90
6
70
1
43
0.0
10
38.587357894069676
20
0.28464276158141844
10
37.922000894069676
20
1.6249997615814193
10
38.258375894069673
20
1.6249997615814193
10
38.908946894069686
20
0.2524997615814209
10
38.908946894069686
20
-0.62500023841858099
10
38.587357894069683
20
-0.62500023841858132
0
LWPOLYLINE
5
449
100
AcDbEntity
8
0
100
AcDbPolyline
90
4
70
1
43
0.0
10
56.556804894069685
20
12.220356761581414
10
56.989286894069679
20
11.374999761581414
10
56.656607894069694
20
11.374999761581414
10
56.23151889406968
20
12.220356761581414
0
LWPOLYLINE
5
450
100
AcDbEntity
8
0
100
AcDbPolyline
90
4
70
1
43
0.0
10
33.293491894069682
20
10.624999761581417
10
33.293491894069682
20
8.3749997615814191
10
32.975598894069684
20
8.3749997615814191
10
32.975598894069684
20
10.624999761581417
0
LWPOLYLINE
5
451
100
AcDbEntity
8
0
100
AcDbPolyline
90
4
70
1
43
0.0
10
33.441348894069677
20
1.3485707615814189
10
33.441348894069677
20
1.6249997615814191
10
34.520705894069678
20
1.6249997615814191
10
34.520705894069678
20
1.3485707615814189
0
LWPOLYLINE
5
452
100
AcDbEntity
8
0
100
AcDbPolyline
90
8
70
1
43
0.0
10
52.94233089406967
20
13.624999761581416
10
53.260223894069668
20
13.624999761581416
10
53.260223894069668
20
11.847499761581414
10
53.485705894069667
20
11.651428761581414
10
53.681616894069677
20
11.651428761581414
10
53.681616894069677
20
11.374999761581414
10
53.337848894069673
20
11.374999761581414
10
52.942330894069691
20
11.718928761581417
0
LWPOLYLINE
5
453
100
AcDbEntity
8
0
100
AcDbPolyline
90
4
70
1
43
0.0
10
31.660304894069675
20
9.1785707615814189
10
31.660304894069675
20
8.5839287615814168
10
30.839696894069675
20
9.9853567615814196
10
30.839696894069675
20
10.59285676158142
0
LWPOLYLINE
5
454
100
AcDbEntity
8
0
100
AcDbPolyline
90
4
70
1
43
0.0
10
54.056804894069685
20
9.2203567615814173
10
54.489286894069679
20
8.3749997615814191
10
54.156607894069694
20
8.3749997615814191
10
53.73151889406968
20
9.2203567615814173
0
LWPOLYLINE
5
455
100
AcDbEntity
8
0
100
AcDbPolyline
90
4
70
1
43
0.0
10
31.089205894069678
20
16.23285676158142
10
31.410795894069679
20
16.23285676158142
10
31.410795894069679
20
14.374999761581417
10
31.089205894069678
20
14.374999761581417
0
LWPOLYLINE
5
456
100
AcDbEntity
8
0
100
AcDbPolyline
90
4
70
1
43
0.0
10
55.780554894069674
20
13.624999761581416
10
55.780554894069674
20
11.374999761581414
10
55.462661894069676
20
11.374999761581414
10
55.462661894069676
20
13.624999761581416
0
LWPOLYLINE
5
457
100
AcDbEntity
8
0
100
AcDbPolyline
90
12
70
1
43
0.0
10
56.719446894069691
20
12.753928761581417
10
56.719446894069691
20
13.184642761581413
10
56.534625894069691
20
13.345356761581417
10
55.928411894069683
20
13.345356761581417
10
55.928411894069683
20
13.624999761581416
10
56.675089894069686
20
13.624999761581416
10
57.037339894069689
20
13.306785761581414
10
57.037339894069689
20
12.654285761581416
10
56.686179894069681
20
12.348928761581416
10
55.928411894069683
20
12.348928761581416
10
55.928411894069683
20
12.593213761581413
10
56.534625894069691
20
12.593213761581413
0
LWPOLYLINE
5
458
100
AcDbEntity
8
0
100
AcDbPolyline
90
4
70
1
43
0.0
10
33.441348894069677
20
-0.34857123841858101
10
34.528098894069679
20
-0.34857123841858101
10
34.528098894069679
20
-0.62500023841858132
10
33.441348894069677
20
-0.62500023841858132
0
LWPOLYLINE
5
459
100
AcDbEntity
8
0
100
AcDbPolyline
90
4
70
1
43
0.0
10
31.808161894069684
20
8.3749997615814191
10
31.808161894069677
20
10.624999761581417
10
32.08908989406968
20
10.624999761581417
10
32.08908989406968
20
8.3749997615814191
0
LWPOLYLINE
5
460
100
AcDbEntity
8
0
100
AcDbPolyline
90
4
70
1
43
0.0
10
58.280554894069674
20
13.624999761581416
10
58.280554894069674
20
11.374999761581414
10
57.962661894069676
20
11.374999761581414
10
57.962661894069676
20
13.624999761581416
0
LWPOLYLINE
5
461
100
AcDbEntity
8
0
100
AcDbPolyline
90
4
70
1
43
0.0
10
59.239777894069675
20
2.3749997615814191
10
59.239777894069675
20
4.62499976158142
10
59.561366894069678
20
4.62499976158142
10
59.561366894069678
20
2.3749997615814191
0
LWPOLYLINE
5
462
100
AcDbEntity
8
0
100
AcDbPolyline
90
8
70
1
43
0.0
10
31.477330894069677
20
-0.05928623841858216
10
30.826759894069681
20
-0.05928623841858216
10
30.660420894069674
20
-0.62500023841858132
10
30.364705894069672
20
-0.62500023841858132
10
31.011580894069681
20
1.4803567615814193
10
31.148348894069677
20
1.0239287615814217
10
30.889598894069678
20
0.14642876158141971
10
31.41449189406968
20
0.14642876158141971
0
LWPOLYLINE
5
463
100
AcDbEntity
8
0
100
AcDbPolyline
90
4
70
1
43
0.0
10
59.056804894069685
20
12.220356761581414
10
59.489286894069679
20
11.374999761581414
10
59.156607894069694
20
11.374999761581414
10
58.73151889406968
20
12.220356761581414
0
LWPOLYLINE
5
464
100
AcDbEntity
8
0
100
AcDbPolyline
90
12
70
1
43
0.0
10
39.219446894069677
20
6.7539287615814185
10
39.219446894069677
20
7.184642761581415
10
39.034625894069677
20
7.345356761581419
10
38.428411894069683
20
7.345356761581419
10
38.428411894069683
20
7.6249997615814173
10
39.175089894069686
20
7.6249997615814173
10
39.537339894069675
20
7.3067857615814162
10
39.537339894069675
20
6.6542857615814182
10
39.186179894069681
20
6.3489287615814209
10
38.428411894069683
20
6.3489287615814209
10
38.428411894069683
20
6.5932137615814206
10
39.034625894069677
20
6.5932137615814206
0
LWPOLYLINE
5
465
100
AcDbEntity
8
0
100
AcDbPolyline
90
8
70
1
43
0.0
10
57.938634894069679
20
2.3749997615814191
10
57.938634894069679
20
4.62499976158142
10
58.256527894069677
20
4.62499976158142
10
58.256527894069677
20
3.6703567615814183
10
59.091920894069681
20
3.6703567615814183
10
59.091920894069681
20
3.4453567615814187
10
58.256527894069677
20
3.4453567615814187
10
58.256527894069677
20
2.3749997615814191
0
LWPOLYLINE
5
466
100
AcDbEntity
8
0
100
AcDbPolyline
90
4
70
1
43
0.0
10
30.691839894069677
20
10.624999761581417
10
30.691839894069677
20
8.3749997615814191
10
30.410911894069681
20
8.3749997615814191
10
30.410911894069681
20
10.624999761581417
0
ENDSEC
0
SECTION
2
OBJECTS
0
DICTIONARY
5
C
100
AcDbDictionary
3
ACAD_GROUP
350
D
3
ACAD_MLINESTYLE
350
17
0
DICTIONARY
5
D
100
AcDbDictionary
0
DICTIONARY
5
1A
330
C
100
AcDbDictionary
0
DICTIONARY
5
17
100
AcDbDictionary
0
ENDSEC
0
EOF
