0
SECTION
2
HEADER
9
$INSUNITS
70
4
9
$ACADVER
1
AC1014
9
$HANDSEED
5
FFFF
0
ENDSEC
0
SECTION
2
TABLES
0
TABLE
2
VPORT
5
8
100
AcDbSymbolTable
0
ENDTAB
0
TABLE
2
LTYPE
5
5
100
AcDbSymbolTable
0
LTYPE
5
14
100
AcDbSymbolTableRecord
100
AcDbLinetypeTableRecord
2
BYBLOCK
70
0
0
LTYPE
5
15
100
AcDbSymbolTableRecord
100
AcDbLinetypeTableRecord
2
BYLAYER
70
0
0
LTYPE
5
16
100
AcDbSymbolTableRecord
100
AcDbLinetypeTableRecord
2
DASHED
70
0
3
Dashed __ __ __ __ __ __ __ __ __ __ __ __ __ _
72
65
73
2
40
0.75
49
0.5
74
0
49
-0.25
74
0
0
ENDTAB
0
TABLE
2
LAYER
5
2
100
AcDbSymbolTable
70
2
0
LAYER
5
50
100
AcDbSymbolTableRecord
100
AcDbLayerTableRecord
2
0
70
0
62
7
6
CONTINUOUS
0
ENDTAB
0
TABLE
2
STYLE
5
3
100
AcDbSymbolTable
70
1
0
STYLE
5
11
100
AcDbSymbolTableRecord
100
AcDbTextStyleTableRecord
2
STANDARD
70
0
0
ENDTAB
0
TABLE
2
VIEW
5
6
100
AcDbSymbolTable
70
0
0
ENDTAB
0
TABLE
2
UCS
5
7
100
AcDbSymbolTable
70
0
0
ENDTAB
0
TABLE
2
APPID
5
9
100
AcDbSymbolTable
70
2
0
APPID
5
12
100
AcDbSymbolTableRecord
100
AcDbRegAppTableRecord
2
ACAD
70
0
0
ENDTAB
0
TABLE
2
DIMSTYLE
5
A
100
AcDbSymbolTable
70
1
0
ENDTAB
0
TABLE
2
BLOCK_RECORD
5
1
100
AcDbSymbolTable
70
1
0
BLOCK_RECORD
5
1F
100
AcDbSymbolTableRecord
100
AcDbBlockTableRecord
2
*MODEL_SPACE
0
BLOCK_RECORD
5
1B
100
AcDbSymbolTableRecord
100
AcDbBlockTableRecord
2
*PAPER_SPACE
0
ENDTAB
0
ENDSEC
0
SECTION
2
BLOCKS
0
BLOCK
5
20
100
AcDbEntity
100
AcDbBlockBegin
2
*MODEL_SPACE
0
ENDBLK
5
21
100
AcDbEntity
100
AcDbBlockEnd
0
BLOCK
5
1C
100
AcDbEntity
100
AcDbBlockBegin
2
*PAPER_SPACE
0
ENDBLK
5
1D
100
AcDbEntity
100
AcDbBlockEnd
0
ENDSEC
0
SECTION
2
ENTITIES
0
ARC
5
100
100
AcDbEntity
8
0
100
AcDbCircle
10
17.499999999998224
20
17.499999999999979
30
0
40
2.9999999999999982
210
0
220
0
230
1
100
AcDbArc
50
0
51
90
6
DASHED
0
LINE
5
101
100
AcDbEntity
8
0
100
AcDbLine
10
17.499999999998224
20
20.499999999999975
30
0
11
-17.500000000001769
21
20.499999999999975
31
0
6
DASHED
0
ARC
5
102
100
AcDbEntity
8
0
100
AcDbCircle
10
-17.500000000001773
20
17.499999999999979
30
0
40
2.9999999999999982
210
0
220
-0
230
1
100
AcDbArc
50
89.999999999999929
51
180
6
DASHED
0
LINE
5
103
100
AcDbEntity
8
0
100
AcDbLine
10
-20.500000000001766
20
17.499999999999972
30
0
11
-20.500000000001766
21
-17.500000000000036
31
0
6
DASHED
0
ARC
5
104
100
AcDbEntity
8
0
100
AcDbCircle
10
-17.500000000001773
20
-17.500000000000039
30
0
40
2.9999999999999938
210
0
220
0
230
1
100
AcDbArc
50
180
51
270.00000000000006
6
DASHED
0
LINE
5
105
100
AcDbEntity
8
0
100
AcDbLine
10
-17.500000000001769
20
-20.500000000000036
30
0
11
17.499999999998238
21
-20.500000000000025
31
0
6
DASHED
0
ARC
5
106
100
AcDbEntity
8
0
100
AcDbCircle
10
17.499999999998238
20
-17.500000000000021
30
0
40
3.0000000000000027
210
0
220
0
230
1
100
AcDbArc
50
-90
51
0
6
DASHED
0
LINE
5
107
100
AcDbEntity
8
0
100
AcDbLine
10
20.499999999998238
20
-17.500000000000021
30
0
11
20.499999999998224
21
17.499999999999979
31
0
6
DASHED
0
LINE
5
108
100
AcDbEntity
8
0
100
AcDbLine
10
18.89999999999997
20
16.899999999999981
30
0
11
18.89999999999997
21
-16.90000000000002
31
0
6
DASHED
0
ARC
5
109
100
AcDbEntity
8
0
100
AcDbCircle
10
16.89999999999997
20
-16.90000000000002
30
0
40
1.9999999999999996
210
-0
220
0
230
1
100
AcDbArc
50
-90
51
0
6
DASHED
0
LINE
5
110
100
AcDbEntity
8
0
100
AcDbLine
10
16.89999999999997
20
-18.90000000000002
30
0
11
-16.900000000001665
21
-18.90000000000002
31
0
6
DASHED
0
ARC
5
111
100
AcDbEntity
8
0
100
AcDbCircle
10
-16.900000000001665
20
-16.90000000000002
30
0
40
1.9999999999999996
210
0
220
0
230
1
100
AcDbArc
50
180
51
270
6
DASHED
0
LINE
5
112
100
AcDbEntity
8
0
100
AcDbLine
10
-18.900000000001665
20
-16.899999999999928
30
0
11
-18.900000000000109
21
16.90000000000007
31
0
6
DASHED
0
ARC
5
113
100
AcDbEntity
8
0
100
AcDbCircle
10
-16.900000000000112
20
16.899999999999981
30
0
40
1.9999999999999996
210
0
220
-0
230
1
100
AcDbArc
50
90
51
180
6
DASHED
0
LINE
5
114
100
AcDbEntity
8
0
100
AcDbLine
10
-16.900000000000112
20
18.899999999999981
30
0
11
16.899999999999974
21
18.899999999999977
31
0
6
DASHED
0
ARC
5
115
100
AcDbEntity
8
0
100
AcDbCircle
10
16.899999999999974
20
16.899999999999981
30
0
40
1.9999999999999973
210
0
220
-0
230
1
100
AcDbArc
50
0
51
90
6
DASHED
0
LWPOLYLINE
5
116
100
AcDbEntity
8
0
100
AcDbPolyline
90
8
70
1
43
0.0
10
18.849999999999973
20
16.899999999999981
10
18.849999999999969
20
-16.90000000000002
42
-0.41421356237309503
10
16.89999999999997
20
-18.850000000000023
10
-16.900000000001665
20
-18.850000000000019
42
-0.41421356237310836
10
-18.850000000001664
20
-16.899999999999931
10
-18.850000000000115
20
16.90000000000007
42
-0.41421356237308204
10
-16.900000000000112
20
18.849999999999984
10
16.899999999999974
20
18.84999999999998
42
-0.4142135623730947
0
CIRCLE
5
117
100
AcDbEntity
8
0
100
AcDbCircle
10
-16.000000000000011
20
16.000000000000007
30
0
40
0.79999999999999849
210
0
220
-0
230
1
6
DASHED
0
CIRCLE
5
118
100
AcDbEntity
8
0
100
AcDbCircle
10
15.999999999999995
20
16.000000000000007
30
0
40
0.80000000000000071
210
0
220
-0
230
1
6
DASHED
0
CIRCLE
5
119
100
AcDbEntity
8
0
100
AcDbCircle
10
15.999999999999995
20
-16.000000000000007
30
0
40
0.80000000000000071
210
0
220
-0
230
1
6
DASHED
0
CIRCLE
5
120
100
AcDbEntity
8
0
100
AcDbCircle
10
-16.000000000000007
20
-16
30
0
40
0.80000000000000071
210
0
220
-0
230
1
6
DASHED
0
CIRCLE
5
121
100
AcDbEntity
8
0
100
AcDbCircle
10
-16.000000000000011
20
16.000000000000007
30
0
40
0.79999999999999938
210
0
220
0
230
1
0
CIRCLE
5
122
100
AcDbEntity
8
0
100
AcDbCircle
10
15.999999999999995
20
16.000000000000007
30
0
40
0.80000000000000016
210
0
220
0
230
1
0
CIRCLE
5
123
100
AcDbEntity
8
0
100
AcDbCircle
10
-16.000000000000007
20
-16
30
0
40
0.79999999999999971
210
0
220
0
230
1
0
CIRCLE
5
124
100
AcDbEntity
8
0
100
AcDbCircle
10
15.999999999999995
20
-16.000000000000007
30
0
40
0.79999999999999905
210
0
220
0
230
1
0
ENDSEC
0
SECTION
2
OBJECTS
0
DICTIONARY
5
C
100
AcDbDictionary
3
ACAD_GROUP
350
D
3
ACAD_MLINESTYLE
350
17
0
DICTIONARY
5
D
100
AcDbDictionary
0
DICTIONARY
5
1A
330
C
100
AcDbDictionary
0
DICTIONARY
5
17
100
AcDbDictionary
0
ENDSEC
0
EOF
