0
SECTION
2
HEADER
9
$INSUNITS
70
4
9
$ACADVER
1
AC1014
9
$HANDSEED
5
FFFF
0
ENDSEC
0
SECTION
2
TABLES
0
TABLE
2
VPORT
5
8
100
AcDbSymbolTable
0
ENDTAB
0
TABLE
2
LTYPE
5
5
100
AcDbSymbolTable
0
LTYPE
5
14
100
AcDbSymbolTableRecord
100
AcDbLinetypeTableRecord
2
BYBLOCK
70
0
0
LTYPE
5
15
100
AcDbSymbolTableRecord
100
AcDbLinetypeTableRecord
2
BYLAYER
70
0
0
LTYPE
5
16
100
AcDbSymbolTableRecord
100
AcDbLinetypeTableRecord
2
DASHED
70
0
3
Dashed __ __ __ __ __ __ __ __ __ __ __ __ __ _
72
65
73
2
40
0.75
49
0.5
74
0
49
-0.25
74
0
0
ENDTAB
0
TABLE
2
LAYER
5
2
100
AcDbSymbolTable
70
2
0
LAYER
5
50
100
AcDbSymbolTableRecord
100
AcDbLayerTableRecord
2
0
70
0
62
7
6
CONTINUOUS
0
ENDTAB
0
TABLE
2
STYLE
5
3
100
AcDbSymbolTable
70
1
0
STYLE
5
11
100
AcDbSymbolTableRecord
100
AcDbTextStyleTableRecord
2
STANDARD
70
0
0
ENDTAB
0
TABLE
2
VIEW
5
6
100
AcDbSymbolTable
70
0
0
ENDTAB
0
TABLE
2
UCS
5
7
100
AcDbSymbolTable
70
0
0
ENDTAB
0
TABLE
2
APPID
5
9
100
AcDbSymbolTable
70
2
0
APPID
5
12
100
AcDbSymbolTableRecord
100
AcDbRegAppTableRecord
2
ACAD
70
0
0
ENDTAB
0
TABLE
2
DIMSTYLE
5
A
100
AcDbSymbolTable
70
1
0
ENDTAB
0
TABLE
2
BLOCK_RECORD
5
1
100
AcDbSymbolTable
70
1
0
BLOCK_RECORD
5
1F
100
AcDbSymbolTableRecord
100
AcDbBlockTableRecord
2
*MODEL_SPACE
0
BLOCK_RECORD
5
1B
100
AcDbSymbolTableRecord
100
AcDbBlockTableRecord
2
*PAPER_SPACE
0
ENDTAB
0
ENDSEC
0
SECTION
2
BLOCKS
0
BLOCK
5
20
100
AcDbEntity
100
AcDbBlockBegin
2
*MODEL_SPACE
0
ENDBLK
5
21
100
AcDbEntity
100
AcDbBlockEnd
0
BLOCK
5
1C
100
AcDbEntity
100
AcDbBlockBegin
2
*PAPER_SPACE
0
ENDBLK
5
1D
100
AcDbEntity
100
AcDbBlockEnd
0
ENDSEC
0
SECTION
2
ENTITIES
0
LWPOLYLINE
5
100
100
AcDbEntity
8
0
100
AcDbPolyline
90
30
70
1
43
0.0
10
56.281223939105388
20
14.517718387204493
10
56.270605939105408
20
14.342738387204495
10
56.275803939105401
20
14.238387387204494
10
56.311359939105401
20
14.074888387204492
10
56.371243939105398
20
13.955821387204487
10
56.454065939105398
20
13.863946387204489
10
56.500758939105395
20
13.830437387204492
10
56.6043009391054
20
13.78855038720449
10
56.721068939105393
20
13.780183387204492
10
56.832921939105404
20
13.805562387204493
10
56.93029993910541
20
13.864780387204492
10
57.012829939105401
20
13.957665387204489
10
57.0458649391054
20
14.01550938720449
10
57.092114939105386
20
14.152457387204496
10
57.10759993910537
20
14.252444387204493
10
57.111348939105397
20
14.421251387204494
10
57.092898939105403
20
14.567171387204489
10
57.057593939105388
20
14.683398387204491
10
57.011367939105391
20
14.772204387204491
10
56.959164939105392
20
14.837135387204492
10
56.896663939105409
20
14.888789387204493
10
56.827393939105391
20
14.925127387204487
10
56.752801939105396
20
14.945315387204491
10
56.693364939105408
20
14.949857387204492
10
56.623321939105402
20
14.943785387204487
10
56.519977939105402
20
14.908806387204494
10
56.460841939105407
20
14.871156387204493
10
56.405900939105393
20
14.821360387204489
10
56.348828939105395
20
14.743513387204496
10
56.319359939105397
20
14.678658387204486
0
LWPOLYLINE
5
101
100
AcDbEntity
8
0
100
AcDbPolyline
90
13
70
1
43
0.0
10
54.225218939105403
20
14.948753387204492
10
53.798572939105398
20
14.94922938720449
10
53.798572939105398
20
14.452981387204488
10
54.256679939105403
20
14.458891387204488
10
54.3527979391054
20
14.486042387204494
10
54.411449939105395
20
14.52948038720449
10
54.45819193910539
20
14.608183387204486
10
54.475210939105395
20
14.705709387204486
10
54.465976939105403
20
14.780194387204492
10
54.442264939105399
20
14.837465387204489
10
54.403942939105399
20
14.886269387204496
10
54.3647699391054
20
14.914833387204489
10
54.30704493910541
20
14.937327387204487
0
LWPOLYLINE
5
102
100
AcDbEntity
8
0
100
AcDbPolyline
90
30
70
1
43
0.0
10
51.281223939105388
20
11.517718387204489
10
51.270605939105408
20
11.342738387204491
10
51.275803939105401
20
11.238387387204492
10
51.311359939105401
20
11.074888387204494
10
51.371243939105398
20
10.955821387204489
10
51.454065939105398
20
10.863946387204486
10
51.500758939105395
20
10.830437387204494
10
51.6043009391054
20
10.788550387204491
10
51.721068939105393
20
10.780183387204485
10
51.832921939105404
20
10.805562387204491
10
51.93029993910541
20
10.864780387204494
10
52.012829939105401
20
10.957665387204488
10
52.0458649391054
20
11.015509387204492
10
52.092114939105407
20
11.152457387204493
10
52.107599939105391
20
11.252444387204495
10
52.111348939105383
20
11.421251387204496
10
52.092898939105403
20
11.567171387204487
10
52.057593939105402
20
11.683398387204489
10
52.011367939105412
20
11.772204387204493
10
51.959164939105392
20
11.837135387204489
10
51.896663939105409
20
11.888789387204495
10
51.827393939105391
20
11.925127387204489
10
51.752801939105396
20
11.94531538720449
10
51.693364939105408
20
11.949857387204494
10
51.623321939105402
20
11.943785387204493
10
51.519977939105402
20
11.908806387204491
10
51.460841939105407
20
11.871156387204492
10
51.405900939105393
20
11.821360387204491
10
51.348828939105395
20
11.743513387204494
10
51.319359939105397
20
11.678658387204488
0
LWPOLYLINE
5
103
100
AcDbEntity
8
0
100
AcDbPolyline
90
4
70
1
43
0.0
10
46.6716809391054
20
11.957414387204492
10
46.602972939105392
20
11.670921387204487
10
46.462948939105395
20
11.230948387204487
10
46.895196939105396
20
11.230948387204487
0
LWPOLYLINE
5
104
100
AcDbEntity
8
0
100
AcDbPolyline
90
30
70
1
43
0.0
10
41.281223939105402
20
11.517718387204487
10
41.270605939105394
20
11.34273838720449
10
41.275803939105401
20
11.23838738720449
10
41.311359939105401
20
11.074888387204492
10
41.371243939105398
20
10.955821387204487
10
41.454065939105398
20
10.863946387204484
10
41.500758939105395
20
10.830437387204492
10
41.6043009391054
20
10.78855038720449
10
41.721068939105393
20
10.780183387204483
10
41.832921939105397
20
10.805562387204489
10
41.930299939105396
20
10.86478038720449
10
42.012829939105394
20
10.957665387204486
10
42.0458649391054
20
11.015509387204489
10
42.0921149391054
20
11.152457387204491
10
42.107599939105398
20
11.252444387204491
10
42.111348939105397
20
11.421251387204494
10
42.092898939105396
20
11.567171387204485
10
42.057593939105402
20
11.683398387204488
10
42.011367939105398
20
11.772204387204489
10
41.959164939105392
20
11.837135387204487
10
41.896663939105395
20
11.888789387204493
10
41.827393939105391
20
11.925127387204487
10
41.752801939105389
20
11.945315387204488
10
41.693364939105408
20
11.949857387204492
10
41.623321939105402
20
11.943785387204491
10
41.519977939105402
20
11.908806387204489
10
41.460841939105393
20
11.87115638720449
10
41.405900939105393
20
11.821360387204489
10
41.348828939105395
20
11.743513387204491
10
41.319359939105397
20
11.678658387204486
0
LWPOLYLINE
5
105
100
AcDbEntity
8
0
100
AcDbPolyline
90
13
70
1
43
0.0
10
41.725218939105403
20
8.9487533872044889
10
41.298572939105398
20
8.9492293872044915
10
41.298572939105398
20
8.4529813872044901
10
41.756679939105396
20
8.4588913872044902
10
41.852797939105393
20
8.4860423872044866
10
41.911449939105395
20
8.5294803872044902
10
41.95819193910539
20
8.6081833872044875
10
41.975210939105395
20
8.7057093872044877
10
41.965976939105403
20
8.7801943872044941
10
41.942264939105399
20
8.8374653872044853
10
41.903942939105399
20
8.8862693872044893
10
41.864769939105393
20
8.9148333872044851
10
41.807044939105396
20
8.9373273872044869
0
LWPOLYLINE
5
106
100
AcDbEntity
8
0
100
AcDbPolyline
90
13
70
1
43
0.0
10
39.225218939105403
20
5.9487533872044915
10
38.798572939105398
20
5.9492293872044897
10
38.798572939105398
20
5.4529813872044928
10
39.256679939105403
20
5.4588913872044884
10
39.352797939105393
20
5.4860423872044892
10
39.411449939105395
20
5.5294803872044893
10
39.45819193910539
20
5.6081833872044893
10
39.475210939105395
20
5.7057093872044904
10
39.465976939105403
20
5.7801943872044879
10
39.442264939105399
20
5.8374653872044888
10
39.403942939105399
20
5.8862693872044911
10
39.364769939105393
20
5.9148333872044887
10
39.307044939105396
20
5.9373273872044905
0
LWPOLYLINE
5
107
100
AcDbEntity
8
0
100
AcDbPolyline
90
13
70
1
43
0.0
10
31.7252189391054
20
2.9487533872044889
10
31.298572939105398
20
2.9492293872044915
10
31.298572939105398
20
2.4529813872044901
10
31.756679939105396
20
2.4588913872044902
10
31.852797939105393
20
2.4860423872044866
10
31.911449939105392
20
2.5294803872044911
10
31.958191939105394
20
2.6081833872044866
10
31.975210939105388
20
2.7057093872044877
10
31.965976939105403
20
2.7801943872044896
10
31.942264939105396
20
2.8374653872044906
10
31.903942939105399
20
2.8862693872044884
10
31.864769939105393
20
2.9148333872044905
10
31.807044939105396
20
2.9373273872044923
0
LWPOLYLINE
5
108
100
AcDbEntity
8
0
100
AcDbPolyline
90
17
70
1
43
0.0
10
59.101233939105398
20
5.9379743872044886
10
58.833361939105387
20
5.9379743872044886
10
58.833361939105387
20
4.7919983872044911
10
59.218101939105395
20
4.7989053872044893
10
59.326549939105391
20
4.8294583872044914
10
59.406699939105394
20
4.8852053872044907
10
59.463212939105397
20
4.9646583872044934
10
59.511303939105403
20
5.0871893872044902
10
59.538973939105411
20
5.2434933872044907
10
59.54433193910539
20
5.414707387204488
10
59.533387939105396
20
5.5534353872044893
10
59.511841939105409
20
5.6549573872044876
10
59.4844819391054
20
5.7272203872044889
10
59.432207939105396
20
5.8129173872044912
10
59.379010939105399
20
5.8693633872044879
10
59.327309939105405
20
5.9035523872044902
10
59.248655939105404
20
5.9275293872044896
0
LWPOLYLINE
5
109
100
AcDbEntity
8
0
100
AcDbPolyline
90
13
70
1
43
0.0
10
56.725218939105403
20
11.948753387204489
10
56.298572939105398
20
11.949229387204491
10
56.298572939105398
20
11.452981387204495
10
56.756679939105403
20
11.45889138720449
10
56.8527979391054
20
11.486042387204492
10
56.911449939105395
20
11.529480387204492
10
56.95819193910539
20
11.608183387204491
10
56.975210939105395
20
11.705709387204488
10
56.965976939105403
20
11.780194387204494
10
56.942264939105399
20
11.837465387204487
10
56.903942939105399
20
11.886269387204493
10
56.8647699391054
20
11.914833387204487
10
56.80704493910541
20
11.937327387204489
0
LWPOLYLINE
5
110
100
AcDbEntity
8
0
100
AcDbPolyline
90
13
70
1
43
0.0
10
59.225218939105403
20
11.948753387204489
10
58.798572939105398
20
11.949229387204491
10
58.798572939105398
20
11.452981387204495
10
59.256679939105403
20
11.45889138720449
10
59.3527979391054
20
11.486042387204492
10
59.411449939105395
20
11.529480387204492
10
59.45819193910539
20
11.608183387204491
10
59.475210939105395
20
11.705709387204488
10
59.465976939105403
20
11.780194387204494
10
59.442264939105399
20
11.837465387204487
10
59.403942939105399
20
11.886269387204493
10
59.3647699391054
20
11.914833387204487
10
59.30704493910541
20
11.937327387204489
0
LWPOLYLINE
5
111
100
AcDbEntity
8
0
100
AcDbPolyline
90
13
70
1
43
0.0
10
54.225218939105403
20
8.9487533872044907
10
53.798572939105398
20
8.9492293872044932
10
53.798572939105398
20
8.4529813872044919
10
54.256679939105403
20
8.458891387204492
10
54.3527979391054
20
8.4860423872044883
10
54.411449939105395
20
8.5294803872044938
10
54.45819193910539
20
8.6081833872044893
10
54.475210939105395
20
8.7057093872044895
10
54.465976939105403
20
8.7801943872044959
10
54.442264939105399
20
8.8374653872044888
10
54.403942939105399
20
8.8862693872044911
10
54.3647699391054
20
8.9148333872044887
10
54.30704493910541
20
8.9373273872044905
0
LWPOLYLINE
5
112
100
AcDbEntity
8
0
100
AcDbPolyline
90
4
70
1
43
0.0
10
56.6716809391054
20
2.9574143872044854
10
56.602972939105399
20
2.6709213872044888
10
56.462948939105416
20
2.2309483872044886
10
56.895196939105389
20
2.2309483872044886
0
LWPOLYLINE
5
113
100
AcDbEntity
8
0
100
AcDbPolyline
90
4
70
1
43
0.0
10
31.671680939105393
20
-0.042585612795512651
10
31.602972939105392
20
-0.32907861279550921
10
31.462948939105395
20
-0.76905161279551182
10
31.895196939105396
20
-0.76905161279551182
0
LWPOLYLINE
5
114
100
AcDbEntity
8
0
100
AcDbPolyline
90
13
70
1
43
0.0
10
39.225218939105403
20
-6.0512466127955102
10
38.798572939105398
20
-6.0507706127955121
10
38.798572939105398
20
-6.5470186127955108
10
39.256679939105403
20
-6.5411086127955107
10
39.352797939105393
20
-6.5139576127955126
10
39.411449939105395
20
-6.4705196127955125
10
39.45819193910539
20
-6.3918166127955098
10
39.475210939105395
20
-6.2942906127955114
10
39.465976939105403
20
-6.2198056127955113
10
39.442264939105399
20
-6.1625346127955103
10
39.403942939105399
20
-6.1137306127955107
10
39.364769939105393
20
-6.0851666127955104
10
39.307044939105396
20
-6.0626726127955113
0
LWPOLYLINE
5
115
100
AcDbEntity
8
0
100
AcDbPolyline
90
30
70
1
43
0.0
10
46.281223939105402
20
-9.4822816127955107
10
46.270605939105394
20
-9.6572616127955104
10
46.275803939105401
20
-9.7616126127955116
10
46.311359939105401
20
-9.9251116127955115
10
46.371243939105398
20
-10.044178612795511
10
46.454065939105398
20
-10.136053612795513
10
46.500758939105395
20
-10.169562612795513
10
46.6043009391054
20
-10.211449612795512
10
46.721068939105393
20
-10.219816612795508
10
46.832921939105397
20
-10.194437612795513
10
46.930299939105396
20
-10.135219612795511
10
47.012829939105401
20
-10.042334612795511
10
47.0458649391054
20
-9.9844906127955113
10
47.092114939105407
20
-9.847542612795511
10
47.107599939105391
20
-9.7475556127955105
10
47.111348939105397
20
-9.5787486127955113
10
47.092898939105403
20
-9.432828612795511
10
47.057593939105402
20
-9.3166016127955107
10
47.011367939105412
20
-9.2277956127955125
10
46.959164939105392
20
-9.1628646127955111
10
46.896663939105395
20
-9.1112106127955119
10
46.827393939105391
20
-9.0748726127955113
10
46.752801939105396
20
-9.0546846127955121
10
46.693364939105408
20
-9.0501426127955096
10
46.623321939105395
20
-9.056214612795511
10
46.519977939105395
20
-9.0911936127955109
10
46.460841939105393
20
-9.1288436127955137
10
46.405900939105393
20
-9.1786396127955108
10
46.348828939105395
20
-9.256486612795511
10
46.319359939105397
20
-9.3213416127955107
0
LWPOLYLINE
5
116
100
AcDbEntity
8
0
100
AcDbPolyline
90
35
70
1
43
0.0
10
51.718397939105415
20
-4.0430696127955104
10
51.685332939105407
20
-4.0319626127955113
10
51.722645939105405
20
-3.9002686127955091
10
51.825659939105378
20
-3.94430961279551
10
51.942555939105404
20
-4.0310286127955122
10
52.001948939105404
20
-3.9490116127955135
10
52.032116939105393
20
-3.8841506127955103
10
52.054742939105395
20
-3.8111436127955098
10
52.077369939105381
20
-3.640688612795512
10
52.071557939105389
20
-3.4742056127955125
10
52.044957939105402
20
-3.3450856127955122
10
52.0034869391054
20
-3.24387261279551
10
51.952875939105411
20
-3.1689416127955097
10
51.889761939105398
20
-3.1096396127955108
10
51.817212939105403
20
-3.0678076127955114
10
51.7473829391054
20
-3.0468316127955122
10
51.682156939105397
20
-3.040991612795513
10
51.612924939105405
20
-3.0470106127955097
10
51.512761939105403
20
-3.0816856127955097
10
51.467575939105416
20
-3.1105816127955102
10
51.415682939105395
20
-3.1575366127955116
10
51.378220939105397
20
-3.2037566127955106
10
51.346685939105399
20
-3.2575906127955099
10
51.302535939105397
20
-3.3880656127955087
10
51.287753939105407
20
-3.4850526127955108
10
51.283021939105389
20
-3.61596261279551
10
51.2898479391054
20
-3.7197156127955102
10
51.326707939105404
20
-3.8792976127955106
10
51.385996939105411
20
-3.9918186127955115
10
51.434339939105399
20
-4.0476066127955104
10
51.476978939105393
20
-4.0833326127955107
10
51.572642939105378
20
-4.1309666127955111
10
51.625668939105402
20
-4.1428746127955094
10
51.736141939105394
20
-4.1427966127955083
10
51.837760939105394
20
-4.1104186127955087
0
LWPOLYLINE
5
117
100
AcDbEntity
8
0
100
AcDbPolyline
90
17
70
1
43
0.0
10
59.101233939105398
20
-6.0620256127955106
10
58.833361939105387
20
-6.0620256127955106
10
58.833361939105387
20
-7.2080016127955124
10
59.218101939105395
20
-7.2010946127955124
10
59.326549939105391
20
-7.1705416127955104
10
59.406699939105394
20
-7.1147946127955111
10
59.463212939105397
20
-7.0353416127955102
10
59.511303939105403
20
-6.9128106127955116
10
59.538973939105411
20
-6.7565066127955111
10
59.54433193910539
20
-6.5852926127955111
10
59.533387939105396
20
-6.4465646127955099
10
59.511841939105409
20
-6.3450426127955097
10
59.4844819391054
20
-6.2727796127955129
10
59.432207939105396
20
-6.1870826127955105
10
59.379010939105399
20
-6.1306366127955112
10
59.327309939105405
20
-6.096447612795509
10
59.248655939105404
20
-6.0724706127955121
0
LWPOLYLINE
5
118
100
AcDbEntity
8
0
100
AcDbPolyline
90
13
70
1
43
0.0
10
59.225218939105403
20
-9.0512466127955111
10
58.798572939105398
20
-9.0507706127955121
10
58.798572939105398
20
-9.5470186127955117
10
59.256679939105403
20
-9.5411086127955116
10
59.3527979391054
20
-9.5139576127955117
10
59.411449939105395
20
-9.4705196127955116
10
59.45819193910539
20
-9.3918166127955107
10
59.475210939105395
20
-9.2942906127955123
10
59.465976939105403
20
-9.2198056127955113
10
59.442264939105399
20
-9.1625346127955112
10
59.403942939105399
20
-9.1137306127955107
10
59.3647699391054
20
-9.0851666127955113
10
59.30704493910541
20
-9.0626726127955113
0
LWPOLYLINE
5
119
100
AcDbEntity
8
0
100
AcDbPolyline
90
30
70
1
43
0.0
10
31.281223939105391
20
-12.482281612795511
10
31.270605939105394
20
-12.657261612795512
10
31.275803939105398
20
-12.76161261279551
10
31.311359939105401
20
-12.925111612795511
10
31.371243939105391
20
-13.044178612795513
10
31.454065939105398
20
-13.136053612795511
10
31.500758939105395
20
-13.169562612795511
10
31.604300939105396
20
-13.211449612795512
10
31.721068939105397
20
-13.219816612795514
10
31.832921939105397
20
-13.194437612795511
10
31.930299939105396
20
-13.135219612795513
10
32.012829939105394
20
-13.042334612795512
10
32.0458649391054
20
-12.984490612795511
10
32.0921149391054
20
-12.847542612795513
10
32.107599939105398
20
-12.747555612795512
10
32.11134893910539
20
-12.578748612795511
10
32.092898939105396
20
-12.432828612795511
10
32.057593939105395
20
-12.316601612795512
10
32.011367939105391
20
-12.227795612795514
10
31.959164939105396
20
-12.162864612795513
10
31.896663939105395
20
-12.11121061279551
10
31.827393939105395
20
-12.074872612795511
10
31.752801939105399
20
-12.054684612795512
10
31.693364939105404
20
-12.050142612795511
10
31.623321939105395
20
-12.056214612795511
10
31.519977939105395
20
-12.091193612795513
10
31.460841939105393
20
-12.12884361279551
10
31.405900939105393
20
-12.178639612795511
10
31.348828939105395
20
-12.256486612795513
10
31.319359939105389
20
-12.321341612795511
0
LWPOLYLINE
5
120
100
AcDbEntity
8
0
100
AcDbPolyline
90
17
70
1
43
0.0
10
59.101233939105398
20
-15.062025612795511
10
58.833361939105387
20
-15.062025612795511
10
58.833361939105387
20
-16.20800161279551
10
59.218101939105395
20
-16.201094612795512
10
59.326549939105391
20
-16.17054161279551
10
59.406699939105394
20
-16.11479461279551
10
59.463212939105397
20
-16.035341612795509
10
59.511303939105403
20
-15.912810612795509
10
59.538973939105411
20
-15.756506612795508
10
59.54433193910539
20
-15.585292612795511
10
59.533387939105396
20
-15.446564612795511
10
59.511841939105409
20
-15.34504261279551
10
59.4844819391054
20
-15.27277961279551
10
59.432207939105396
20
-15.187082612795511
10
59.379010939105399
20
-15.130636612795511
10
59.327309939105405
20
-15.096447612795512
10
59.248655939105404
20
-15.072470612795509
0
LWPOLYLINE
5
121
100
AcDbEntity
8
0
100
AcDbPolyline
90
8
70
1
43
0.0
10
27.441683939105431
20
17.564986387204499
42
0.4142135623731048
10
27.241683939105428
20
17.364986387204496
10
27.241683939105428
20
-18.635013612795504
42
0.41421356237309503
10
27.441683939105424
20
-18.835013612795503
10
63.441683939105438
20
-18.835013612795503
42
0.41421356237313078
10
63.641683939105434
20
-18.635013612795504
10
63.641683939105434
20
17.364986387204496
42
0.41421356237313078
10
63.441683939105438
20
17.564986387204499
0
LWPOLYLINE
5
122
100
AcDbEntity
8
0
100
AcDbPolyline
90
18
70
1
43
0.0
10
59.399291939105382
20
4.6660573872044884
10
59.258943939105393
20
4.6249783872044912
10
59.1247159391054
20
4.6149863872044881
10
58.664637939105404
20
4.6149863872044881
10
58.66463793910539
20
6.1149863872044916
10
59.262225939105392
20
6.1065933872044917
10
59.366471939105395
20
6.0822723872044868
10
59.455247939105398
20
6.037623387204488
10
59.51782693910539
20
5.9860643872044914
10
59.5794309391054
20
5.9130193872044909
10
59.635221939105406
20
5.816032387204487
10
59.676708939105403
20
5.7034393872044928
10
59.706227939105396
20
5.56259038720449
10
59.718643939105398
20
5.3898063872044908
10
59.705480939105385
20
5.1747683872044901
10
59.656681939105397
20
4.9777163872044881
10
59.588928939105408
20
4.8377013872044881
10
59.497340939105392
20
4.7287523872044899
0
LWPOLYLINE
5
123
100
AcDbEntity
8
0
100
AcDbPolyline
90
26
70
1
43
0.0
10
58.994258939105393
20
11.281084387204487
10
58.798572939105398
20
11.281084387204487
10
58.798572939105398
20
10.614986387204491
10
58.629848939105393
20
10.614986387204491
10
58.629848939105393
20
12.114986387204489
10
59.299721939105382
20
12.110495387204494
10
59.413825939105394
20
12.089656387204492
10
59.482916939105394
20
12.05937838720449
10
59.539978939105382
20
12.01262338720449
10
59.587010939105397
20
11.948458387204488
10
59.628429939105402
20
11.852074387204492
10
59.647679939105402
20
11.746381387204494
10
59.646712939105399
20
11.65389638720449
10
59.630700939105395
20
11.569925387204496
10
59.605079939105394
20
11.504739387204495
10
59.568479939105394
20
11.445820387204495
10
59.529373939105398
20
11.402333387204486
10
59.481977939105391
20
11.365721387204488
10
59.414139939105404
20
11.330933387204489
10
59.28996193910541
20
11.297455387204492
10
59.391717939105405
20
11.222762387204492
10
59.509491939105402
20
11.06203638720449
10
59.753518939105405
20
10.614986387204491
10
59.541308939105392
20
10.614986387204491
10
59.205490939105388
20
11.19462438720449
10
59.091446939105396
20
11.272954387204493
0
LWPOLYLINE
5
124
100
AcDbEntity
8
0
100
AcDbPolyline
90
8
70
1
43
0.0
10
37.196987939105391
20
2.9379743872044859
10
36.775175939105395
20
2.9379743872044859
10
36.775175939105395
20
1.6149863872044901
10
36.606451939105391
20
1.6149863872044901
10
36.606451939105398
20
2.9379743872044859
10
36.1863799391054
20
2.9379743872044859
10
36.186379939105393
20
3.1149863872044889
10
37.196987939105391
20
3.1149863872044889
0
LWPOLYLINE
5
125
100
AcDbEntity
8
0
100
AcDbPolyline
90
4
70
1
43
0.0
10
34.107321939105397
20
12.114986387204487
10
34.276045939105401
20
12.114986387204487
10
34.276045939105401
20
10.614986387204489
10
34.107321939105397
20
10.614986387204489
0
LWPOLYLINE
5
126
100
AcDbEntity
8
0
100
AcDbPolyline
90
10
70
1
43
0.0
10
42.2761309391054
20
3.1149863872044889
10
41.767348939105403
20
2.2503883872044881
10
41.767348939105403
20
1.6149863872044901
10
41.598624939105392
20
1.6149863872044901
10
41.598624939105392
20
2.2503883872044881
10
41.107236939105398
20
3.1149863872044889
10
41.312488939105393
20
3.1149863872044889
10
41.693422939105396
20
2.4089833872044917
10
41.832577939105391
20
2.6739903872044888
10
42.079575939105396
20
3.1149863872044889
0
LWPOLYLINE
5
127
100
AcDbEntity
8
0
100
AcDbPolyline
90
8
70
1
43
0.0
10
39.696987939105391
20
2.9379743872044859
10
39.275175939105395
20
2.9379743872044859
10
39.275175939105395
20
1.6149863872044901
10
39.106451939105398
20
1.6149863872044901
10
39.106451939105398
20
2.9379743872044859
10
38.6863799391054
20
2.9379743872044859
10
38.686379939105393
20
3.1149863872044889
10
39.696987939105391
20
3.1149863872044889
0
LWPOLYLINE
5
128
100
AcDbEntity
8
0
100
AcDbPolyline
90
10
70
1
43
0.0
10
47.028697939105385
20
-12.70356761279551
10
46.430334939105393
20
-12.70356761279551
10
46.4303349391054
20
-13.385013612795511
10
46.261610939105395
20
-13.385013612795511
10
46.261610939105395
20
-11.885013612795511
10
47.121756939105396
20
-11.885013612795511
10
47.121756939105396
20
-12.062025612795511
10
46.4303349391054
20
-12.062025612795511
10
46.4303349391054
20
-12.526555612795512
10
47.028697939105406
20
-12.526555612795512
0
LWPOLYLINE
5
129
100
AcDbEntity
8
0
100
AcDbPolyline
90
71
70
1
43
0.0
10
32.0245209391054
20
-4.0122396127955104
10
32.056828939105401
20
-3.9240636127955106
10
32.073510939105397
20
-3.8517026127955125
10
32.236670939105394
20
-3.9001856127955117
10
32.205893939105394
20
-4.0114046127955119
10
32.172417939105394
20
-4.0933646127955106
10
32.13182293910539
20
-4.1655766127955109
10
32.084108939105391
20
-4.2280396127955102
10
32.02943593910539
20
-4.2806716127955093
10
31.969260939105393
20
-4.3227106127955119
10
31.903938939105394
20
-4.3539696127955105
10
31.833469939105399
20
-4.3744496127955088
10
31.757853939105402
20
-4.3841516127955114
10
31.661791939105388
20
-4.3823616127955125
10
31.5729849391054
20
-4.368436612795513
10
31.493480939105396
20
-4.3425776127955116
10
31.434335939105395
20
-4.3119106127955122
10
31.371658939105398
20
-4.2643246127955079
10
31.316676939105399
20
-4.2058856127955115
10
31.269158939105395
20
-4.1367476127955092
10
31.223154939105395
20
-4.0425656127955092
10
31.179399939105394
20
-3.9050856127955127
10
31.153938939105394
20
-3.7596836127955138
10
31.146824939105393
20
-3.6053486127955106
10
31.157045939105394
20
-3.4623316127955119
10
31.179403939105399
20
-3.3477446127955099
10
31.214281939105398
20
-3.2430046127955112
10
31.260971939105396
20
-3.1495666127955104
10
31.309435939105398
20
-3.0804296127955135
10
31.365679939105398
20
-3.0214336127955113
10
31.429702939105397
20
-2.9725796127955109
10
31.511260939105394
20
-2.9289486127955113
10
31.597467939105393
20
-2.9002156127955105
10
31.688325939105397
20
-2.8863816127955113
10
31.774025939105393
20
-2.8867456127955107
10
31.84549893910539
20
-2.8973266127955091
10
31.911860939105399
20
-2.9175276127955128
10
31.973112939105395
20
-2.947348612795512
10
32.0292549391054
20
-2.986789612795512
10
32.079795939105395
20
-3.0352716127955084
10
32.123722939105399
20
-3.0916066127955091
10
32.167666939105395
20
-3.1695256127955105
10
32.215644939105402
20
-3.3075066127955113
10
32.055008939105399
20
-3.3520316127955105
10
32.017398939105391
20
-3.245403612795509
10
31.974832939105397
20
-3.1709476127955103
10
31.930535939105393
20
-3.1214916127955092
10
31.879370939105396
20
-3.0855016127955102
10
31.821050939105398
20
-3.061801612795513
10
31.7456379391054
20
-3.0497636127955117
10
31.6571759391054
20
-3.0542706127955119
10
31.585041939105398
20
-3.0727766127955105
10
31.5208499391054
20
-3.1049176127955116
10
31.457491939105402
20
-3.1576476127955102
10
31.406469939105399
20
-3.2232806127955129
10
31.368062939105403
20
-3.3011166127955107
10
31.328066939105391
20
-3.4586206127955119
10
31.314902939105387
20
-3.6231406127955088
10
31.326361939105396
20
-3.796416612795511
10
31.356998939105402
20
-3.9346106127955114
10
31.391804939105388
20
-4.0207766127955127
10
31.437909939105396
20
-4.0914806127955119
10
31.487526939105397
20
-4.1406306127955119
10
31.561071939105396
20
-4.1865116127955107
10
31.6393529391054
20
-4.2131796127955115
10
31.712709939105395
20
-4.2207656127955104
10
31.778624939105391
20
-4.2149526127955115
10
31.83928493910539
20
-4.1975136127955102
10
31.894686939105394
20
-4.1684486127955109
10
31.944833939105397
20
-4.127757612795512
10
31.988514939105393
20
-4.0756266127955119
0
LWPOLYLINE
5
130
100
AcDbEntity
8
0
100
AcDbPolyline
90
4
70
1
43
0.0
10
49.107321939105404
20
3.1149863872044889
10
49.276045939105387
20
3.1149863872044889
10
49.276045939105387
20
1.6149863872044901
10
49.10732193910539
20
1.6149863872044901
0
LWPOLYLINE
5
131
100
AcDbEntity
8
0
100
AcDbPolyline
90
8
70
1
43
0.0
10
54.696987939105398
20
5.9379743872044886
10
54.275175939105402
20
5.9379743872044886
10
54.275175939105402
20
4.6149863872044881
10
54.106451939105398
20
4.6149863872044881
10
54.106451939105398
20
5.9379743872044886
10
53.686379939105393
20
5.9379743872044886
10
53.686379939105393
20
6.1149863872044916
10
54.696987939105398
20
6.1149863872044916
0
LWPOLYLINE
5
132
100
AcDbEntity
8
0
100
AcDbPolyline
90
26
70
1
43
0.0
10
56.494258939105393
20
11.281084387204487
10
56.298572939105398
20
11.281084387204487
10
56.298572939105398
20
10.614986387204491
10
56.129848939105393
20
10.614986387204491
10
56.129848939105393
20
12.114986387204489
10
56.799721939105382
20
12.110495387204494
10
56.913825939105394
20
12.089656387204492
10
56.982916939105394
20
12.05937838720449
10
57.039978939105382
20
12.01262338720449
10
57.087010939105397
20
11.948458387204488
10
57.128429939105402
20
11.852074387204492
10
57.147679939105402
20
11.746381387204494
10
57.146712939105399
20
11.65389638720449
10
57.130700939105395
20
11.569925387204496
10
57.105079939105394
20
11.504739387204495
10
57.068479939105394
20
11.445820387204495
10
57.029373939105398
20
11.402333387204486
10
56.981977939105391
20
11.365721387204488
10
56.914139939105404
20
11.330933387204489
10
56.78996193910541
20
11.297455387204492
10
56.891717939105405
20
11.222762387204492
10
57.009491939105402
20
11.06203638720449
10
57.253518939105405
20
10.614986387204491
10
57.041308939105392
20
10.614986387204491
10
56.705490939105388
20
11.19462438720449
10
56.591446939105396
20
11.272954387204493
0
LWPOLYLINE
5
133
100
AcDbEntity
8
0
100
AcDbPolyline
90
10
70
1
43
0.0
10
42.028697939105399
20
14.296432387204492
10
41.4303349391054
20
14.296432387204492
10
41.4303349391054
20
13.614986387204491
10
41.261610939105395
20
13.614986387204491
10
41.261610939105395
20
15.114986387204489
10
42.121756939105396
20
15.114986387204489
10
42.121756939105396
20
14.937974387204491
10
41.4303349391054
20
14.937974387204491
10
41.4303349391054
20
14.473444387204486
10
42.028697939105406
20
14.473444387204486
0
LWPOLYLINE
5
134
100
AcDbEntity
8
0
100
AcDbPolyline
90
8
70
1
43
0.0
10
56.947379939105396
20
2.0692833872044911
10
56.414244939105401
20
2.0692833872044911
10
56.274221939105402
20
1.6149863872044901
10
56.095060939105409
20
1.6149863872044901
10
56.584708939105397
20
3.1149863872044889
10
56.766478939105397
20
3.1149863872044889
10
57.288306939105397
20
1.6149863872044901
10
57.096100939105398
20
1.6149863872044901
0
LWPOLYLINE
5
135
100
AcDbEntity
8
0
100
AcDbPolyline
90
38
70
1
43
0.0
10
54.495939939105398
20
11.015911387204492
10
54.512151939105408
20
11.117227387204489
10
54.518771939105392
20
11.263879387204494
10
54.518771939105392
20
12.114986387204489
10
54.684666939105391
20
12.114986387204489
10
54.6810299391054
20
11.140967387204491
10
54.660615939105398
20
10.980869387204491
10
54.634305939105388
20
10.888296387204488
10
54.600162939105402
20
10.81852838720449
10
54.554306939105395
20
10.757061387204489
10
54.496738939105391
20
10.703895387204494
10
54.438036939105388
20
10.666373387204489
10
54.370623939105407
20
10.639043387204492
10
54.280964939105388
20
10.620110387204489
10
54.165762939105392
20
10.615482387204491
10
54.059013939105398
20
10.627387387204489
10
53.977299939105393
20
10.650824387204494
10
53.906497939105392
20
10.686415387204489
10
53.846607939105397
20
10.733516387204489
10
53.797628939105394
20
10.791486387204491
10
53.759561939105396
20
10.860325387204492
10
53.728713939105397
20
10.953836387204491
10
53.705434939105402
20
11.101004387204487
10
53.698700939105407
20
11.262873387204493
10
53.698700939105407
20
12.114986387204489
10
53.864595939105406
20
12.114986387204489
10
53.869866939105378
20
11.121305387204494
10
53.892476939105407
20
10.988443387204494
10
53.92782293910539
20
10.912057387204495
10
53.975834939105397
20
10.85793038720449
10
54.038321939105401
20
10.818771387204487
10
54.120586939105394
20
10.795236387204492
10
54.195206939105404
20
10.791212387204492
10
54.277940939105406
20
10.799344387204492
10
54.336841939105405
20
10.815439387204496
10
54.386613939105374
20
10.84000538720449
10
54.427254939105403
20
10.873041387204491
10
54.474999939105402
20
10.94867638720449
0
LWPOLYLINE
5
136
100
AcDbEntity
8
0
100
AcDbPolyline
90
41
70
1
43
0.0
10
56.146758939105382
20
14.05594038720449
10
56.117341939105415
20
14.174925387204491
10
56.1025109391054
20
14.345705387204493
10
56.1070869391054
20
14.461654387204492
10
56.137116939105397
20
14.64361638720449
10
56.158565939105394
20
14.71343638720449
10
56.216908939105394
20
14.838385387204491
10
56.253802939105398
20
14.893513387204491
10
56.340041939105404
20
14.987015387204487
10
56.438376939105396
20
15.055077387204484
10
56.548689939105387
20
15.097616387204491
10
56.670978939105403
20
15.114632387204496
10
56.7621549391054
20
15.110823387204491
10
56.841859939105404
20
15.09483838720449
10
56.917362939105409
20
15.066863387204492
10
56.988662939105396
20
15.026899387204487
10
57.054392939105405
20
14.975826387204494
10
57.112035939105397
20
14.91526338720449
10
57.161535939105406
20
14.845244387204488
10
57.208995939105392
20
14.751604387204488
10
57.244801939105386
20
14.647619387204493
10
57.27075093910539
20
14.519199387204489
10
57.280731939105394
20
14.380562387204494
10
57.274421939105395
20
14.237842387204489
10
57.255116939105392
20
14.121077387204489
10
57.222942939105401
20
14.012218387204493
10
57.178248939105401
20
13.912324387204496
10
57.131234939105404
20
13.837640387204491
10
57.076340939105407
20
13.773523387204493
10
57.0135679391054
20
13.719973387204492
10
56.932161939105384
20
13.671070387204496
10
56.846751939105395
20
13.637357387204492
10
56.757622939105389
20
13.618870387204492
10
56.662943939105389
20
13.615673387204492
10
56.579806939105382
20
13.625973387204493
10
56.501292939105397
20
13.648632387204495
10
56.427400939105397
20
13.683652387204493
10
56.358336939105399
20
13.730847387204486
10
56.2967539391054
20
13.787805387204488
10
56.24347193910539
20
13.853787387204493
10
56.191798939105396
20
13.942169387204498
0
LWPOLYLINE
5
137
100
AcDbEntity
8
0
100
AcDbPolyline
90
12
70
1
43
0.0
10
36.384674939105395
20
7.7919983872044885
10
37.167416939105394
20
7.7919983872044885
10
37.167416939105394
20
7.6149863872044898
10
36.215950939105397
20
7.6149863872044898
10
36.215950939105397
20
9.1149863872044889
10
37.137846939105401
20
9.1149863872044889
10
37.137846939105401
20
8.9379743872044859
10
36.384674939105402
20
8.9379743872044859
10
36.384674939105395
20
8.4785603872044888
10
37.090012939105392
20
8.4785603872044888
10
37.090012939105392
20
8.3025713872044893
10
36.384674939105395
20
8.3025713872044893
0
LWPOLYLINE
5
138
100
AcDbEntity
8
0
100
AcDbPolyline
90
12
70
1
43
0.0
10
33.884674939105395
20
1.7919983872044887
10
34.667416939105394
20
1.7919983872044887
10
34.667416939105394
20
1.6149863872044901
10
33.715950939105397
20
1.6149863872044901
10
33.715950939105397
20
3.1149863872044889
10
34.637846939105401
20
3.1149863872044889
10
34.637846939105394
20
2.9379743872044859
10
33.884674939105395
20
2.9379743872044859
10
33.884674939105395
20
2.4785603872044879
10
34.590012939105392
20
2.4785603872044879
10
34.590012939105392
20
2.3025713872044893
10
33.884674939105395
20
2.3025713872044893
0
LWPOLYLINE
5
139
100
AcDbEntity
8
0
100
AcDbPolyline
90
26
70
1
43
0.0
10
53.994258939105393
20
14.281084387204491
10
53.798572939105398
20
14.281084387204491
10
53.798572939105398
20
13.614986387204493
10
53.629848939105393
20
13.614986387204493
10
53.629848939105393
20
15.114986387204489
10
54.299721939105403
20
15.110495387204494
10
54.413825939105408
20
15.089656387204492
10
54.482916939105394
20
15.05937838720449
10
54.539978939105396
20
15.012623387204487
10
54.587010939105397
20
14.948458387204489
10
54.628429939105402
20
14.852074387204489
10
54.647679939105402
20
14.746381387204487
10
54.646712939105399
20
14.653896387204483
10
54.630700939105395
20
14.569925387204494
10
54.605079939105394
20
14.504739387204497
10
54.568479939105394
20
14.445820387204494
10
54.529373939105398
20
14.402333387204489
10
54.481977939105391
20
14.365721387204491
10
54.414139939105404
20
14.330933387204492
10
54.28996193910541
20
14.29745538720449
10
54.391717939105405
20
14.22276238720449
10
54.509491939105388
20
14.062036387204488
10
54.753518939105405
20
13.614986387204493
10
54.541308939105392
20
13.614986387204493
10
54.205490939105388
20
14.194624387204493
10
54.091446939105396
20
14.272954387204486
0
LWPOLYLINE
5
140
100
AcDbEntity
8
0
100
AcDbPolyline
90
8
70
1
43
0.0
10
44.696987939105398
20
5.9379743872044886
10
44.275175939105402
20
5.9379743872044886
10
44.275175939105402
20
4.6149863872044881
10
44.106451939105398
20
4.6149863872044881
10
44.106451939105398
20
5.9379743872044886
10
43.686379939105393
20
5.9379743872044886
10
43.686379939105393
20
6.1149863872044916
10
44.696987939105398
20
6.1149863872044916
0
LWPOLYLINE
5
141
100
AcDbEntity
8
0
100
AcDbPolyline
90
10
70
1
43
0.0
10
34.520870939105393
20
-4.3850136127955111
10
33.851190939105393
20
-3.2062956127955102
10
33.851190939105393
20
-4.3850136127955111
10
33.689423939105396
20
-4.3850136127955111
10
33.689423939105396
20
-2.8850136127955119
10
33.862496939105391
20
-2.8850136127955119
10
34.532176939105391
20
-4.0627076127955117
10
34.532176939105398
20
-2.8850136127955119
10
34.693943939105402
20
-2.8850136127955119
10
34.693943939105395
20
-4.3850136127955111
0
LWPOLYLINE
5
142
100
AcDbEntity
8
0
100
AcDbPolyline
90
12
70
1
43
0.0
10
51.384674939105395
20
13.791998387204487
10
52.167416939105408
20
13.791998387204487
10
52.167416939105408
20
13.614986387204493
10
51.215950939105412
20
13.614986387204493
10
51.215950939105412
20
15.114986387204489
10
52.137846939105401
20
15.114986387204489
10
52.137846939105401
20
14.937974387204491
10
51.384674939105395
20
14.937974387204491
10
51.384674939105395
20
14.478560387204491
10
52.090012939105392
20
14.478560387204491
10
52.090012939105392
20
14.302571387204488
10
51.384674939105395
20
14.302571387204488
0
LWPOLYLINE
5
143
100
AcDbEntity
8
0
100
AcDbPolyline
90
12
70
1
43
0.0
10
48.884674939105395
20
4.7919983872044911
10
49.667416939105408
20
4.7919983872044911
10
49.667416939105408
20
4.6149863872044881
10
48.715950939105412
20
4.6149863872044881
10
48.715950939105412
20
6.1149863872044916
10
49.637846939105401
20
6.1149863872044916
10
49.637846939105401
20
5.9379743872044886
10
48.884674939105395
20
5.9379743872044886
10
48.884674939105395
20
5.4785603872044906
10
49.590012939105392
20
5.4785603872044906
10
49.590012939105392
20
5.3025713872044919
10
48.884674939105395
20
5.3025713872044919
0
LWPOLYLINE
5
144
100
AcDbEntity
8
0
100
AcDbPolyline
90
18
70
1
43
0.0
10
59.399291939105382
20
-7.3339426127955107
10
59.258943939105393
20
-7.3750216127955106
10
59.1247159391054
20
-7.3850136127955111
10
58.664637939105404
20
-7.3850136127955111
10
58.66463793910539
20
-5.8850136127955102
10
59.262225939105392
20
-5.89340661279551
10
59.366471939105395
20
-5.9177276127955123
10
59.455247939105398
20
-5.9623766127955111
10
59.51782693910539
20
-6.0139356127955104
10
59.5794309391054
20
-6.0869806127955108
10
59.635221939105406
20
-6.1839676127955103
10
59.676708939105403
20
-6.2965606127955107
10
59.706227939105396
20
-6.4374096127955118
10
59.718643939105398
20
-6.610193612795511
10
59.705480939105385
20
-6.8252316127955117
10
59.656681939105397
20
-7.0222836127955093
10
59.588928939105408
20
-7.1622986127955111
10
59.497340939105392
20
-7.2712476127955119
0
LWPOLYLINE
5
145
100
AcDbEntity
8
0
100
AcDbPolyline
90
8
70
1
43
0.0
10
47.196987939105398
20
-15.062025612795512
10
46.775175939105402
20
-15.062025612795512
10
46.775175939105395
20
-16.385013612795515
10
46.606451939105398
20
-16.385013612795515
10
46.606451939105398
20
-15.062025612795512
10
46.186379939105393
20
-15.062025612795512
10
46.186379939105393
20
-14.885013612795515
10
47.196987939105398
20
-14.885013612795511
0
LWPOLYLINE
5
146
100
AcDbEntity
8
0
100
AcDbPolyline
90
12
70
1
43
0.0
10
46.384674939105395
20
-1.2080016127955095
10
47.167416939105408
20
-1.2080016127955095
10
47.167416939105408
20
-1.3850136127955104
10
46.215950939105412
20
-1.3850136127955104
10
46.215950939105397
20
0.11498638720448873
10
47.137846939105401
20
0.11498638720448873
10
47.137846939105401
20
-0.062025612795512108
10
46.384674939105395
20
-0.062025612795512108
10
46.384674939105395
20
-0.5214396127955101
10
47.090012939105392
20
-0.5214396127955101
10
47.090012939105392
20
-0.69742861279550872
10
46.384674939105395
20
-0.69742861279550872
0
LWPOLYLINE
5
147
100
AcDbEntity
8
0
100
AcDbPolyline
90
12
70
1
43
0.0
10
41.384674939105395
20
-13.208001612795513
10
42.167416939105394
20
-13.208001612795513
10
42.167416939105394
20
-13.385013612795511
10
41.215950939105397
20
-13.385013612795511
10
41.215950939105397
20
-11.885013612795511
10
42.137846939105401
20
-11.885013612795511
10
42.137846939105401
20
-12.062025612795511
10
41.384674939105402
20
-12.062025612795511
10
41.384674939105395
20
-12.521439612795513
10
42.090012939105392
20
-12.521439612795513
10
42.090012939105392
20
-12.697428612795512
10
41.384674939105395
20
-12.697428612795512
0
LWPOLYLINE
5
148
100
AcDbEntity
8
0
100
AcDbPolyline
90
62
70
1
43
0.0
10
32.06753893910539
20
4.9073373872044899
10
32.102105939105392
20
4.9385353872044888
10
32.102105939105392
20
5.2086543872044908
10
31.739622939105399
20
5.2086543872044908
10
31.739622939105399
20
5.3788383872044907
10
32.2619019391054
20
5.3798283872044914
10
32.2619019391054
20
4.841569387204486
10
32.139741939105392
20
4.7427483872044904
10
32.024437939105397
20
4.6767173872044863
10
31.906099939105399
20
4.6343453872044869
10
31.784932939105399
20
4.6158753872044898
10
31.691765939105395
20
4.617528387204489
10
31.5918519391054
20
4.6342123872044869
10
31.510709939105404
20
4.6609073872044879
10
31.433720939105392
20
4.6990423872044893
10
31.362599939105394
20
4.7481883872044914
10
31.300503939105397
20
4.8075543872044877
10
31.247501939105398
20
4.8771253872044893
10
31.203592939105398
20
4.9568993872044906
10
31.164042939105386
20
5.0602993872044886
10
31.137366939105398
20
5.1706723872044877
10
31.1226489391054
20
5.30526438720449
10
31.1247329391054
20
5.4450623872044899
10
31.143550939105396
20
5.5791733872044889
10
31.179096939105399
20
5.7070173872044903
10
31.223662939105399
20
5.811899387204492
10
31.270926939105401
20
5.8898903872044892
10
31.326443939105395
20
5.9560703872044893
10
31.3902129391054
20
6.0104383872044895
10
31.4615919391054
20
6.0531463872044897
10
31.5384939391054
20
6.0846843872044918
10
31.620756939105394
20
6.1050923872044924
10
31.723506939105395
20
6.1148313872044922
10
31.84576493910539
20
6.1061393872044887
10
31.9531589391054
20
6.07597238720449
10
32.04743893910539
20
6.0256063872044905
10
32.116429939105402
20
5.9650543872044901
10
32.174348939105393
20
5.8817103872044916
10
32.225579939105387
20
5.7543333872044897
10
32.243398939105397
20
5.6845773872044889
10
32.096218939105398
20
5.6370843872044905
10
32.040617939105395
20
5.7887993872044872
10
31.986779939105396
20
5.859616387204488
10
31.903103939105399
20
5.9157533872044885
10
31.807272939105395
20
5.9453813872044945
10
31.685586939105399
20
5.9482333872044899
10
31.581491939105398
20
5.9256233872044914
10
31.483677939105394
20
5.8728913872044872
10
31.4024029391054
20
5.7887633872044884
10
31.336769939105402
20
5.6618203872044912
10
31.301446939105393
20
5.5215663872044871
10
31.289671939105396
20
5.3699333872044894
10
31.299527939105396
20
5.219318387204491
10
31.325251939105392
20
5.1025633872044871
10
31.36144193910539
20
5.013795387204488
10
31.4093459391054
20
4.9398063872044915
10
31.4606899391054
20
4.887331387204493
10
31.529878939105387
20
4.8413493872044864
10
31.623560939105396
20
4.8039703872044912
10
31.711868939105401
20
4.7891283872044896
10
31.820912939105401
20
4.7948873872044881
10
31.932182939105395
20
4.8284623872044872
0
LWPOLYLINE
5
149
100
AcDbEntity
8
0
100
AcDbPolyline
90
15
70
1
43
0.0
10
44.437638939105398
20
-10.385013612795513
10
44.190639939105395
20
-9.0661186127955116
10
43.944336939105398
20
-10.385013612795513
10
43.806574939105403
20
-10.385013612795513
10
43.535919939105398
20
-8.8850136127955111
10
43.674377939105398
20
-8.8850136127955111
10
43.872672939105399
20
-10.175259612795511
10
43.918593939105399
20
-9.8979736127955125
10
44.112713939105397
20
-8.8850136127955111
10
44.275523939105391
20
-8.8850136127955111
10
44.478384939105396
20
-9.9840346127955097
10
44.500953939105401
20
-10.175259612795511
10
44.711772939105394
20
-8.8850136127955111
10
44.847447939105393
20
-8.8850136127955111
10
44.567747939105402
20
-10.385013612795513
0
LWPOLYLINE
5
150
100
AcDbEntity
8
0
100
AcDbPolyline
90
12
70
1
43
0.0
10
36.384674939105395
20
-16.208001612795513
10
37.167416939105394
20
-16.208001612795513
10
37.167416939105394
20
-16.385013612795515
10
36.215950939105397
20
-16.385013612795515
10
36.215950939105397
20
-14.885013612795515
10
37.137846939105401
20
-14.885013612795515
10
37.137846939105401
20
-15.062025612795512
10
36.384674939105402
20
-15.062025612795512
10
36.384674939105395
20
-15.521439612795515
10
37.090012939105392
20
-15.521439612795515
10
37.090012939105392
20
-15.697428612795514
10
36.384674939105395
20
-15.697428612795514
0
LWPOLYLINE
5
151
100
AcDbEntity
8
0
100
AcDbPolyline
90
12
70
1
43
0.0
10
48.884674939105395
20
-4.2080016127955124
10
49.667416939105408
20
-4.2080016127955124
10
49.667416939105408
20
-4.3850136127955111
10
48.715950939105412
20
-4.3850136127955111
10
48.715950939105412
20
-2.8850136127955119
10
49.637846939105401
20
-2.8850136127955119
10
49.637846939105401
20
-3.0620256127955123
10
48.884674939105395
20
-3.0620256127955123
10
48.884674939105395
20
-3.5214396127955103
10
49.590012939105392
20
-3.5214396127955103
10
49.590012939105392
20
-3.6974286127955116
10
48.884674939105395
20
-3.6974286127955116
0
LWPOLYLINE
5
152
100
AcDbEntity
8
0
100
AcDbPolyline
90
10
70
1
43
0.0
10
54.520870939105407
20
-1.3850136127955104
10
53.851190939105408
20
-0.20629561279551178
10
53.851190939105393
20
-1.3850136127955104
10
53.689423939105382
20
-1.3850136127955104
10
53.689423939105403
20
0.11498638720448873
10
53.862496939105412
20
0.11498638720448873
10
54.532176939105398
20
-1.0627076127955093
10
54.532176939105398
20
0.11498638720448873
10
54.693943939105395
20
0.11498638720448873
10
54.693943939105395
20
-1.3850136127955104
0
LWPOLYLINE
5
153
100
AcDbEntity
8
0
100
AcDbPolyline
90
10
70
1
43
0.0
10
57.028697939105385
20
-0.70356761279551372
10
56.430334939105379
20
-0.70356761279551372
10
56.4303349391054
20
-1.3850136127955104
10
56.261610939105395
20
-1.3850136127955104
10
56.261610939105395
20
0.11498638720448873
10
57.121756939105396
20
0.11498638720448873
10
57.121756939105396
20
-0.062025612795512108
10
56.4303349391054
20
-0.062025612795512108
10
56.4303349391054
20
-0.52655561279551288
10
57.028697939105385
20
-0.52655561279551288
0
LWPOLYLINE
5
154
100
AcDbEntity
8
0
100
AcDbPolyline
90
10
70
1
43
0.0
10
34.520870939105393
20
-13.385013612795511
10
33.851190939105393
20
-12.206295612795511
10
33.851190939105393
20
-13.385013612795511
10
33.689423939105396
20
-13.385013612795511
10
33.689423939105396
20
-11.885013612795511
10
33.862496939105391
20
-11.885013612795511
10
34.532176939105391
20
-13.062707612795514
10
34.532176939105398
20
-11.885013612795511
10
34.693943939105402
20
-11.885013612795511
10
34.693943939105395
20
-13.385013612795511
0
LWPOLYLINE
5
155
100
AcDbEntity
8
0
100
AcDbPolyline
90
12
70
1
43
0.0
10
58.884674939105395
20
7.7919983872044902
10
59.667416939105408
20
7.7919983872044902
10
59.667416939105408
20
7.6149863872044925
10
58.715950939105412
20
7.6149863872044925
10
58.71595093910539
20
9.1149863872044907
10
59.637846939105401
20
9.1149863872044907
10
59.637846939105401
20
8.9379743872044877
10
58.884674939105395
20
8.9379743872044877
10
58.884674939105395
20
8.4785603872044906
10
59.590012939105392
20
8.4785603872044906
10
59.590012939105392
20
8.3025713872044911
10
58.884674939105395
20
8.3025713872044911
0
LWPOLYLINE
5
156
100
AcDbEntity
8
0
100
AcDbPolyline
90
26
70
1
43
0.0
10
38.994258939105393
20
-6.7189156127955121
10
38.798572939105398
20
-6.7189156127955121
10
38.798572939105398
20
-7.3850136127955111
10
38.629848939105393
20
-7.3850136127955111
10
38.629848939105393
20
-5.8850136127955102
10
39.299721939105396
20
-5.88950461279551
10
39.413825939105394
20
-5.9103436127955087
10
39.482916939105394
20
-5.9406216127955105
10
39.539978939105396
20
-5.9873766127955106
10
39.587010939105397
20
-6.0515416127955115
10
39.628429939105402
20
-6.147925612795512
10
39.647679939105402
20
-6.2536186127955116
10
39.646712939105399
20
-6.3461036127955097
10
39.630700939105395
20
-6.4300746127955124
10
39.605079939105394
20
-6.4952606127955095
10
39.568479939105394
20
-6.5541796127955108
10
39.52937393910539
20
-6.5976666127955106
10
39.481977939105391
20
-6.6342786127955113
10
39.414139939105397
20
-6.6690666127955103
10
39.289961939105396
20
-6.7025446127955099
10
39.391717939105398
20
-6.7772376127955116
10
39.509491939105395
20
-6.9379636127955093
10
39.753518939105405
20
-7.3850136127955111
10
39.541308939105392
20
-7.3850136127955111
10
39.205490939105388
20
-6.8053756127955092
10
39.091446939105396
20
-6.7270456127955116
0
LWPOLYLINE
5
157
100
AcDbEntity
8
0
100
AcDbPolyline
90
12
70
1
43
0.0
10
49.52304493910539
20
8.3220123872044933
10
48.860322939105401
20
8.3220123872044933
10
48.860322939105401
20
7.6149863872044925
10
48.691598939105404
20
7.6149863872044925
10
48.691598939105404
20
9.1149863872044907
10
48.860322939105401
20
9.1149863872044907
10
48.860322939105401
20
8.4990243872044928
10
49.523044939105404
20
8.4990243872044928
10
49.52304493910539
20
9.1149863872044907
10
49.691768939105394
20
9.1149863872044907
10
49.691768939105394
20
7.6149863872044925
10
49.52304493910539
20
7.6149863872044925
0
LWPOLYLINE
5
158
100
AcDbEntity
8
0
100
AcDbPolyline
90
12
70
1
43
0.0
10
33.884674939105395
20
-1.2080016127955095
10
34.667416939105394
20
-1.2080016127955095
10
34.667416939105394
20
-1.3850136127955104
10
33.715950939105397
20
-1.3850136127955104
10
33.715950939105397
20
0.11498638720448873
10
34.637846939105401
20
0.11498638720448873
10
34.637846939105394
20
-0.062025612795512108
10
33.884674939105395
20
-0.062025612795512108
10
33.884674939105395
20
-0.5214396127955101
10
34.590012939105392
20
-0.5214396127955101
10
34.590012939105392
20
-0.69742861279550872
10
33.884674939105395
20
-0.69742861279550872
0
LWPOLYLINE
5
159
100
AcDbEntity
8
0
100
AcDbPolyline
90
8
70
1
43
0.0
10
32.196987939105391
20
14.937974387204491
10
31.775175939105395
20
14.937974387204491
10
31.775175939105395
20
13.614986387204491
10
31.606451939105398
20
13.614986387204491
10
31.606451939105398
20
14.937974387204491
10
31.186379939105393
20
14.937974387204491
10
31.186379939105393
20
15.114986387204489
10
32.196987939105391
20
15.114986387204489
0
LWPOLYLINE
5
160
100
AcDbEntity
8
0
100
AcDbPolyline
90
10
70
1
43
0.0
10
44.520870939105393
20
-13.385013612795511
10
43.851190939105393
20
-12.206295612795511
10
43.851190939105393
20
-13.385013612795511
10
43.689423939105396
20
-13.385013612795511
10
43.689423939105396
20
-11.885013612795511
10
43.862496939105391
20
-11.885013612795511
10
44.532176939105398
20
-13.062707612795514
10
44.532176939105391
20
-11.885013612795511
10
44.693943939105395
20
-11.885013612795511
10
44.693943939105395
20
-13.385013612795511
0
LWPOLYLINE
5
161
100
AcDbEntity
8
0
100
AcDbPolyline
90
10
70
1
43
0.0
10
44.528697939105399
20
8.2964323872044901
10
43.9303349391054
20
8.2964323872044901
10
43.9303349391054
20
7.6149863872044898
10
43.761610939105395
20
7.6149863872044898
10
43.761610939105395
20
9.1149863872044889
10
44.621756939105396
20
9.1149863872044889
10
44.621756939105396
20
8.9379743872044859
10
43.9303349391054
20
8.9379743872044859
10
43.9303349391054
20
8.4734443872044896
10
44.528697939105399
20
8.4734443872044896
0
LWPOLYLINE
5
162
100
AcDbEntity
8
0
100
AcDbPolyline
90
41
70
1
43
0.0
10
41.146758939105396
20
11.055940387204487
10
41.117341939105394
20
11.174925387204491
10
41.1025109391054
20
11.345705387204488
10
41.107086939105393
20
11.461654387204486
10
41.137116939105397
20
11.643616387204489
10
41.158565939105401
20
11.713436387204489
10
41.216908939105394
20
11.83838538720449
10
41.253802939105391
20
11.893513387204489
10
41.340041939105404
20
11.987015387204485
10
41.438376939105403
20
12.055077387204488
10
41.548689939105394
20
12.097616387204489
10
41.670978939105403
20
12.114632387204489
10
41.762154939105393
20
12.110823387204487
10
41.841859939105397
20
12.094838387204492
10
41.917362939105402
20
12.066863387204494
10
41.988662939105403
20
12.026899387204493
10
42.054392939105384
20
11.975826387204492
10
42.112035939105397
20
11.91526338720449
10
42.161535939105399
20
11.84524438720449
10
42.208995939105392
20
11.751604387204488
10
42.2448019391054
20
11.64761938720449
10
42.270750939105397
20
11.519199387204493
10
42.280731939105394
20
11.380562387204488
10
42.274421939105395
20
11.237842387204488
10
42.255116939105399
20
11.121077387204487
10
42.222942939105401
20
11.012218387204493
10
42.178248939105401
20
10.912324387204491
10
42.131234939105397
20
10.837640387204486
10
42.076340939105393
20
10.773523387204488
10
42.0135679391054
20
10.71997338720449
10
41.932161939105399
20
10.671070387204491
10
41.846751939105395
20
10.637357387204492
10
41.757622939105403
20
10.618870387204492
10
41.662943939105404
20
10.615673387204488
10
41.579806939105396
20
10.625973387204489
10
41.501292939105397
20
10.64863238720449
10
41.427400939105397
20
10.683652387204488
10
41.358336939105399
20
10.73084738720449
10
41.296753939105393
20
10.787805387204488
10
41.24347193910539
20
10.853787387204491
10
41.191798939105396
20
10.942169387204492
0
LWPOLYLINE
5
163
100
AcDbEntity
8
0
100
AcDbPolyline
90
10
70
1
43
0.0
10
34.528697939105399
20
8.2964323872044901
10
33.9303349391054
20
8.2964323872044901
10
33.9303349391054
20
7.6149863872044898
10
33.761610939105395
20
7.6149863872044898
10
33.761610939105395
20
9.1149863872044889
10
34.621756939105396
20
9.1149863872044889
10
34.621756939105396
20
8.9379743872044859
10
33.9303349391054
20
8.9379743872044859
10
33.9303349391054
20
8.4734443872044896
10
34.528697939105399
20
8.4734443872044896
0
LWPOLYLINE
5
164
100
AcDbEntity
8
0
100
AcDbPolyline
90
8
70
1
43
0.0
10
42.196987939105398
20
5.9379743872044886
10
41.775175939105402
20
5.9379743872044886
10
41.775175939105402
20
4.6149863872044881
10
41.606451939105398
20
4.6149863872044881
10
41.606451939105398
20
5.9379743872044886
10
41.1863799391054
20
5.9379743872044886
10
41.186379939105393
20
6.1149863872044916
10
42.196987939105391
20
6.1149863872044916
0
LWPOLYLINE
5
165
100
AcDbEntity
8
0
100
AcDbPolyline
90
10
70
1
43
0.0
10
37.020870939105386
20
4.6149863872044881
10
36.351190939105393
20
5.7937043872044889
10
36.351190939105393
20
4.6149863872044881
10
36.189423939105396
20
4.6149863872044881
10
36.189423939105396
20
6.1149863872044916
10
36.362496939105391
20
6.1149863872044916
10
37.032176939105398
20
4.9372923872044892
10
37.032176939105391
20
6.1149863872044916
10
37.193943939105395
20
6.1149863872044916
10
37.193943939105395
20
4.6149863872044881
0
LWPOLYLINE
5
166
100
AcDbEntity
8
0
100
AcDbPolyline
90
4
70
1
43
0.0
10
51.607321939105404
20
-8.8850136127955111
10
51.776045939105387
20
-8.8850136127955111
10
51.776045939105387
20
-10.385013612795513
10
51.60732193910539
20
-10.385013612795513
0
LWPOLYLINE
5
167
100
AcDbEntity
8
0
100
AcDbPolyline
90
10
70
1
43
0.0
10
54.520870939105407
20
-16.385013612795515
10
53.851190939105408
20
-15.206295612795513
10
53.851190939105393
20
-16.385013612795515
10
53.689423939105382
20
-16.385013612795515
10
53.689423939105403
20
-14.885013612795515
10
53.862496939105412
20
-14.885013612795511
10
54.532176939105398
20
-16.062707612795514
10
54.532176939105398
20
-14.885013612795511
10
54.693943939105395
20
-14.885013612795511
10
54.693943939105395
20
-16.385013612795515
0
LWPOLYLINE
5
168
100
AcDbEntity
8
0
100
AcDbPolyline
90
8
70
1
43
0.0
10
39.602623939105399
20
-14.885013612795515
10
39.774826939105395
20
-14.885013612795515
10
39.275610939105398
20
-16.385013612795515
10
39.102537939105403
20
-16.385013612795515
10
38.608540939105396
20
-14.885013612795515
10
38.791180939105402
20
-14.885013612795515
10
39.189509939105406
20
-16.220279612795512
10
39.258216939105388
20
-15.974713612795512
0
LWPOLYLINE
5
169
100
AcDbEntity
8
0
100
AcDbPolyline
90
12
70
1
43
0.0
10
56.384674939105395
20
-10.208001612795513
10
57.167416939105408
20
-10.208001612795513
10
57.167416939105408
20
-10.385013612795513
10
56.215950939105412
20
-10.385013612795513
10
56.21595093910539
20
-8.8850136127955111
10
57.137846939105401
20
-8.8850136127955111
10
57.137846939105401
20
-9.0620256127955106
10
56.384674939105395
20
-9.0620256127955106
10
56.384674939105395
20
-9.5214396127955112
10
57.090012939105392
20
-9.5214396127955112
10
57.090012939105392
20
-9.6974286127955125
10
56.384674939105395
20
-9.6974286127955125
0
LWPOLYLINE
5
170
100
AcDbEntity
8
0
100
AcDbPolyline
90
12
70
1
43
0.0
10
36.384674939105395
20
-13.208001612795513
10
37.167416939105394
20
-13.208001612795513
10
37.167416939105394
20
-13.385013612795511
10
36.215950939105397
20
-13.385013612795511
10
36.215950939105397
20
-11.885013612795511
10
37.137846939105401
20
-11.885013612795511
10
37.137846939105401
20
-12.062025612795511
10
36.384674939105402
20
-12.062025612795511
10
36.384674939105395
20
-12.521439612795513
10
37.090012939105392
20
-12.521439612795513
10
37.090012939105392
20
-12.697428612795512
10
36.384674939105395
20
-12.697428612795512
0
LWPOLYLINE
5
171
100
AcDbEntity
8
0
100
AcDbPolyline
90
12
70
1
43
0.0
10
41.384674939105395
20
-16.208001612795513
10
42.167416939105394
20
-16.208001612795513
10
42.167416939105394
20
-16.385013612795515
10
41.215950939105397
20
-16.385013612795515
10
41.215950939105397
20
-14.885013612795515
10
42.137846939105401
20
-14.885013612795515
10
42.137846939105401
20
-15.062025612795512
10
41.384674939105402
20
-15.062025612795512
10
41.384674939105395
20
-15.521439612795515
10
42.090012939105392
20
-15.521439612795515
10
42.090012939105392
20
-15.697428612795514
10
41.384674939105395
20
-15.697428612795514
0
LWPOLYLINE
5
172
100
AcDbEntity
8
0
100
AcDbPolyline
90
72
70
1
43
0.0
10
33.748893939105393
20
-16.115705612795512
10
33.716835939105394
20
-16.021236612795512
10
33.7009439391054
20
-15.894248612795515
10
33.854851939105401
20
-15.878417612795515
10
33.882324939105395
20
-16.006165612795513
10
33.920276939105392
20
-16.079522612795515
10
33.978622939105392
20
-16.138146612795516
10
34.065740939105389
20
-16.185874612795512
10
34.167766939105405
20
-16.210159612795515
10
34.299998939105393
20
-16.20599061279551
10
34.4011589391054
20
-16.171656612795516
10
34.466776939105401
20
-16.121778612795513
10
34.511517939105403
20
-16.046522612795513
10
34.524917939105393
20
-15.955219612795513
10
34.506228939105398
20
-15.873810612795513
10
34.464223939105395
20
-15.815092612795514
10
34.360613939105406
20
-15.753375612795516
10
33.963396939105394
20
-15.621996612795513
10
33.8752899391054
20
-15.566407612795512
10
33.811353939105395
20
-15.497785612795511
10
33.769772939105394
20
-15.416642612795513
10
33.749243939105398
20
-15.317525612795514
10
33.753927939105395
20
-15.213124612795514
10
33.781248939105396
20
-15.119846612795511
10
33.825219939105402
20
-15.041652612795513
10
33.879439939105396
20
-14.983700612795513
10
33.947379939105396
20
-14.938688612795513
10
34.044520939105396
20
-14.90184761279551
10
34.161423939105397
20
-14.885357612795511
10
34.280274939105396
20
-14.892318612795513
10
34.378773939105393
20
-14.917569612795516
10
34.457366939105398
20
-14.955635612795515
10
34.523052939105398
20
-15.007604612795514
10
34.575137939105396
20
-15.073348612795513
10
34.616636939105391
20
-15.160079612795512
10
34.641403939105395
20
-15.266367612795513
10
34.64541893910539
20
-15.318390612795515
10
34.4889879391054
20
-15.332243612795512
10
34.471069939105391
20
-15.238554612795511
10
34.445440939105396
20
-15.178768612795515
10
34.409580939105389
20
-15.130430612795514
10
34.370299939105408
20
-15.098237612795513
10
34.313527939105398
20
-15.071771612795516
10
34.244950939105394
20
-15.057257612795514
10
34.14163093910539
20
-15.055981612795515
10
34.060798939105396
20
-15.070163612795513
10
34.004711939105398
20
-15.094206612795515
10
33.957148939105402
20
-15.134392612795512
10
33.922238939105398
20
-15.188402612795514
10
33.907193939105397
20
-15.242602612795512
10
33.910639939105394
20
-15.320919612795514
10
33.935358939105392
20
-15.378286612795513
10
33.962155939105394
20
-15.408942612795515
10
34.018854939105395
20
-15.442995612795514
10
34.458964939105392
20
-15.589736612795516
10
34.544981939105391
20
-15.644591612795512
10
34.607299939105403
20
-15.708389612795512
10
34.65027093910539
20
-15.782838612795516
10
34.676723939105401
20
-15.875833612795516
10
34.681543939105396
20
-15.979379612795515
10
34.665890939105395
20
-16.072139612795514
10
34.626074939105393
20
-16.168819612795513
10
34.576894939105394
20
-16.239224612795514
10
34.513876939105394
20
-16.296829612795513
10
34.4282579391054
20
-16.345504612795516
10
34.332021939105395
20
-16.375136612795515
10
34.226586939105403
20
-16.385013612795515
10
34.096533939105399
20
-16.375050612795516
10
33.995590939105398
20
-16.349046612795512
10
33.918585939105398
20
-16.312374612795516
10
33.852658939105396
20
-16.262860612795514
10
33.797570939105398
20
-16.200484612795517
0
LWPOLYLINE
5
173
100
AcDbEntity
8
0
100
AcDbPolyline
90
12
70
1
43
0.0
10
58.884674939105395
20
-13.208001612795513
10
59.667416939105408
20
-13.208001612795513
10
59.667416939105408
20
-13.385013612795511
10
58.715950939105412
20
-13.385013612795511
10
58.71595093910539
20
-11.885013612795511
10
59.637846939105401
20
-11.885013612795511
10
59.637846939105401
20
-12.062025612795511
10
58.884674939105395
20
-12.062025612795511
10
58.884674939105395
20
-12.521439612795513
10
59.590012939105392
20
-12.521439612795513
10
59.590012939105392
20
-12.697428612795512
10
58.884674939105395
20
-12.697428612795512
0
LWPOLYLINE
5
174
100
AcDbEntity
8
0
100
AcDbPolyline
90
14
70
1
43
0.0
10
54.190813939105396
20
-9.7496116127955084
10
54.129933939105399
20
-9.8621626127955118
10
53.809879939105386
20
-10.385013612795513
10
53.607236939105398
20
-10.385013612795513
10
54.100363939105392
20
-9.6032946127955103
10
53.665506939105398
20
-8.8850136127955111
10
53.866410939105393
20
-8.8850136127955111
10
54.200380939105401
20
-9.4539086127955105
10
54.301267939105401
20
-9.283035612795512
10
54.55783293910541
20
-8.8850136127955111
10
54.741342939105394
20
-8.8850136127955111
10
54.29343993910539
20
-9.5920396127955101
10
54.7761309391054
20
-10.385013612795513
10
54.5673999391054
20
-10.385013612795513
0
LWPOLYLINE
5
175
100
AcDbEntity
8
0
100
AcDbPolyline
90
8
70
1
43
0.0
10
39.696987939105391
20
-12.062025612795511
10
39.275175939105395
20
-12.062025612795511
10
39.275175939105395
20
-13.385013612795511
10
39.106451939105398
20
-13.385013612795511
10
39.106451939105398
20
-12.062025612795511
10
38.6863799391054
20
-12.062025612795511
10
38.686379939105393
20
-11.885013612795511
10
39.696987939105391
20
-11.885013612795511
0
LWPOLYLINE
5
176
100
AcDbEntity
8
0
100
AcDbPolyline
90
12
70
1
43
0.0
10
41.384674939105395
20
-1.2080016127955095
10
42.167416939105394
20
-1.2080016127955095
10
42.167416939105394
20
-1.3850136127955104
10
41.215950939105397
20
-1.3850136127955104
10
41.215950939105397
20
0.11498638720448873
10
42.137846939105401
20
0.11498638720448873
10
42.137846939105401
20
-0.062025612795512108
10
41.384674939105402
20
-0.062025612795512108
10
41.384674939105395
20
-0.5214396127955101
10
42.090012939105392
20
-0.5214396127955101
10
42.090012939105392
20
-0.69742861279550872
10
41.384674939105395
20
-0.69742861279550872
0
LWPOLYLINE
5
177
100
AcDbEntity
8
0
100
AcDbPolyline
90
12
70
1
43
0.0
10
43.884674939105395
20
-7.2080016127955124
10
44.667416939105394
20
-7.2080016127955124
10
44.667416939105394
20
-7.3850136127955111
10
43.715950939105397
20
-7.3850136127955111
10
43.715950939105397
20
-5.8850136127955102
10
44.637846939105401
20
-5.8850136127955102
10
44.637846939105401
20
-6.0620256127955106
10
43.884674939105395
20
-6.0620256127955106
10
43.884674939105395
20
-6.5214396127955112
10
44.590012939105392
20
-6.5214396127955112
10
44.590012939105392
20
-6.6974286127955098
10
43.884674939105395
20
-6.6974286127955098
0
LWPOLYLINE
5
178
100
AcDbEntity
8
0
100
AcDbPolyline
90
12
70
1
43
0.0
10
48.884674939105395
20
-16.20800161279551
10
49.667416939105408
20
-16.20800161279551
10
49.667416939105408
20
-16.385013612795515
10
48.715950939105412
20
-16.385013612795515
10
48.715950939105412
20
-14.885013612795515
10
49.637846939105401
20
-14.885013612795511
10
49.637846939105401
20
-15.062025612795512
10
48.884674939105395
20
-15.062025612795512
10
48.884674939105395
20
-15.521439612795511
10
49.590012939105392
20
-15.521439612795511
10
49.590012939105392
20
-15.697428612795514
10
48.884674939105395
20
-15.697428612795509
0
LWPOLYLINE
5
179
100
AcDbEntity
8
0
100
AcDbPolyline
90
10
70
1
43
0.0
10
47.2761309391054
20
-5.8850136127955102
10
46.767348939105403
20
-6.749611612795511
10
46.767348939105403
20
-7.3850136127955111
10
46.598624939105392
20
-7.3850136127955111
10
46.598624939105392
20
-6.749611612795511
10
46.107236939105398
20
-5.8850136127955102
10
46.312488939105393
20
-5.8850136127955102
10
46.693422939105396
20
-6.5910166127955092
10
46.832577939105391
20
-6.3260096127955103
10
47.079575939105389
20
-5.8850136127955102
0
LWPOLYLINE
5
180
100
AcDbEntity
8
0
100
AcDbPolyline
90
4
70
1
43
0.0
10
56.607321939105404
20
-2.8850136127955119
10
56.776045939105387
20
-2.8850136127955119
10
56.776045939105387
20
-4.3850136127955111
10
56.60732193910539
20
-4.3850136127955111
0
LWPOLYLINE
5
181
100
AcDbEntity
8
0
100
AcDbPolyline
90
10
70
1
43
0.0
10
37.2761309391054
20
0.11498638720448873
10
36.767348939105403
20
-0.74961161279551214
10
36.767348939105403
20
-1.3850136127955104
10
36.598624939105392
20
-1.3850136127955104
10
36.598624939105392
20
-0.74961161279551214
10
36.107236939105398
20
0.11498638720448873
10
36.312488939105393
20
0.11498638720448873
10
36.693422939105396
20
-0.59101661279551077
10
36.832577939105391
20
-0.32600961279550922
10
37.079575939105389
20
0.11498638720448873
0
LWPOLYLINE
5
182
100
AcDbEntity
8
0
100
AcDbPolyline
90
41
70
1
43
0.0
10
46.146758939105396
20
-9.9440596127955114
10
46.117341939105394
20
-9.8250746127955111
10
46.1025109391054
20
-9.6542946127955123
10
46.1070869391054
20
-9.5383456127955117
10
46.13711693910539
20
-9.3563836127955096
10
46.158565939105394
20
-9.2865636127955113
10
46.216908939105394
20
-9.1616146127955105
10
46.253802939105391
20
-9.1064866127955106
10
46.34004193910539
20
-9.0129846127955133
10
46.438376939105396
20
-8.9449226127955104
10
46.548689939105394
20
-8.9023836127955107
10
46.670978939105396
20
-8.8853676127955108
10
46.762154939105393
20
-8.8891766127955112
10
46.841859939105397
20
-8.90516161279551
10
46.917362939105388
20
-8.9331366127955132
10
46.988662939105396
20
-8.9731006127955109
10
47.054392939105384
20
-9.0241736127955114
10
47.112035939105382
20
-9.0847366127955116
10
47.161535939105406
20
-9.1547556127955101
10
47.208995939105392
20
-9.2483956127955107
10
47.244801939105386
20
-9.3523806127955105
10
47.27075093910539
20
-9.4808006127955107
10
47.280731939105408
20
-9.6194376127955099
10
47.274421939105395
20
-9.7621576127955105
10
47.255116939105392
20
-9.8789226127955114
10
47.22294293910538
20
-9.9877816127955104
10
47.178248939105401
20
-10.087675612795511
10
47.131234939105404
20
-10.162359612795516
10
47.076340939105407
20
-10.226476612795512
10
47.0135679391054
20
-10.280026612795513
10
46.932161939105399
20
-10.328929612795509
10
46.846751939105395
20
-10.36264261279551
10
46.757622939105389
20
-10.381129612795515
10
46.662943939105396
20
-10.384326612795514
10
46.579806939105396
20
-10.374026612795513
10
46.501292939105397
20
-10.35136761279551
10
46.427400939105397
20
-10.316347612795514
10
46.358336939105399
20
-10.269152612795512
10
46.296753939105393
20
-10.212194612795514
10
46.24347193910539
20
-10.146212612795512
10
46.191798939105396
20
-10.057830612795513
0
LWPOLYLINE
5
183
100
AcDbEntity
8
0
100
AcDbPolyline
90
12
70
1
43
0.0
10
37.023044939105397
20
-6.677987612795512
10
36.360322939105394
20
-6.677987612795512
10
36.360322939105394
20
-7.3850136127955111
10
36.191598939105404
20
-7.3850136127955111
10
36.191598939105404
20
-5.8850136127955102
10
36.360322939105401
20
-5.8850136127955102
10
36.360322939105394
20
-6.5009756127955107
10
37.023044939105397
20
-6.5009756127955107
10
37.023044939105397
20
-5.8850136127955102
10
37.191768939105401
20
-5.8850136127955102
10
37.191768939105394
20
-7.3850136127955111
10
37.02304493910539
20
-7.3850136127955111
0
LWPOLYLINE
5
184
100
AcDbEntity
8
0
100
AcDbPolyline
90
6
70
1
43
0.0
10
43.962079939105401
20
-4.2080016127955124
10
44.590012939105399
20
-4.2080016127955124
10
44.590012939105392
20
-4.3850136127955111
10
43.793354939105392
20
-4.3850136127955111
10
43.793354939105392
20
-2.8850136127955119
10
43.962079939105394
20
-2.8850136127955119
0
LWPOLYLINE
5
185
100
AcDbEntity
8
0
100
AcDbPolyline
90
10
70
1
43
0.0
10
49.528697939105385
20
-6.7035676127955099
10
48.930334939105379
20
-6.7035676127955099
10
48.9303349391054
20
-7.3850136127955111
10
48.761610939105395
20
-7.3850136127955111
10
48.761610939105395
20
-5.8850136127955102
10
49.621756939105396
20
-5.8850136127955102
10
49.621756939105396
20
-6.0620256127955106
10
48.9303349391054
20
-6.0620256127955106
10
48.9303349391054
20
-6.5265556127955096
10
49.528697939105406
20
-6.5265556127955096
0
LWPOLYLINE
5
186
100
AcDbEntity
8
0
100
AcDbPolyline
90
8
70
1
43
0.0
10
57.102623939105399
20
-5.8850136127955102
10
57.274826939105395
20
-5.8850136127955102
10
56.775610939105405
20
-7.3850136127955111
10
56.602537939105403
20
-7.3850136127955111
10
56.108540939105396
20
-5.8850136127955102
10
56.291180939105402
20
-5.8850136127955102
10
56.689509939105406
20
-7.2202796127955118
10
56.758216939105409
20
-6.9747136127955125
0
LWPOLYLINE
5
187
100
AcDbEntity
8
0
100
AcDbPolyline
90
10
70
1
43
0.0
10
53.881630939105406
20
-4.2080016127955124
10
54.695682939105396
20
-4.2080016127955124
10
54.695682939105396
20
-4.3850136127955111
10
53.687684939105381
20
-4.3850136127955111
10
53.687684939105402
20
-4.2008386127955113
10
54.473035939105401
20
-3.0620256127955123
10
53.761610939105395
20
-3.0620256127955123
10
53.761610939105395
20
-2.8850136127955119
10
54.674809939105401
20
-2.8850136127955119
10
54.674809939105401
20
-3.0620256127955123
0
LWPOLYLINE
5
188
100
AcDbEntity
8
0
100
AcDbPolyline
90
12
70
1
43
0.0
10
32.023044939105397
20
-15.677987612795512
10
31.360322939105394
20
-15.677987612795512
10
31.360322939105394
20
-16.385013612795515
10
31.1915989391054
20
-16.385013612795515
10
31.19159893910539
20
-14.885013612795515
10
31.360322939105387
20
-14.885013612795515
10
31.360322939105394
20
-15.500975612795514
10
32.023044939105397
20
-15.500975612795514
10
32.023044939105397
20
-14.885013612795515
10
32.191768939105394
20
-14.885013612795515
10
32.191768939105394
20
-16.385013612795515
10
32.023044939105397
20
-16.385013612795515
0
LWPOLYLINE
5
189
100
AcDbEntity
8
0
100
AcDbPolyline
90
12
70
1
43
0.0
10
41.384674939105395
20
-7.2080016127955124
10
42.167416939105394
20
-7.2080016127955124
10
42.167416939105394
20
-7.3850136127955111
10
41.215950939105397
20
-7.3850136127955111
10
41.215950939105397
20
-5.8850136127955102
10
42.137846939105401
20
-5.8850136127955102
10
42.137846939105401
20
-6.0620256127955106
10
41.384674939105402
20
-6.0620256127955106
10
41.384674939105395
20
-6.5214396127955112
10
42.090012939105392
20
-6.5214396127955112
10
42.090012939105392
20
-6.6974286127955098
10
41.384674939105395
20
-6.6974286127955098
0
LWPOLYLINE
5
190
100
AcDbEntity
8
0
100
AcDbPolyline
90
8
70
1
43
0.0
10
37.196987939105391
20
-3.0620256127955123
10
36.775175939105395
20
-3.0620256127955123
10
36.775175939105395
20
-4.3850136127955111
10
36.606451939105391
20
-4.3850136127955111
10
36.606451939105398
20
-3.0620256127955123
10
36.1863799391054
20
-3.0620256127955123
10
36.186379939105393
20
-2.8850136127955119
10
37.196987939105391
20
-2.8850136127955119
0
LWPOLYLINE
5
191
100
AcDbEntity
8
0
100
AcDbPolyline
90
12
70
1
43
0.0
10
31.384674939105395
20
-10.208001612795513
10
32.167416939105394
20
-10.208001612795513
10
32.167416939105394
20
-10.385013612795513
10
31.215950939105397
20
-10.385013612795513
10
31.215950939105397
20
-8.8850136127955111
10
32.137846939105401
20
-8.8850136127955111
10
32.137846939105394
20
-9.0620256127955106
10
31.384674939105395
20
-9.0620256127955106
10
31.384674939105395
20
-9.5214396127955112
10
32.090012939105392
20
-9.5214396127955112
10
32.090012939105392
20
-9.6974286127955125
10
31.384674939105395
20
-9.6974286127955125
0
LWPOLYLINE
5
192
100
AcDbEntity
8
0
100
AcDbPolyline
90
8
70
1
43
0.0
10
34.696987939105391
20
-6.0620256127955106
10
34.275175939105395
20
-6.0620256127955106
10
34.275175939105395
20
-7.3850136127955111
10
34.106451939105398
20
-7.3850136127955111
10
34.106451939105398
20
-6.0620256127955106
10
33.686379939105393
20
-6.0620256127955106
10
33.686379939105393
20
-5.8850136127955102
10
34.696987939105391
20
-5.8850136127955102
0
LWPOLYLINE
5
193
100
AcDbEntity
8
0
100
AcDbPolyline
90
8
70
1
43
0.0
10
52.102623939105399
20
-11.885013612795511
10
52.274826939105395
20
-11.885013612795511
10
51.775610939105391
20
-13.385013612795511
10
51.602537939105382
20
-13.385013612795511
10
51.108540939105396
20
-11.885013612795511
10
51.291180939105402
20
-11.885013612795511
10
51.689509939105406
20
-13.220279612795514
10
51.758216939105409
20
-12.97471361279551
0
LWPOLYLINE
5
194
100
AcDbEntity
8
0
100
AcDbPolyline
90
10
70
1
43
0.0
10
59.520870939105407
20
-4.3850136127955111
10
58.851190939105408
20
-3.2062956127955102
10
58.851190939105393
20
-4.3850136127955111
10
58.689423939105403
20
-4.3850136127955111
10
58.689423939105403
20
-2.8850136127955119
10
58.862496939105391
20
-2.8850136127955119
10
59.532176939105398
20
-4.0627076127955117
10
59.532176939105398
20
-2.8850136127955119
10
59.693943939105395
20
-2.8850136127955119
10
59.693943939105395
20
-4.3850136127955111
0
LWPOLYLINE
5
195
100
AcDbEntity
8
0
100
AcDbPolyline
90
72
70
1
43
0.0
10
48.748893939105393
20
-10.115705612795512
10
48.716835939105394
20
-10.021236612795512
10
48.7009439391054
20
-9.8942486127955114
10
48.854851939105401
20
-9.8784176127955128
10
48.882324939105395
20
-10.006165612795513
10
48.920276939105406
20
-10.079522612795513
10
48.978622939105406
20
-10.138146612795511
10
49.06574093910541
20
-10.185874612795512
10
49.167766939105405
20
-10.210159612795513
10
49.299998939105407
20
-10.205990612795514
10
49.401158939105386
20
-10.171656612795509
10
49.466776939105387
20
-10.121778612795511
10
49.511517939105389
20
-10.04652261279551
10
49.524917939105407
20
-9.9552196127955099
10
49.506228939105398
20
-9.873810612795511
10
49.464223939105395
20
-9.815092612795512
10
49.360613939105406
20
-9.7533756127955105
10
48.963396939105408
20
-9.6219966127955097
10
48.875289939105393
20
-9.566407612795512
10
48.811353939105388
20
-9.4977856127955089
10
48.769772939105408
20
-9.4166426127955098
10
48.749243939105398
20
-9.3175256127955102
10
48.753927939105409
20
-9.2131246127955126
10
48.781248939105396
20
-9.1198466127955111
10
48.825219939105402
20
-9.0416526127955112
10
48.879439939105396
20
-8.9837006127955128
10
48.947379939105403
20
-8.938688612795513
10
49.044520939105411
20
-8.9018476127955122
10
49.161423939105404
20
-8.8853576127955112
10
49.280274939105396
20
-8.8923186127955116
10
49.378773939105386
20
-8.9175696127955124
10
49.457366939105398
20
-8.9556356127955112
10
49.523052939105398
20
-9.0076046127955109
10
49.575137939105396
20
-9.0733486127955114
10
49.616636939105391
20
-9.1600796127955117
10
49.641403939105402
20
-9.266367612795511
10
49.645418939105411
20
-9.3183906127955112
10
49.488987939105407
20
-9.3322436127955104
10
49.471069939105391
20
-9.2385546127955092
10
49.445440939105403
20
-9.1787686127955119
10
49.409580939105396
20
-9.1304306127955108
10
49.370299939105408
20
-9.0982376127955114
10
49.313527939105398
20
-9.0717716127955104
10
49.244950939105401
20
-9.057257612795512
10
49.141630939105397
20
-9.0559816127955113
10
49.060798939105403
20
-9.0701636127955112
10
49.004711939105405
20
-9.0942066127955119
10
48.95714893910538
20
-9.1343926127955104
10
48.922238939105398
20
-9.1884026127955103
10
48.907193939105404
20
-9.2426026127955101
10
48.910639939105408
20
-9.3209196127955121
10
48.935358939105399
20
-9.3782866127955113
10
48.962155939105401
20
-9.4089426127955083
10
49.018854939105395
20
-9.4429956127955119
10
49.4589649391054
20
-9.5897366127955106
10
49.544981939105398
20
-9.6445916127955105
10
49.607299939105403
20
-9.7083896127955107
10
49.650270939105411
20
-9.7828386127955085
10
49.676723939105386
20
-9.8758336127955086
10
49.681543939105396
20
-9.9793796127955119
10
49.66589093910541
20
-10.072139612795512
10
49.626074939105408
20
-10.168819612795513
10
49.576894939105394
20
-10.239224612795512
10
49.513876939105401
20
-10.296829612795513
10
49.4282579391054
20
-10.345504612795512
10
49.332021939105402
20
-10.375136612795512
10
49.226586939105403
20
-10.385013612795513
10
49.096533939105399
20
-10.375050612795512
10
48.995590939105398
20
-10.349046612795512
10
48.918585939105398
20
-10.312374612795509
10
48.85265893910541
20
-10.262860612795514
10
48.797570939105398
20
-10.20048461279551
0
LWPOLYLINE
5
196
100
AcDbEntity
8
0
100
AcDbPolyline
90
12
70
1
43
0.0
10
56.384674939105395
20
-16.20800161279551
10
57.167416939105408
20
-16.20800161279551
10
57.167416939105408
20
-16.385013612795515
10
56.215950939105412
20
-16.385013612795515
10
56.21595093910539
20
-14.885013612795515
10
57.137846939105401
20
-14.885013612795511
10
57.137846939105401
20
-15.062025612795512
10
56.384674939105395
20
-15.062025612795512
10
56.384674939105395
20
-15.521439612795511
10
57.090012939105392
20
-15.521439612795511
10
57.090012939105392
20
-15.697428612795514
10
56.384674939105395
20
-15.697428612795509
0
LWPOLYLINE
5
197
100
AcDbEntity
8
0
100
AcDbPolyline
90
12
70
1
43
0.0
10
53.884674939105395
20
-13.208001612795513
10
54.667416939105408
20
-13.208001612795513
10
54.667416939105408
20
-13.385013612795511
10
53.715950939105412
20
-13.385013612795511
10
53.715950939105412
20
-11.885013612795511
10
54.637846939105415
20
-11.885013612795511
10
54.637846939105401
20
-12.062025612795511
10
53.884674939105395
20
-12.062025612795511
10
53.884674939105395
20
-12.521439612795513
10
54.590012939105392
20
-12.521439612795513
10
54.590012939105392
20
-12.697428612795512
10
53.884674939105395
20
-12.697428612795512
0
LWPOLYLINE
5
198
100
AcDbEntity
8
0
100
AcDbPolyline
90
12
70
1
43
0.0
10
51.384674939105395
20
-16.20800161279551
10
52.167416939105408
20
-16.20800161279551
10
52.167416939105408
20
-16.385013612795515
10
51.215950939105412
20
-16.385013612795515
10
51.215950939105412
20
-14.885013612795515
10
52.137846939105401
20
-14.885013612795511
10
52.137846939105401
20
-15.062025612795512
10
51.384674939105395
20
-15.062025612795512
10
51.384674939105395
20
-15.521439612795511
10
52.090012939105392
20
-15.521439612795511
10
52.090012939105392
20
-15.697428612795514
10
51.384674939105395
20
-15.697428612795509
0
LWPOLYLINE
5
199
100
AcDbEntity
8
0
100
AcDbPolyline
90
10
70
1
43
0.0
10
39.7761309391054
20
0.11498638720448873
10
39.267348939105403
20
-0.74961161279551214
10
39.267348939105403
20
-1.3850136127955104
10
39.098624939105392
20
-1.3850136127955104
10
39.098624939105392
20
-0.74961161279551214
10
38.607236939105398
20
0.11498638720448873
10
38.812488939105393
20
0.11498638720448873
10
39.193422939105396
20
-0.59101661279551077
10
39.332577939105406
20
-0.32600961279550922
10
39.579575939105389
20
0.11498638720448873
0
LWPOLYLINE
5
200
100
AcDbEntity
8
0
100
AcDbPolyline
90
12
70
1
43
0.0
10
51.384674939105395
20
-1.2080016127955095
10
52.167416939105408
20
-1.2080016127955095
10
52.167416939105408
20
-1.3850136127955104
10
51.215950939105412
20
-1.3850136127955104
10
51.215950939105412
20
0.11498638720448873
10
52.137846939105401
20
0.11498638720448873
10
52.137846939105401
20
-0.062025612795512108
10
51.384674939105395
20
-0.062025612795512108
10
51.384674939105395
20
-0.5214396127955101
10
52.090012939105392
20
-0.5214396127955101
10
52.090012939105392
20
-0.69742861279550872
10
51.384674939105395
20
-0.69742861279550872
0
LWPOLYLINE
5
201
100
AcDbEntity
8
0
100
AcDbPolyline
90
8
70
1
43
0.0
10
49.602623939105399
20
0.11498638720448873
10
49.774826939105395
20
0.11498638720448873
10
49.275610939105391
20
-1.3850136127955104
10
49.102537939105382
20
-1.3850136127955104
10
48.608540939105396
20
0.11498638720448873
10
48.791180939105402
20
0.11498638720448873
10
49.189509939105406
20
-1.2202796127955107
10
49.258216939105409
20
-0.97471361279551139
0
LWPOLYLINE
5
202
100
AcDbEntity
8
0
100
AcDbPolyline
90
72
70
1
43
0.0
10
56.248893939105393
20
-13.115705612795514
10
56.216835939105394
20
-13.02123661279551
10
56.2009439391054
20
-12.894248612795511
10
56.354851939105401
20
-12.878417612795513
10
56.382324939105395
20
-13.00616561279551
10
56.420276939105406
20
-13.079522612795511
10
56.478622939105406
20
-13.138146612795509
10
56.56574093910541
20
-13.185874612795514
10
56.667766939105405
20
-13.210159612795511
10
56.799998939105393
20
-13.205990612795514
10
56.901158939105386
20
-13.171656612795513
10
56.966776939105387
20
-13.121778612795513
10
57.011517939105403
20
-13.046522612795513
10
57.024917939105393
20
-12.95521961279551
10
57.006228939105398
20
-12.873810612795511
10
56.964223939105395
20
-12.81509261279551
10
56.860613939105406
20
-12.753375612795512
10
56.463396939105408
20
-12.621996612795513
10
56.375289939105393
20
-12.566407612795514
10
56.311353939105402
20
-12.497785612795514
10
56.269772939105408
20
-12.41664261279551
10
56.249243939105398
20
-12.31752561279551
10
56.253927939105409
20
-12.213124612795511
10
56.281248939105396
20
-12.119846612795513
10
56.325219939105402
20
-12.041652612795509
10
56.379439939105396
20
-11.983700612795513
10
56.447379939105403
20
-11.938688612795513
10
56.544520939105411
20
-11.901847612795514
10
56.661423939105404
20
-11.885357612795513
10
56.780274939105396
20
-11.892318612795512
10
56.8787739391054
20
-11.917569612795514
10
56.957366939105398
20
-11.955635612795511
10
57.023052939105398
20
-12.007604612795513
10
57.075137939105396
20
-12.073348612795511
10
57.116636939105391
20
-12.160079612795514
10
57.141403939105402
20
-12.266367612795509
10
57.14541893910539
20
-12.318390612795511
10
56.988987939105385
20
-12.33224361279551
10
56.971069939105391
20
-12.238554612795514
10
56.945440939105403
20
-12.178768612795512
10
56.909580939105396
20
-12.130430612795511
10
56.870299939105408
20
-12.098237612795511
10
56.813527939105398
20
-12.071771612795512
10
56.744950939105401
20
-12.05725761279551
10
56.641630939105397
20
-12.055981612795513
10
56.560798939105403
20
-12.070163612795511
10
56.504711939105405
20
-12.094206612795514
10
56.457148939105402
20
-12.13439261279551
10
56.422238939105398
20
-12.18840261279551
10
56.407193939105383
20
-12.24260261279551
10
56.410639939105387
20
-12.32091961279551
10
56.435358939105399
20
-12.37828661279551
10
56.462155939105401
20
-12.408942612795514
10
56.51885493910541
20
-12.44299561279551
10
56.958964939105385
20
-12.589736612795512
10
57.044981939105398
20
-12.64459161279551
10
57.107299939105403
20
-12.708389612795514
10
57.15027093910539
20
-12.782838612795512
10
57.176723939105401
20
-12.875833612795514
10
57.181543939105396
20
-12.979379612795512
10
57.16589093910541
20
-13.07213961279551
10
57.126074939105408
20
-13.168819612795509
10
57.076894939105394
20
-13.23922461279551
10
57.013876939105401
20
-13.296829612795511
10
56.9282579391054
20
-13.345504612795512
10
56.832021939105402
20
-13.375136612795512
10
56.726586939105403
20
-13.385013612795511
10
56.596533939105399
20
-13.375050612795508
10
56.495590939105398
20
-13.349046612795515
10
56.418585939105398
20
-13.312374612795512
10
56.352658939105389
20
-13.262860612795514
10
56.297570939105398
20
-13.200484612795513
0
LWPOLYLINE
5
203
100
AcDbEntity
8
0
100
AcDbPolyline
90
38
70
1
43
0.0
10
59.495939939105384
20
-0.98408861279550952
10
59.512151939105408
20
-0.88277261279550934
10
59.518771939105392
20
-0.73612061279550889
10
59.518771939105392
20
0.11498638720448873
10
59.684666939105391
20
0.11498638720448873
10
59.6810299391054
20
-0.8590326127955128
10
59.660615939105398
20
-1.0191306127955102
10
59.634305939105388
20
-1.1117036127955082
10
59.600162939105402
20
-1.1814716127955094
10
59.554306939105395
20
-1.2429386127955133
10
59.496738939105391
20
-1.2961046127955089
10
59.438036939105402
20
-1.3336266127955121
10
59.370623939105407
20
-1.3609566127955108
10
59.280964939105388
20
-1.3798896127955118
10
59.165762939105392
20
-1.3845176127955117
10
59.059013939105398
20
-1.3726126127955107
10
58.977299939105393
20
-1.349175612795509
10
58.906497939105392
20
-1.3135846127955098
10
58.846607939105397
20
-1.2664836127955115
10
58.797628939105394
20
-1.2085136127955109
10
58.759561939105396
20
-1.1396746127955104
10
58.728713939105397
20
-1.046163612795511
10
58.705434939105402
20
-0.89899561279551343
10
58.698700939105407
20
-0.73712661279551006
10
58.698700939105407
20
0.11498638720448873
10
58.864595939105406
20
0.11498638720448873
10
58.869866939105378
20
-0.87869461279550864
10
58.892476939105393
20
-1.0115566127955089
10
58.92782293910539
20
-1.0879426127955127
10
58.975834939105397
20
-1.1420696127955099
10
59.038321939105401
20
-1.1812286127955118
10
59.120586939105394
20
-1.2047636127955108
10
59.195206939105404
20
-1.2087876127955111
10
59.277940939105406
20
-1.2006556127955104
10
59.336841939105405
20
-1.1845606127955122
10
59.386613939105395
20
-1.1599946127955107
10
59.427254939105403
20
-1.1269586127955111
10
59.474999939105388
20
-1.0513236127955106
0
LWPOLYLINE
5
204
100
AcDbEntity
8
0
100
AcDbPolyline
90
6
70
1
43
0.0
10
43.962079939105401
20
-1.2080016127955095
10
44.590012939105399
20
-1.2080016127955095
10
44.590012939105392
20
-1.3850136127955104
10
43.793354939105392
20
-1.3850136127955104
10
43.793354939105392
20
0.11498638720448873
10
43.962079939105394
20
0.11498638720448873
0
LWPOLYLINE
5
205
100
AcDbEntity
8
0
100
AcDbPolyline
90
12
70
1
43
0.0
10
41.384674939105395
20
-4.2080016127955124
10
42.167416939105394
20
-4.2080016127955124
10
42.167416939105394
20
-4.3850136127955111
10
41.215950939105397
20
-4.3850136127955111
10
41.215950939105397
20
-2.8850136127955119
10
42.137846939105401
20
-2.8850136127955119
10
42.137846939105401
20
-3.0620256127955123
10
41.384674939105402
20
-3.0620256127955123
10
41.384674939105395
20
-3.5214396127955103
10
42.090012939105392
20
-3.5214396127955103
10
42.090012939105392
20
-3.6974286127955116
10
41.384674939105395
20
-3.6974286127955116
0
LWPOLYLINE
5
206
100
AcDbEntity
8
0
100
AcDbPolyline
90
12
70
1
43
0.0
10
31.384674939105395
20
-7.2080016127955124
10
32.167416939105394
20
-7.2080016127955124
10
32.167416939105394
20
-7.3850136127955111
10
31.215950939105397
20
-7.3850136127955111
10
31.215950939105397
20
-5.8850136127955102
10
32.137846939105401
20
-5.8850136127955102
10
32.137846939105394
20
-6.0620256127955106
10
31.384674939105395
20
-6.0620256127955106
10
31.384674939105395
20
-6.5214396127955112
10
32.090012939105392
20
-6.5214396127955112
10
32.090012939105392
20
-6.6974286127955098
10
31.384674939105395
20
-6.6974286127955098
0
LWPOLYLINE
5
207
100
AcDbEntity
8
0
100
AcDbPolyline
90
4
70
1
43
0.0
10
51.607321939105404
20
-5.8850136127955102
10
51.776045939105387
20
-5.8850136127955102
10
51.776045939105387
20
-7.3850136127955111
10
51.60732193910539
20
-7.3850136127955111
0
LWPOLYLINE
5
208
100
AcDbEntity
8
0
100
AcDbPolyline
90
10
70
1
43
0.0
10
44.520870939105393
20
-16.385013612795515
10
43.851190939105393
20
-15.206295612795513
10
43.851190939105393
20
-16.385013612795515
10
43.689423939105396
20
-16.385013612795515
10
43.689423939105396
20
-14.885013612795515
10
43.862496939105391
20
-14.885013612795515
10
44.532176939105398
20
-16.062707612795514
10
44.532176939105391
20
-14.885013612795515
10
44.693943939105395
20
-14.885013612795515
10
44.693943939105395
20
-16.385013612795515
0
LWPOLYLINE
5
209
100
AcDbEntity
8
0
100
AcDbPolyline
90
8
70
1
43
0.0
10
47.102623939105399
20
-2.8850136127955119
10
47.274826939105395
20
-2.8850136127955119
10
46.775610939105398
20
-4.3850136127955111
10
46.602537939105403
20
-4.3850136127955111
10
46.108540939105396
20
-2.8850136127955119
10
46.291180939105402
20
-2.8850136127955119
10
46.689509939105406
20
-4.2202796127955109
10
46.758216939105395
20
-3.9747136127955116
0
LWPOLYLINE
5
210
100
AcDbEntity
8
0
100
AcDbPolyline
90
12
70
1
43
0.0
10
39.523044939105397
20
11.32201238720449
10
38.860322939105394
20
11.32201238720449
10
38.860322939105394
20
10.614986387204489
10
38.691598939105404
20
10.614986387204489
10
38.691598939105404
20
12.114986387204487
10
38.860322939105401
20
12.114986387204487
10
38.860322939105394
20
11.499024387204489
10
39.523044939105397
20
11.499024387204489
10
39.523044939105397
20
12.114986387204487
10
39.691768939105394
20
12.114986387204487
10
39.691768939105394
20
10.614986387204489
10
39.52304493910539
20
10.614986387204489
0
LWPOLYLINE
5
211
100
AcDbEntity
8
0
100
AcDbPolyline
90
15
70
1
43
0.0
10
39.437638939105391
20
-4.3850136127955111
10
39.190639939105402
20
-3.0661186127955089
10
38.944336939105398
20
-4.3850136127955111
10
38.806574939105403
20
-4.3850136127955111
10
38.535919939105398
20
-2.8850136127955119
10
38.674377939105398
20
-2.8850136127955119
10
38.872672939105399
20
-4.1752596127955108
10
38.918593939105399
20
-3.8979736127955125
10
39.112713939105397
20
-2.8850136127955119
10
39.275523939105398
20
-2.8850136127955119
10
39.478384939105389
20
-3.9840346127955097
10
39.500953939105401
20
-4.1752596127955108
10
39.711772939105394
20
-2.8850136127955119
10
39.847447939105393
20
-2.8850136127955119
10
39.567747939105402
20
-4.3850136127955111
0
LWPOLYLINE
5
212
100
AcDbEntity
8
0
100
AcDbPolyline
90
62
70
1
43
0.0
10
47.06753893910539
20
13.907337387204494
10
47.1021059391054
20
13.938535387204489
10
47.1021059391054
20
14.208654387204492
10
46.739622939105409
20
14.20865438720449
10
46.739622939105402
20
14.378838387204489
10
47.2619019391054
20
14.379828387204492
10
47.2619019391054
20
13.841569387204496
10
47.139741939105392
20
13.742748387204486
10
47.024437939105397
20
13.676717387204491
10
46.906099939105403
20
13.63434538720449
10
46.784932939105403
20
13.615875387204488
10
46.691765939105395
20
13.617528387204487
10
46.591851939105396
20
13.634212387204494
10
46.510709939105404
20
13.660907387204491
10
46.433720939105392
20
13.699042387204488
10
46.362599939105394
20
13.748188387204493
10
46.300503939105397
20
13.80755438720449
10
46.247501939105398
20
13.877125387204492
10
46.203592939105398
20
13.956899387204489
10
46.1640429391054
20
14.060299387204488
10
46.137366939105391
20
14.17067238720449
10
46.122648939105389
20
14.305264387204488
10
46.1247329391054
20
14.445062387204487
10
46.143550939105396
20
14.579173387204492
10
46.179096939105399
20
14.707017387204488
10
46.223662939105395
20
14.811899387204491
10
46.270926939105401
20
14.889890387204488
10
46.326443939105388
20
14.956070387204491
10
46.390212939105396
20
15.010438387204488
10
46.461591939105404
20
15.053146387204484
10
46.5384939391054
20
15.08468438720449
10
46.620756939105391
20
15.105092387204486
10
46.723506939105391
20
15.114831387204489
10
46.845764939105393
20
15.106139387204491
10
46.953158939105393
20
15.075972387204487
10
47.04743893910539
20
15.025606387204489
10
47.116429939105387
20
14.965054387204489
10
47.174348939105393
20
14.881710387204485
10
47.225579939105401
20
14.754333387204483
10
47.24339893910539
20
14.684577387204483
10
47.096218939105384
20
14.63708438720449
10
47.040617939105388
20
14.78879938720449
10
46.986779939105404
20
14.85961638720449
10
46.903103939105399
20
14.915753387204491
10
46.807272939105395
20
14.945381387204492
10
46.685586939105399
20
14.948233387204489
10
46.581491939105391
20
14.925623387204489
10
46.483677939105391
20
14.87289138720449
10
46.4024029391054
20
14.78876338720449
10
46.336769939105395
20
14.661820387204493
10
46.301446939105389
20
14.521566387204485
10
46.289671939105396
20
14.369933387204483
10
46.299527939105396
20
14.219318387204488
10
46.325251939105392
20
14.102563387204491
10
46.36144193910539
20
14.013795387204491
10
46.409345939105393
20
13.93980638720449
10
46.4606899391054
20
13.88733138720449
10
46.529878939105402
20
13.841349387204488
10
46.623560939105396
20
13.803970387204494
10
46.711868939105401
20
13.789128387204483
10
46.820912939105398
20
13.79488738720449
10
46.932182939105402
20
13.828462387204489
0
LWPOLYLINE
5
213
100
AcDbEntity
8
0
100
AcDbPolyline
90
8
70
1
43
0.0
10
42.196987939105398
20
-9.0620256127955106
10
41.775175939105402
20
-9.0620256127955106
10
41.775175939105402
20
-10.385013612795513
10
41.606451939105398
20
-10.385013612795513
10
41.606451939105398
20
-9.0620256127955106
10
41.1863799391054
20
-9.0620256127955106
10
41.186379939105393
20
-8.8850136127955111
10
42.196987939105391
20
-8.8850136127955111
0
LWPOLYLINE
5
214
100
AcDbEntity
8
0
100
AcDbPolyline
90
8
70
1
43
0.0
10
47.196987939105398
20
8.9379743872044877
10
46.775175939105402
20
8.9379743872044859
10
46.775175939105395
20
7.6149863872044898
10
46.606451939105398
20
7.6149863872044898
10
46.606451939105398
20
8.9379743872044859
10
46.186379939105393
20
8.9379743872044859
10
46.186379939105393
20
9.1149863872044889
10
47.196987939105398
20
9.1149863872044907
0
LWPOLYLINE
5
215
100
AcDbEntity
8
0
100
AcDbPolyline
90
12
70
1
43
0.0
10
39.523044939105397
20
-9.677987612795512
10
38.860322939105394
20
-9.677987612795512
10
38.860322939105394
20
-10.385013612795513
10
38.691598939105404
20
-10.385013612795513
10
38.691598939105404
20
-8.8850136127955111
10
38.860322939105401
20
-8.8850136127955111
10
38.860322939105394
20
-9.5009756127955107
10
39.523044939105397
20
-9.5009756127955107
10
39.523044939105397
20
-8.8850136127955111
10
39.691768939105394
20
-8.8850136127955111
10
39.691768939105394
20
-10.385013612795513
10
39.52304493910539
20
-10.385013612795513
0
LWPOLYLINE
5
216
100
AcDbEntity
8
0
100
AcDbPolyline
90
15
70
1
43
0.0
10
46.937638939105398
20
4.6149863872044881
10
46.690639939105395
20
5.9338813872044902
10
46.444336939105391
20
4.6149863872044881
10
46.306574939105396
20
4.6149863872044881
10
46.035919939105398
20
6.1149863872044916
10
46.174377939105398
20
6.1149863872044916
10
46.372672939105399
20
4.8247403872044901
10
46.418593939105399
20
5.1020263872044911
10
46.612713939105397
20
6.1149863872044916
10
46.775523939105391
20
6.1149863872044916
10
46.978384939105396
20
5.0159653872044894
10
47.000953939105401
20
4.8247403872044901
10
47.211772939105394
20
6.1149863872044916
10
47.3474479391054
20
6.1149863872044916
10
47.067747939105402
20
4.6149863872044881
0
LWPOLYLINE
5
217
100
AcDbEntity
8
0
100
AcDbPolyline
90
4
70
1
43
0.0
10
51.607321939105404
20
9.1149863872044907
10
51.776045939105387
20
9.1149863872044907
10
51.776045939105387
20
7.6149863872044925
10
51.60732193910539
20
7.6149863872044925
0
LWPOLYLINE
5
218
100
AcDbEntity
8
0
100
AcDbPolyline
90
8
70
1
43
0.0
10
46.947379939105396
20
11.069283387204486
10
46.414244939105401
20
11.069283387204486
10
46.274221939105395
20
10.614986387204489
10
46.095060939105394
20
10.614986387204489
10
46.584708939105397
20
12.114986387204487
10
46.766478939105397
20
12.114986387204487
10
47.288306939105397
20
10.614986387204491
10
47.096100939105398
20
10.614986387204491
0
LWPOLYLINE
5
219
100
AcDbEntity
8
0
100
AcDbPolyline
90
8
70
1
43
0.0
10
39.696987939105391
20
14.937974387204491
10
39.275175939105395
20
14.937974387204491
10
39.275175939105395
20
13.614986387204491
10
39.106451939105398
20
13.614986387204491
10
39.106451939105398
20
14.937974387204491
10
38.6863799391054
20
14.937974387204491
10
38.686379939105393
20
15.114986387204489
10
39.696987939105391
20
15.114986387204489
0
LWPOLYLINE
5
220
100
AcDbEntity
8
0
100
AcDbPolyline
90
10
70
1
43
0.0
10
34.528697939105399
20
14.296432387204492
10
33.9303349391054
20
14.296432387204492
10
33.9303349391054
20
13.614986387204491
10
33.761610939105395
20
13.614986387204491
10
33.761610939105395
20
15.114986387204489
10
34.621756939105396
20
15.114986387204489
10
34.621756939105396
20
14.937974387204491
10
33.9303349391054
20
14.937974387204491
10
33.9303349391054
20
14.473444387204486
10
34.528697939105399
20
14.473444387204486
0
LWPOLYLINE
5
221
100
AcDbEntity
8
0
100
AcDbPolyline
90
41
70
1
43
0.0
10
31.146758939105396
20
-12.94405961279551
10
31.117341939105394
20
-12.825074612795513
10
31.102510939105397
20
-12.65429461279551
10
31.107086939105393
20
-12.538345612795512
10
31.13711693910539
20
-12.35638361279551
10
31.158565939105394
20
-12.286563612795511
10
31.216908939105394
20
-12.16161461279551
10
31.253802939105391
20
-12.106486612795511
10
31.34004193910539
20
-12.012984612795513
10
31.438376939105392
20
-11.944922612795512
10
31.548689939105394
20
-11.902383612795511
10
31.670978939105396
20
-11.885367612795509
10
31.762154939105393
20
-11.889176612795511
10
31.841859939105397
20
-11.905161612795512
10
31.917362939105402
20
-11.93313661279551
10
31.988662939105392
20
-11.973100612795511
10
32.054392939105398
20
-12.024173612795511
10
32.112035939105397
20
-12.084736612795513
10
32.161535939105399
20
-12.154755612795514
10
32.208995939105392
20
-12.248395612795511
10
32.2448019391054
20
-12.35238061279551
10
32.270750939105397
20
-12.480800612795511
10
32.280731939105401
20
-12.61943761279551
10
32.274421939105395
20
-12.762157612795511
10
32.255116939105392
20
-12.878922612795511
10
32.222942939105394
20
-12.987781612795516
10
32.178248939105394
20
-13.087675612795513
10
32.131234939105397
20
-13.162359612795512
10
32.076340939105393
20
-13.226476612795516
10
32.0135679391054
20
-13.280026612795513
10
31.932161939105399
20
-13.328929612795513
10
31.846751939105395
20
-13.362642612795511
10
31.757622939105392
20
-13.381129612795512
10
31.662943939105396
20
-13.384326612795512
10
31.579806939105389
20
-13.374026612795511
10
31.501292939105401
20
-13.351367612795514
10
31.427400939105389
20
-13.316347612795511
10
31.358336939105396
20
-13.269152612795514
10
31.296753939105393
20
-13.212194612795516
10
31.243471939105394
20
-13.146212612795512
10
31.191798939105393
20
-13.057830612795511
0
LWPOLYLINE
5
222
100
AcDbEntity
8
0
100
AcDbPolyline
90
62
70
1
43
0.0
10
37.06753893910539
20
-10.092662612795511
10
37.102105939105392
20
-10.061464612795511
10
37.102105939105392
20
-9.7913456127955136
10
36.739622939105388
20
-9.7913456127955136
10
36.739622939105402
20
-9.6211616127955111
10
37.2619019391054
20
-9.620171612795513
10
37.2619019391054
20
-10.15843061279551
10
37.139741939105392
20
-10.257251612795514
10
37.024437939105397
20
-10.323282612795509
10
36.906099939105403
20
-10.365654612795513
10
36.784932939105403
20
-10.38412461279551
10
36.691765939105395
20
-10.382471612795513
10
36.591851939105396
20
-10.365787612795515
10
36.510709939105404
20
-10.339092612795513
10
36.433720939105392
20
-10.300957612795511
10
36.362599939105387
20
-10.25181161279551
10
36.300503939105397
20
-10.192445612795513
10
36.247501939105398
20
-10.122874612795512
10
36.203592939105398
20
-10.043100612795509
10
36.1640429391054
20
-9.9397006127955105
10
36.137366939105391
20
-9.8293276127955114
10
36.122648939105389
20
-9.6947356127955118
10
36.1247329391054
20
-9.5549376127955092
10
36.143550939105396
20
-9.4208266127955103
10
36.179096939105399
20
-9.2929826127955089
10
36.223662939105395
20
-9.1881006127955125
10
36.270926939105401
20
-9.1101096127955135
10
36.326443939105388
20
-9.0439296127955107
10
36.390212939105396
20
-8.9895616127955105
10
36.461591939105404
20
-8.9468536127955129
10
36.5384939391054
20
-8.9153156127955118
10
36.620756939105391
20
-8.894907612795512
10
36.723506939105391
20
-8.8851686127955105
10
36.845764939105401
20
-8.8938606127955104
10
36.9531589391054
20
-8.9240276127955127
10
37.04743893910539
20
-8.9743936127955113
10
37.116429939105402
20
-9.0349456127955126
10
37.1743489391054
20
-9.1182896127955111
10
37.225579939105401
20
-9.2456666127955103
10
37.243398939105397
20
-9.3154226127955102
10
37.096218939105398
20
-9.3629156127955113
10
37.040617939105395
20
-9.2112006127955102
10
36.986779939105396
20
-9.140383612795512
10
36.903103939105399
20
-9.0842466127955106
10
36.807272939105395
20
-9.0546186127955117
10
36.685586939105399
20
-9.0517666127955128
10
36.581491939105398
20
-9.0743766127955112
10
36.483677939105405
20
-9.1271086127955101
10
36.402402939105386
20
-9.2112366127955116
10
36.336769939105402
20
-9.3381796127955106
10
36.301446939105389
20
-9.4784336127955129
10
36.289671939105396
20
-9.6300666127955097
10
36.299527939105396
20
-9.7806816127955081
10
36.325251939105392
20
-9.8974366127955129
10
36.36144193910539
20
-9.9862046127955111
10
36.4093459391054
20
-10.060193612795514
10
36.4606899391054
20
-10.112668612795513
10
36.529878939105387
20
-10.15865061279551
10
36.623560939105396
20
-10.196029612795513
10
36.711868939105401
20
-10.210871612795511
10
36.820912939105391
20
-10.205112612795514
10
36.932182939105395
20
-10.171537612795515
0
LWPOLYLINE
5
223
100
AcDbEntity
8
0
100
AcDbPolyline
90
12
70
1
43
0.0
10
59.52304493910539
20
2.3220123872044915
10
58.860322939105401
20
2.3220123872044915
10
58.860322939105401
20
1.6149863872044901
10
58.691598939105404
20
1.6149863872044901
10
58.691598939105404
20
3.1149863872044889
10
58.860322939105401
20
3.1149863872044889
10
58.860322939105401
20
2.4990243872044902
10
59.523044939105404
20
2.4990243872044902
10
59.52304493910539
20
3.1149863872044889
10
59.691768939105394
20
3.1149863872044889
10
59.691768939105394
20
1.6149863872044901
10
59.52304493910539
20
1.6149863872044901
0
LWPOLYLINE
5
224
100
AcDbEntity
8
0
100
AcDbPolyline
90
18
70
1
43
0.0
10
59.399291939105382
20
-16.333942612795514
10
59.258943939105393
20
-16.375021612795511
10
59.1247159391054
20
-16.385013612795515
10
58.664637939105404
20
-16.385013612795515
10
58.66463793910539
20
-14.885013612795515
10
59.262225939105392
20
-14.893406612795509
10
59.366471939105395
20
-14.91772761279551
10
59.455247939105398
20
-14.962376612795513
10
59.51782693910539
20
-15.013935612795514
10
59.5794309391054
20
-15.086980612795511
10
59.635221939105406
20
-15.183967612795509
10
59.676708939105403
20
-15.296560612795513
10
59.706227939105396
20
-15.437409612795513
10
59.718643939105398
20
-15.610193612795511
10
59.705480939105385
20
-15.825231612795513
10
59.656681939105397
20
-16.022283612795508
10
59.588928939105408
20
-16.162298612795514
10
59.497340939105392
20
-16.271247612795513
0
LWPOLYLINE
5
225
100
AcDbEntity
8
0
100
AcDbPolyline
90
26
70
1
43
0.0
10
53.994258939105393
20
8.2810843872044888
10
53.798572939105398
20
8.2810843872044888
10
53.798572939105398
20
7.6149863872044925
10
53.629848939105393
20
7.6149863872044925
10
53.629848939105393
20
9.1149863872044907
10
54.299721939105403
20
9.1104953872044909
10
54.413825939105408
20
9.0896563872044904
10
54.482916939105394
20
9.059378387204486
10
54.539978939105396
20
9.0126233872044921
10
54.587010939105397
20
8.9484583872044894
10
54.628429939105402
20
8.8520743872044889
10
54.647679939105402
20
8.746381387204492
10
54.646712939105399
20
8.6538963872044867
10
54.630700939105395
20
8.5699253872044938
10
54.605079939105394
20
8.5047393872044914
10
54.568479939105394
20
8.4458203872044919
10
54.529373939105398
20
8.4023333872044876
10
54.481977939105391
20
8.3657213872044895
10
54.414139939105404
20
8.3309333872044871
10
54.28996193910541
20
8.2974553872044936
10
54.391717939105405
20
8.2227623872044937
10
54.509491939105388
20
8.0620363872044916
10
54.753518939105405
20
7.6149863872044925
10
54.541308939105392
20
7.6149863872044925
10
54.205490939105388
20
8.1946243872044917
10
54.091446939105396
20
8.2729543872044893
0
LWPOLYLINE
5
226
100
AcDbEntity
8
0
100
AcDbPolyline
90
10
70
1
43
0.0
10
54.528697939105385
20
-6.7035676127955099
10
53.930334939105379
20
-6.7035676127955099
10
53.9303349391054
20
-7.3850136127955111
10
53.761610939105395
20
-7.3850136127955111
10
53.761610939105395
20
-5.8850136127955102
10
54.621756939105396
20
-5.8850136127955102
10
54.621756939105396
20
-6.0620256127955106
10
53.9303349391054
20
-6.0620256127955106
10
53.9303349391054
20
-6.5265556127955096
10
54.528697939105385
20
-6.5265556127955096
0
LWPOLYLINE
5
227
100
AcDbEntity
8
0
100
AcDbPolyline
90
41
70
1
43
0.0
10
52.177637939105409
20
-3.9410146127955112
10
52.121479939105399
20
-4.0520216127955102
10
52.061639939105397
20
-4.1319006127955102
10
52.2593209391054
20
-4.2589236127955123
10
52.214068939105402
20
-4.3850136127955111
10
52.099252939105405
20
-4.3232626127955101
10
51.963990939105393
20
-4.2168936127955083
10
51.88620793910539
20
-4.25924361279551
10
51.803832939105391
20
-4.2871316127955108
10
51.716864939105406
20
-4.3005596127955101
10
51.626341939105401
20
-4.2993976127955111
10
51.539537939105401
20
-4.2830526127955117
10
51.457731939105415
20
-4.2514516127955106
10
51.380975939105383
20
-4.2046256127955104
10
51.312420939105401
20
-4.1443536127955118
10
51.25392993910539
20
-4.0716866127955118
10
51.205500939105391
20
-3.9866246127955094
10
51.163121939105395
20
-3.8762186127955092
10
51.136106939105389
20
-3.7564596127955099
10
51.124528939105396
20
-3.6275676127955112
10
51.129989939105386
20
-3.47878761279551
10
51.151336939105377
20
-3.3547996127955102
10
51.188208939105394
20
-3.2389066127955104
10
51.232537939105413
20
-3.1468246127955082
10
51.286947939105389
20
-3.0681756127955104
10
51.341594939105391
20
-3.0115136127955102
10
51.41449493910541
20
-2.9580016127955098
10
51.493835939105409
20
-2.9189436127955091
10
51.578376939105404
20
-2.8946646127955136
10
51.668118939105398
20
-2.8851646127955135
10
51.759958939105388
20
-2.8906466127955097
10
51.846636939105402
20
-2.9114586127955135
10
51.927912939105397
20
-2.9476046127955122
10
52.003319939105396
20
-2.9988006127955105
10
52.069085939105406
20
-3.062738612795509
10
52.124383939105385
20
-3.13891361279551
10
52.169213939105404
20
-3.2273236127955132
10
52.206923939105394
20
-3.3399746127955101
10
52.229549939105397
20
-3.4618606127955118
10
52.23587893910539
20
-3.6483876127955108
10
52.215183939105394
20
-3.8153716127955093
0
LWPOLYLINE
5
228
100
AcDbEntity
8
0
100
AcDbPolyline
90
10
70
1
43
0.0
10
48.881630939105406
20
13.791998387204487
10
49.695682939105396
20
13.791998387204487
10
49.695682939105396
20
13.614986387204493
10
48.687684939105381
20
13.614986387204493
10
48.687684939105402
20
13.799161387204492
10
49.473035939105401
20
14.937974387204491
10
48.761610939105395
20
14.937974387204491
10
48.761610939105395
20
15.114986387204489
10
49.674809939105401
20
15.114986387204489
10
49.674809939105401
20
14.937974387204491
0
LWPOLYLINE
5
229
100
AcDbEntity
8
0
100
AcDbPolyline
90
4
70
1
43
0.0
10
49.107321939105404
20
-11.885013612795511
10
49.276045939105387
20
-11.885013612795511
10
49.276045939105387
20
-13.385013612795511
10
49.10732193910539
20
-13.385013612795511
0
LWPOLYLINE
5
230
100
AcDbEntity
8
0
100
AcDbPolyline
90
71
70
1
43
0.0
10
57.024520939105386
20
7.9877603872044904
10
57.056828939105401
20
8.0759363872044894
10
57.073510939105404
20
8.1482973872044901
10
57.236670939105409
20
8.0998143872044963
10
57.205893939105401
20
7.9885953872044908
10
57.172417939105401
20
7.9066353872044921
10
57.131822939105405
20
7.8344233872044917
10
57.084108939105391
20
7.7719603872044889
10
57.029435939105397
20
7.7193283872044898
10
56.969260939105396
20
7.6772893872044961
10
56.903938939105387
20
7.6460303872044939
10
56.833469939105413
20
7.6255503872044912
10
56.757853939105388
20
7.6158483872044886
10
56.661791939105385
20
7.6176383872044902
10
56.572984939105396
20
7.6315633872044923
10
56.493480939105396
20
7.6574223872044893
10
56.434335939105402
20
7.6880893872044958
10
56.371658939105401
20
7.735675387204493
10
56.316676939105399
20
7.7941143872044911
10
56.269158939105409
20
7.8632523872044864
10
56.223154939105413
20
7.9574343872044899
10
56.179399939105394
20
8.09491438720449
10
56.153938939105394
20
8.2403163872044889
10
56.146824939105393
20
8.3946513872044921
10
56.157045939105394
20
8.5376683872044907
10
56.179403939105384
20
8.6522553872044945
10
56.214281939105391
20
8.7569953872044941
10
56.260971939105389
20
8.8504333872044878
10
56.309435939105406
20
8.9195703872044945
10
56.365679939105405
20
8.9785663872044914
10
56.429702939105404
20
9.0274203872044918
10
56.511260939105398
20
9.0710513872044913
10
56.597467939105393
20
9.0997843872044886
10
56.688325939105404
20
9.1136183872044914
10
56.774025939105371
20
9.113254387204492
10
56.845498939105411
20
9.1026733872044936
10
56.911860939105395
20
9.0824723872044881
10
56.973112939105391
20
9.0526513872044951
10
57.0292549391054
20
9.0132103872044915
10
57.079795939105402
20
8.9647283872044898
10
57.123722939105406
20
8.9083933872044945
10
57.167666939105416
20
8.8304743872044895
10
57.215644939105402
20
8.6924933872044914
10
57.055008939105392
20
8.6479683872044895
10
57.017398939105405
20
8.7545963872044901
10
56.974832939105383
20
8.8290523872044897
10
56.930535939105397
20
8.8785083872044908
10
56.879370939105399
20
8.9144983872044907
10
56.821050939105398
20
8.9381983872044906
10
56.7456379391054
20
8.9502363872044892
10
56.657175939105393
20
8.945729387204489
10
56.585041939105395
20
8.9272233872044922
10
56.520849939105403
20
8.8950823872044911
10
56.45749193910541
20
8.8423523872044889
10
56.406469939105399
20
8.7767193872044942
10
56.3680629391054
20
8.6988833872044875
10
56.328066939105398
20
8.5413793872044934
10
56.314902939105394
20
8.3768593872044868
10
56.326361939105411
20
8.203583387204489
10
56.356998939105409
20
8.0653893872044939
10
56.391804939105384
20
7.97922338720449
10
56.43790993910541
20
7.9085193872044908
10
56.487526939105393
20
7.8593693872044952
10
56.561071939105396
20
7.813488387204492
10
56.639352939105393
20
7.7868203872044965
10
56.712709939105395
20
7.7792343872044896
10
56.778624939105384
20
7.7850473872044894
10
56.839284939105411
20
7.8024863872044907
10
56.894686939105412
20
7.8315513872044935
10
56.944833939105393
20
7.8722423872044907
10
56.9885149391054
20
7.9243733872044935
0
LWPOLYLINE
5
231
100
AcDbEntity
8
0
100
AcDbPolyline
90
4
70
1
43
0.0
10
34.107321939105397
20
-8.8850136127955111
10
34.276045939105401
20
-8.8850136127955111
10
34.276045939105401
20
-10.385013612795513
10
34.107321939105397
20
-10.385013612795513
0
LWPOLYLINE
5
232
100
AcDbEntity
8
0
100
AcDbPolyline
90
15
70
1
43
0.0
10
36.937638939105391
20
10.614986387204489
10
36.690639939105402
20
11.93388138720449
10
36.444336939105398
20
10.614986387204489
10
36.306574939105403
20
10.614986387204489
10
36.035919939105398
20
12.114986387204487
10
36.174377939105398
20
12.114986387204487
10
36.372672939105399
20
10.824740387204486
10
36.418593939105399
20
11.102026387204491
10
36.612713939105397
20
12.114986387204487
10
36.775523939105398
20
12.114986387204487
10
36.978384939105389
20
11.015965387204488
10
37.000953939105401
20
10.824740387204486
10
37.211772939105401
20
12.114986387204487
10
37.347447939105393
20
12.114986387204487
10
37.067747939105402
20
10.614986387204489
0
LWPOLYLINE
5
233
100
AcDbEntity
8
0
100
AcDbPolyline
90
10
70
1
43
0.0
10
49.528697939105385
20
11.296432387204492
10
48.930334939105379
20
11.296432387204492
10
48.9303349391054
20
10.614986387204491
10
48.761610939105395
20
10.614986387204491
10
48.761610939105395
20
12.114986387204489
10
49.621756939105396
20
12.114986387204489
10
49.621756939105396
20
11.937974387204491
10
48.9303349391054
20
11.937974387204491
10
48.9303349391054
20
11.473444387204495
10
49.528697939105406
20
11.473444387204495
0
LWPOLYLINE
5
234
100
AcDbEntity
8
0
100
AcDbPolyline
90
12
70
1
43
0.0
10
59.52304493910539
20
14.32201238720449
10
58.860322939105401
20
14.32201238720449
10
58.860322939105401
20
13.614986387204493
10
58.691598939105404
20
13.614986387204493
10
58.691598939105404
20
15.114986387204489
10
58.860322939105401
20
15.114986387204489
10
58.860322939105401
20
14.499024387204493
10
59.523044939105404
20
14.499024387204493
10
59.52304493910539
20
15.114986387204489
10
59.691768939105394
20
15.114986387204489
10
59.691768939105394
20
13.614986387204493
10
59.52304493910539
20
13.614986387204493
0
LWPOLYLINE
5
235
100
AcDbEntity
8
0
100
AcDbPolyline
90
10
70
1
43
0.0
10
32.020870939105393
20
7.6149863872044898
10
31.351190939105393
20
8.7937043872044907
10
31.351190939105393
20
7.6149863872044898
10
31.189423939105396
20
7.6149863872044898
10
31.189423939105396
20
9.1149863872044889
10
31.362496939105391
20
9.1149863872044889
10
32.032176939105391
20
7.9372923872044909
10
32.032176939105391
20
9.1149863872044889
10
32.193943939105395
20
9.1149863872044889
10
32.193943939105395
20
7.6149863872044898
0
LWPOLYLINE
5
236
100
AcDbEntity
8
0
100
AcDbPolyline
90
10
70
1
43
0.0
10
44.528697939105399
20
14.296432387204492
10
43.9303349391054
20
14.296432387204492
10
43.9303349391054
20
13.614986387204491
10
43.761610939105395
20
13.614986387204491
10
43.761610939105395
20
15.114986387204489
10
44.621756939105396
20
15.114986387204489
10
44.621756939105396
20
14.937974387204491
10
43.9303349391054
20
14.937974387204491
10
43.9303349391054
20
14.473444387204486
10
44.528697939105399
20
14.473444387204486
0
LWPOLYLINE
5
237
100
AcDbEntity
8
0
100
AcDbPolyline
90
26
70
1
43
0.0
10
41.494258939105393
20
8.281084387204487
10
41.298572939105398
20
8.281084387204487
10
41.298572939105398
20
7.6149863872044898
10
41.129848939105393
20
7.6149863872044898
10
41.129848939105393
20
9.1149863872044889
10
41.799721939105396
20
9.1104953872044891
10
41.913825939105394
20
9.0896563872044887
10
41.982916939105394
20
9.0593783872044842
10
42.039978939105396
20
9.0126233872044903
10
42.087010939105397
20
8.9484583872044876
10
42.128429939105402
20
8.8520743872044871
10
42.147679939105402
20
8.7463813872044902
10
42.146712939105399
20
8.653896387204485
10
42.130700939105395
20
8.569925387204492
10
42.105079939105394
20
8.5047393872044896
10
42.068479939105394
20
8.4458203872044901
10
42.029373939105398
20
8.4023333872044859
10
41.981977939105391
20
8.3657213872044878
10
41.914139939105397
20
8.3309333872044853
10
41.789961939105396
20
8.2974553872044901
10
41.891717939105398
20
8.2227623872044919
10
42.009491939105395
20
8.0620363872044898
10
42.253518939105405
20
7.6149863872044898
10
42.041308939105392
20
7.6149863872044898
10
41.705490939105388
20
8.1946243872044899
10
41.591446939105396
20
8.2729543872044875
0
LWPOLYLINE
5
238
100
AcDbEntity
8
0
100
AcDbPolyline
90
8
70
1
43
0.0
10
31.947379939105396
20
-0.93071661279551132
10
31.414244939105398
20
-0.93071661279551132
10
31.274221939105395
20
-1.3850136127955104
10
31.095060939105394
20
-1.3850136127955104
10
31.584708939105397
20
0.11498638720448873
10
31.766478939105394
20
0.11498638720448873
10
32.288306939105389
20
-1.3850136127955104
10
32.096100939105405
20
-1.3850136127955104
0
LWPOLYLINE
5
239
100
AcDbEntity
8
0
100
AcDbPolyline
90
10
70
1
43
0.0
10
47.020870939105386
20
1.6149863872044901
10
46.3511909391054
20
2.7937043872044907
10
46.351190939105393
20
1.6149863872044901
10
46.189423939105396
20
1.6149863872044901
10
46.189423939105396
20
3.1149863872044889
10
46.362496939105391
20
3.1149863872044889
10
47.032176939105383
20
1.9372923872044912
10
47.032176939105398
20
3.1149863872044889
10
47.193943939105409
20
3.1149863872044889
10
47.193943939105395
20
1.6149863872044901
0
LWPOLYLINE
5
240
100
AcDbEntity
8
0
100
AcDbPolyline
90
12
70
1
43
0.0
10
31.384674939105395
20
10.79199838720449
10
32.167416939105394
20
10.79199838720449
10
32.167416939105394
20
10.614986387204489
10
31.215950939105397
20
10.614986387204489
10
31.215950939105397
20
12.114986387204487
10
32.137846939105401
20
12.114986387204487
10
32.137846939105394
20
11.937974387204488
10
31.384674939105395
20
11.937974387204488
10
31.384674939105395
20
11.478560387204491
10
32.090012939105392
20
11.478560387204491
10
32.090012939105392
20
11.302571387204488
10
31.384674939105395
20
11.302571387204488
0
LWPOLYLINE
5
241
100
AcDbEntity
8
0
100
AcDbPolyline
90
8
70
1
43
0.0
10
34.696987939105391
20
5.9379743872044886
10
34.275175939105395
20
5.9379743872044886
10
34.275175939105395
20
4.6149863872044881
10
34.106451939105398
20
4.6149863872044881
10
34.106451939105398
20
5.9379743872044886
10
33.686379939105393
20
5.9379743872044886
10
33.686379939105393
20
6.1149863872044916
10
34.696987939105391
20
6.1149863872044916
0
LWPOLYLINE
5
242
100
AcDbEntity
8
0
100
AcDbPolyline
90
8
70
1
43
0.0
10
37.196987939105391
20
14.937974387204491
10
36.775175939105395
20
14.937974387204491
10
36.775175939105395
20
13.614986387204491
10
36.606451939105391
20
13.614986387204491
10
36.606451939105398
20
14.937974387204491
10
36.1863799391054
20
14.937974387204491
10
36.186379939105393
20
15.114986387204489
10
37.196987939105391
20
15.114986387204489
0
LWPOLYLINE
5
243
100
AcDbEntity
8
0
100
AcDbPolyline
90
10
70
1
43
0.0
10
52.020870939105407
20
1.6149863872044901
10
51.351190939105408
20
2.7937043872044907
10
51.351190939105393
20
1.6149863872044901
10
51.189423939105382
20
1.6149863872044901
10
51.189423939105403
20
3.1149863872044889
10
51.362496939105412
20
3.1149863872044889
10
52.032176939105398
20
1.9372923872044912
10
52.032176939105398
20
3.1149863872044889
10
52.193943939105395
20
3.1149863872044889
10
52.193943939105395
20
1.6149863872044901
0
LWPOLYLINE
5
244
100
AcDbEntity
8
0
100
AcDbPolyline
90
41
70
1
43
0.0
10
51.146758939105382
20
11.055940387204489
10
51.117341939105394
20
11.174925387204492
10
51.1025109391054
20
11.34570538720449
10
51.1070869391054
20
11.46165438720449
10
51.137116939105397
20
11.643616387204492
10
51.158565939105415
20
11.71343638720449
10
51.216908939105394
20
11.838385387204491
10
51.253802939105398
20
11.893513387204491
10
51.340041939105404
20
11.987015387204487
10
51.438376939105396
20
12.05507738720449
10
51.548689939105387
20
12.097616387204491
10
51.670978939105403
20
12.114632387204491
10
51.7621549391054
20
12.110823387204491
10
51.841859939105404
20
12.094838387204494
10
51.917362939105409
20
12.066863387204496
10
51.988662939105396
20
12.026899387204494
10
52.054392939105384
20
11.975826387204494
10
52.112035939105382
20
11.915263387204494
10
52.161535939105406
20
11.845244387204492
10
52.208995939105392
20
11.751604387204491
10
52.244801939105386
20
11.647619387204491
10
52.27075093910539
20
11.519199387204495
10
52.280731939105408
20
11.380562387204492
10
52.274421939105395
20
11.237842387204491
10
52.255116939105392
20
11.12107738720449
10
52.22294293910538
20
11.012218387204495
10
52.178248939105401
20
10.912324387204492
10
52.131234939105404
20
10.837640387204488
10
52.076340939105407
20
10.773523387204492
10
52.0135679391054
20
10.719973387204494
10
51.932161939105384
20
10.671070387204493
10
51.846751939105374
20
10.637357387204494
10
51.757622939105389
20
10.618870387204494
10
51.662943939105389
20
10.61567338720449
10
51.579806939105396
20
10.625973387204491
10
51.501292939105397
20
10.648632387204493
10
51.427400939105397
20
10.683652387204489
10
51.358336939105399
20
10.730847387204491
10
51.2967539391054
20
10.787805387204489
10
51.24347193910539
20
10.853787387204495
10
51.191798939105396
20
10.942169387204494
0
LWPOLYLINE
5
245
100
AcDbEntity
8
0
100
AcDbPolyline
90
26
70
1
43
0.0
10
38.994258939105393
20
5.2810843872044897
10
38.798572939105398
20
5.2810843872044897
10
38.798572939105398
20
4.6149863872044881
10
38.629848939105393
20
4.6149863872044881
10
38.629848939105393
20
6.1149863872044916
10
39.299721939105396
20
6.1104953872044874
10
39.413825939105394
20
6.0896563872044904
10
39.482916939105394
20
6.0593783872044913
10
39.539978939105396
20
6.0126233872044885
10
39.587010939105397
20
5.9484583872044903
10
39.628429939105402
20
5.8520743872044898
10
39.647679939105402
20
5.746381387204492
10
39.646712939105399
20
5.6538963872044921
10
39.630700939105395
20
5.5699253872044938
10
39.605079939105394
20
5.5047393872044879
10
39.568479939105394
20
5.4458203872044884
10
39.52937393910539
20
5.4023333872044885
10
39.481977939105391
20
5.3657213872044904
10
39.414139939105397
20
5.3309333872044915
10
39.289961939105396
20
5.2974553872044892
10
39.391717939105398
20
5.2227623872044902
10
39.509491939105395
20
5.0620363872044924
10
39.753518939105405
20
4.6149863872044881
10
39.541308939105392
20
4.6149863872044881
10
39.205490939105388
20
5.1946243872044882
10
39.091446939105396
20
5.2729543872044902
0
LWPOLYLINE
5
246
100
AcDbEntity
8
0
100
AcDbPolyline
90
26
70
1
43
0.0
10
31.494258939105393
20
2.2810843872044915
10
31.298572939105391
20
2.2810843872044915
10
31.298572939105398
20
1.6149863872044901
10
31.129848939105401
20
1.6149863872044901
10
31.129848939105393
20
3.1149863872044889
10
31.799721939105396
20
3.1104953872044891
10
31.913825939105394
20
3.0896563872044878
10
31.98291693910539
20
3.0593783872044886
10
32.039978939105396
20
3.0126233872044903
10
32.087010939105397
20
2.9484583872044876
10
32.128429939105402
20
2.8520743872044871
10
32.147679939105402
20
2.7463813872044893
10
32.146712939105399
20
2.6538963872044894
10
32.130700939105395
20
2.5699253872044912
10
32.105079939105401
20
2.5047393872044896
10
32.068479939105394
20
2.4458203872044901
10
32.02937393910539
20
2.4023333872044903
10
31.981977939105395
20
2.3657213872044878
10
31.914139939105397
20
2.3309333872044888
10
31.789961939105396
20
2.2974553872044909
10
31.891717939105398
20
2.2227623872044919
10
32.009491939105388
20
2.0620363872044898
10
32.25351893910539
20
1.6149863872044901
10
32.041308939105392
20
1.6149863872044901
10
31.705490939105392
20
2.1946243872044899
10
31.591446939105392
20
2.2729543872044875
0
LWPOLYLINE
5
247
100
AcDbEntity
8
0
100
AcDbPolyline
90
26
70
1
43
0.0
10
58.994258939105393
20
-9.7189156127955094
10
58.798572939105398
20
-9.7189156127955094
10
58.798572939105398
20
-10.385013612795513
10
58.629848939105393
20
-10.385013612795513
10
58.629848939105393
20
-8.8850136127955111
10
59.299721939105382
20
-8.8895046127955109
10
59.413825939105394
20
-8.9103436127955113
10
59.482916939105394
20
-8.9406216127955105
10
59.539978939105382
20
-8.9873766127955115
10
59.587010939105397
20
-9.0515416127955124
10
59.628429939105402
20
-9.1479256127955093
10
59.647679939105402
20
-9.2536186127955116
10
59.646712939105399
20
-9.3461036127955097
10
59.630700939105395
20
-9.4300746127955097
10
59.605079939105394
20
-9.4952606127955121
10
59.568479939105394
20
-9.5541796127955116
10
59.529373939105398
20
-9.5976666127955106
10
59.481977939105391
20
-9.6342786127955087
10
59.414139939105404
20
-9.6690666127955129
10
59.28996193910541
20
-9.7025446127955099
10
59.391717939105405
20
-9.7772376127955116
10
59.509491939105402
20
-9.937963612795512
10
59.753518939105405
20
-10.385013612795513
10
59.541308939105392
20
-10.385013612795513
10
59.205490939105388
20
-9.8053756127955118
10
59.091446939105396
20
-9.7270456127955143
0
LWPOLYLINE
5
248
100
AcDbEntity
8
0
100
AcDbPolyline
90
10
70
1
43
0.0
10
57.2761309391054
20
6.1149863872044916
10
56.767348939105403
20
5.2503883872044907
10
56.767348939105403
20
4.6149863872044881
10
56.598624939105392
20
4.6149863872044881
10
56.598624939105392
20
5.2503883872044907
10
56.107236939105398
20
6.1149863872044916
10
56.312488939105393
20
6.1149863872044916
10
56.693422939105403
20
5.4089833872044899
10
56.832577939105406
20
5.6739903872044914
10
57.07957593910541
20
6.1149863872044916
0
LWPOLYLINE
5
249
100
AcDbEntity
8
0
100
AcDbPolyline
90
4
70
1
43
0.0
10
39.107321939105397
20
9.1149863872044889
10
39.276045939105387
20
9.1149863872044889
10
39.276045939105387
20
7.6149863872044898
10
39.107321939105397
20
7.6149863872044898
0
LWPOLYLINE
5
250
100
AcDbEntity
8
0
100
AcDbPolyline
90
10
70
1
43
0.0
10
44.7761309391054
20
3.1149863872044889
10
44.267348939105403
20
2.2503883872044881
10
44.267348939105403
20
1.6149863872044901
10
44.098624939105392
20
1.6149863872044901
10
44.098624939105392
20
2.2503883872044881
10
43.607236939105398
20
3.1149863872044889
10
43.812488939105393
20
3.1149863872044889
10
44.193422939105396
20
2.4089833872044917
10
44.332577939105391
20
2.6739903872044888
10
44.579575939105396
20
3.1149863872044889
0
LWPOLYLINE
5
251
100
AcDbEntity
8
0
100
AcDbPolyline
90
4
70
1
43
0.0
10
44.107321939105397
20
12.114986387204487
10
44.276045939105387
20
12.114986387204487
10
44.276045939105387
20
10.614986387204489
10
44.107321939105397
20
10.614986387204489
0
LWPOLYLINE
5
252
100
AcDbEntity
8
0
100
AcDbPolyline
90
10
70
1
43
0.0
10
52.020870939105407
20
4.6149863872044881
10
51.351190939105408
20
5.7937043872044889
10
51.351190939105393
20
4.6149863872044881
10
51.189423939105382
20
4.6149863872044881
10
51.189423939105403
20
6.1149863872044916
10
51.362496939105412
20
6.1149863872044916
10
52.032176939105398
20
4.9372923872044892
10
52.032176939105398
20
6.1149863872044916
10
52.193943939105395
20
6.1149863872044916
10
52.193943939105395
20
4.6149863872044881
0
LWPOLYLINE
5
253
100
AcDbEntity
8
0
100
AcDbPolyline
90
12
70
1
43
0.0
10
53.884674939105395
20
1.7919983872044887
10
54.667416939105408
20
1.7919983872044887
10
54.667416939105408
20
1.6149863872044901
10
53.715950939105412
20
1.6149863872044901
10
53.715950939105412
20
3.1149863872044889
10
54.637846939105415
20
3.1149863872044889
10
54.637846939105401
20
2.9379743872044859
10
53.884674939105395
20
2.9379743872044859
10
53.884674939105395
20
2.4785603872044879
10
54.590012939105392
20
2.4785603872044879
10
54.590012939105392
20
2.3025713872044893
10
53.884674939105395
20
2.3025713872044893
0
ENDSEC
0
SECTION
2
OBJECTS
0
DICTIONARY
5
C
100
AcDbDictionary
3
ACAD_GROUP
350
D
3
ACAD_MLINESTYLE
350
17
0
DICTIONARY
5
D
100
AcDbDictionary
0
DICTIONARY
5
1A
330
C
100
AcDbDictionary
0
DICTIONARY
5
17
100
AcDbDictionary
0
ENDSEC
0
EOF
