<?xml version="1.0" encoding="UTF-8" standalone="no"?>
<!-- Auto-generated from Wordy Watch UI -->
<!-- Layout: Gracegpt8 -->
<!-- Grid: 12x11, Cell: 2.5x3mm -->
<!-- Outer dimensions: 37.8x37.8mm -->
<svg
  width="37.8mm"
  height="37.8mm"
  viewBox="0 0 37.8 37.8"
  xmlns="http://www.w3.org/2000/svg"
  version="1.1">
  <g>
    <rect x="0" y="0" width="37.8" height="37.8" rx="2" ry="2" fill="#000000" stroke="none"/>
    <circle cx="2.8999999999999986" cy="2.8999999999999986" r="0.8" fill="#ffffff" stroke="none"/>
    <circle cx="34.9" cy="2.8999999999999986" r="0.8" fill="#ffffff" stroke="none"/>
    <circle cx="2.8999999999999986" cy="34.9" r="0.8" fill="#ffffff" stroke="none"/>
    <circle cx="34.9" cy="34.9" r="0.8" fill="#ffffff" stroke="none"/>
    <defs>
      <style>
        .letter { fill: #ffffff; stroke: none; }
      </style>
    </defs>
    <g id="letters">
      <g transform="scale(0.85, 1)">
        <path class="letter" d="M 6.157 4.650 L 5.959 4.650 L 5.959 3.327 L 5.464 3.327 L 5.464 3.150 L 6.653 3.150 L 6.653 3.327 L 6.157 3.327 L 6.157 4.650 Z"/>
      </g>
      <g transform="scale(0.85, 1)">
        <path class="letter" d="M 8.693 4.650 L 8.494 4.650 L 8.494 3.150 L 9.506 3.150 L 9.506 3.327 L 8.693 3.327 L 8.693 3.792 L 9.396 3.792 L 9.396 3.969 L 8.693 3.969 L 8.693 4.650 Z"/>
      </g>
      <g transform="scale(0.85, 1)">
        <path class="letter" d="M 12.039 4.650 L 11.841 4.650 L 11.841 3.327 L 11.347 3.327 L 11.347 3.150 L 12.536 3.150 L 12.536 3.327 L 12.039 3.327 L 12.039 4.650 Z"/>
      </g>
      <g transform="scale(0.85, 1)">
        <path class="letter" d="M 14.981 4.650 L 14.782 4.650 L 14.782 3.327 L 14.288 3.327 L 14.288 3.150 L 15.477 3.150 L 15.477 3.327 L 14.981 3.327 L 14.981 4.650 Z"/>
      </g>
      <g transform="scale(0.85, 1)">
        <path class="letter" d="M 17.516 4.650 L 17.318 4.650 L 17.318 3.150 L 18.329 3.150 L 18.329 3.327 L 17.516 3.327 L 17.516 3.792 L 18.220 3.792 L 18.220 3.969 L 17.516 3.969 L 17.516 4.650 Z"/>
      </g>
      <g transform="scale(0.85, 1)">
        <path class="letter" d="M 20.457 4.650 L 20.259 4.650 L 20.259 3.150 L 21.271 3.150 L 21.271 3.327 L 20.457 3.327 L 20.457 3.792 L 21.161 3.792 L 21.161 3.969 L 20.457 3.969 L 20.457 4.650 Z"/>
      </g>
      <g transform="scale(0.85, 1)">
        <path class="letter" d="M 24.189 4.056 L 23.762 4.056 L 23.762 3.886 L 24.377 3.885 L 24.377 4.423 Q 24.235 4.536, 24.085 4.593 Q 23.934 4.650, 23.776 4.650 L 23.776 4.650 Q 23.562 4.650, 23.388 4.558 Q 23.213 4.467, 23.124 4.294 Q 23.035 4.121, 23.035 3.907 L 23.035 3.907 Q 23.035 3.695, 23.124 3.512 Q 23.212 3.328, 23.378 3.239 Q 23.545 3.150, 23.761 3.150 L 23.761 3.150 Q 23.919 3.150, 24.046 3.201 Q 24.173 3.252, 24.245 3.343 Q 24.317 3.434, 24.355 3.580 L 24.355 3.580 L 24.182 3.628 Q 24.149 3.517, 24.101 3.454 Q 24.052 3.390, 23.962 3.352 Q 23.872 3.314, 23.762 3.314 L 23.762 3.314 Q 23.631 3.314, 23.535 3.354 Q 23.439 3.394, 23.380 3.460 Q 23.321 3.525, 23.288 3.603 L 23.288 3.603 Q 23.233 3.738, 23.233 3.895 L 23.233 3.895 Q 23.233 4.089, 23.300 4.220 Q 23.367 4.350, 23.494 4.414 Q 23.622 4.477, 23.765 4.477 L 23.765 4.477 Q 23.890 4.477, 24.009 4.429 Q 24.127 4.381, 24.189 4.326 L 24.189 4.326 L 24.189 4.056 Z"/>
      </g>
      <g transform="scale(0.85, 1)">
        <path class="letter" d="M 27.240 4.650 L 26.054 4.650 L 26.054 4.466 L 26.823 3.505 Q 26.904 3.403, 26.978 3.327 L 26.978 3.327 L 26.141 3.327 L 26.141 3.150 L 27.215 3.150 L 27.215 3.327 L 26.373 4.368 L 26.282 4.473 L 27.240 4.473 L 27.240 4.650 Z"/>
      </g>
      <g transform="scale(0.85, 1)">
        <path class="letter" d="M 30.148 4.650 L 29.029 4.650 L 29.029 3.150 L 30.113 3.150 L 30.113 3.327 L 29.227 3.327 L 29.227 3.786 L 30.057 3.786 L 30.057 3.962 L 29.227 3.962 L 29.227 4.473 L 30.148 4.473 L 30.148 4.650 Z"/>
      </g>
      <g transform="scale(0.85, 1)">
        <path class="letter" d="M 32.067 4.650 L 31.868 4.650 L 31.868 3.150 L 32.534 3.150 Q 32.734 3.150, 32.838 3.190 Q 32.943 3.231, 33.005 3.333 Q 33.068 3.435, 33.068 3.559 L 33.068 3.559 Q 33.068 3.719, 32.964 3.828 Q 32.861 3.938, 32.645 3.968 L 32.645 3.968 Q 32.724 4.005, 32.765 4.042 L 32.765 4.042 Q 32.852 4.122, 32.929 4.242 L 32.929 4.242 L 33.190 4.650 L 32.941 4.650 L 32.742 4.338 Q 32.655 4.203, 32.599 4.131 Q 32.543 4.060, 32.498 4.031 Q 32.454 4.002, 32.408 3.991 L 32.408 3.991 Q 32.374 3.984, 32.297 3.984 L 32.297 3.984 L 32.067 3.984 L 32.067 4.650 Z M 32.067 3.316 L 32.067 3.812 L 32.494 3.812 Q 32.630 3.812, 32.706 3.784 Q 32.783 3.756, 32.823 3.694 Q 32.863 3.632, 32.863 3.559 L 32.863 3.559 Q 32.863 3.453, 32.786 3.384 Q 32.708 3.316, 32.542 3.316 L 32.542 3.316 L 32.067 3.316 Z"/>
      </g>
      <g transform="scale(0.85, 1)">
        <path class="letter" d="M 34.777 3.919 L 34.777 3.919 Q 34.777 3.558, 34.971 3.354 Q 35.165 3.150, 35.472 3.150 L 35.472 3.150 Q 35.672 3.150, 35.833 3.246 Q 35.995 3.342, 36.079 3.513 Q 36.164 3.685, 36.164 3.902 L 36.164 3.902 Q 36.164 4.123, 36.075 4.297 Q 35.986 4.471, 35.823 4.561 Q 35.659 4.650, 35.471 4.650 L 35.471 4.650 Q 35.266 4.650, 35.105 4.551 Q 34.944 4.452, 34.861 4.281 Q 34.777 4.110, 34.777 3.919 Z M 34.975 3.922 L 34.975 3.922 Q 34.975 4.184, 35.116 4.335 Q 35.257 4.486, 35.470 4.486 L 35.470 4.486 Q 35.686 4.486, 35.826 4.334 Q 35.966 4.181, 35.966 3.901 L 35.966 3.901 Q 35.966 3.724, 35.906 3.592 Q 35.846 3.460, 35.731 3.388 Q 35.616 3.315, 35.473 3.315 L 35.473 3.315 Q 35.269 3.315, 35.122 3.455 Q 34.975 3.595, 34.975 3.922 Z"/>
      </g>
      <g transform="scale(0.85, 1)">
        <path class="letter" d="M 38.022 4.650 L 37.823 4.650 L 37.823 3.150 L 38.022 3.150 L 38.022 3.766 L 38.802 3.766 L 38.802 3.150 L 39.000 3.150 L 39.000 4.650 L 38.802 4.650 L 38.802 3.943 L 38.022 3.943 L 38.022 4.650 Z"/>
      </g>
      <g transform="scale(0.85, 1)">
        <path class="letter" d="M 6.619 7.650 L 5.499 7.650 L 5.499 6.150 L 6.584 6.150 L 6.584 6.327 L 5.698 6.327 L 5.698 6.786 L 6.527 6.786 L 6.527 6.962 L 5.698 6.962 L 5.698 7.473 L 6.619 7.473 L 6.619 7.650 Z"/>
      </g>
      <g transform="scale(0.85, 1)">
        <path class="letter" d="M 9.099 7.650 L 8.901 7.650 L 8.901 6.150 L 9.099 6.150 L 9.099 7.650 Z"/>
      </g>
      <g transform="scale(0.68, 1)">
        <path class="letter" d="M 14.563 7.650 L 14.360 7.650 L 13.962 6.150 L 14.166 6.150 L 14.394 7.133 Q 14.431 7.288, 14.457 7.440 L 14.457 7.440 Q 14.515 7.200, 14.525 7.163 L 14.525 7.163 L 14.810 6.150 L 15.050 6.150 L 15.265 6.909 Q 15.345 7.192, 15.381 7.440 L 15.381 7.440 Q 15.410 7.298, 15.456 7.114 L 15.456 7.114 L 15.691 6.150 L 15.891 6.150 L 15.480 7.650 L 15.288 7.650 L 14.972 6.507 Q 14.932 6.364, 14.925 6.331 L 14.925 6.331 Q 14.901 6.434, 14.881 6.507 L 14.881 6.507 L 14.563 7.650 Z"/>
      </g>
      <g transform="scale(0.85, 1)">
        <path class="letter" d="M 14.493 7.650 L 14.294 7.650 L 14.294 6.150 L 14.493 6.150 L 14.493 6.766 L 15.272 6.766 L 15.272 6.150 L 15.471 6.150 L 15.471 7.650 L 15.272 7.650 L 15.272 6.943 L 14.493 6.943 L 14.493 7.650 Z"/>
      </g>
      <g transform="scale(0.85, 1)">
        <path class="letter" d="M 17.130 6.919 L 17.130 6.919 Q 17.130 6.558, 17.324 6.354 Q 17.518 6.150, 17.825 6.150 L 17.825 6.150 Q 18.025 6.150, 18.186 6.246 Q 18.348 6.342, 18.432 6.513 Q 18.517 6.685, 18.517 6.902 L 18.517 6.902 Q 18.517 7.123, 18.428 7.297 Q 18.339 7.471, 18.176 7.561 Q 18.012 7.650, 17.824 7.650 L 17.824 7.650 Q 17.619 7.650, 17.458 7.551 Q 17.297 7.452, 17.213 7.281 Q 17.130 7.110, 17.130 6.919 Z M 17.328 6.922 L 17.328 6.922 Q 17.328 7.184, 17.469 7.335 Q 17.610 7.486, 17.823 7.486 L 17.823 7.486 Q 18.039 7.486, 18.179 7.334 Q 18.319 7.181, 18.319 6.901 L 18.319 6.901 Q 18.319 6.724, 18.259 6.592 Q 18.199 6.460, 18.084 6.388 Q 17.969 6.315, 17.826 6.315 L 17.826 6.315 Q 17.622 6.315, 17.475 6.455 Q 17.328 6.595, 17.328 6.922 Z"/>
      </g>
      <g transform="scale(0.85, 1)">
        <path class="letter" d="M 20.864 7.650 L 20.665 7.650 L 20.665 6.150 L 20.864 6.150 L 20.864 7.650 Z"/>
      </g>
      <g transform="scale(0.85, 1)">
        <path class="letter" d="M 23.215 7.650 L 23.004 7.650 L 23.580 6.150 L 23.794 6.150 L 24.408 7.650 L 24.182 7.650 L 24.007 7.196 L 23.379 7.196 L 23.215 7.650 Z M 23.602 6.594 L 23.437 7.034 L 23.945 7.034 L 23.789 6.619 Q 23.717 6.429, 23.682 6.308 L 23.682 6.308 Q 23.654 6.452, 23.602 6.594 L 23.602 6.594 Z"/>
      </g>
      <g transform="scale(0.85, 1)">
        <path class="letter" d="M 26.340 7.650 L 26.141 7.650 L 26.141 6.150 L 27.153 6.150 L 27.153 6.327 L 26.340 6.327 L 26.340 6.792 L 27.044 6.792 L 27.044 6.969 L 26.340 6.969 L 26.340 7.650 Z"/>
      </g>
      <g transform="scale(0.85, 1)">
        <path class="letter" d="M 28.895 6.919 L 28.895 6.919 Q 28.895 6.558, 29.089 6.354 Q 29.283 6.150, 29.589 6.150 L 29.589 6.150 Q 29.790 6.150, 29.951 6.246 Q 30.112 6.342, 30.197 6.513 Q 30.281 6.685, 30.281 6.902 L 30.281 6.902 Q 30.281 7.123, 30.192 7.297 Q 30.103 7.471, 29.940 7.561 Q 29.777 7.650, 29.588 7.650 L 29.588 7.650 Q 29.384 7.650, 29.222 7.551 Q 29.061 7.452, 28.978 7.281 Q 28.895 7.110, 28.895 6.919 Z M 29.093 6.922 L 29.093 6.922 Q 29.093 7.184, 29.234 7.335 Q 29.375 7.486, 29.587 7.486 L 29.587 7.486 Q 29.804 7.486, 29.944 7.334 Q 30.084 7.181, 30.084 6.901 L 30.084 6.901 Q 30.084 6.724, 30.024 6.592 Q 29.964 6.460, 29.849 6.388 Q 29.734 6.315, 29.590 6.315 L 29.590 6.315 Q 29.387 6.315, 29.240 6.455 Q 29.093 6.595, 29.093 6.922 Z"/>
      </g>
      <g transform="scale(0.85, 1)">
        <path class="letter" d="M 32.914 7.001 L 32.914 6.150 L 33.109 6.150 L 33.109 7.002 Q 33.109 7.224, 33.059 7.355 Q 33.009 7.486, 32.878 7.568 Q 32.746 7.650, 32.533 7.650 L 32.533 7.650 Q 32.326 7.650, 32.194 7.579 Q 32.062 7.507, 32.006 7.372 Q 31.949 7.237, 31.949 7.002 L 31.949 7.002 L 31.949 6.150 L 32.145 6.150 L 32.145 7.001 Q 32.145 7.193, 32.180 7.284 Q 32.216 7.375, 32.303 7.425 Q 32.390 7.474, 32.516 7.474 L 32.516 7.474 Q 32.731 7.474, 32.823 7.376 Q 32.914 7.279, 32.914 7.001 L 32.914 7.001 Z"/>
      </g>
      <g transform="scale(0.85, 1)">
        <path class="letter" d="M 35.008 7.650 L 34.810 7.650 L 34.810 6.150 L 35.475 6.150 Q 35.675 6.150, 35.780 6.190 Q 35.884 6.231, 35.946 6.333 Q 36.009 6.435, 36.009 6.559 L 36.009 6.559 Q 36.009 6.719, 35.905 6.828 Q 35.802 6.938, 35.586 6.968 L 35.586 6.968 Q 35.665 7.005, 35.706 7.042 L 35.706 7.042 Q 35.793 7.122, 35.871 7.242 L 35.871 7.242 L 36.132 7.650 L 35.882 7.650 L 35.683 7.338 Q 35.596 7.203, 35.540 7.131 Q 35.484 7.060, 35.439 7.031 Q 35.395 7.002, 35.349 6.991 L 35.349 6.991 Q 35.315 6.984, 35.238 6.984 L 35.238 6.984 L 35.008 6.984 L 35.008 7.650 Z M 35.008 6.316 L 35.008 6.812 L 35.435 6.812 Q 35.571 6.812, 35.648 6.784 Q 35.724 6.756, 35.764 6.694 Q 35.804 6.632, 35.804 6.559 L 35.804 6.559 Q 35.804 6.453, 35.727 6.384 Q 35.650 6.316, 35.483 6.316 L 35.483 6.316 L 35.008 6.316 Z"/>
      </g>
      <g transform="scale(0.85, 1)">
        <path class="letter" d="M 37.949 7.650 L 37.751 7.650 L 37.751 6.150 L 38.416 6.150 Q 38.616 6.150, 38.721 6.190 Q 38.825 6.231, 38.888 6.333 Q 38.950 6.435, 38.950 6.559 L 38.950 6.559 Q 38.950 6.719, 38.847 6.828 Q 38.743 6.938, 38.527 6.968 L 38.527 6.968 Q 38.606 7.005, 38.647 7.042 L 38.647 7.042 Q 38.734 7.122, 38.812 7.242 L 38.812 7.242 L 39.073 7.650 L 38.823 7.650 L 38.625 7.338 Q 38.538 7.203, 38.481 7.131 Q 38.425 7.060, 38.381 7.031 Q 38.336 7.002, 38.290 6.991 L 38.290 6.991 Q 38.256 6.984, 38.180 6.984 L 38.180 6.984 L 37.949 6.984 L 37.949 7.650 Z M 37.949 6.316 L 37.949 6.812 L 38.376 6.812 Q 38.512 6.812, 38.589 6.784 Q 38.666 6.756, 38.705 6.694 Q 38.745 6.632, 38.745 6.559 L 38.745 6.559 Q 38.745 6.453, 38.668 6.384 Q 38.591 6.316, 38.424 6.316 L 38.424 6.316 L 37.949 6.316 Z"/>
      </g>
      <g transform="scale(0.85, 1)">
        <path class="letter" d="M 5.658 10.650 L 5.468 10.650 L 5.468 9.150 L 5.672 9.150 L 6.459 10.328 L 6.459 9.150 L 6.650 9.150 L 6.650 10.650 L 6.446 10.650 L 5.658 9.471 L 5.658 10.650 Z"/>
      </g>
      <g transform="scale(0.85, 1)">
        <path class="letter" d="M 8.693 10.650 L 8.494 10.650 L 8.494 9.150 L 9.506 9.150 L 9.506 9.327 L 8.693 9.327 L 8.693 9.792 L 9.396 9.792 L 9.396 9.969 L 8.693 9.969 L 8.693 10.650 Z"/>
      </g>
      <g transform="scale(0.85, 1)">
        <path class="letter" d="M 12.501 10.650 L 11.381 10.650 L 11.381 9.150 L 12.466 9.150 L 12.466 9.327 L 11.580 9.327 L 11.580 9.786 L 12.410 9.786 L 12.410 9.962 L 11.580 9.962 L 11.580 10.473 L 12.501 10.473 L 12.501 10.650 Z"/>
      </g>
      <g transform="scale(0.85, 1)">
        <path class="letter" d="M 14.982 10.650 L 14.783 10.650 L 14.783 9.150 L 14.982 9.150 L 14.982 10.650 Z"/>
      </g>
      <g transform="scale(0.85, 1)">
        <path class="letter" d="M 17.361 10.650 L 17.163 10.650 L 17.163 9.150 L 17.828 9.150 Q 18.028 9.150, 18.133 9.190 Q 18.237 9.231, 18.299 9.333 Q 18.362 9.435, 18.362 9.559 L 18.362 9.559 Q 18.362 9.719, 18.258 9.828 Q 18.155 9.938, 17.939 9.968 L 17.939 9.968 Q 18.018 10.005, 18.059 10.042 L 18.059 10.042 Q 18.146 10.122, 18.224 10.242 L 18.224 10.242 L 18.485 10.650 L 18.235 10.650 L 18.036 10.338 Q 17.949 10.203, 17.893 10.131 Q 17.837 10.060, 17.792 10.031 Q 17.748 10.002, 17.702 9.991 L 17.702 9.991 Q 17.668 9.984, 17.591 9.984 L 17.591 9.984 L 17.361 9.984 L 17.361 10.650 Z M 17.361 9.316 L 17.361 9.812 L 17.788 9.812 Q 17.924 9.812, 18.001 9.784 Q 18.077 9.756, 18.117 9.694 Q 18.157 9.632, 18.157 9.559 L 18.157 9.559 Q 18.157 9.453, 18.080 9.384 Q 18.003 9.316, 17.836 9.316 L 17.836 9.316 L 17.361 9.316 Z"/>
      </g>
      <g transform="scale(0.85, 1)">
        <path class="letter" d="M 20.457 10.650 L 20.259 10.650 L 20.259 9.150 L 21.271 9.150 L 21.271 9.327 L 20.457 9.327 L 20.457 9.792 L 21.161 9.792 L 21.161 9.969 L 20.457 9.969 L 20.457 10.650 Z"/>
      </g>
      <g transform="scale(0.85, 1)">
        <path class="letter" d="M 23.804 10.650 L 23.606 10.650 L 23.606 9.327 L 23.111 9.327 L 23.111 9.150 L 24.300 9.150 L 24.300 9.327 L 23.804 9.327 L 23.804 10.650 Z"/>
      </g>
      <g transform="scale(0.85, 1)">
        <path class="letter" d="M 26.257 10.650 L 26.059 10.650 L 26.059 9.150 L 26.257 9.150 L 26.257 9.766 L 27.037 9.766 L 27.037 9.150 L 27.235 9.150 L 27.235 10.650 L 27.037 10.650 L 27.037 9.943 L 26.257 9.943 L 26.257 10.650 Z"/>
      </g>
      <g transform="scale(0.85, 1)">
        <path class="letter" d="M 29.687 10.650 L 29.489 10.650 L 29.489 9.150 L 29.687 9.150 L 29.687 10.650 Z"/>
      </g>
      <g transform="scale(0.85, 1)">
        <path class="letter" d="M 32.067 10.650 L 31.868 10.650 L 31.868 9.150 L 32.534 9.150 Q 32.734 9.150, 32.838 9.190 Q 32.943 9.231, 33.005 9.333 Q 33.068 9.435, 33.068 9.559 L 33.068 9.559 Q 33.068 9.719, 32.964 9.828 Q 32.861 9.938, 32.645 9.968 L 32.645 9.968 Q 32.724 10.005, 32.765 10.042 L 32.765 10.042 Q 32.852 10.122, 32.929 10.242 L 32.929 10.242 L 33.190 10.650 L 32.941 10.650 L 32.742 10.338 Q 32.655 10.203, 32.599 10.131 Q 32.543 10.060, 32.498 10.031 Q 32.454 10.002, 32.408 9.991 L 32.408 9.991 Q 32.374 9.984, 32.297 9.984 L 32.297 9.984 L 32.067 9.984 L 32.067 10.650 Z M 32.067 9.316 L 32.067 9.812 L 32.494 9.812 Q 32.630 9.812, 32.706 9.784 Q 32.783 9.756, 32.823 9.694 Q 32.863 9.632, 32.863 9.559 L 32.863 9.559 Q 32.863 9.453, 32.786 9.384 Q 32.708 9.316, 32.542 9.316 L 32.542 9.316 L 32.067 9.316 Z"/>
      </g>
      <g transform="scale(0.85, 1)">
        <path class="letter" d="M 35.920 10.117 L 35.920 10.117 L 36.112 10.165 Q 36.051 10.402, 35.895 10.526 Q 35.738 10.650, 35.511 10.650 L 35.511 10.650 Q 35.277 10.650, 35.130 10.555 Q 34.983 10.459, 34.906 10.278 Q 34.829 10.097, 34.829 9.889 L 34.829 9.889 Q 34.829 9.663, 34.916 9.494 Q 35.003 9.325, 35.162 9.238 Q 35.322 9.150, 35.514 9.150 L 35.514 9.150 Q 35.732 9.150, 35.880 9.261 Q 36.029 9.372, 36.087 9.572 L 36.087 9.572 L 35.898 9.617 Q 35.848 9.459, 35.752 9.386 Q 35.656 9.314, 35.510 9.314 L 35.510 9.314 Q 35.343 9.314, 35.231 9.394 Q 35.118 9.475, 35.073 9.610 Q 35.027 9.745, 35.027 9.888 L 35.027 9.888 Q 35.027 10.073, 35.081 10.211 Q 35.135 10.349, 35.249 10.417 Q 35.363 10.486, 35.495 10.486 L 35.495 10.486 Q 35.657 10.486, 35.768 10.393 Q 35.880 10.300, 35.920 10.117 Z"/>
      </g>
      <g transform="scale(0.85, 1)">
        <path class="letter" d="M 38.971 10.650 L 37.852 10.650 L 37.852 9.150 L 38.937 9.150 L 38.937 9.327 L 38.051 9.327 L 38.051 9.786 L 38.880 9.786 L 38.880 9.962 L 38.051 9.962 L 38.051 10.473 L 38.971 10.473 L 38.971 10.650 Z"/>
      </g>
      <g transform="scale(0.85, 1)">
        <path class="letter" d="M 6.542 13.056 L 6.115 13.056 L 6.115 12.886 L 6.730 12.885 L 6.730 13.423 Q 6.588 13.536, 6.438 13.593 Q 6.287 13.650, 6.129 13.650 L 6.129 13.650 Q 5.915 13.650, 5.741 13.558 Q 5.566 13.467, 5.477 13.294 Q 5.388 13.121, 5.388 12.907 L 5.388 12.907 Q 5.388 12.695, 5.477 12.512 Q 5.565 12.328, 5.731 12.239 Q 5.898 12.150, 6.114 12.150 L 6.114 12.150 Q 6.272 12.150, 6.399 12.201 Q 6.526 12.252, 6.598 12.343 Q 6.670 12.434, 6.708 12.580 L 6.708 12.580 L 6.535 12.628 Q 6.502 12.517, 6.454 12.454 Q 6.405 12.390, 6.315 12.352 Q 6.225 12.314, 6.115 12.314 L 6.115 12.314 Q 5.984 12.314, 5.888 12.354 Q 5.792 12.394, 5.733 12.460 Q 5.674 12.525, 5.641 12.603 L 5.641 12.603 Q 5.586 12.738, 5.586 12.895 L 5.586 12.895 Q 5.586 13.089, 5.653 13.220 Q 5.719 13.350, 5.847 13.414 Q 5.975 13.477, 6.118 13.477 L 6.118 13.477 Q 6.243 13.477, 6.362 13.429 Q 6.480 13.381, 6.542 13.326 L 6.542 13.326 L 6.542 13.056 Z"/>
      </g>
      <g transform="scale(0.85, 1)">
        <path class="letter" d="M 9.098 13.650 L 8.900 13.650 L 8.900 12.327 L 8.406 12.327 L 8.406 12.150 L 9.594 12.150 L 9.594 12.327 L 9.098 12.327 L 9.098 13.650 Z"/>
      </g>
      <g transform="scale(0.85, 1)">
        <path class="letter" d="M 11.541 13.650 L 11.350 13.650 L 11.350 12.150 L 11.554 12.150 L 12.342 13.328 L 12.342 12.150 L 12.532 12.150 L 12.532 13.650 L 12.328 13.650 L 11.541 12.471 L 11.541 13.650 Z"/>
      </g>
      <g transform="scale(0.85, 1)">
        <path class="letter" d="M 14.420 13.650 L 14.221 13.650 L 14.221 12.150 L 14.886 12.150 Q 15.087 12.150, 15.191 12.190 Q 15.296 12.231, 15.358 12.333 Q 15.421 12.435, 15.421 12.559 L 15.421 12.559 Q 15.421 12.719, 15.317 12.828 Q 15.214 12.938, 14.998 12.968 L 14.998 12.968 Q 15.077 13.005, 15.118 13.042 L 15.118 13.042 Q 15.205 13.122, 15.282 13.242 L 15.282 13.242 L 15.543 13.650 L 15.294 13.650 L 15.095 13.338 Q 15.008 13.203, 14.952 13.131 Q 14.896 13.060, 14.851 13.031 Q 14.807 13.002, 14.761 12.991 L 14.761 12.991 Q 14.727 12.984, 14.650 12.984 L 14.650 12.984 L 14.420 12.984 L 14.420 13.650 Z M 14.420 12.316 L 14.420 12.812 L 14.847 12.812 Q 14.983 12.812, 15.059 12.784 Q 15.136 12.756, 15.176 12.694 Q 15.216 12.632, 15.216 12.559 L 15.216 12.559 Q 15.216 12.453, 15.139 12.384 Q 15.061 12.316, 14.895 12.316 L 14.895 12.316 L 14.420 12.316 Z"/>
      </g>
      <g transform="scale(0.85, 1)">
        <path class="letter" d="M 17.922 13.650 L 17.723 13.650 L 17.723 12.327 L 17.229 12.327 L 17.229 12.150 L 18.418 12.150 L 18.418 12.327 L 17.922 12.327 L 17.922 13.650 Z"/>
      </g>
      <g transform="scale(0.85, 1)">
        <path class="letter" d="M 20.863 13.650 L 20.664 13.650 L 20.664 12.327 L 20.170 12.327 L 20.170 12.150 L 21.359 12.150 L 21.359 12.327 L 20.863 12.327 L 20.863 13.650 Z"/>
      </g>
      <g transform="scale(0.68, 1)">
        <path class="letter" d="M 29.269 13.650 L 29.066 13.650 L 28.668 12.150 L 28.872 12.150 L 29.100 13.133 Q 29.137 13.288, 29.163 13.440 L 29.163 13.440 Q 29.221 13.200, 29.231 13.163 L 29.231 13.163 L 29.516 12.150 L 29.756 12.150 L 29.971 12.909 Q 30.051 13.192, 30.087 13.440 L 30.087 13.440 Q 30.116 13.298, 30.162 13.114 L 30.162 13.114 L 30.397 12.150 L 30.597 12.150 L 30.185 13.650 L 29.994 13.650 L 29.678 12.507 Q 29.638 12.364, 29.631 12.331 L 29.631 12.331 Q 29.607 12.434, 29.587 12.507 L 29.587 12.507 L 29.269 13.650 Z"/>
      </g>
      <g transform="scale(0.85, 1)">
        <path class="letter" d="M 27.207 13.650 L 26.087 13.650 L 26.087 12.150 L 27.172 12.150 L 27.172 12.327 L 26.286 12.327 L 26.286 12.786 L 27.116 12.786 L 27.116 12.962 L 26.286 12.962 L 26.286 13.473 L 27.207 13.473 L 27.207 13.650 Z"/>
      </g>
      <g transform="scale(0.85, 1)">
        <path class="letter" d="M 29.188 13.650 L 28.997 13.650 L 28.997 12.150 L 29.201 12.150 L 29.989 13.328 L 29.989 12.150 L 30.179 12.150 L 30.179 13.650 L 29.976 13.650 L 29.188 12.471 L 29.188 13.650 Z"/>
      </g>
      <g transform="scale(0.85, 1)">
        <path class="letter" d="M 32.628 13.650 L 32.429 13.650 L 32.429 12.327 L 31.935 12.327 L 31.935 12.150 L 33.124 12.150 L 33.124 12.327 L 32.628 12.327 L 32.628 13.650 Z"/>
      </g>
      <g transform="scale(0.85, 1)">
        <path class="letter" d="M 35.560 13.650 L 35.361 13.650 L 35.361 13.015 L 34.783 12.150 L 35.024 12.150 L 35.320 12.602 Q 35.402 12.729, 35.473 12.856 L 35.473 12.856 Q 35.540 12.738, 35.636 12.591 L 35.636 12.591 L 35.927 12.150 L 36.158 12.150 L 35.560 13.015 L 35.560 13.650 Z"/>
      </g>
      <g transform="scale(0.85, 1)">
        <path class="letter" d="M 38.333 13.650 L 37.792 13.650 L 37.792 12.150 L 38.308 12.150 Q 38.483 12.150, 38.575 12.171 L 38.575 12.171 Q 38.704 12.201, 38.795 12.279 L 38.795 12.279 Q 38.914 12.379, 38.973 12.535 Q 39.032 12.691, 39.032 12.892 L 39.032 12.892 Q 39.032 13.063, 38.992 13.195 Q 38.952 13.327, 38.890 13.413 Q 38.827 13.500, 38.753 13.549 Q 38.679 13.599, 38.574 13.624 Q 38.469 13.650, 38.333 13.650 L 38.333 13.650 Z M 37.990 12.327 L 37.990 13.473 L 38.310 13.473 Q 38.459 13.473, 38.543 13.445 Q 38.628 13.418, 38.678 13.368 L 38.678 13.368 Q 38.748 13.297, 38.788 13.178 Q 38.827 13.059, 38.827 12.889 L 38.827 12.889 Q 38.827 12.653, 38.750 12.527 Q 38.673 12.401, 38.562 12.358 L 38.562 12.358 Q 38.482 12.327, 38.305 12.327 L 38.305 12.327 L 37.990 12.327 Z"/>
      </g>
      <g transform="scale(0.85, 1)">
        <path class="letter" d="M 5.596 16.650 L 5.398 16.650 L 5.398 15.150 L 6.063 15.150 Q 6.263 15.150, 6.368 15.190 Q 6.472 15.231, 6.535 15.333 Q 6.597 15.435, 6.597 15.559 L 6.597 15.559 Q 6.597 15.719, 6.494 15.828 Q 6.390 15.938, 6.174 15.968 L 6.174 15.968 Q 6.253 16.005, 6.294 16.042 L 6.294 16.042 Q 6.381 16.122, 6.459 16.242 L 6.459 16.242 L 6.720 16.650 L 6.470 16.650 L 6.272 16.338 Q 6.185 16.203, 6.128 16.131 Q 6.072 16.060, 6.028 16.031 Q 5.983 16.002, 5.937 15.991 L 5.937 15.991 Q 5.903 15.984, 5.827 15.984 L 5.827 15.984 L 5.596 15.984 L 5.596 16.650 Z M 5.596 15.316 L 5.596 15.812 L 6.023 15.812 Q 6.159 15.812, 6.236 15.784 Q 6.313 15.756, 6.352 15.694 Q 6.392 15.632, 6.392 15.559 L 6.392 15.559 Q 6.392 15.453, 6.315 15.384 Q 6.238 15.316, 6.071 15.316 L 6.071 15.316 L 5.596 15.316 Z"/>
      </g>
      <g transform="scale(0.85, 1)">
        <path class="letter" d="M 9.560 16.650 L 8.440 16.650 L 8.440 15.150 L 9.525 15.150 L 9.525 15.327 L 8.639 15.327 L 8.639 15.786 L 9.469 15.786 L 9.469 15.962 L 8.639 15.962 L 8.639 16.473 L 9.560 16.473 L 9.560 16.650 Z"/>
      </g>
      <g transform="scale(0.85, 1)">
        <path class="letter" d="M 12.039 16.650 L 11.841 16.650 L 11.841 15.327 L 11.347 15.327 L 11.347 15.150 L 12.536 15.150 L 12.536 15.327 L 12.039 15.327 L 12.039 16.650 Z"/>
      </g>
      <g transform="scale(0.85, 1)">
        <path class="letter" d="M 14.981 16.650 L 14.782 16.650 L 14.782 15.327 L 14.288 15.327 L 14.288 15.150 L 15.477 15.150 L 15.477 15.327 L 14.981 15.327 L 14.981 16.650 Z"/>
      </g>
      <g transform="scale(0.85, 1)">
        <path class="letter" d="M 17.913 16.650 L 17.714 16.650 L 17.714 16.015 L 17.136 15.150 L 17.377 15.150 L 17.673 15.602 Q 17.755 15.729, 17.826 15.856 L 17.826 15.856 Q 17.893 15.738, 17.989 15.591 L 17.989 15.591 L 18.280 15.150 L 18.511 15.150 L 17.913 16.015 L 17.913 16.650 Z"/>
      </g>
      <g transform="scale(0.85, 1)">
        <path class="letter" d="M 20.854 16.650 L 20.655 16.650 L 20.655 16.015 L 20.077 15.150 L 20.319 15.150 L 20.614 15.602 Q 20.696 15.729, 20.767 15.856 L 20.767 15.856 Q 20.834 15.738, 20.930 15.591 L 20.930 15.591 L 21.221 15.150 L 21.452 15.150 L 20.854 16.015 L 20.854 16.650 Z"/>
      </g>
      <g transform="scale(0.85, 1)">
        <path class="letter" d="M 23.305 16.650 L 23.115 16.650 L 23.115 15.150 L 23.319 15.150 L 24.106 16.328 L 24.106 15.150 L 24.297 15.150 L 24.297 16.650 L 24.093 16.650 L 23.305 15.471 L 23.305 16.650 Z"/>
      </g>
      <g transform="scale(0.85, 1)">
        <path class="letter" d="M 26.746 16.650 L 26.548 16.650 L 26.548 15.150 L 26.746 15.150 L 26.746 16.650 Z"/>
      </g>
      <g transform="scale(0.85, 1)">
        <path class="letter" d="M 29.188 16.650 L 28.997 16.650 L 28.997 15.150 L 29.201 15.150 L 29.989 16.328 L 29.989 15.150 L 30.179 15.150 L 30.179 16.650 L 29.976 16.650 L 29.188 15.471 L 29.188 16.650 Z"/>
      </g>
      <g transform="scale(0.85, 1)">
        <path class="letter" d="M 33.089 16.650 L 31.970 16.650 L 31.970 15.150 L 33.054 15.150 L 33.054 15.327 L 32.168 15.327 L 32.168 15.786 L 32.998 15.786 L 32.998 15.962 L 32.168 15.962 L 32.168 16.473 L 33.089 16.473 L 33.089 16.650 Z"/>
      </g>
      <g transform="scale(0.85, 1)">
        <path class="letter" d="M 34.979 16.650 L 34.769 16.650 L 35.345 15.150 L 35.559 15.150 L 36.172 16.650 L 35.946 16.650 L 35.771 16.196 L 35.144 16.196 L 34.979 16.650 Z M 35.366 15.594 L 35.201 16.034 L 35.710 16.034 L 35.553 15.619 Q 35.482 15.429, 35.447 15.308 L 35.447 15.308 Q 35.418 15.452, 35.366 15.594 L 35.366 15.594 Z"/>
      </g>
      <g transform="scale(0.85, 1)">
        <path class="letter" d="M 38.022 16.650 L 37.823 16.650 L 37.823 15.150 L 38.022 15.150 L 38.022 15.766 L 38.802 15.766 L 38.802 15.150 L 39.000 15.150 L 39.000 16.650 L 38.802 16.650 L 38.802 15.943 L 38.022 15.943 L 38.022 16.650 Z"/>
      </g>
      <g transform="scale(0.85, 1)">
        <path class="letter" d="M 5.568 19.650 L 5.357 19.650 L 5.933 18.150 L 6.147 18.150 L 6.761 19.650 L 6.535 19.650 L 6.360 19.196 L 5.732 19.196 L 5.568 19.650 Z M 5.954 18.594 L 5.790 19.034 L 6.298 19.034 L 6.142 18.619 Q 6.070 18.429, 6.035 18.308 L 6.035 18.308 Q 6.007 18.452, 5.954 18.594 L 5.954 18.594 Z"/>
      </g>
      <g transform="scale(0.85, 1)">
        <path class="letter" d="M 9.560 19.650 L 8.440 19.650 L 8.440 18.150 L 9.525 18.150 L 9.525 18.327 L 8.639 18.327 L 8.639 18.786 L 9.469 18.786 L 9.469 18.962 L 8.639 18.962 L 8.639 19.473 L 9.560 19.473 L 9.560 19.650 Z"/>
      </g>
      <g transform="scale(0.85, 1)">
        <path class="letter" d="M 12.030 19.650 L 11.832 19.650 L 11.832 19.015 L 11.254 18.150 L 11.495 18.150 L 11.791 18.602 Q 11.873 18.729, 11.943 18.856 L 11.943 18.856 Q 12.011 18.738, 12.107 18.591 L 12.107 18.591 L 12.398 18.150 L 12.629 18.150 L 12.030 19.015 L 12.030 19.650 Z"/>
      </g>
      <g transform="scale(0.85, 1)">
        <path class="letter" d="M 14.971 19.650 L 14.773 19.650 L 14.773 19.015 L 14.195 18.150 L 14.436 18.150 L 14.732 18.602 Q 14.814 18.729, 14.884 18.856 L 14.884 18.856 Q 14.952 18.738, 15.048 18.591 L 15.048 18.591 L 15.339 18.150 L 15.570 18.150 L 14.971 19.015 L 14.971 19.650 Z"/>
      </g>
      <g transform="scale(0.85, 1)">
        <path class="letter" d="M 18.383 19.650 L 17.264 19.650 L 17.264 18.150 L 18.348 18.150 L 18.348 18.327 L 17.462 18.327 L 17.462 18.786 L 18.292 18.786 L 18.292 18.962 L 17.462 18.962 L 17.462 19.473 L 18.383 19.473 L 18.383 19.650 Z"/>
      </g>
      <g transform="scale(0.85, 1)">
        <path class="letter" d="M 21.233 19.650 L 20.296 19.650 L 20.296 18.150 L 20.495 18.150 L 20.495 19.473 L 21.233 19.473 L 21.233 19.650 Z"/>
      </g>
      <g transform="scale(0.85, 1)">
        <path class="letter" d="M 24.266 19.650 L 23.146 19.650 L 23.146 18.150 L 24.231 18.150 L 24.231 18.327 L 23.345 18.327 L 23.345 18.786 L 24.175 18.786 L 24.175 18.962 L 23.345 18.962 L 23.345 19.473 L 24.266 19.473 L 24.266 19.650 Z"/>
      </g>
      <g transform="scale(0.85, 1)">
        <path class="letter" d="M 26.746 19.650 L 26.542 19.650 L 25.961 18.150 L 26.176 18.150 L 26.566 19.240 Q 26.613 19.371, 26.645 19.485 L 26.645 19.485 Q 26.679 19.362, 26.725 19.240 L 26.725 19.240 L 27.131 18.150 L 27.333 18.150 L 26.746 19.650 Z"/>
      </g>
      <g transform="scale(0.85, 1)">
        <path class="letter" d="M 30.148 19.650 L 29.029 19.650 L 29.029 18.150 L 30.113 18.150 L 30.113 18.327 L 29.227 18.327 L 29.227 18.786 L 30.057 18.786 L 30.057 18.962 L 29.227 18.962 L 29.227 19.473 L 30.148 19.473 L 30.148 19.650 Z"/>
      </g>
      <g transform="scale(0.85, 1)">
        <path class="letter" d="M 32.129 19.650 L 31.939 19.650 L 31.939 18.150 L 32.142 18.150 L 32.930 19.328 L 32.930 18.150 L 33.120 18.150 L 33.120 19.650 L 32.917 19.650 L 32.129 18.471 L 32.129 19.650 Z"/>
      </g>
      <g transform="scale(0.85, 1)">
        <path class="letter" d="M 35.163 19.650 L 34.965 19.650 L 34.965 18.150 L 35.977 18.150 L 35.977 18.327 L 35.163 18.327 L 35.163 18.792 L 35.867 18.792 L 35.867 18.969 L 35.163 18.969 L 35.163 19.650 Z"/>
      </g>
      <g transform="scale(0.85, 1)">
        <path class="letter" d="M 38.797 19.001 L 38.797 18.150 L 38.992 18.150 L 38.992 19.002 Q 38.992 19.224, 38.941 19.355 Q 38.891 19.486, 38.760 19.568 Q 38.629 19.650, 38.415 19.650 L 38.415 19.650 Q 38.208 19.650, 38.076 19.579 Q 37.944 19.507, 37.888 19.372 Q 37.832 19.237, 37.832 19.002 L 37.832 19.002 L 37.832 18.150 L 38.027 18.150 L 38.027 19.001 Q 38.027 19.193, 38.063 19.284 Q 38.098 19.375, 38.185 19.425 Q 38.272 19.474, 38.398 19.474 L 38.398 19.474 Q 38.613 19.474, 38.705 19.376 Q 38.797 19.279, 38.797 19.001 L 38.797 19.001 Z"/>
      </g>
      <g transform="scale(0.85, 1)">
        <path class="letter" d="M 6.508 22.117 L 6.508 22.117 L 6.700 22.165 Q 6.640 22.402, 6.483 22.526 Q 6.326 22.650, 6.099 22.650 L 6.099 22.650 Q 5.865 22.650, 5.718 22.555 Q 5.571 22.459, 5.494 22.278 Q 5.418 22.097, 5.418 21.889 L 5.418 21.889 Q 5.418 21.663, 5.504 21.494 Q 5.591 21.325, 5.751 21.238 Q 5.910 21.150, 6.102 21.150 L 6.102 21.150 Q 6.320 21.150, 6.468 21.261 Q 6.617 21.372, 6.675 21.572 L 6.675 21.572 L 6.486 21.617 Q 6.436 21.459, 6.340 21.386 Q 6.244 21.314, 6.098 21.314 L 6.098 21.314 Q 5.931 21.314, 5.819 21.394 Q 5.707 21.475, 5.661 21.610 Q 5.616 21.745, 5.616 21.888 L 5.616 21.888 Q 5.616 22.073, 5.669 22.211 Q 5.723 22.349, 5.837 22.417 Q 5.951 22.486, 6.084 22.486 L 6.084 22.486 Q 6.245 22.486, 6.357 22.393 Q 6.468 22.300, 6.508 22.117 Z"/>
      </g>
      <g transform="scale(0.85, 1)">
        <path class="letter" d="M 8.599 22.650 L 8.409 22.650 L 8.409 21.150 L 8.613 21.150 L 9.401 22.328 L 9.401 21.150 L 9.591 21.150 L 9.591 22.650 L 9.387 22.650 L 8.599 21.471 L 8.599 22.650 Z"/>
      </g>
      <g transform="scale(0.85, 1)">
        <path class="letter" d="M 12.039 22.650 L 11.841 22.650 L 11.841 21.327 L 11.347 21.327 L 11.347 21.150 L 12.536 21.150 L 12.536 21.327 L 12.039 21.327 L 12.039 22.650 Z"/>
      </g>
      <g transform="scale(0.68, 1)">
        <path class="letter" d="M 18.239 22.650 L 18.037 22.650 L 17.639 21.150 L 17.842 21.150 L 18.070 22.133 Q 18.107 22.288, 18.134 22.440 L 18.134 22.440 Q 18.191 22.200, 18.201 22.163 L 18.201 22.163 L 18.487 21.150 L 18.726 21.150 L 18.941 21.909 Q 19.022 22.192, 19.058 22.440 L 19.058 22.440 Q 19.086 22.298, 19.132 22.114 L 19.132 22.114 L 19.368 21.150 L 19.567 21.150 L 19.156 22.650 L 18.965 22.650 L 18.648 21.507 Q 18.609 21.364, 18.601 21.331 L 18.601 21.331 Q 18.578 21.434, 18.557 21.507 L 18.557 21.507 L 18.239 22.650 Z"/>
      </g>
      <g transform="scale(0.85, 1)">
        <path class="letter" d="M 18.383 22.650 L 17.264 22.650 L 17.264 21.150 L 18.348 21.150 L 18.348 21.327 L 17.462 21.327 L 17.462 21.786 L 18.292 21.786 L 18.292 21.962 L 17.462 21.962 L 17.462 22.473 L 18.383 22.473 L 18.383 22.650 Z"/>
      </g>
      <g transform="scale(0.85, 1)">
        <path class="letter" d="M 21.233 22.650 L 20.296 22.650 L 20.296 21.150 L 20.495 21.150 L 20.495 22.473 L 21.233 22.473 L 21.233 22.650 Z"/>
      </g>
      <g transform="scale(0.85, 1)">
        <path class="letter" d="M 23.805 22.650 L 23.601 22.650 L 23.020 21.150 L 23.235 21.150 L 23.625 22.240 Q 23.672 22.371, 23.703 22.485 L 23.703 22.485 Q 23.738 22.362, 23.784 22.240 L 23.784 22.240 L 24.189 21.150 L 24.392 21.150 L 23.805 22.650 Z"/>
      </g>
      <g transform="scale(0.85, 1)">
        <path class="letter" d="M 27.207 22.650 L 26.087 22.650 L 26.087 21.150 L 27.172 21.150 L 27.172 21.327 L 26.286 21.327 L 26.286 21.786 L 27.116 21.786 L 27.116 21.962 L 26.286 21.962 L 26.286 22.473 L 27.207 22.473 L 27.207 22.650 Z"/>
      </g>
      <g transform="scale(0.85, 1)">
        <path class="letter" d="M 30.023 22.397 L 30.023 22.397 Q 30.150 22.484, 30.256 22.524 L 30.256 22.524 L 30.203 22.650 Q 30.055 22.597, 29.909 22.482 L 29.909 22.482 Q 29.756 22.567, 29.572 22.567 L 29.572 22.567 Q 29.386 22.567, 29.235 22.477 Q 29.084 22.388, 29.002 22.225 Q 28.920 22.063, 28.920 21.859 L 28.920 21.859 Q 28.920 21.656, 29.003 21.490 Q 29.085 21.324, 29.237 21.237 Q 29.388 21.150, 29.576 21.150 L 29.576 21.150 Q 29.766 21.150, 29.918 21.240 Q 30.070 21.330, 30.150 21.492 Q 30.230 21.654, 30.230 21.858 L 30.230 21.858 Q 30.230 22.027, 30.179 22.162 Q 30.127 22.297, 30.023 22.397 Z M 29.581 22.297 L 29.625 22.165 Q 29.782 22.209, 29.883 22.296 L 29.883 22.296 Q 30.043 22.150, 30.043 21.858 L 30.043 21.858 Q 30.043 21.692, 29.987 21.567 Q 29.930 21.443, 29.821 21.375 Q 29.712 21.306, 29.577 21.306 L 29.577 21.306 Q 29.374 21.306, 29.241 21.445 Q 29.107 21.583, 29.107 21.859 L 29.107 21.859 Q 29.107 22.126, 29.239 22.269 Q 29.372 22.412, 29.577 22.412 L 29.577 22.412 Q 29.674 22.412, 29.760 22.375 L 29.760 22.375 Q 29.675 22.320, 29.581 22.297 L 29.581 22.297 Z"/>
      </g>
      <g transform="scale(0.85, 1)">
        <path class="letter" d="M 33.122 22.650 L 31.936 22.650 L 31.936 22.466 L 32.705 21.505 Q 32.787 21.403, 32.860 21.327 L 32.860 21.327 L 32.023 21.327 L 32.023 21.150 L 33.098 21.150 L 33.098 21.327 L 32.256 22.368 L 32.165 22.473 L 33.122 22.473 L 33.122 22.650 Z"/>
      </g>
      <g transform="scale(0.85, 1)">
        <path class="letter" d="M 35.570 22.650 L 35.371 22.650 L 35.371 21.150 L 35.570 21.150 L 35.570 22.650 Z"/>
      </g>
      <g transform="scale(0.85, 1)">
        <path class="letter" d="M 38.011 22.650 L 37.821 22.650 L 37.821 21.150 L 38.024 21.150 L 38.812 22.328 L 38.812 21.150 L 39.003 21.150 L 39.003 22.650 L 38.799 22.650 L 38.011 21.471 L 38.011 22.650 Z"/>
      </g>
      <g transform="scale(0.85, 1)">
        <path class="letter" d="M 6.619 25.650 L 5.499 25.650 L 5.499 24.150 L 6.584 24.150 L 6.584 24.327 L 5.698 24.327 L 5.698 24.786 L 6.527 24.786 L 6.527 24.962 L 5.698 24.962 L 5.698 25.473 L 6.619 25.473 L 6.619 25.650 Z"/>
      </g>
      <g transform="scale(0.85, 1)">
        <path class="letter" d="M 9.098 25.650 L 8.900 25.650 L 8.900 24.327 L 8.406 24.327 L 8.406 24.150 L 9.594 24.150 L 9.594 24.327 L 9.098 24.327 L 9.098 25.650 Z"/>
      </g>
      <g transform="scale(0.85, 1)">
        <path class="letter" d="M 11.551 25.650 L 11.353 25.650 L 11.353 24.150 L 11.551 24.150 L 11.551 24.766 L 12.331 24.766 L 12.331 24.150 L 12.530 24.150 L 12.530 25.650 L 12.331 25.650 L 12.331 24.943 L 11.551 24.943 L 11.551 25.650 Z"/>
      </g>
      <g transform="scale(0.85, 1)">
        <path class="letter" d="M 14.420 25.650 L 14.221 25.650 L 14.221 24.150 L 14.886 24.150 Q 15.087 24.150, 15.191 24.190 Q 15.296 24.231, 15.358 24.333 Q 15.421 24.435, 15.421 24.559 L 15.421 24.559 Q 15.421 24.719, 15.317 24.828 Q 15.214 24.938, 14.998 24.968 L 14.998 24.968 Q 15.077 25.005, 15.118 25.042 L 15.118 25.042 Q 15.205 25.122, 15.282 25.242 L 15.282 25.242 L 15.543 25.650 L 15.294 25.650 L 15.095 25.338 Q 15.008 25.203, 14.952 25.131 Q 14.896 25.060, 14.851 25.031 Q 14.807 25.002, 14.761 24.991 L 14.761 24.991 Q 14.727 24.984, 14.650 24.984 L 14.650 24.984 L 14.420 24.984 L 14.420 25.650 Z M 14.420 24.316 L 14.420 24.812 L 14.847 24.812 Q 14.983 24.812, 15.059 24.784 Q 15.136 24.756, 15.176 24.694 Q 15.216 24.632, 15.216 24.559 L 15.216 24.559 Q 15.216 24.453, 15.139 24.384 Q 15.061 24.316, 14.895 24.316 L 14.895 24.316 L 14.420 24.316 Z"/>
      </g>
      <g transform="scale(0.85, 1)">
        <path class="letter" d="M 18.383 25.650 L 17.264 25.650 L 17.264 24.150 L 18.348 24.150 L 18.348 24.327 L 17.462 24.327 L 17.462 24.786 L 18.292 24.786 L 18.292 24.962 L 17.462 24.962 L 17.462 25.473 L 18.383 25.473 L 18.383 25.650 Z"/>
      </g>
      <g transform="scale(0.85, 1)">
        <path class="letter" d="M 21.324 25.650 L 20.205 25.650 L 20.205 24.150 L 21.290 24.150 L 21.290 24.327 L 20.404 24.327 L 20.404 24.786 L 21.233 24.786 L 21.233 24.962 L 20.404 24.962 L 20.404 25.473 L 21.324 25.473 L 21.324 25.650 Z"/>
      </g>
      <g transform="scale(0.85, 1)">
        <path class="letter" d="M 23.795 25.650 L 23.596 25.650 L 23.596 25.015 L 23.018 24.150 L 23.260 24.150 L 23.555 24.602 Q 23.637 24.729, 23.708 24.856 L 23.708 24.856 Q 23.775 24.738, 23.872 24.591 L 23.872 24.591 L 24.162 24.150 L 24.393 24.150 L 23.795 25.015 L 23.795 25.650 Z"/>
      </g>
      <g transform="scale(0.85, 1)">
        <path class="letter" d="M 26.340 25.650 L 26.141 25.650 L 26.141 24.150 L 27.153 24.150 L 27.153 24.327 L 26.340 24.327 L 26.340 24.792 L 27.044 24.792 L 27.044 24.969 L 26.340 24.969 L 26.340 25.650 Z"/>
      </g>
      <g transform="scale(0.85, 1)">
        <path class="letter" d="M 29.687 25.650 L 29.489 25.650 L 29.489 24.150 L 29.687 24.150 L 29.687 25.650 Z"/>
      </g>
      <g transform="scale(0.85, 1)">
        <path class="letter" d="M 32.222 25.650 L 32.023 25.650 L 32.023 24.150 L 33.035 24.150 L 33.035 24.327 L 32.222 24.327 L 32.222 24.792 L 32.926 24.792 L 32.926 24.969 L 32.222 24.969 L 32.222 25.650 Z"/>
      </g>
      <g transform="scale(0.85, 1)">
        <path class="letter" d="M 35.569 25.650 L 35.366 25.650 L 34.785 24.150 L 34.999 24.150 L 35.389 25.240 Q 35.436 25.371, 35.468 25.485 L 35.468 25.485 Q 35.503 25.362, 35.549 25.240 L 35.549 25.240 L 35.954 24.150 L 36.157 24.150 L 35.569 25.650 Z"/>
      </g>
      <g transform="scale(0.85, 1)">
        <path class="letter" d="M 38.333 25.650 L 37.792 25.650 L 37.792 24.150 L 38.308 24.150 Q 38.483 24.150, 38.575 24.171 L 38.575 24.171 Q 38.704 24.201, 38.795 24.279 L 38.795 24.279 Q 38.914 24.379, 38.973 24.535 Q 39.032 24.691, 39.032 24.892 L 39.032 24.892 Q 39.032 25.063, 38.992 25.195 Q 38.952 25.327, 38.890 25.413 Q 38.827 25.500, 38.753 25.549 Q 38.679 25.599, 38.574 25.624 Q 38.469 25.650, 38.333 25.650 L 38.333 25.650 Z M 37.990 24.327 L 37.990 25.473 L 38.310 25.473 Q 38.459 25.473, 38.543 25.445 Q 38.628 25.418, 38.678 25.368 L 38.678 25.368 Q 38.748 25.297, 38.788 25.178 Q 38.827 25.059, 38.827 24.889 L 38.827 24.889 Q 38.827 24.653, 38.750 24.527 Q 38.673 24.401, 38.562 24.358 L 38.562 24.358 Q 38.482 24.327, 38.305 24.327 L 38.305 24.327 L 37.990 24.327 Z"/>
      </g>
      <g transform="scale(0.85, 1)">
        <path class="letter" d="M 6.619 28.650 L 5.499 28.650 L 5.499 27.150 L 6.584 27.150 L 6.584 27.327 L 5.698 27.327 L 5.698 27.786 L 6.527 27.786 L 6.527 27.962 L 5.698 27.962 L 5.698 28.473 L 6.619 28.473 L 6.619 28.650 Z"/>
      </g>
      <g transform="scale(0.85, 1)">
        <path class="letter" d="M 9.099 28.650 L 8.901 28.650 L 8.901 27.150 L 9.099 27.150 L 9.099 28.650 Z"/>
      </g>
      <g transform="scale(0.85, 1)">
        <path class="letter" d="M 12.424 28.056 L 11.998 28.056 L 11.998 27.886 L 12.612 27.885 L 12.612 28.423 Q 12.471 28.536, 12.320 28.593 Q 12.170 28.650, 12.011 28.650 L 12.011 28.650 Q 11.798 28.650, 11.623 28.558 Q 11.448 28.467, 11.359 28.294 Q 11.270 28.121, 11.270 27.907 L 11.270 27.907 Q 11.270 27.695, 11.359 27.512 Q 11.447 27.328, 11.614 27.239 Q 11.780 27.150, 11.997 27.150 L 11.997 27.150 Q 12.154 27.150, 12.281 27.201 Q 12.408 27.252, 12.480 27.343 Q 12.553 27.434, 12.590 27.580 L 12.590 27.580 L 12.417 27.628 Q 12.384 27.517, 12.336 27.454 Q 12.287 27.390, 12.197 27.352 Q 12.107 27.314, 11.998 27.314 L 11.998 27.314 Q 11.866 27.314, 11.770 27.354 Q 11.674 27.394, 11.615 27.460 Q 11.556 27.525, 11.524 27.603 L 11.524 27.603 Q 11.468 27.738, 11.468 27.895 L 11.468 27.895 Q 11.468 28.089, 11.535 28.220 Q 11.602 28.350, 11.729 28.414 Q 11.857 28.477, 12.001 28.477 L 12.001 28.477 Q 12.125 28.477, 12.244 28.429 Q 12.363 28.381, 12.424 28.326 L 12.424 28.326 L 12.424 28.056 Z"/>
      </g>
      <g transform="scale(0.85, 1)">
        <path class="letter" d="M 14.493 28.650 L 14.294 28.650 L 14.294 27.150 L 14.493 27.150 L 14.493 27.766 L 15.272 27.766 L 15.272 27.150 L 15.471 27.150 L 15.471 28.650 L 15.272 28.650 L 15.272 27.943 L 14.493 27.943 L 14.493 28.650 Z"/>
      </g>
      <g transform="scale(0.85, 1)">
        <path class="letter" d="M 17.922 28.650 L 17.723 28.650 L 17.723 27.327 L 17.229 27.327 L 17.229 27.150 L 18.418 27.150 L 18.418 27.327 L 17.922 27.327 L 17.922 28.650 Z"/>
      </g>
      <g transform="scale(0.68, 1)">
        <path class="letter" d="M 25.592 28.650 L 25.390 28.650 L 24.992 27.150 L 25.195 27.150 L 25.423 28.133 Q 25.460 28.288, 25.487 28.440 L 25.487 28.440 Q 25.544 28.200, 25.554 28.163 L 25.554 28.163 L 25.840 27.150 L 26.079 27.150 L 26.294 27.909 Q 26.375 28.192, 26.411 28.440 L 26.411 28.440 Q 26.439 28.298, 26.485 28.114 L 26.485 28.114 L 26.721 27.150 L 26.920 27.150 L 26.509 28.650 L 26.318 28.650 L 26.001 27.507 Q 25.962 27.364, 25.954 27.331 L 25.954 27.331 Q 25.931 27.434, 25.910 27.507 L 25.910 27.507 L 25.592 28.650 Z"/>
      </g>
      <g transform="scale(0.85, 1)">
        <path class="letter" d="M 23.013 27.919 L 23.013 27.919 Q 23.013 27.558, 23.207 27.354 Q 23.400 27.150, 23.707 27.150 L 23.707 27.150 Q 23.908 27.150, 24.069 27.246 Q 24.230 27.342, 24.314 27.513 Q 24.399 27.685, 24.399 27.902 L 24.399 27.902 Q 24.399 28.123, 24.310 28.297 Q 24.221 28.471, 24.058 28.561 Q 23.895 28.650, 23.706 28.650 L 23.706 28.650 Q 23.501 28.650, 23.340 28.551 Q 23.179 28.452, 23.096 28.281 Q 23.013 28.110, 23.013 27.919 Z M 23.210 27.922 L 23.210 27.922 Q 23.210 28.184, 23.351 28.335 Q 23.492 28.486, 23.705 28.486 L 23.705 28.486 Q 23.921 28.486, 24.061 28.334 Q 24.201 28.181, 24.201 27.901 L 24.201 27.901 Q 24.201 27.724, 24.141 27.592 Q 24.082 27.460, 23.966 27.388 Q 23.851 27.315, 23.708 27.315 L 23.708 27.315 Q 23.504 27.315, 23.357 27.455 Q 23.210 27.595, 23.210 27.922 Z"/>
      </g>
      <g transform="scale(0.85, 1)">
        <path class="letter" d="M 26.070 28.159 L 26.070 28.159 L 26.251 28.143 Q 26.264 28.252, 26.311 28.322 Q 26.358 28.392, 26.457 28.435 Q 26.556 28.478, 26.679 28.478 L 26.679 28.478 Q 26.789 28.478, 26.873 28.445 Q 26.957 28.413, 26.998 28.356 Q 27.039 28.299, 27.039 28.231 L 27.039 28.231 Q 27.039 28.163, 27.000 28.112 Q 26.960 28.061, 26.869 28.027 L 26.869 28.027 Q 26.811 28.004, 26.611 27.956 Q 26.411 27.908, 26.331 27.865 L 26.331 27.865 Q 26.227 27.811, 26.176 27.730 Q 26.125 27.650, 26.125 27.550 L 26.125 27.550 Q 26.125 27.440, 26.187 27.344 Q 26.250 27.249, 26.370 27.199 Q 26.489 27.150, 26.636 27.150 L 26.636 27.150 Q 26.797 27.150, 26.920 27.202 Q 27.043 27.254, 27.110 27.355 Q 27.176 27.456, 27.181 27.583 L 27.181 27.583 L 26.997 27.597 Q 26.982 27.460, 26.896 27.389 Q 26.811 27.319, 26.644 27.319 L 26.644 27.319 Q 26.469 27.319, 26.390 27.383 Q 26.310 27.447, 26.310 27.537 L 26.310 27.537 Q 26.310 27.615, 26.367 27.666 L 26.367 27.666 Q 26.422 27.716, 26.656 27.769 Q 26.890 27.822, 26.977 27.861 L 26.977 27.861 Q 27.104 27.920, 27.164 28.009 Q 27.224 28.099, 27.224 28.216 L 27.224 28.216 Q 27.224 28.331, 27.158 28.434 Q 27.092 28.536, 26.968 28.593 Q 26.843 28.650, 26.688 28.650 L 26.688 28.650 Q 26.491 28.650, 26.358 28.593 Q 26.225 28.535, 26.149 28.420 Q 26.074 28.305, 26.070 28.159 Z"/>
      </g>
      <g transform="scale(0.85, 1)">
        <path class="letter" d="M 29.687 28.650 L 29.489 28.650 L 29.489 27.150 L 29.687 27.150 L 29.687 28.650 Z"/>
      </g>
      <g transform="scale(0.85, 1)">
        <path class="letter" d="M 32.080 28.650 L 31.842 28.650 L 32.422 27.868 L 31.910 27.150 L 32.147 27.150 L 32.419 27.535 Q 32.504 27.654, 32.540 27.719 L 32.540 27.719 Q 32.590 27.637, 32.658 27.548 L 32.658 27.548 L 32.960 27.150 L 33.176 27.150 L 32.649 27.857 L 33.217 28.650 L 32.971 28.650 L 32.594 28.115 Q 32.562 28.069, 32.528 28.015 L 32.528 28.015 Q 32.478 28.096, 32.457 28.127 L 32.457 28.127 L 32.080 28.650 Z"/>
      </g>
      <g transform="scale(0.85, 1)">
        <path class="letter" d="M 36.030 28.650 L 34.911 28.650 L 34.911 27.150 L 35.995 27.150 L 35.995 27.327 L 35.109 27.327 L 35.109 27.786 L 35.939 27.786 L 35.939 27.962 L 35.109 27.962 L 35.109 28.473 L 36.030 28.473 L 36.030 28.650 Z"/>
      </g>
      <g transform="scale(0.85, 1)">
        <path class="letter" d="M 37.949 28.650 L 37.751 28.650 L 37.751 27.150 L 38.416 27.150 Q 38.616 27.150, 38.721 27.190 Q 38.825 27.231, 38.888 27.333 Q 38.950 27.435, 38.950 27.559 L 38.950 27.559 Q 38.950 27.719, 38.847 27.828 Q 38.743 27.938, 38.527 27.968 L 38.527 27.968 Q 38.606 28.005, 38.647 28.042 L 38.647 28.042 Q 38.734 28.122, 38.812 28.242 L 38.812 28.242 L 39.073 28.650 L 38.823 28.650 L 38.625 28.338 Q 38.538 28.203, 38.481 28.131 Q 38.425 28.060, 38.381 28.031 Q 38.336 28.002, 38.290 27.991 L 38.290 27.991 Q 38.256 27.984, 38.180 27.984 L 38.180 27.984 L 37.949 27.984 L 37.949 28.650 Z M 37.949 27.316 L 37.949 27.812 L 38.376 27.812 Q 38.512 27.812, 38.589 27.784 Q 38.666 27.756, 38.705 27.694 Q 38.745 27.632, 38.745 27.559 L 38.745 27.559 Q 38.745 27.453, 38.668 27.384 Q 38.591 27.316, 38.424 27.316 L 38.424 27.316 L 37.949 27.316 Z"/>
      </g>
      <g transform="scale(0.85, 1)">
        <path class="letter" d="M 5.366 30.919 L 5.366 30.919 Q 5.366 30.558, 5.559 30.354 Q 5.753 30.150, 6.060 30.150 L 6.060 30.150 Q 6.261 30.150, 6.422 30.246 Q 6.583 30.342, 6.667 30.513 Q 6.752 30.685, 6.752 30.902 L 6.752 30.902 Q 6.752 31.123, 6.663 31.297 Q 6.574 31.471, 6.411 31.561 Q 6.248 31.650, 6.059 31.650 L 6.059 31.650 Q 5.854 31.650, 5.693 31.551 Q 5.532 31.452, 5.449 31.281 Q 5.366 31.110, 5.366 30.919 Z M 5.563 30.922 L 5.563 30.922 Q 5.563 31.184, 5.704 31.335 Q 5.845 31.486, 6.058 31.486 L 6.058 31.486 Q 6.274 31.486, 6.414 31.334 Q 6.554 31.181, 6.554 30.901 L 6.554 30.901 Q 6.554 30.724, 6.494 30.592 Q 6.435 30.460, 6.319 30.388 Q 6.204 30.315, 6.061 30.315 L 6.061 30.315 Q 5.857 30.315, 5.710 30.455 Q 5.563 30.595, 5.563 30.922 Z"/>
      </g>
      <g transform="scale(0.85, 1)">
        <path class="letter" d="M 8.599 31.650 L 8.409 31.650 L 8.409 30.150 L 8.613 30.150 L 9.401 31.328 L 9.401 30.150 L 9.591 30.150 L 9.591 31.650 L 9.387 31.650 L 8.599 30.471 L 8.599 31.650 Z"/>
      </g>
      <g transform="scale(0.85, 1)">
        <path class="letter" d="M 12.501 31.650 L 11.381 31.650 L 11.381 30.150 L 12.466 30.150 L 12.466 30.327 L 11.580 30.327 L 11.580 30.786 L 12.410 30.786 L 12.410 30.962 L 11.580 30.962 L 11.580 31.473 L 12.501 31.473 L 12.501 31.650 Z"/>
      </g>
      <g transform="scale(0.85, 1)">
        <path class="letter" d="M 14.981 31.650 L 14.782 31.650 L 14.782 30.327 L 14.288 30.327 L 14.288 30.150 L 15.477 30.150 L 15.477 30.327 L 14.981 30.327 L 14.981 31.650 Z"/>
      </g>
      <g transform="scale(0.85, 1)">
        <path class="letter" d="M 18.383 31.650 L 17.264 31.650 L 17.264 30.150 L 18.348 30.150 L 18.348 30.327 L 17.462 30.327 L 17.462 30.786 L 18.292 30.786 L 18.292 30.962 L 17.462 30.962 L 17.462 31.473 L 18.383 31.473 L 18.383 31.650 Z"/>
      </g>
      <g transform="scale(0.85, 1)">
        <path class="letter" d="M 20.364 31.650 L 20.174 31.650 L 20.174 30.150 L 20.377 30.150 L 21.165 31.328 L 21.165 30.150 L 21.356 30.150 L 21.356 31.650 L 21.152 31.650 L 20.364 30.471 L 20.364 31.650 Z"/>
      </g>
      <g transform="scale(0.85, 1)">
        <path class="letter" d="M 23.398 31.650 L 23.200 31.650 L 23.200 30.150 L 24.212 30.150 L 24.212 30.327 L 23.398 30.327 L 23.398 30.792 L 24.102 30.792 L 24.102 30.969 L 23.398 30.969 L 23.398 31.650 Z"/>
      </g>
      <g transform="scale(0.85, 1)">
        <path class="letter" d="M 26.746 31.650 L 26.548 31.650 L 26.548 30.150 L 26.746 30.150 L 26.746 31.650 Z"/>
      </g>
      <g transform="scale(0.85, 1)">
        <path class="letter" d="M 29.687 31.650 L 29.483 31.650 L 28.902 30.150 L 29.117 30.150 L 29.507 31.240 Q 29.554 31.371, 29.586 31.485 L 29.586 31.485 Q 29.620 31.362, 29.667 31.240 L 29.667 31.240 L 30.072 30.150 L 30.274 30.150 L 29.687 31.650 Z"/>
      </g>
      <g transform="scale(0.85, 1)">
        <path class="letter" d="M 33.089 31.650 L 31.970 31.650 L 31.970 30.150 L 33.054 30.150 L 33.054 30.327 L 32.168 30.327 L 32.168 30.786 L 32.998 30.786 L 32.998 30.962 L 32.168 30.962 L 32.168 31.473 L 33.089 31.473 L 33.089 31.650 Z"/>
      </g>
      <g transform="scale(0.85, 1)">
        <path class="letter" d="M 34.893 31.159 L 34.893 31.159 L 35.074 31.143 Q 35.087 31.252, 35.134 31.322 Q 35.181 31.392, 35.280 31.435 Q 35.379 31.478, 35.503 31.478 L 35.503 31.478 Q 35.613 31.478, 35.697 31.445 Q 35.781 31.413, 35.822 31.356 Q 35.863 31.299, 35.863 31.231 L 35.863 31.231 Q 35.863 31.163, 35.823 31.112 Q 35.784 31.061, 35.693 31.027 L 35.693 31.027 Q 35.634 31.004, 35.434 30.956 Q 35.235 30.908, 35.154 30.865 L 35.154 30.865 Q 35.051 30.811, 35.000 30.730 Q 34.949 30.650, 34.949 30.550 L 34.949 30.550 Q 34.949 30.440, 35.011 30.344 Q 35.073 30.249, 35.193 30.199 Q 35.313 30.150, 35.459 30.150 L 35.459 30.150 Q 35.620 30.150, 35.744 30.202 Q 35.867 30.254, 35.933 30.355 Q 35.999 30.456, 36.004 30.583 L 36.004 30.583 L 35.820 30.597 Q 35.806 30.460, 35.720 30.389 Q 35.634 30.319, 35.467 30.319 L 35.467 30.319 Q 35.293 30.319, 35.213 30.383 Q 35.134 30.447, 35.134 30.537 L 35.134 30.537 Q 35.134 30.615, 35.190 30.666 L 35.190 30.666 Q 35.245 30.716, 35.479 30.769 Q 35.713 30.822, 35.801 30.861 L 35.801 30.861 Q 35.927 30.920, 35.988 31.009 Q 36.048 31.099, 36.048 31.216 L 36.048 31.216 Q 36.048 31.331, 35.982 31.434 Q 35.915 31.536, 35.791 31.593 Q 35.667 31.650, 35.512 31.650 L 35.512 31.650 Q 35.315 31.650, 35.182 31.593 Q 35.049 31.535, 34.973 31.420 Q 34.897 31.305, 34.893 31.159 Z"/>
      </g>
      <g transform="scale(0.85, 1)">
        <path class="letter" d="M 38.971 31.650 L 37.852 31.650 L 37.852 30.150 L 38.937 30.150 L 38.937 30.327 L 38.051 30.327 L 38.051 30.786 L 38.880 30.786 L 38.880 30.962 L 38.051 30.962 L 38.051 31.473 L 38.971 31.473 L 38.971 31.650 Z"/>
      </g>
      <g transform="scale(0.85, 1)">
        <path class="letter" d="M 5.669 34.650 L 5.470 34.650 L 5.470 33.150 L 5.669 33.150 L 5.669 33.766 L 6.449 33.766 L 6.449 33.150 L 6.647 33.150 L 6.647 34.650 L 6.449 34.650 L 6.449 33.943 L 5.669 33.943 L 5.669 34.650 Z"/>
      </g>
      <g transform="scale(0.85, 1)">
        <path class="letter" d="M 8.423 34.159 L 8.423 34.159 L 8.604 34.143 Q 8.617 34.252, 8.664 34.322 Q 8.711 34.392, 8.810 34.435 Q 8.908 34.478, 9.032 34.478 L 9.032 34.478 Q 9.142 34.478, 9.226 34.445 Q 9.310 34.413, 9.351 34.356 Q 9.392 34.299, 9.392 34.231 L 9.392 34.231 Q 9.392 34.163, 9.353 34.112 Q 9.313 34.061, 9.222 34.027 L 9.222 34.027 Q 9.164 34.004, 8.964 33.956 Q 8.764 33.908, 8.684 33.865 L 8.684 33.865 Q 8.580 33.811, 8.529 33.730 Q 8.478 33.650, 8.478 33.550 L 8.478 33.550 Q 8.478 33.440, 8.540 33.344 Q 8.603 33.249, 8.722 33.199 Q 8.842 33.150, 8.989 33.150 L 8.989 33.150 Q 9.150 33.150, 9.273 33.202 Q 9.396 33.254, 9.463 33.355 Q 9.529 33.456, 9.534 33.583 L 9.534 33.583 L 9.350 33.597 Q 9.335 33.460, 9.249 33.389 Q 9.164 33.319, 8.997 33.319 L 8.997 33.319 Q 8.822 33.319, 8.743 33.383 Q 8.663 33.447, 8.663 33.537 L 8.663 33.537 Q 8.663 33.615, 8.719 33.666 L 8.719 33.666 Q 8.775 33.716, 9.009 33.769 Q 9.243 33.822, 9.330 33.861 L 9.330 33.861 Q 9.457 33.920, 9.517 34.009 Q 9.577 34.099, 9.577 34.216 L 9.577 34.216 Q 9.577 34.331, 9.511 34.434 Q 9.445 34.536, 9.321 34.593 Q 9.196 34.650, 9.041 34.650 L 9.041 34.650 Q 8.844 34.650, 8.711 34.593 Q 8.578 34.535, 8.502 34.420 Q 8.427 34.305, 8.423 34.159 Z"/>
      </g>
      <g transform="scale(0.85, 1)">
        <path class="letter" d="M 12.501 34.650 L 11.381 34.650 L 11.381 33.150 L 12.466 33.150 L 12.466 33.327 L 11.580 33.327 L 11.580 33.786 L 12.410 33.786 L 12.410 33.962 L 11.580 33.962 L 11.580 34.473 L 12.501 34.473 L 12.501 34.650 Z"/>
      </g>
      <g transform="scale(0.85, 1)">
        <path class="letter" d="M 14.981 34.650 L 14.777 34.650 L 14.196 33.150 L 14.411 33.150 L 14.801 34.240 Q 14.848 34.371, 14.880 34.485 L 14.880 34.485 Q 14.915 34.362, 14.961 34.240 L 14.961 34.240 L 15.366 33.150 L 15.568 33.150 L 14.981 34.650 Z"/>
      </g>
      <g transform="scale(0.85, 1)">
        <path class="letter" d="M 18.383 34.650 L 17.264 34.650 L 17.264 33.150 L 18.348 33.150 L 18.348 33.327 L 17.462 33.327 L 17.462 33.786 L 18.292 33.786 L 18.292 33.962 L 17.462 33.962 L 17.462 34.473 L 18.383 34.473 L 18.383 34.650 Z"/>
      </g>
      <g transform="scale(0.85, 1)">
        <path class="letter" d="M 20.364 34.650 L 20.174 34.650 L 20.174 33.150 L 20.377 33.150 L 21.165 34.328 L 21.165 33.150 L 21.356 33.150 L 21.356 34.650 L 21.152 34.650 L 20.364 33.471 L 20.364 34.650 Z"/>
      </g>
      <g transform="scale(0.85, 1)">
        <path class="letter" d="M 23.804 34.650 L 23.606 34.650 L 23.606 33.327 L 23.111 33.327 L 23.111 33.150 L 24.300 33.150 L 24.300 33.327 L 23.804 33.327 L 23.804 34.650 Z"/>
      </g>
      <g transform="scale(0.85, 1)">
        <path class="letter" d="M 27.207 34.650 L 26.087 34.650 L 26.087 33.150 L 27.172 33.150 L 27.172 33.327 L 26.286 33.327 L 26.286 33.786 L 27.116 33.786 L 27.116 33.962 L 26.286 33.962 L 26.286 34.473 L 27.207 34.473 L 27.207 34.650 Z"/>
      </g>
      <g transform="scale(0.85, 1)">
        <path class="letter" d="M 30.148 34.650 L 29.029 34.650 L 29.029 33.150 L 30.113 33.150 L 30.113 33.327 L 29.227 33.327 L 29.227 33.786 L 30.057 33.786 L 30.057 33.962 L 29.227 33.962 L 29.227 34.473 L 30.148 34.473 L 30.148 34.650 Z"/>
      </g>
      <g transform="scale(0.85, 1)">
        <path class="letter" d="M 32.129 34.650 L 31.939 34.650 L 31.939 33.150 L 32.142 33.150 L 32.930 34.328 L 32.930 33.150 L 33.120 33.150 L 33.120 34.650 L 32.917 34.650 L 32.129 33.471 L 32.129 34.650 Z"/>
      </g>
      <g transform="scale(0.85, 1)">
        <path class="letter" d="M 36.030 34.650 L 34.911 34.650 L 34.911 33.150 L 35.995 33.150 L 35.995 33.327 L 35.109 33.327 L 35.109 33.786 L 35.939 33.786 L 35.939 33.962 L 35.109 33.962 L 35.109 34.473 L 36.030 34.473 L 36.030 34.650 Z"/>
      </g>
      <g transform="scale(0.85, 1)">
        <path class="letter" d="M 38.333 34.650 L 37.792 34.650 L 37.792 33.150 L 38.308 33.150 Q 38.483 33.150, 38.575 33.171 L 38.575 33.171 Q 38.704 33.201, 38.795 33.279 L 38.795 33.279 Q 38.914 33.379, 38.973 33.535 Q 39.032 33.691, 39.032 33.892 L 39.032 33.892 Q 39.032 34.063, 38.992 34.195 Q 38.952 34.327, 38.890 34.413 Q 38.827 34.500, 38.753 34.549 Q 38.679 34.599, 38.574 34.624 Q 38.469 34.650, 38.333 34.650 L 38.333 34.650 Z M 37.990 33.327 L 37.990 34.473 L 38.310 34.473 Q 38.459 34.473, 38.543 34.445 Q 38.628 34.418, 38.678 34.368 L 38.678 34.368 Q 38.748 34.297, 38.788 34.178 Q 38.827 34.059, 38.827 33.889 L 38.827 33.889 Q 38.827 33.653, 38.750 33.527 Q 38.673 33.401, 38.562 33.358 L 38.562 33.358 Q 38.482 33.327, 38.305 33.327 L 38.305 33.327 L 37.990 33.327 Z"/>
      </g>
    </g>
  </g>
</svg>
