<?xml version="1.0" encoding="UTF-8" standalone="no"?>
<!-- Auto-generated from Wordy Watch UI -->
<!-- Layout: Gracegpt8 -->
<!-- Grid: 12x11, Cell: 2.5x3mm -->
<svg
  width="34mm"
  height="37mm"
  viewBox="0 0 34 37"
  xmlns="http://www.w3.org/2000/svg"
  version="1.1">
  <g transform="translate(34, 0) scale(-1, 1)">
    <rect x="0" y="0" width="34" height="37" fill="#000000" stroke="none"/>
    <defs>
      <style>
        .letter { fill: #ffffff; stroke: none; }
      </style>
    </defs>
    <g id="letters">
      <g transform="scale(0.7, 1)">
        <path class="letter" d="M 4.773 4.490 L 4.510 4.490 L 4.510 2.744 L 3.858 2.744 L 3.858 2.510 L 5.428 2.510 L 5.428 2.744 L 4.773 2.744 L 4.773 4.490 Z"/>
      </g>
      <g transform="scale(0.7, 1)">
        <path class="letter" d="M 7.808 4.490 L 7.546 4.490 L 7.546 2.510 L 8.882 2.510 L 8.882 2.744 L 7.808 2.744 L 7.808 3.357 L 8.738 3.357 L 8.738 3.590 L 7.808 3.590 L 7.808 4.490 Z"/>
      </g>
      <g transform="scale(0.7, 1)">
        <path class="letter" d="M 11.915 4.490 L 11.653 4.490 L 11.653 2.744 L 11.001 2.744 L 11.001 2.510 L 12.570 2.510 L 12.570 2.744 L 11.915 2.744 L 11.915 4.490 Z"/>
      </g>
      <g transform="scale(0.7, 1)">
        <path class="letter" d="M 15.487 4.490 L 15.225 4.490 L 15.225 2.744 L 14.572 2.744 L 14.572 2.510 L 16.142 2.510 L 16.142 2.744 L 15.487 2.744 L 15.487 4.490 Z"/>
      </g>
      <g transform="scale(0.7, 1)">
        <path class="letter" d="M 18.523 4.490 L 18.261 4.490 L 18.261 2.510 L 19.596 2.510 L 19.596 2.744 L 18.523 2.744 L 18.523 3.357 L 19.452 3.357 L 19.452 3.590 L 18.523 3.590 L 18.523 4.490 Z"/>
      </g>
      <g transform="scale(0.7, 1)">
        <path class="letter" d="M 22.094 4.490 L 21.832 4.490 L 21.832 2.510 L 23.168 2.510 L 23.168 2.744 L 22.094 2.744 L 22.094 3.357 L 23.023 3.357 L 23.023 3.590 L 22.094 3.590 L 22.094 4.490 Z"/>
      </g>
      <g transform="scale(0.7, 1)">
        <path class="letter" d="M 26.709 3.706 L 26.146 3.706 L 26.146 3.482 L 26.957 3.480 L 26.957 4.191 Q 26.770 4.340, 26.572 4.415 Q 26.373 4.490, 26.164 4.490 L 26.164 4.490 Q 25.882 4.490, 25.652 4.369 Q 25.421 4.248, 25.303 4.020 Q 25.186 3.791, 25.186 3.509 L 25.186 3.509 Q 25.186 3.230, 25.303 2.987 Q 25.420 2.745, 25.639 2.628 Q 25.859 2.510, 26.145 2.510 L 26.145 2.510 Q 26.352 2.510, 26.520 2.577 Q 26.688 2.645, 26.783 2.765 Q 26.879 2.885, 26.928 3.078 L 26.928 3.078 L 26.700 3.141 Q 26.657 2.995, 26.593 2.911 Q 26.529 2.827, 26.410 2.777 Q 26.291 2.727, 26.146 2.727 L 26.146 2.727 Q 25.972 2.727, 25.845 2.780 Q 25.719 2.833, 25.641 2.919 Q 25.563 3.005, 25.520 3.108 L 25.520 3.108 Q 25.447 3.286, 25.447 3.493 L 25.447 3.493 Q 25.447 3.749, 25.535 3.922 Q 25.623 4.094, 25.792 4.178 Q 25.960 4.261, 26.150 4.261 L 26.150 4.261 Q 26.314 4.261, 26.471 4.198 Q 26.628 4.135, 26.709 4.063 L 26.709 4.063 L 26.709 3.706 Z"/>
      </g>
      <g transform="scale(0.7, 1)">
        <path class="letter" d="M 30.426 4.490 L 28.860 4.490 L 28.860 4.247 L 29.874 2.979 Q 29.983 2.844, 30.080 2.744 L 30.080 2.744 L 28.975 2.744 L 28.975 2.510 L 30.393 2.510 L 30.393 2.744 L 29.282 4.117 L 29.161 4.256 L 30.426 4.256 L 30.426 4.490 Z"/>
      </g>
      <g transform="scale(0.7, 1)">
        <path class="letter" d="M 33.953 4.490 L 32.475 4.490 L 32.475 2.510 L 33.907 2.510 L 33.907 2.744 L 32.738 2.744 L 32.738 3.350 L 33.833 3.350 L 33.833 3.582 L 32.738 3.582 L 32.738 4.256 L 33.953 4.256 L 33.953 4.490 Z"/>
      </g>
      <g transform="scale(0.7, 1)">
        <path class="letter" d="M 36.175 4.490 L 35.913 4.490 L 35.913 2.510 L 36.791 2.510 Q 37.056 2.510, 37.194 2.563 Q 37.331 2.617, 37.414 2.752 Q 37.496 2.887, 37.496 3.050 L 37.496 3.050 Q 37.496 3.261, 37.360 3.405 Q 37.223 3.550, 36.938 3.589 L 36.938 3.589 Q 37.042 3.639, 37.096 3.688 L 37.096 3.688 Q 37.211 3.793, 37.314 3.951 L 37.314 3.951 L 37.658 4.490 L 37.329 4.490 L 37.067 4.078 Q 36.952 3.900, 36.878 3.805 Q 36.803 3.711, 36.745 3.673 Q 36.686 3.635, 36.625 3.620 L 36.625 3.620 Q 36.580 3.611, 36.479 3.611 L 36.479 3.611 L 36.175 3.611 L 36.175 4.490 Z M 36.175 2.729 L 36.175 3.384 L 36.738 3.384 Q 36.918 3.384, 37.019 3.347 Q 37.121 3.310, 37.173 3.228 Q 37.226 3.146, 37.226 3.050 L 37.226 3.050 Q 37.226 2.910, 37.124 2.819 Q 37.022 2.729, 36.802 2.729 L 36.802 2.729 L 36.175 2.729 Z"/>
      </g>
      <g transform="scale(0.7, 1)">
        <path class="letter" d="M 39.442 3.525 L 39.442 3.525 Q 39.442 3.049, 39.698 2.780 Q 39.954 2.510, 40.358 2.510 L 40.358 2.510 Q 40.623 2.510, 40.836 2.637 Q 41.049 2.763, 41.160 2.990 Q 41.272 3.216, 41.272 3.503 L 41.272 3.503 Q 41.272 3.794, 41.155 4.024 Q 41.037 4.254, 40.822 4.372 Q 40.606 4.490, 40.357 4.490 L 40.357 4.490 Q 40.087 4.490, 39.874 4.359 Q 39.661 4.229, 39.552 4.003 Q 39.442 3.777, 39.442 3.525 Z M 39.703 3.529 L 39.703 3.529 Q 39.703 3.875, 39.889 4.074 Q 40.075 4.273, 40.356 4.273 L 40.356 4.273 Q 40.642 4.273, 40.826 4.072 Q 41.011 3.871, 41.011 3.502 L 41.011 3.502 Q 41.011 3.268, 40.932 3.094 Q 40.853 2.920, 40.701 2.824 Q 40.549 2.728, 40.360 2.728 L 40.360 2.728 Q 40.091 2.728, 39.897 2.913 Q 39.703 3.097, 39.703 3.529 Z"/>
      </g>
      <g transform="scale(0.7, 1)">
        <path class="letter" d="M 43.414 4.490 L 43.152 4.490 L 43.152 2.510 L 43.414 2.510 L 43.414 3.323 L 44.443 3.323 L 44.443 2.510 L 44.705 2.510 L 44.705 4.490 L 44.443 4.490 L 44.443 3.557 L 43.414 3.557 L 43.414 4.490 Z"/>
      </g>
      <g transform="scale(0.7, 1)">
        <path class="letter" d="M 5.382 7.490 L 3.904 7.490 L 3.904 5.510 L 5.336 5.510 L 5.336 5.744 L 4.166 5.744 L 4.166 6.350 L 5.261 6.350 L 5.261 6.582 L 4.166 6.582 L 4.166 7.256 L 5.382 7.256 L 5.382 7.490 Z"/>
      </g>
      <g transform="scale(0.7, 1)">
        <path class="letter" d="M 8.345 7.490 L 8.083 7.490 L 8.083 5.510 L 8.345 5.510 L 8.345 7.490 Z"/>
      </g>
      <g transform="scale(0.63, 1)">
        <path class="letter" d="M 12.615 7.490 L 12.348 7.490 L 11.822 5.510 L 12.091 5.510 L 12.392 6.808 Q 12.441 7.012, 12.476 7.213 L 12.476 7.213 Q 12.552 6.896, 12.565 6.847 L 12.565 6.847 L 12.942 5.510 L 13.258 5.510 L 13.542 6.512 Q 13.648 6.885, 13.696 7.213 L 13.696 7.213 Q 13.733 7.025, 13.794 6.782 L 13.794 6.782 L 14.105 5.510 L 14.368 5.510 L 13.825 7.490 L 13.573 7.490 L 13.155 5.981 Q 13.103 5.792, 13.093 5.749 L 13.093 5.749 Q 13.062 5.885, 13.035 5.981 L 13.035 5.981 L 12.615 7.490 Z"/>
      </g>
      <g transform="scale(0.7, 1)">
        <path class="letter" d="M 14.843 7.490 L 14.581 7.490 L 14.581 5.510 L 14.843 5.510 L 14.843 6.323 L 15.872 6.323 L 15.872 5.510 L 16.134 5.510 L 16.134 7.490 L 15.872 7.490 L 15.872 6.557 L 14.843 6.557 L 14.843 7.490 Z"/>
      </g>
      <g transform="scale(0.7, 1)">
        <path class="letter" d="M 18.014 6.525 L 18.014 6.525 Q 18.014 6.049, 18.269 5.780 Q 18.525 5.510, 18.930 5.510 L 18.930 5.510 Q 19.195 5.510, 19.408 5.637 Q 19.620 5.763, 19.732 5.990 Q 19.844 6.216, 19.844 6.503 L 19.844 6.503 Q 19.844 6.794, 19.726 7.024 Q 19.609 7.254, 19.393 7.372 Q 19.178 7.490, 18.929 7.490 L 18.929 7.490 Q 18.658 7.490, 18.446 7.359 Q 18.233 7.229, 18.123 7.003 Q 18.014 6.777, 18.014 6.525 Z M 18.275 6.529 L 18.275 6.529 Q 18.275 6.875, 18.461 7.074 Q 18.647 7.273, 18.927 7.273 L 18.927 7.273 Q 19.213 7.273, 19.398 7.072 Q 19.582 6.871, 19.582 6.502 L 19.582 6.502 Q 19.582 6.268, 19.504 6.094 Q 19.425 5.920, 19.272 5.824 Q 19.120 5.728, 18.931 5.728 L 18.931 5.728 Q 18.662 5.728, 18.468 5.913 Q 18.275 6.097, 18.275 6.529 Z"/>
      </g>
      <g transform="scale(0.7, 1)">
        <path class="letter" d="M 22.631 7.490 L 22.369 7.490 L 22.369 5.510 L 22.631 5.510 L 22.631 7.490 Z"/>
      </g>
      <g transform="scale(0.7, 1)">
        <path class="letter" d="M 25.423 7.490 L 25.145 7.490 L 25.905 5.510 L 26.188 5.510 L 26.998 7.490 L 26.699 7.490 L 26.469 6.890 L 25.641 6.890 L 25.423 7.490 Z M 25.934 6.096 L 25.716 6.677 L 26.387 6.677 L 26.181 6.129 Q 26.086 5.879, 26.040 5.718 L 26.040 5.718 Q 26.003 5.908, 25.934 6.096 L 25.934 6.096 Z"/>
      </g>
      <g transform="scale(0.7, 1)">
        <path class="letter" d="M 29.237 7.490 L 28.975 7.490 L 28.975 5.510 L 30.311 5.510 L 30.311 5.744 L 29.237 5.744 L 29.237 6.357 L 30.166 6.357 L 30.166 6.590 L 29.237 6.590 L 29.237 7.490 Z"/>
      </g>
      <g transform="scale(0.7, 1)">
        <path class="letter" d="M 32.299 6.525 L 32.299 6.525 Q 32.299 6.049, 32.555 5.780 Q 32.811 5.510, 33.216 5.510 L 33.216 5.510 Q 33.481 5.510, 33.693 5.637 Q 33.906 5.763, 34.018 5.990 Q 34.129 6.216, 34.129 6.503 L 34.129 6.503 Q 34.129 6.794, 34.012 7.024 Q 33.894 7.254, 33.679 7.372 Q 33.464 7.490, 33.214 7.490 L 33.214 7.490 Q 32.944 7.490, 32.731 7.359 Q 32.519 7.229, 32.409 7.003 Q 32.299 6.777, 32.299 6.525 Z M 32.560 6.529 L 32.560 6.529 Q 32.560 6.875, 32.746 7.074 Q 32.932 7.273, 33.213 7.273 L 33.213 7.273 Q 33.499 7.273, 33.684 7.072 Q 33.868 6.871, 33.868 6.502 L 33.868 6.502 Q 33.868 6.268, 33.789 6.094 Q 33.710 5.920, 33.558 5.824 Q 33.406 5.728, 33.217 5.728 L 33.217 5.728 Q 32.948 5.728, 32.754 5.913 Q 32.560 6.097, 32.560 6.529 Z"/>
      </g>
      <g transform="scale(0.7, 1)">
        <path class="letter" d="M 37.294 6.633 L 37.294 5.510 L 37.551 5.510 L 37.551 6.635 Q 37.551 6.928, 37.485 7.101 Q 37.418 7.274, 37.245 7.382 Q 37.072 7.490, 36.790 7.490 L 36.790 7.490 Q 36.517 7.490, 36.343 7.396 Q 36.169 7.301, 36.095 7.123 Q 36.020 6.944, 36.020 6.635 L 36.020 6.635 L 36.020 5.510 L 36.278 5.510 L 36.278 6.633 Q 36.278 6.887, 36.325 7.007 Q 36.372 7.127, 36.487 7.193 Q 36.602 7.258, 36.768 7.258 L 36.768 7.258 Q 37.052 7.258, 37.173 7.129 Q 37.294 7.000, 37.294 6.633 L 37.294 6.633 Z"/>
      </g>
      <g transform="scale(0.7, 1)">
        <path class="letter" d="M 39.747 7.490 L 39.485 7.490 L 39.485 5.510 L 40.363 5.510 Q 40.627 5.510, 40.765 5.563 Q 40.903 5.617, 40.985 5.752 Q 41.068 5.887, 41.068 6.050 L 41.068 6.050 Q 41.068 6.261, 40.931 6.405 Q 40.795 6.550, 40.510 6.589 L 40.510 6.589 Q 40.614 6.639, 40.668 6.688 L 40.668 6.688 Q 40.783 6.793, 40.885 6.951 L 40.885 6.951 L 41.230 7.490 L 40.900 7.490 L 40.638 7.078 Q 40.523 6.900, 40.449 6.805 Q 40.375 6.711, 40.316 6.673 Q 40.257 6.635, 40.196 6.620 L 40.196 6.620 Q 40.152 6.611, 40.051 6.611 L 40.051 6.611 L 39.747 6.611 L 39.747 7.490 Z M 39.747 5.729 L 39.747 6.384 L 40.310 6.384 Q 40.490 6.384, 40.591 6.347 Q 40.692 6.310, 40.745 6.228 Q 40.797 6.146, 40.797 6.050 L 40.797 6.050 Q 40.797 5.910, 40.695 5.819 Q 40.594 5.729, 40.373 5.729 L 40.373 5.729 L 39.747 5.729 Z"/>
      </g>
      <g transform="scale(0.7, 1)">
        <path class="letter" d="M 43.318 7.490 L 43.056 7.490 L 43.056 5.510 L 43.934 5.510 Q 44.199 5.510, 44.336 5.563 Q 44.474 5.617, 44.557 5.752 Q 44.639 5.887, 44.639 6.050 L 44.639 6.050 Q 44.639 6.261, 44.503 6.405 Q 44.366 6.550, 44.081 6.589 L 44.081 6.589 Q 44.185 6.639, 44.239 6.688 L 44.239 6.688 Q 44.354 6.793, 44.457 6.951 L 44.457 6.951 L 44.801 7.490 L 44.472 7.490 L 44.209 7.078 Q 44.095 6.900, 44.020 6.805 Q 43.946 6.711, 43.887 6.673 Q 43.829 6.635, 43.768 6.620 L 43.768 6.620 Q 43.723 6.611, 43.622 6.611 L 43.622 6.611 L 43.318 6.611 L 43.318 7.490 Z M 43.318 5.729 L 43.318 6.384 L 43.881 6.384 Q 44.061 6.384, 44.162 6.347 Q 44.264 6.310, 44.316 6.228 Q 44.369 6.146, 44.369 6.050 L 44.369 6.050 Q 44.369 5.910, 44.267 5.819 Q 44.165 5.729, 43.945 5.729 L 43.945 5.729 L 43.318 5.729 Z"/>
      </g>
      <g transform="scale(0.7, 1)">
        <path class="letter" d="M 4.114 10.490 L 3.863 10.490 L 3.863 8.510 L 4.132 8.510 L 5.172 10.065 L 5.172 8.510 L 5.423 8.510 L 5.423 10.490 L 5.154 10.490 L 4.114 8.934 L 4.114 10.490 Z"/>
      </g>
      <g transform="scale(0.7, 1)">
        <path class="letter" d="M 7.808 10.490 L 7.546 10.490 L 7.546 8.510 L 8.882 8.510 L 8.882 8.744 L 7.808 8.744 L 7.808 9.357 L 8.738 9.357 L 8.738 9.590 L 7.808 9.590 L 7.808 10.490 Z"/>
      </g>
      <g transform="scale(0.7, 1)">
        <path class="letter" d="M 12.525 10.490 L 11.047 10.490 L 11.047 8.510 L 12.479 8.510 L 12.479 8.744 L 11.309 8.744 L 11.309 9.350 L 12.404 9.350 L 12.404 9.582 L 11.309 9.582 L 11.309 10.256 L 12.525 10.256 L 12.525 10.490 Z"/>
      </g>
      <g transform="scale(0.7, 1)">
        <path class="letter" d="M 15.488 10.490 L 15.226 10.490 L 15.226 8.510 L 15.488 8.510 L 15.488 10.490 Z"/>
      </g>
      <g transform="scale(0.7, 1)">
        <path class="letter" d="M 18.318 10.490 L 18.056 10.490 L 18.056 8.510 L 18.934 8.510 Q 19.199 8.510, 19.336 8.563 Q 19.474 8.617, 19.557 8.752 Q 19.639 8.887, 19.639 9.050 L 19.639 9.050 Q 19.639 9.261, 19.503 9.405 Q 19.366 9.550, 19.081 9.589 L 19.081 9.589 Q 19.185 9.639, 19.239 9.688 L 19.239 9.688 Q 19.354 9.793, 19.457 9.951 L 19.457 9.951 L 19.801 10.490 L 19.472 10.490 L 19.209 10.078 Q 19.095 9.900, 19.020 9.805 Q 18.946 9.711, 18.887 9.673 Q 18.829 9.635, 18.768 9.620 L 18.768 9.620 Q 18.723 9.611, 18.622 9.611 L 18.622 9.611 L 18.318 9.611 L 18.318 10.490 Z M 18.318 8.729 L 18.318 9.384 L 18.881 9.384 Q 19.061 9.384, 19.162 9.347 Q 19.264 9.310, 19.316 9.228 Q 19.369 9.146, 19.369 9.050 L 19.369 9.050 Q 19.369 8.910, 19.267 8.819 Q 19.165 8.729, 18.945 8.729 L 18.945 8.729 L 18.318 8.729 Z"/>
      </g>
      <g transform="scale(0.7, 1)">
        <path class="letter" d="M 22.094 10.490 L 21.832 10.490 L 21.832 8.510 L 23.168 8.510 L 23.168 8.744 L 22.094 8.744 L 22.094 9.357 L 23.023 9.357 L 23.023 9.590 L 22.094 9.590 L 22.094 10.490 Z"/>
      </g>
      <g transform="scale(0.7, 1)">
        <path class="letter" d="M 26.201 10.490 L 25.939 10.490 L 25.939 8.744 L 25.287 8.744 L 25.287 8.510 L 26.856 8.510 L 26.856 8.744 L 26.201 8.744 L 26.201 10.490 Z"/>
      </g>
      <g transform="scale(0.7, 1)">
        <path class="letter" d="M 29.128 10.490 L 28.866 10.490 L 28.866 8.510 L 29.128 8.510 L 29.128 9.323 L 30.157 9.323 L 30.157 8.510 L 30.419 8.510 L 30.419 10.490 L 30.157 10.490 L 30.157 9.557 L 29.128 9.557 L 29.128 10.490 Z"/>
      </g>
      <g transform="scale(0.7, 1)">
        <path class="letter" d="M 33.345 10.490 L 33.083 10.490 L 33.083 8.510 L 33.345 8.510 L 33.345 10.490 Z"/>
      </g>
      <g transform="scale(0.7, 1)">
        <path class="letter" d="M 36.175 10.490 L 35.913 10.490 L 35.913 8.510 L 36.791 8.510 Q 37.056 8.510, 37.194 8.563 Q 37.331 8.617, 37.414 8.752 Q 37.496 8.887, 37.496 9.050 L 37.496 9.050 Q 37.496 9.261, 37.360 9.405 Q 37.223 9.550, 36.938 9.589 L 36.938 9.589 Q 37.042 9.639, 37.096 9.688 L 37.096 9.688 Q 37.211 9.793, 37.314 9.951 L 37.314 9.951 L 37.658 10.490 L 37.329 10.490 L 37.067 10.078 Q 36.952 9.900, 36.878 9.805 Q 36.803 9.711, 36.745 9.673 Q 36.686 9.635, 36.625 9.620 L 36.625 9.620 Q 36.580 9.611, 36.479 9.611 L 36.479 9.611 L 36.175 9.611 L 36.175 10.490 Z M 36.175 8.729 L 36.175 9.384 L 36.738 9.384 Q 36.918 9.384, 37.019 9.347 Q 37.121 9.310, 37.173 9.228 Q 37.226 9.146, 37.226 9.050 L 37.226 9.050 Q 37.226 8.910, 37.124 8.819 Q 37.022 8.729, 36.802 8.729 L 36.802 8.729 L 36.175 8.729 Z"/>
      </g>
      <g transform="scale(0.7, 1)">
        <path class="letter" d="M 40.950 9.786 L 40.950 9.786 L 41.203 9.850 Q 41.124 10.162, 40.917 10.326 Q 40.710 10.490, 40.411 10.490 L 40.411 10.490 Q 40.101 10.490, 39.907 10.364 Q 39.713 10.238, 39.612 9.999 Q 39.511 9.760, 39.511 9.486 L 39.511 9.486 Q 39.511 9.187, 39.625 8.964 Q 39.739 8.741, 39.950 8.626 Q 40.161 8.510, 40.415 8.510 L 40.415 8.510 Q 40.702 8.510, 40.898 8.656 Q 41.094 8.803, 41.171 9.068 L 41.171 9.068 L 40.921 9.126 Q 40.855 8.917, 40.728 8.822 Q 40.601 8.727, 40.409 8.727 L 40.409 8.727 Q 40.189 8.727, 40.040 8.833 Q 39.892 8.938, 39.832 9.117 Q 39.772 9.295, 39.772 9.484 L 39.772 9.484 Q 39.772 9.729, 39.843 9.911 Q 39.914 10.093, 40.065 10.183 Q 40.215 10.273, 40.390 10.273 L 40.390 10.273 Q 40.603 10.273, 40.750 10.150 Q 40.898 10.028, 40.950 9.786 Z"/>
      </g>
      <g transform="scale(0.7, 1)">
        <path class="letter" d="M 44.667 10.490 L 43.190 10.490 L 43.190 8.510 L 44.621 8.510 L 44.621 8.744 L 43.452 8.744 L 43.452 9.350 L 44.547 9.350 L 44.547 9.582 L 43.452 9.582 L 43.452 10.256 L 44.667 10.256 L 44.667 10.490 Z"/>
      </g>
      <g transform="scale(0.7, 1)">
        <path class="letter" d="M 5.280 12.706 L 4.717 12.706 L 4.717 12.482 L 5.528 12.480 L 5.528 13.191 Q 5.342 13.340, 5.143 13.415 Q 4.945 13.490, 4.736 13.490 L 4.736 13.490 Q 4.453 13.490, 4.223 13.369 Q 3.992 13.248, 3.875 13.020 Q 3.757 12.791, 3.757 12.509 L 3.757 12.509 Q 3.757 12.230, 3.874 11.987 Q 3.991 11.745, 4.211 11.628 Q 4.430 11.510, 4.716 11.510 L 4.716 11.510 Q 4.924 11.510, 5.091 11.577 Q 5.259 11.645, 5.355 11.765 Q 5.450 11.885, 5.500 12.078 L 5.500 12.078 L 5.271 12.141 Q 5.228 11.995, 5.164 11.911 Q 5.100 11.827, 4.981 11.777 Q 4.862 11.727, 4.717 11.727 L 4.717 11.727 Q 4.544 11.727, 4.417 11.780 Q 4.290 11.833, 4.213 11.919 Q 4.135 12.005, 4.092 12.108 L 4.092 12.108 Q 4.019 12.286, 4.019 12.493 L 4.019 12.493 Q 4.019 12.749, 4.107 12.922 Q 4.195 13.094, 4.363 13.178 Q 4.532 13.261, 4.721 13.261 L 4.721 13.261 Q 4.886 13.261, 5.043 13.198 Q 5.199 13.135, 5.280 13.063 L 5.280 13.063 L 5.280 12.706 Z"/>
      </g>
      <g transform="scale(0.7, 1)">
        <path class="letter" d="M 8.344 13.490 L 8.082 13.490 L 8.082 11.744 L 7.430 11.744 L 7.430 11.510 L 8.999 11.510 L 8.999 11.744 L 8.344 11.744 L 8.344 13.490 Z"/>
      </g>
      <g transform="scale(0.7, 1)">
        <path class="letter" d="M 11.257 13.490 L 11.006 13.490 L 11.006 11.510 L 11.275 11.510 L 12.314 13.065 L 12.314 11.510 L 12.566 11.510 L 12.566 13.490 L 12.297 13.490 L 11.257 11.934 L 11.257 13.490 Z"/>
      </g>
      <g transform="scale(0.7, 1)">
        <path class="letter" d="M 14.747 13.490 L 14.485 13.490 L 14.485 11.510 L 15.363 11.510 Q 15.627 11.510, 15.765 11.563 Q 15.903 11.617, 15.985 11.752 Q 16.068 11.887, 16.068 12.050 L 16.068 12.050 Q 16.068 12.261, 15.931 12.405 Q 15.795 12.550, 15.510 12.589 L 15.510 12.589 Q 15.614 12.639, 15.668 12.688 L 15.668 12.688 Q 15.783 12.793, 15.885 12.951 L 15.885 12.951 L 16.230 13.490 L 15.900 13.490 L 15.638 13.078 Q 15.523 12.900, 15.449 12.805 Q 15.375 12.711, 15.316 12.673 Q 15.257 12.635, 15.196 12.620 L 15.196 12.620 Q 15.152 12.611, 15.051 12.611 L 15.051 12.611 L 14.747 12.611 L 14.747 13.490 Z M 14.747 11.729 L 14.747 12.384 L 15.310 12.384 Q 15.490 12.384, 15.591 12.347 Q 15.692 12.310, 15.745 12.228 Q 15.797 12.146, 15.797 12.050 L 15.797 12.050 Q 15.797 11.910, 15.695 11.819 Q 15.594 11.729, 15.373 11.729 L 15.373 11.729 L 14.747 11.729 Z"/>
      </g>
      <g transform="scale(0.7, 1)">
        <path class="letter" d="M 19.058 13.490 L 18.796 13.490 L 18.796 11.744 L 18.144 11.744 L 18.144 11.510 L 19.713 11.510 L 19.713 11.744 L 19.058 11.744 L 19.058 13.490 Z"/>
      </g>
      <g transform="scale(0.7, 1)">
        <path class="letter" d="M 22.630 13.490 L 22.368 13.490 L 22.368 11.744 L 21.715 11.744 L 21.715 11.510 L 23.285 11.510 L 23.285 11.744 L 22.630 11.744 L 22.630 13.490 Z"/>
      </g>
      <g transform="scale(0.63, 1)">
        <path class="letter" d="M 28.488 13.490 L 28.221 13.490 L 27.695 11.510 L 27.964 11.510 L 28.265 12.808 Q 28.314 13.012, 28.349 13.213 L 28.349 13.213 Q 28.425 12.896, 28.438 12.847 L 28.438 12.847 L 28.815 11.510 L 29.131 11.510 L 29.415 12.512 Q 29.521 12.885, 29.569 13.213 L 29.569 13.213 Q 29.606 13.025, 29.667 12.782 L 29.667 12.782 L 29.978 11.510 L 30.241 11.510 L 29.698 13.490 L 29.446 13.490 L 29.028 11.981 Q 28.976 11.792, 28.966 11.749 L 28.966 11.749 Q 28.935 11.885, 28.908 11.981 L 28.908 11.981 L 28.488 13.490 Z"/>
      </g>
      <g transform="scale(0.7, 1)">
        <path class="letter" d="M 30.382 13.490 L 28.904 13.490 L 28.904 11.510 L 30.336 11.510 L 30.336 11.744 L 29.166 11.744 L 29.166 12.350 L 30.261 12.350 L 30.261 12.582 L 29.166 12.582 L 29.166 13.256 L 30.382 13.256 L 30.382 13.490 Z"/>
      </g>
      <g transform="scale(0.7, 1)">
        <path class="letter" d="M 32.686 13.490 L 32.434 13.490 L 32.434 11.510 L 32.703 11.510 L 33.743 13.065 L 33.743 11.510 L 33.994 11.510 L 33.994 13.490 L 33.725 13.490 L 32.686 11.934 L 32.686 13.490 Z"/>
      </g>
      <g transform="scale(0.7, 1)">
        <path class="letter" d="M 36.915 13.490 L 36.653 13.490 L 36.653 11.744 L 36.001 11.744 L 36.001 11.510 L 37.570 11.510 L 37.570 11.744 L 36.915 11.744 L 36.915 13.490 Z"/>
      </g>
      <g transform="scale(0.7, 1)">
        <path class="letter" d="M 40.475 13.490 L 40.213 13.490 L 40.213 12.651 L 39.450 11.510 L 39.768 11.510 L 40.159 12.107 Q 40.267 12.274, 40.360 12.442 L 40.360 12.442 Q 40.449 12.287, 40.576 12.092 L 40.576 12.092 L 40.960 11.510 L 41.265 11.510 L 40.475 12.651 L 40.475 13.490 Z"/>
      </g>
      <g transform="scale(0.7, 1)">
        <path class="letter" d="M 43.825 13.490 L 43.110 13.490 L 43.110 11.510 L 43.792 11.510 Q 44.023 11.510, 44.145 11.538 L 44.145 11.538 Q 44.315 11.578, 44.435 11.680 L 44.435 11.680 Q 44.592 11.813, 44.669 12.019 Q 44.747 12.224, 44.747 12.489 L 44.747 12.489 Q 44.747 12.715, 44.694 12.889 Q 44.642 13.063, 44.559 13.177 Q 44.477 13.291, 44.379 13.357 Q 44.281 13.422, 44.143 13.456 Q 44.004 13.490, 43.825 13.490 L 43.825 13.490 Z M 43.372 11.744 L 43.372 13.256 L 43.795 13.256 Q 43.991 13.256, 44.102 13.220 Q 44.214 13.183, 44.280 13.117 L 44.280 13.117 Q 44.373 13.024, 44.425 12.867 Q 44.477 12.709, 44.477 12.485 L 44.477 12.485 Q 44.477 12.175, 44.375 12.008 Q 44.273 11.841, 44.127 11.784 L 44.127 11.784 Q 44.022 11.744, 43.788 11.744 L 43.788 11.744 L 43.372 11.744 Z"/>
      </g>
      <g transform="scale(0.7, 1)">
        <path class="letter" d="M 4.032 16.490 L 3.770 16.490 L 3.770 14.510 L 4.648 14.510 Q 4.913 14.510, 5.051 14.563 Q 5.189 14.617, 5.271 14.752 Q 5.353 14.887, 5.353 15.050 L 5.353 15.050 Q 5.353 15.261, 5.217 15.405 Q 5.080 15.550, 4.795 15.589 L 4.795 15.589 Q 4.899 15.639, 4.953 15.688 L 4.953 15.688 Q 5.068 15.793, 5.171 15.951 L 5.171 15.951 L 5.515 16.490 L 5.186 16.490 L 4.924 16.078 Q 4.809 15.900, 4.735 15.805 Q 4.660 15.711, 4.602 15.673 Q 4.543 15.635, 4.482 15.620 L 4.482 15.620 Q 4.438 15.611, 4.336 15.611 L 4.336 15.611 L 4.032 15.611 L 4.032 16.490 Z M 4.032 14.729 L 4.032 15.384 L 4.596 15.384 Q 4.775 15.384, 4.877 15.347 Q 4.978 15.310, 5.030 15.228 Q 5.083 15.146, 5.083 15.050 L 5.083 15.050 Q 5.083 14.910, 4.981 14.819 Q 4.879 14.729, 4.659 14.729 L 4.659 14.729 L 4.032 14.729 Z"/>
      </g>
      <g transform="scale(0.7, 1)">
        <path class="letter" d="M 8.953 16.490 L 7.475 16.490 L 7.475 14.510 L 8.907 14.510 L 8.907 14.744 L 7.738 14.744 L 7.738 15.350 L 8.833 15.350 L 8.833 15.582 L 7.738 15.582 L 7.738 16.256 L 8.953 16.256 L 8.953 16.490 Z"/>
      </g>
      <g transform="scale(0.7, 1)">
        <path class="letter" d="M 11.915 16.490 L 11.653 16.490 L 11.653 14.744 L 11.001 14.744 L 11.001 14.510 L 12.570 14.510 L 12.570 14.744 L 11.915 14.744 L 11.915 16.490 Z"/>
      </g>
      <g transform="scale(0.7, 1)">
        <path class="letter" d="M 15.487 16.490 L 15.225 16.490 L 15.225 14.744 L 14.572 14.744 L 14.572 14.510 L 16.142 14.510 L 16.142 14.744 L 15.487 14.744 L 15.487 16.490 Z"/>
      </g>
      <g transform="scale(0.7, 1)">
        <path class="letter" d="M 19.046 16.490 L 18.784 16.490 L 18.784 15.651 L 18.021 14.510 L 18.340 14.510 L 18.730 15.107 Q 18.838 15.274, 18.931 15.442 L 18.931 15.442 Q 19.020 15.287, 19.147 15.092 L 19.147 15.092 L 19.531 14.510 L 19.836 14.510 L 19.046 15.651 L 19.046 16.490 Z"/>
      </g>
      <g transform="scale(0.7, 1)">
        <path class="letter" d="M 22.618 16.490 L 22.355 16.490 L 22.355 15.651 L 21.592 14.510 L 21.911 14.510 L 22.301 15.107 Q 22.410 15.274, 22.503 15.442 L 22.503 15.442 Q 22.592 15.287, 22.719 15.092 L 22.719 15.092 L 23.102 14.510 L 23.408 14.510 L 22.618 15.651 L 22.618 16.490 Z"/>
      </g>
      <g transform="scale(0.7, 1)">
        <path class="letter" d="M 25.543 16.490 L 25.291 16.490 L 25.291 14.510 L 25.560 14.510 L 26.600 16.065 L 26.600 14.510 L 26.851 14.510 L 26.851 16.490 L 26.583 16.490 L 25.543 14.934 L 25.543 16.490 Z"/>
      </g>
      <g transform="scale(0.7, 1)">
        <path class="letter" d="M 29.774 16.490 L 29.512 16.490 L 29.512 14.510 L 29.774 14.510 L 29.774 16.490 Z"/>
      </g>
      <g transform="scale(0.7, 1)">
        <path class="letter" d="M 32.686 16.490 L 32.434 16.490 L 32.434 14.510 L 32.703 14.510 L 33.743 16.065 L 33.743 14.510 L 33.994 14.510 L 33.994 16.490 L 33.725 16.490 L 32.686 14.934 L 32.686 16.490 Z"/>
      </g>
      <g transform="scale(0.7, 1)">
        <path class="letter" d="M 37.525 16.490 L 36.047 16.490 L 36.047 14.510 L 37.479 14.510 L 37.479 14.744 L 36.309 14.744 L 36.309 15.350 L 37.404 15.350 L 37.404 15.582 L 36.309 15.582 L 36.309 16.256 L 37.525 16.256 L 37.525 16.490 Z"/>
      </g>
      <g transform="scale(0.7, 1)">
        <path class="letter" d="M 39.709 16.490 L 39.431 16.490 L 40.191 14.510 L 40.473 14.510 L 41.284 16.490 L 40.985 16.490 L 40.754 15.890 L 39.926 15.890 L 39.709 16.490 Z M 40.219 15.096 L 40.002 15.677 L 40.673 15.677 L 40.467 15.129 Q 40.372 14.879, 40.326 14.718 L 40.326 14.718 Q 40.288 14.908, 40.219 15.096 L 40.219 15.096 Z"/>
      </g>
      <g transform="scale(0.7, 1)">
        <path class="letter" d="M 43.414 16.490 L 43.152 16.490 L 43.152 14.510 L 43.414 14.510 L 43.414 15.323 L 44.443 15.323 L 44.443 14.510 L 44.705 14.510 L 44.705 16.490 L 44.443 16.490 L 44.443 15.557 L 43.414 15.557 L 43.414 16.490 Z"/>
      </g>
      <g transform="scale(0.7, 1)">
        <path class="letter" d="M 3.995 19.490 L 3.716 19.490 L 4.477 17.510 L 4.759 17.510 L 5.569 19.490 L 5.271 19.490 L 5.040 18.890 L 4.212 18.890 L 3.995 19.490 Z M 4.505 18.096 L 4.288 18.677 L 4.959 18.677 L 4.752 18.129 Q 4.658 17.879, 4.612 17.718 L 4.612 17.718 Q 4.574 17.908, 4.505 18.096 L 4.505 18.096 Z"/>
      </g>
      <g transform="scale(0.7, 1)">
        <path class="letter" d="M 8.953 19.490 L 7.475 19.490 L 7.475 17.510 L 8.907 17.510 L 8.907 17.744 L 7.738 17.744 L 7.738 18.350 L 8.833 18.350 L 8.833 18.582 L 7.738 18.582 L 7.738 19.256 L 8.953 19.256 L 8.953 19.490 Z"/>
      </g>
      <g transform="scale(0.7, 1)">
        <path class="letter" d="M 11.903 19.490 L 11.641 19.490 L 11.641 18.651 L 10.878 17.510 L 11.197 17.510 L 11.587 18.107 Q 11.695 18.274, 11.788 18.442 L 11.788 18.442 Q 11.878 18.287, 12.005 18.092 L 12.005 18.092 L 12.388 17.510 L 12.693 17.510 L 11.903 18.651 L 11.903 19.490 Z"/>
      </g>
      <g transform="scale(0.7, 1)">
        <path class="letter" d="M 15.475 19.490 L 15.213 19.490 L 15.213 18.651 L 14.450 17.510 L 14.768 17.510 L 15.159 18.107 Q 15.267 18.274, 15.360 18.442 L 15.360 18.442 Q 15.449 18.287, 15.576 18.092 L 15.576 18.092 L 15.960 17.510 L 16.265 17.510 L 15.475 18.651 L 15.475 19.490 Z"/>
      </g>
      <g transform="scale(0.7, 1)">
        <path class="letter" d="M 19.667 19.490 L 18.190 19.490 L 18.190 17.510 L 19.621 17.510 L 19.621 17.744 L 18.452 17.744 L 18.452 18.350 L 19.547 18.350 L 19.547 18.582 L 18.452 18.582 L 18.452 19.256 L 19.667 19.256 L 19.667 19.490 Z"/>
      </g>
      <g transform="scale(0.7, 1)">
        <path class="letter" d="M 23.119 19.490 L 21.881 19.490 L 21.881 17.510 L 22.143 17.510 L 22.143 19.256 L 23.119 19.256 L 23.119 19.490 Z"/>
      </g>
      <g transform="scale(0.7, 1)">
        <path class="letter" d="M 26.810 19.490 L 25.333 19.490 L 25.333 17.510 L 26.764 17.510 L 26.764 17.744 L 25.595 17.744 L 25.595 18.350 L 26.690 18.350 L 26.690 18.582 L 25.595 18.582 L 25.595 19.256 L 26.810 19.256 L 26.810 19.490 Z"/>
      </g>
      <g transform="scale(0.7, 1)">
        <path class="letter" d="M 29.773 19.490 L 29.504 19.490 L 28.737 17.510 L 29.021 17.510 L 29.535 18.948 Q 29.598 19.121, 29.639 19.273 L 29.639 19.273 Q 29.685 19.110, 29.746 18.948 L 29.746 18.948 L 30.281 17.510 L 30.548 17.510 L 29.773 19.490 Z"/>
      </g>
      <g transform="scale(0.7, 1)">
        <path class="letter" d="M 33.953 19.490 L 32.475 19.490 L 32.475 17.510 L 33.907 17.510 L 33.907 17.744 L 32.738 17.744 L 32.738 18.350 L 33.833 18.350 L 33.833 18.582 L 32.738 18.582 L 32.738 19.256 L 33.953 19.256 L 33.953 19.490 Z"/>
      </g>
      <g transform="scale(0.7, 1)">
        <path class="letter" d="M 36.257 19.490 L 36.006 19.490 L 36.006 17.510 L 36.275 17.510 L 37.314 19.065 L 37.314 17.510 L 37.566 17.510 L 37.566 19.490 L 37.297 19.490 L 36.257 17.934 L 36.257 19.490 Z"/>
      </g>
      <g transform="scale(0.7, 1)">
        <path class="letter" d="M 39.951 19.490 L 39.689 19.490 L 39.689 17.510 L 41.025 17.510 L 41.025 17.744 L 39.951 17.744 L 39.951 18.357 L 40.881 18.357 L 40.881 18.590 L 39.951 18.590 L 39.951 19.490 Z"/>
      </g>
      <g transform="scale(0.7, 1)">
        <path class="letter" d="M 44.437 18.633 L 44.437 17.510 L 44.694 17.510 L 44.694 18.635 Q 44.694 18.928, 44.628 19.101 Q 44.561 19.274, 44.388 19.382 Q 44.215 19.490, 43.933 19.490 L 43.933 19.490 Q 43.660 19.490, 43.486 19.396 Q 43.312 19.301, 43.237 19.123 Q 43.163 18.944, 43.163 18.635 L 43.163 18.635 L 43.163 17.510 L 43.421 17.510 L 43.421 18.633 Q 43.421 18.887, 43.468 19.007 Q 43.515 19.127, 43.630 19.193 Q 43.745 19.258, 43.911 19.258 L 43.911 19.258 Q 44.195 19.258, 44.316 19.129 Q 44.437 19.000, 44.437 18.633 L 44.437 18.633 Z"/>
      </g>
      <g transform="scale(0.7, 1)">
        <path class="letter" d="M 5.236 21.786 L 5.236 21.786 L 5.489 21.850 Q 5.410 22.162, 5.203 22.326 Q 4.995 22.490, 4.696 22.490 L 4.696 22.490 Q 4.387 22.490, 4.193 22.364 Q 3.999 22.238, 3.898 21.999 Q 3.797 21.760, 3.797 21.486 L 3.797 21.486 Q 3.797 21.187, 3.911 20.964 Q 4.025 20.741, 4.236 20.626 Q 4.447 20.510, 4.700 20.510 L 4.700 20.510 Q 4.988 20.510, 5.184 20.656 Q 5.379 20.803, 5.457 21.068 L 5.457 21.068 L 5.207 21.126 Q 5.140 20.917, 5.014 20.822 Q 4.887 20.727, 4.695 20.727 L 4.695 20.727 Q 4.474 20.727, 4.326 20.833 Q 4.178 20.938, 4.118 21.117 Q 4.058 21.295, 4.058 21.484 L 4.058 21.484 Q 4.058 21.729, 4.129 21.911 Q 4.200 22.093, 4.350 22.183 Q 4.500 22.273, 4.676 22.273 L 4.676 22.273 Q 4.888 22.273, 5.036 22.150 Q 5.184 22.028, 5.236 21.786 Z"/>
      </g>
      <g transform="scale(0.7, 1)">
        <path class="letter" d="M 7.686 22.490 L 7.434 22.490 L 7.434 20.510 L 7.703 20.510 L 8.743 22.065 L 8.743 20.510 L 8.994 20.510 L 8.994 22.490 L 8.725 22.490 L 7.686 20.934 L 7.686 22.490 Z"/>
      </g>
      <g transform="scale(0.7, 1)">
        <path class="letter" d="M 11.915 22.490 L 11.653 22.490 L 11.653 20.744 L 11.001 20.744 L 11.001 20.510 L 12.570 20.510 L 12.570 20.744 L 11.915 20.744 L 11.915 22.490 Z"/>
      </g>
      <g transform="scale(0.63, 1)">
        <path class="letter" d="M 16.583 22.490 L 16.316 22.490 L 15.791 20.510 L 16.059 20.510 L 16.360 21.808 Q 16.409 22.012, 16.444 22.213 L 16.444 22.213 Q 16.520 21.896, 16.533 21.847 L 16.533 21.847 L 16.910 20.510 L 17.226 20.510 L 17.510 21.512 Q 17.617 21.885, 17.664 22.213 L 17.664 22.213 Q 17.702 22.025, 17.762 21.782 L 17.762 21.782 L 18.073 20.510 L 18.336 20.510 L 17.793 22.490 L 17.541 22.490 L 17.124 20.981 Q 17.071 20.792, 17.061 20.749 L 17.061 20.749 Q 17.030 20.885, 17.003 20.981 L 17.003 20.981 L 16.583 22.490 Z"/>
      </g>
      <g transform="scale(0.7, 1)">
        <path class="letter" d="M 19.667 22.490 L 18.190 22.490 L 18.190 20.510 L 19.621 20.510 L 19.621 20.744 L 18.452 20.744 L 18.452 21.350 L 19.547 21.350 L 19.547 21.582 L 18.452 21.582 L 18.452 22.256 L 19.667 22.256 L 19.667 22.490 Z"/>
      </g>
      <g transform="scale(0.7, 1)">
        <path class="letter" d="M 23.119 22.490 L 21.881 22.490 L 21.881 20.510 L 22.143 20.510 L 22.143 22.256 L 23.119 22.256 L 23.119 22.490 Z"/>
      </g>
      <g transform="scale(0.7, 1)">
        <path class="letter" d="M 26.202 22.490 L 25.933 22.490 L 25.166 20.510 L 25.449 20.510 L 25.964 21.948 Q 26.026 22.121, 26.068 22.273 L 26.068 22.273 Q 26.114 22.110, 26.175 21.948 L 26.175 21.948 L 26.710 20.510 L 26.977 20.510 L 26.202 22.490 Z"/>
      </g>
      <g transform="scale(0.7, 1)">
        <path class="letter" d="M 30.382 22.490 L 28.904 22.490 L 28.904 20.510 L 30.336 20.510 L 30.336 20.744 L 29.166 20.744 L 29.166 21.350 L 30.261 21.350 L 30.261 21.582 L 29.166 21.582 L 29.166 22.256 L 30.382 22.256 L 30.382 22.490 Z"/>
      </g>
      <g transform="scale(0.7, 1)">
        <path class="letter" d="M 33.789 22.156 L 33.789 22.156 Q 33.955 22.271, 34.096 22.324 L 34.096 22.324 L 34.026 22.490 Q 33.831 22.420, 33.637 22.268 L 33.637 22.268 Q 33.436 22.380, 33.193 22.380 L 33.193 22.380 Q 32.948 22.380, 32.748 22.262 Q 32.549 22.144, 32.441 21.929 Q 32.333 21.715, 32.333 21.446 L 32.333 21.446 Q 32.333 21.178, 32.441 20.959 Q 32.550 20.739, 32.750 20.625 Q 32.950 20.510, 33.198 20.510 L 33.198 20.510 Q 33.449 20.510, 33.649 20.629 Q 33.850 20.748, 33.956 20.962 Q 34.061 21.176, 34.061 21.445 L 34.061 21.445 Q 34.061 21.668, 33.993 21.846 Q 33.926 22.024, 33.789 22.156 Z M 33.204 22.024 L 33.262 21.850 Q 33.469 21.908, 33.604 22.023 L 33.604 22.023 Q 33.815 21.830, 33.815 21.445 L 33.815 21.445 Q 33.815 21.225, 33.740 21.061 Q 33.666 20.897, 33.522 20.807 Q 33.378 20.716, 33.199 20.716 L 33.199 20.716 Q 32.932 20.716, 32.756 20.899 Q 32.579 21.082, 32.579 21.446 L 32.579 21.446 Q 32.579 21.798, 32.754 21.987 Q 32.928 22.176, 33.199 22.176 L 33.199 22.176 Q 33.328 22.176, 33.441 22.128 L 33.441 22.128 Q 33.329 22.055, 33.204 22.024 L 33.204 22.024 Z"/>
      </g>
      <g transform="scale(0.7, 1)">
        <path class="letter" d="M 37.568 22.490 L 36.003 22.490 L 36.003 22.247 L 37.017 20.979 Q 37.125 20.844, 37.223 20.744 L 37.223 20.744 L 36.118 20.744 L 36.118 20.510 L 37.536 20.510 L 37.536 20.744 L 36.424 22.117 L 36.304 22.256 L 37.568 22.256 L 37.568 22.490 Z"/>
      </g>
      <g transform="scale(0.7, 1)">
        <path class="letter" d="M 40.488 22.490 L 40.226 22.490 L 40.226 20.510 L 40.488 20.510 L 40.488 22.490 Z"/>
      </g>
      <g transform="scale(0.7, 1)">
        <path class="letter" d="M 43.400 22.490 L 43.149 22.490 L 43.149 20.510 L 43.417 20.510 L 44.457 22.065 L 44.457 20.510 L 44.709 20.510 L 44.709 22.490 L 44.440 22.490 L 43.400 20.934 L 43.400 22.490 Z"/>
      </g>
      <g transform="scale(0.7, 1)">
        <path class="letter" d="M 5.382 25.490 L 3.904 25.490 L 3.904 23.510 L 5.336 23.510 L 5.336 23.744 L 4.166 23.744 L 4.166 24.350 L 5.261 24.350 L 5.261 24.582 L 4.166 24.582 L 4.166 25.256 L 5.382 25.256 L 5.382 25.490 Z"/>
      </g>
      <g transform="scale(0.7, 1)">
        <path class="letter" d="M 8.344 25.490 L 8.082 25.490 L 8.082 23.744 L 7.430 23.744 L 7.430 23.510 L 8.999 23.510 L 8.999 23.744 L 8.344 23.744 L 8.344 25.490 Z"/>
      </g>
      <g transform="scale(0.7, 1)">
        <path class="letter" d="M 11.271 25.490 L 11.009 25.490 L 11.009 23.510 L 11.271 23.510 L 11.271 24.323 L 12.300 24.323 L 12.300 23.510 L 12.562 23.510 L 12.562 25.490 L 12.300 25.490 L 12.300 24.557 L 11.271 24.557 L 11.271 25.490 Z"/>
      </g>
      <g transform="scale(0.7, 1)">
        <path class="letter" d="M 14.747 25.490 L 14.485 25.490 L 14.485 23.510 L 15.363 23.510 Q 15.627 23.510, 15.765 23.563 Q 15.903 23.617, 15.985 23.752 Q 16.068 23.887, 16.068 24.050 L 16.068 24.050 Q 16.068 24.261, 15.931 24.405 Q 15.795 24.550, 15.510 24.589 L 15.510 24.589 Q 15.614 24.639, 15.668 24.688 L 15.668 24.688 Q 15.783 24.793, 15.885 24.951 L 15.885 24.951 L 16.230 25.490 L 15.900 25.490 L 15.638 25.078 Q 15.523 24.900, 15.449 24.805 Q 15.375 24.711, 15.316 24.673 Q 15.257 24.635, 15.196 24.620 L 15.196 24.620 Q 15.152 24.611, 15.051 24.611 L 15.051 24.611 L 14.747 24.611 L 14.747 25.490 Z M 14.747 23.729 L 14.747 24.384 L 15.310 24.384 Q 15.490 24.384, 15.591 24.347 Q 15.692 24.310, 15.745 24.228 Q 15.797 24.146, 15.797 24.050 L 15.797 24.050 Q 15.797 23.910, 15.695 23.819 Q 15.594 23.729, 15.373 23.729 L 15.373 23.729 L 14.747 23.729 Z"/>
      </g>
      <g transform="scale(0.7, 1)">
        <path class="letter" d="M 19.667 25.490 L 18.190 25.490 L 18.190 23.510 L 19.621 23.510 L 19.621 23.744 L 18.452 23.744 L 18.452 24.350 L 19.547 24.350 L 19.547 24.582 L 18.452 24.582 L 18.452 25.256 L 19.667 25.256 L 19.667 25.490 Z"/>
      </g>
      <g transform="scale(0.7, 1)">
        <path class="letter" d="M 23.239 25.490 L 21.761 25.490 L 21.761 23.510 L 23.193 23.510 L 23.193 23.744 L 22.023 23.744 L 22.023 24.350 L 23.119 24.350 L 23.119 24.582 L 22.023 24.582 L 22.023 25.256 L 23.239 25.256 L 23.239 25.490 Z"/>
      </g>
      <g transform="scale(0.7, 1)">
        <path class="letter" d="M 26.189 25.490 L 25.927 25.490 L 25.927 24.651 L 25.164 23.510 L 25.483 23.510 L 25.873 24.107 Q 25.981 24.274, 26.074 24.442 L 26.074 24.442 Q 26.163 24.287, 26.290 24.092 L 26.290 24.092 L 26.674 23.510 L 26.979 23.510 L 26.189 24.651 L 26.189 25.490 Z"/>
      </g>
      <g transform="scale(0.7, 1)">
        <path class="letter" d="M 29.237 25.490 L 28.975 25.490 L 28.975 23.510 L 30.311 23.510 L 30.311 23.744 L 29.237 23.744 L 29.237 24.357 L 30.166 24.357 L 30.166 24.590 L 29.237 24.590 L 29.237 25.490 Z"/>
      </g>
      <g transform="scale(0.7, 1)">
        <path class="letter" d="M 33.345 25.490 L 33.083 25.490 L 33.083 23.510 L 33.345 23.510 L 33.345 25.490 Z"/>
      </g>
      <g transform="scale(0.7, 1)">
        <path class="letter" d="M 36.380 25.490 L 36.118 25.490 L 36.118 23.510 L 37.454 23.510 L 37.454 23.744 L 36.380 23.744 L 36.380 24.357 L 37.309 24.357 L 37.309 24.590 L 36.380 24.590 L 36.380 25.490 Z"/>
      </g>
      <g transform="scale(0.7, 1)">
        <path class="letter" d="M 40.487 25.490 L 40.219 25.490 L 39.452 23.510 L 39.735 23.510 L 40.250 24.948 Q 40.312 25.121, 40.354 25.273 L 40.354 25.273 Q 40.400 25.110, 40.460 24.948 L 40.460 24.948 L 40.995 23.510 L 41.263 23.510 L 40.487 25.490 Z"/>
      </g>
      <g transform="scale(0.7, 1)">
        <path class="letter" d="M 43.825 25.490 L 43.110 25.490 L 43.110 23.510 L 43.792 23.510 Q 44.023 23.510, 44.145 23.538 L 44.145 23.538 Q 44.315 23.578, 44.435 23.680 L 44.435 23.680 Q 44.592 23.813, 44.669 24.019 Q 44.747 24.224, 44.747 24.489 L 44.747 24.489 Q 44.747 24.715, 44.694 24.889 Q 44.642 25.063, 44.559 25.177 Q 44.477 25.291, 44.379 25.357 Q 44.281 25.422, 44.143 25.456 Q 44.004 25.490, 43.825 25.490 L 43.825 25.490 Z M 43.372 23.744 L 43.372 25.256 L 43.795 25.256 Q 43.991 25.256, 44.102 25.220 Q 44.214 25.183, 44.280 25.117 L 44.280 25.117 Q 44.373 25.024, 44.425 24.867 Q 44.477 24.709, 44.477 24.485 L 44.477 24.485 Q 44.477 24.175, 44.375 24.008 Q 44.273 23.841, 44.127 23.784 L 44.127 23.784 Q 44.022 23.744, 43.788 23.744 L 43.788 23.744 L 43.372 23.744 Z"/>
      </g>
      <g transform="scale(0.7, 1)">
        <path class="letter" d="M 5.382 28.490 L 3.904 28.490 L 3.904 26.510 L 5.336 26.510 L 5.336 26.744 L 4.166 26.744 L 4.166 27.350 L 5.261 27.350 L 5.261 27.582 L 4.166 27.582 L 4.166 28.256 L 5.382 28.256 L 5.382 28.490 Z"/>
      </g>
      <g transform="scale(0.7, 1)">
        <path class="letter" d="M 8.345 28.490 L 8.083 28.490 L 8.083 26.510 L 8.345 26.510 L 8.345 28.490 Z"/>
      </g>
      <g transform="scale(0.7, 1)">
        <path class="letter" d="M 12.423 27.706 L 11.860 27.706 L 11.860 27.482 L 12.671 27.480 L 12.671 28.191 Q 12.484 28.340, 12.286 28.415 Q 12.087 28.490, 11.878 28.490 L 11.878 28.490 Q 11.596 28.490, 11.366 28.369 Q 11.135 28.248, 11.018 28.020 Q 10.900 27.791, 10.900 27.509 L 10.900 27.509 Q 10.900 27.230, 11.017 26.987 Q 11.134 26.745, 11.353 26.628 Q 11.573 26.510, 11.859 26.510 L 11.859 26.510 Q 12.067 26.510, 12.234 26.577 Q 12.402 26.645, 12.498 26.765 Q 12.593 26.885, 12.642 27.078 L 12.642 27.078 L 12.414 27.141 Q 12.371 26.995, 12.307 26.911 Q 12.243 26.827, 12.124 26.777 Q 12.005 26.727, 11.860 26.727 L 11.860 26.727 Q 11.686 26.727, 11.560 26.780 Q 11.433 26.833, 11.355 26.919 Q 11.278 27.005, 11.235 27.108 L 11.235 27.108 Q 11.161 27.286, 11.161 27.493 L 11.161 27.493 Q 11.161 27.749, 11.250 27.922 Q 11.338 28.094, 11.506 28.178 Q 11.675 28.261, 11.864 28.261 L 11.864 28.261 Q 12.029 28.261, 12.185 28.198 Q 12.342 28.135, 12.423 28.063 L 12.423 28.063 L 12.423 27.706 Z"/>
      </g>
      <g transform="scale(0.7, 1)">
        <path class="letter" d="M 14.843 28.490 L 14.581 28.490 L 14.581 26.510 L 14.843 26.510 L 14.843 27.323 L 15.872 27.323 L 15.872 26.510 L 16.134 26.510 L 16.134 28.490 L 15.872 28.490 L 15.872 27.557 L 14.843 27.557 L 14.843 28.490 Z"/>
      </g>
      <g transform="scale(0.7, 1)">
        <path class="letter" d="M 19.058 28.490 L 18.796 28.490 L 18.796 26.744 L 18.144 26.744 L 18.144 26.510 L 19.713 26.510 L 19.713 26.744 L 19.058 26.744 L 19.058 28.490 Z"/>
      </g>
      <g transform="scale(0.63, 1)">
        <path class="letter" d="M 24.520 28.490 L 24.252 28.490 L 23.727 26.510 L 23.996 26.510 L 24.297 27.808 Q 24.346 28.012, 24.381 28.213 L 24.381 28.213 Q 24.456 27.896, 24.470 27.847 L 24.470 27.847 L 24.847 26.510 L 25.163 26.510 L 25.446 27.512 Q 25.553 27.885, 25.600 28.213 L 25.600 28.213 Q 25.638 28.025, 25.699 27.782 L 25.699 27.782 L 26.010 26.510 L 26.273 26.510 L 25.730 28.490 L 25.477 28.490 L 25.060 26.981 Q 25.007 26.792, 24.998 26.749 L 24.998 26.749 Q 24.967 26.885, 24.940 26.981 L 24.940 26.981 L 24.520 28.490 Z"/>
      </g>
      <g transform="scale(0.7, 1)">
        <path class="letter" d="M 25.156 27.525 L 25.156 27.525 Q 25.156 27.049, 25.412 26.780 Q 25.668 26.510, 26.073 26.510 L 26.073 26.510 Q 26.338 26.510, 26.550 26.637 Q 26.763 26.763, 26.875 26.990 Q 26.986 27.216, 26.986 27.503 L 26.986 27.503 Q 26.986 27.794, 26.869 28.024 Q 26.751 28.254, 26.536 28.372 Q 26.321 28.490, 26.071 28.490 L 26.071 28.490 Q 25.801 28.490, 25.589 28.359 Q 25.376 28.229, 25.266 28.003 Q 25.156 27.777, 25.156 27.525 Z M 25.418 27.529 L 25.418 27.529 Q 25.418 27.875, 25.604 28.074 Q 25.790 28.273, 26.070 28.273 L 26.070 28.273 Q 26.356 28.273, 26.541 28.072 Q 26.725 27.871, 26.725 27.502 L 26.725 27.502 Q 26.725 27.268, 26.646 27.094 Q 26.567 26.920, 26.415 26.824 Q 26.263 26.728, 26.074 26.728 L 26.074 26.728 Q 25.805 26.728, 25.611 26.913 Q 25.418 27.097, 25.418 27.529 Z"/>
      </g>
      <g transform="scale(0.7, 1)">
        <path class="letter" d="M 28.881 27.842 L 28.881 27.842 L 29.120 27.821 Q 29.137 27.965, 29.199 28.057 Q 29.261 28.149, 29.391 28.206 Q 29.522 28.263, 29.685 28.263 L 29.685 28.263 Q 29.830 28.263, 29.941 28.220 Q 30.052 28.177, 30.107 28.101 Q 30.161 28.026, 30.161 27.938 L 30.161 27.938 Q 30.161 27.847, 30.108 27.780 Q 30.056 27.713, 29.936 27.667 L 29.936 27.667 Q 29.859 27.637, 29.595 27.574 Q 29.331 27.510, 29.226 27.454 L 29.226 27.454 Q 29.088 27.382, 29.021 27.276 Q 28.954 27.170, 28.954 27.038 L 28.954 27.038 Q 28.954 26.893, 29.036 26.767 Q 29.118 26.641, 29.277 26.575 Q 29.435 26.510, 29.628 26.510 L 29.628 26.510 Q 29.841 26.510, 30.003 26.579 Q 30.166 26.647, 30.253 26.780 Q 30.341 26.914, 30.347 27.082 L 30.347 27.082 L 30.105 27.100 Q 30.085 26.919, 29.972 26.826 Q 29.859 26.733, 29.638 26.733 L 29.638 26.733 Q 29.408 26.733, 29.303 26.818 Q 29.198 26.902, 29.198 27.021 L 29.198 27.021 Q 29.198 27.124, 29.273 27.190 L 29.273 27.190 Q 29.346 27.257, 29.655 27.327 Q 29.963 27.397, 30.078 27.449 L 30.078 27.449 Q 30.246 27.526, 30.325 27.644 Q 30.405 27.763, 30.405 27.917 L 30.405 27.917 Q 30.405 28.069, 30.317 28.205 Q 30.230 28.340, 30.066 28.415 Q 29.902 28.490, 29.697 28.490 L 29.697 28.490 Q 29.437 28.490, 29.261 28.414 Q 29.086 28.338, 28.986 28.186 Q 28.886 28.034, 28.881 27.842 Z"/>
      </g>
      <g transform="scale(0.7, 1)">
        <path class="letter" d="M 33.345 28.490 L 33.083 28.490 L 33.083 26.510 L 33.345 26.510 L 33.345 28.490 Z"/>
      </g>
      <g transform="scale(0.7, 1)">
        <path class="letter" d="M 36.193 28.490 L 35.878 28.490 L 36.644 27.458 L 35.969 26.510 L 36.281 26.510 L 36.640 27.018 Q 36.752 27.176, 36.799 27.261 L 36.799 27.261 Q 36.865 27.153, 36.956 27.035 L 36.956 27.035 L 37.354 26.510 L 37.639 26.510 L 36.944 27.443 L 37.693 28.490 L 37.369 28.490 L 36.871 27.784 Q 36.829 27.723, 36.784 27.651 L 36.784 27.651 Q 36.718 27.759, 36.690 27.800 L 36.690 27.800 L 36.193 28.490 Z"/>
      </g>
      <g transform="scale(0.7, 1)">
        <path class="letter" d="M 41.096 28.490 L 39.618 28.490 L 39.618 26.510 L 41.050 26.510 L 41.050 26.744 L 39.880 26.744 L 39.880 27.350 L 40.976 27.350 L 40.976 27.582 L 39.880 27.582 L 39.880 28.256 L 41.096 28.256 L 41.096 28.490 Z"/>
      </g>
      <g transform="scale(0.7, 1)">
        <path class="letter" d="M 43.318 28.490 L 43.056 28.490 L 43.056 26.510 L 43.934 26.510 Q 44.199 26.510, 44.336 26.563 Q 44.474 26.617, 44.557 26.752 Q 44.639 26.887, 44.639 27.050 L 44.639 27.050 Q 44.639 27.261, 44.503 27.405 Q 44.366 27.550, 44.081 27.589 L 44.081 27.589 Q 44.185 27.639, 44.239 27.688 L 44.239 27.688 Q 44.354 27.793, 44.457 27.951 L 44.457 27.951 L 44.801 28.490 L 44.472 28.490 L 44.209 28.078 Q 44.095 27.900, 44.020 27.805 Q 43.946 27.711, 43.887 27.673 Q 43.829 27.635, 43.768 27.620 L 43.768 27.620 Q 43.723 27.611, 43.622 27.611 L 43.622 27.611 L 43.318 27.611 L 43.318 28.490 Z M 43.318 26.729 L 43.318 27.384 L 43.881 27.384 Q 44.061 27.384, 44.162 27.347 Q 44.264 27.310, 44.316 27.228 Q 44.369 27.146, 44.369 27.050 L 44.369 27.050 Q 44.369 26.910, 44.267 26.819 Q 44.165 26.729, 43.945 26.729 L 43.945 26.729 L 43.318 26.729 Z"/>
      </g>
      <g transform="scale(0.7, 1)">
        <path class="letter" d="M 3.728 30.525 L 3.728 30.525 Q 3.728 30.049, 3.984 29.780 Q 4.240 29.510, 4.644 29.510 L 4.644 29.510 Q 4.909 29.510, 5.122 29.637 Q 5.335 29.763, 5.446 29.990 Q 5.558 30.216, 5.558 30.503 L 5.558 30.503 Q 5.558 30.794, 5.440 31.024 Q 5.323 31.254, 5.108 31.372 Q 4.892 31.490, 4.643 31.490 L 4.643 31.490 Q 4.373 31.490, 4.160 31.359 Q 3.947 31.229, 3.838 31.003 Q 3.728 30.777, 3.728 30.525 Z M 3.989 30.529 L 3.989 30.529 Q 3.989 30.875, 4.175 31.074 Q 4.361 31.273, 4.642 31.273 L 4.642 31.273 Q 4.927 31.273, 5.112 31.072 Q 5.297 30.871, 5.297 30.502 L 5.297 30.502 Q 5.297 30.268, 5.218 30.094 Q 5.139 29.920, 4.987 29.824 Q 4.835 29.728, 4.645 29.728 L 4.645 29.728 Q 4.377 29.728, 4.183 29.913 Q 3.989 30.097, 3.989 30.529 Z"/>
      </g>
      <g transform="scale(0.7, 1)">
        <path class="letter" d="M 7.686 31.490 L 7.434 31.490 L 7.434 29.510 L 7.703 29.510 L 8.743 31.065 L 8.743 29.510 L 8.994 29.510 L 8.994 31.490 L 8.725 31.490 L 7.686 29.934 L 7.686 31.490 Z"/>
      </g>
      <g transform="scale(0.7, 1)">
        <path class="letter" d="M 12.525 31.490 L 11.047 31.490 L 11.047 29.510 L 12.479 29.510 L 12.479 29.744 L 11.309 29.744 L 11.309 30.350 L 12.404 30.350 L 12.404 30.582 L 11.309 30.582 L 11.309 31.256 L 12.525 31.256 L 12.525 31.490 Z"/>
      </g>
      <g transform="scale(0.7, 1)">
        <path class="letter" d="M 15.487 31.490 L 15.225 31.490 L 15.225 29.744 L 14.572 29.744 L 14.572 29.510 L 16.142 29.510 L 16.142 29.744 L 15.487 29.744 L 15.487 31.490 Z"/>
      </g>
      <g transform="scale(0.7, 1)">
        <path class="letter" d="M 19.667 31.490 L 18.190 31.490 L 18.190 29.510 L 19.621 29.510 L 19.621 29.744 L 18.452 29.744 L 18.452 30.350 L 19.547 30.350 L 19.547 30.582 L 18.452 30.582 L 18.452 31.256 L 19.667 31.256 L 19.667 31.490 Z"/>
      </g>
      <g transform="scale(0.7, 1)">
        <path class="letter" d="M 21.971 31.490 L 21.720 31.490 L 21.720 29.510 L 21.989 29.510 L 23.029 31.065 L 23.029 29.510 L 23.280 29.510 L 23.280 31.490 L 23.011 31.490 L 21.971 29.934 L 21.971 31.490 Z"/>
      </g>
      <g transform="scale(0.7, 1)">
        <path class="letter" d="M 25.666 31.490 L 25.404 31.490 L 25.404 29.510 L 26.739 29.510 L 26.739 29.744 L 25.666 29.744 L 25.666 30.357 L 26.595 30.357 L 26.595 30.590 L 25.666 30.590 L 25.666 31.490 Z"/>
      </g>
      <g transform="scale(0.7, 1)">
        <path class="letter" d="M 29.774 31.490 L 29.512 31.490 L 29.512 29.510 L 29.774 29.510 L 29.774 31.490 Z"/>
      </g>
      <g transform="scale(0.7, 1)">
        <path class="letter" d="M 33.345 31.490 L 33.076 31.490 L 32.309 29.510 L 32.592 29.510 L 33.107 30.948 Q 33.169 31.121, 33.211 31.273 L 33.211 31.273 Q 33.257 31.110, 33.318 30.948 L 33.318 30.948 L 33.852 29.510 L 34.120 29.510 L 33.345 31.490 Z"/>
      </g>
      <g transform="scale(0.7, 1)">
        <path class="letter" d="M 37.525 31.490 L 36.047 31.490 L 36.047 29.510 L 37.479 29.510 L 37.479 29.744 L 36.309 29.744 L 36.309 30.350 L 37.404 30.350 L 37.404 30.582 L 36.309 30.582 L 36.309 31.256 L 37.525 31.256 L 37.525 31.490 Z"/>
      </g>
      <g transform="scale(0.7, 1)">
        <path class="letter" d="M 39.595 30.842 L 39.595 30.842 L 39.834 30.821 Q 39.851 30.965, 39.913 31.057 Q 39.975 31.149, 40.106 31.206 Q 40.236 31.263, 40.400 31.263 L 40.400 31.263 Q 40.545 31.263, 40.656 31.220 Q 40.767 31.177, 40.821 31.101 Q 40.875 31.026, 40.875 30.938 L 40.875 30.938 Q 40.875 30.847, 40.823 30.780 Q 40.771 30.713, 40.650 30.667 L 40.650 30.667 Q 40.573 30.637, 40.309 30.574 Q 40.046 30.510, 39.940 30.454 L 39.940 30.454 Q 39.803 30.382, 39.735 30.276 Q 39.668 30.170, 39.668 30.038 L 39.668 30.038 Q 39.668 29.893, 39.750 29.767 Q 39.833 29.641, 39.991 29.575 Q 40.149 29.510, 40.342 29.510 L 40.342 29.510 Q 40.555 29.510, 40.718 29.579 Q 40.880 29.647, 40.968 29.780 Q 41.055 29.914, 41.062 30.082 L 41.062 30.082 L 40.819 30.100 Q 40.799 29.919, 40.686 29.826 Q 40.573 29.733, 40.353 29.733 L 40.353 29.733 Q 40.123 29.733, 40.018 29.818 Q 39.912 29.902, 39.912 30.021 L 39.912 30.021 Q 39.912 30.124, 39.987 30.190 L 39.987 30.190 Q 40.060 30.257, 40.369 30.327 Q 40.678 30.397, 40.793 30.449 L 40.793 30.449 Q 40.960 30.526, 41.040 30.644 Q 41.119 30.763, 41.119 30.917 L 41.119 30.917 Q 41.119 31.069, 41.032 31.205 Q 40.944 31.340, 40.780 31.415 Q 40.616 31.490, 40.411 31.490 L 40.411 31.490 Q 40.151 31.490, 39.976 31.414 Q 39.800 31.338, 39.700 31.186 Q 39.600 31.034, 39.595 30.842 Z"/>
      </g>
      <g transform="scale(0.7, 1)">
        <path class="letter" d="M 44.667 31.490 L 43.190 31.490 L 43.190 29.510 L 44.621 29.510 L 44.621 29.744 L 43.452 29.744 L 43.452 30.350 L 44.547 30.350 L 44.547 30.582 L 43.452 30.582 L 43.452 31.256 L 44.667 31.256 L 44.667 31.490 Z"/>
      </g>
      <g transform="scale(0.7, 1)">
        <path class="letter" d="M 4.128 34.490 L 3.866 34.490 L 3.866 32.510 L 4.128 32.510 L 4.128 33.323 L 5.157 33.323 L 5.157 32.510 L 5.419 32.510 L 5.419 34.490 L 5.157 34.490 L 5.157 33.557 L 4.128 33.557 L 4.128 34.490 Z"/>
      </g>
      <g transform="scale(0.7, 1)">
        <path class="letter" d="M 7.452 33.842 L 7.452 33.842 L 7.691 33.821 Q 7.708 33.965, 7.770 34.057 Q 7.832 34.149, 7.963 34.206 Q 8.093 34.263, 8.257 34.263 L 8.257 34.263 Q 8.402 34.263, 8.513 34.220 Q 8.624 34.177, 8.678 34.101 Q 8.732 34.026, 8.732 33.938 L 8.732 33.938 Q 8.732 33.847, 8.680 33.780 Q 8.628 33.713, 8.507 33.667 L 8.507 33.667 Q 8.430 33.637, 8.167 33.574 Q 7.903 33.510, 7.797 33.454 L 7.797 33.454 Q 7.660 33.382, 7.593 33.276 Q 7.525 33.170, 7.525 33.038 L 7.525 33.038 Q 7.525 32.893, 7.608 32.767 Q 7.690 32.641, 7.848 32.575 Q 8.006 32.510, 8.199 32.510 L 8.199 32.510 Q 8.412 32.510, 8.575 32.579 Q 8.737 32.647, 8.825 32.780 Q 8.912 32.914, 8.919 33.082 L 8.919 33.082 L 8.676 33.100 Q 8.656 32.919, 8.543 32.826 Q 8.430 32.733, 8.210 32.733 L 8.210 32.733 Q 7.980 32.733, 7.875 32.818 Q 7.770 32.902, 7.770 33.021 L 7.770 33.021 Q 7.770 33.124, 7.844 33.190 L 7.844 33.190 Q 7.917 33.257, 8.226 33.327 Q 8.535 33.397, 8.650 33.449 L 8.650 33.449 Q 8.817 33.526, 8.897 33.644 Q 8.976 33.763, 8.976 33.917 L 8.976 33.917 Q 8.976 34.069, 8.889 34.205 Q 8.801 34.340, 8.637 34.415 Q 8.474 34.490, 8.268 34.490 L 8.268 34.490 Q 8.009 34.490, 7.833 34.414 Q 7.657 34.338, 7.557 34.186 Q 7.457 34.034, 7.452 33.842 Z"/>
      </g>
      <g transform="scale(0.7, 1)">
        <path class="letter" d="M 12.525 34.490 L 11.047 34.490 L 11.047 32.510 L 12.479 32.510 L 12.479 32.744 L 11.309 32.744 L 11.309 33.350 L 12.404 33.350 L 12.404 33.582 L 11.309 33.582 L 11.309 34.256 L 12.525 34.256 L 12.525 34.490 Z"/>
      </g>
      <g transform="scale(0.7, 1)">
        <path class="letter" d="M 15.487 34.490 L 15.219 34.490 L 14.452 32.510 L 14.735 32.510 L 15.250 33.948 Q 15.312 34.121, 15.354 34.273 L 15.354 34.273 Q 15.400 34.110, 15.460 33.948 L 15.460 33.948 L 15.995 32.510 L 16.263 32.510 L 15.487 34.490 Z"/>
      </g>
      <g transform="scale(0.7, 1)">
        <path class="letter" d="M 19.667 34.490 L 18.190 34.490 L 18.190 32.510 L 19.621 32.510 L 19.621 32.744 L 18.452 32.744 L 18.452 33.350 L 19.547 33.350 L 19.547 33.582 L 18.452 33.582 L 18.452 34.256 L 19.667 34.256 L 19.667 34.490 Z"/>
      </g>
      <g transform="scale(0.7, 1)">
        <path class="letter" d="M 21.971 34.490 L 21.720 34.490 L 21.720 32.510 L 21.989 32.510 L 23.029 34.065 L 23.029 32.510 L 23.280 32.510 L 23.280 34.490 L 23.011 34.490 L 21.971 32.934 L 21.971 34.490 Z"/>
      </g>
      <g transform="scale(0.7, 1)">
        <path class="letter" d="M 26.201 34.490 L 25.939 34.490 L 25.939 32.744 L 25.287 32.744 L 25.287 32.510 L 26.856 32.510 L 26.856 32.744 L 26.201 32.744 L 26.201 34.490 Z"/>
      </g>
      <g transform="scale(0.7, 1)">
        <path class="letter" d="M 30.382 34.490 L 28.904 34.490 L 28.904 32.510 L 30.336 32.510 L 30.336 32.744 L 29.166 32.744 L 29.166 33.350 L 30.261 33.350 L 30.261 33.582 L 29.166 33.582 L 29.166 34.256 L 30.382 34.256 L 30.382 34.490 Z"/>
      </g>
      <g transform="scale(0.7, 1)">
        <path class="letter" d="M 33.953 34.490 L 32.475 34.490 L 32.475 32.510 L 33.907 32.510 L 33.907 32.744 L 32.738 32.744 L 32.738 33.350 L 33.833 33.350 L 33.833 33.582 L 32.738 33.582 L 32.738 34.256 L 33.953 34.256 L 33.953 34.490 Z"/>
      </g>
      <g transform="scale(0.7, 1)">
        <path class="letter" d="M 36.257 34.490 L 36.006 34.490 L 36.006 32.510 L 36.275 32.510 L 37.314 34.065 L 37.314 32.510 L 37.566 32.510 L 37.566 34.490 L 37.297 34.490 L 36.257 32.934 L 36.257 34.490 Z"/>
      </g>
      <g transform="scale(0.7, 1)">
        <path class="letter" d="M 41.096 34.490 L 39.618 34.490 L 39.618 32.510 L 41.050 32.510 L 41.050 32.744 L 39.880 32.744 L 39.880 33.350 L 40.976 33.350 L 40.976 33.582 L 39.880 33.582 L 39.880 34.256 L 41.096 34.256 L 41.096 34.490 Z"/>
      </g>
      <g transform="scale(0.7, 1)">
        <path class="letter" d="M 43.825 34.490 L 43.110 34.490 L 43.110 32.510 L 43.792 32.510 Q 44.023 32.510, 44.145 32.538 L 44.145 32.538 Q 44.315 32.578, 44.435 32.680 L 44.435 32.680 Q 44.592 32.813, 44.669 33.019 Q 44.747 33.224, 44.747 33.489 L 44.747 33.489 Q 44.747 33.715, 44.694 33.889 Q 44.642 34.063, 44.559 34.177 Q 44.477 34.291, 44.379 34.357 Q 44.281 34.422, 44.143 34.456 Q 44.004 34.490, 43.825 34.490 L 43.825 34.490 Z M 43.372 32.744 L 43.372 34.256 L 43.795 34.256 Q 43.991 34.256, 44.102 34.220 Q 44.214 34.183, 44.280 34.117 L 44.280 34.117 Q 44.373 34.024, 44.425 33.867 Q 44.477 33.709, 44.477 33.485 L 44.477 33.485 Q 44.477 33.175, 44.375 33.008 Q 44.273 32.841, 44.127 32.784 L 44.127 32.784 Q 44.022 32.744, 43.788 32.744 L 43.788 32.744 L 43.372 32.744 Z"/>
      </g>
    </g>
  </g>
</svg>
