<?xml version="1.0" encoding="UTF-8" standalone="no"?>
<!-- Created with Inkscape (http://www.inkscape.org/) -->

<svg
   width="210mm"
   height="297mm"
   viewBox="0 0 210 297"
   version="1.1"
   id="svg885"
   xml:space="preserve"
   sodipodi:docname="20250411 Wordy Watch Legends.svg"
   inkscape:version="1.2.2 (732a01da63, 2022-12-09)"
   xmlns:inkscape="http://www.inkscape.org/namespaces/inkscape"
   xmlns:sodipodi="http://sodipodi.sourceforge.net/DTD/sodipodi-0.dtd"
   xmlns="http://www.w3.org/2000/svg"
   xmlns:svg="http://www.w3.org/2000/svg"><sodipodi:namedview
     id="namedview887"
     pagecolor="#8e8e8e"
     bordercolor="#000000"
     borderopacity="0.2627451"
     inkscape:showpageshadow="2"
     inkscape:pageopacity="0"
     inkscape:pagecheckerboard="0"
     inkscape:deskcolor="#d1d1d1"
     inkscape:document-units="mm"
     showgrid="false"
     inkscape:zoom="2.3786088"
     inkscape:cx="-9.6695177"
     inkscape:cy="237.3236"
     inkscape:window-width="2400"
     inkscape:window-height="1511"
     inkscape:window-x="-9"
     inkscape:window-y="-9"
     inkscape:window-maximized="1"
     inkscape:current-layer="layer1" /><defs
     id="defs882">
	
	
	
	
	
	
	
	
	
	
	
	
	

	
	
	
	
	
	
	
	
	
	
	
	
	
</defs><g
     inkscape:label="Layer 1"
     inkscape:groupmode="layer"
     id="layer1"><rect
       style="fill:#ffffff;fill-opacity:1;stroke:none;stroke-width:1.04609;stroke-opacity:1;shape-rendering:crispEdges"
       id="rect1-5-7-3-8-0-4-7-7-8"
       width="7.4390574"
       height="2.4757605"
       x="10.595625"
       y="-13.822623"
       ry="0.40952304"
       rx="0.40952304"
       transform="rotate(90)" /><text
       xml:space="preserve"
       style="font-size:2.11667px;line-height:0.8;font-family:Calibri;-inkscape-font-specification:'Calibri, Normal';fill:#000000;fill-opacity:1;stroke:none;stroke-width:2.15238;stroke-opacity:1"
       x="14.305384"
       y="-11.904353"
       id="text2-6-5-7-3-1-4-9-4-5-87"
       transform="rotate(90)"><tspan
         sodipodi:role="line"
         style="font-style:normal;font-variant:normal;font-weight:normal;font-stretch:normal;font-size:2.11667px;line-height:0.8;font-family:'Tw Cen MT';-inkscape-font-specification:'Tw Cen MT, Normal';font-variant-ligatures:normal;font-variant-caps:normal;font-variant-numeric:normal;font-variant-east-asian:normal;text-align:center;text-anchor:middle;fill:#000000;fill-opacity:1;stroke:none;stroke-width:2.1524;stroke-opacity:1"
         x="14.305384"
         y="-11.904353"
         id="tspan1-8-7-2-5">POWER</tspan></text><path
       id="rect1-5-7-3-8-0-4-7-7-8-1"
       style="fill:#ffffff;fill-opacity:1;stroke:none;stroke-width:1.04609;stroke-opacity:1;shape-rendering:crispEdges"
       d="m 12.779065,36.314063 c -0.226875,0 -0.409794,0.182918 -0.409794,0.409794 v 6.619751 c 0,0.226875 0.182919,0.409793 0.409794,0.409793 h 1.656747 c 0.226875,0 0.409277,-0.182918 0.409277,-0.409793 v -6.619751 c 0,-0.226876 -0.182402,-0.409794 -0.409277,-0.409794 z m 0.147795,0.514697 h 1.316715 v 0.264583 c 0,0.149517 -0.03514,0.270096 -0.10542,0.361735 -0.07028,0.09164 -0.161575,0.137459 -0.273885,0.137459 -0.112999,0 -0.207739,-0.04858 -0.28422,-0.145726 -0.07648,-0.09646 -0.113688,-0.243225 -0.111621,-0.440284 H 12.92686 Z m 0.698665,0.177767 c 0.0014,0.135048 0.02033,0.234955 0.05684,0.299723 0.03721,0.06546 0.09646,0.09819 0.177767,0.09819 0.06132,0 0.114377,-0.0248 0.159164,-0.07441 0.04479,-0.04892 0.06718,-0.156752 0.06718,-0.323495 z m -0.03204,0.783415 c 0.190169,0 0.353122,0.07166 0.488859,0.214973 0.135737,0.143317 0.203605,0.315573 0.203605,0.516765 0,0.196371 -0.06856,0.365526 -0.205672,0.507463 -0.136426,0.141938 -0.29869,0.212907 -0.486792,0.212907 -0.199127,0 -0.367592,-0.07028 -0.505396,-0.21084 -0.137115,-0.139871 -0.205672,-0.311781 -0.205672,-0.515731 0,-0.201194 0.06925,-0.372416 0.207739,-0.513663 0.138493,-0.141251 0.306269,-0.211874 0.503329,-0.211874 z m -0.0083,0.188103 c -0.144005,0 -0.265961,0.05305 -0.365869,0.159163 -0.09922,0.106798 -0.148828,0.237367 -0.148828,0.391707 0,0.141938 0.05064,0.264239 0.151929,0.366903 0.101975,0.103353 0.222898,0.155028 0.362768,0.155028 0.145383,0 0.267684,-0.05237 0.366903,-0.157095 0.09991,-0.104731 0.149862,-0.233578 0.149862,-0.38654 0,-0.145384 -0.05064,-0.270096 -0.151929,-0.374138 -0.101286,-0.103351 -0.222898,-0.155028 -0.364836,-0.155028 z m 0.656291,1.367358 v 0.186035 l -0.927075,0.399975 0.979785,0.421681 -0.971517,0.423746 0.918807,0.397909 v 0.186033 L 12.88652,40.77684 13.860104,40.353094 12.88652,39.929346 Z m -1.314648,2.191081 h 1.316715 v 0.72967 h -0.179834 v -0.551903 h -0.328662 v 0.551903 H 13.55728 v -0.551903 h -0.452685 v 0.551903 H 12.92686 Z m 0,0.969449 h 1.316715 v 0.285254 c 0,0.141937 -0.03548,0.257349 -0.106453,0.346232 -0.07028,0.08957 -0.160542,0.134358 -0.270785,0.134358 -0.08819,0 -0.166054,-0.02894 -0.233577,-0.08682 -0.06752,-0.05788 -0.115067,-0.148137 -0.142627,-0.270783 l -0.563273,0.383438 v -0.205673 l 0.541569,-0.365868 v -0.04031 H 12.92686 Z m 0.698665,0.179834 c -0.0055,0.265271 0.07131,0.397909 0.230477,0.397909 0.05581,0 0.101286,-0.0155 0.136426,-0.04651 0.03583,-0.03101 0.05994,-0.07235 0.07235,-0.124022 0.01309,-0.05168 0.01964,-0.12747 0.01964,-0.227377 z"
       inkscape:export-filename="g12-7-8.svg"
       inkscape:export-xdpi="96"
       inkscape:export-ydpi="96" /><rect
       style="fill:#ffffff;fill-opacity:1;stroke:none;stroke-width:1.04609;stroke-opacity:1;shape-rendering:crispEdges"
       id="rect1-5-7-3-8-0-4-7-7-8-4"
       width="10.025247"
       height="2.3923349"
       x="11.547404"
       y="20.508463"
       ry="0.40952304"
       rx="0.40952304" /><text
       xml:space="preserve"
       style="font-size:2.11667px;line-height:0.8;font-family:Calibri;-inkscape-font-specification:'Calibri, Normal';fill:#000000;fill-opacity:1;stroke:none;stroke-width:2.15238;stroke-opacity:1"
       x="16.647596"
       y="22.371115"
       id="text2-6-5-7-3-1-4-9-4-5-87-5"><tspan
         sodipodi:role="line"
         style="font-style:normal;font-variant:normal;font-weight:normal;font-stretch:normal;font-size:2.11667px;line-height:0.8;font-family:'Tw Cen MT';-inkscape-font-specification:'Tw Cen MT, Normal';font-variant-ligatures:normal;font-variant-caps:normal;font-variant-numeric:normal;font-variant-east-asian:normal;text-align:center;text-anchor:middle;fill:#000000;fill-opacity:1;stroke:none;stroke-width:2.1524;stroke-opacity:1"
         x="16.647596"
         y="22.371115"
         id="tspan1-8-7-2-5-37">V1.0 2025</tspan></text><rect
       style="fill:#ffffff;fill-opacity:1;stroke:none;stroke-width:1.06206;stroke-opacity:1;shape-rendering:crispEdges"
       id="rect1-5-7-3-8-0-4-7-7-8-4-5"
       width="9.7471533"
       height="2.3884811"
       x="12.612677"
       y="24.234818"
       ry="0.41124344"
       rx="0.42035675" /><text
       xml:space="preserve"
       style="font-size:2.11667px;line-height:0.8;font-family:Calibri;-inkscape-font-specification:'Calibri, Normal';fill:#000000;fill-opacity:1;stroke:none;stroke-width:2.15238;stroke-opacity:1"
       x="16.67005"
       y="26.083565"
       id="text2-6-5-7-3-1-4-9-4-5-87-5-9"><tspan
         sodipodi:role="line"
         style="font-style:normal;font-variant:normal;font-weight:normal;font-stretch:normal;font-size:2.11667px;line-height:0.8;font-family:'Tw Cen MT';-inkscape-font-specification:'Tw Cen MT, Normal';font-variant-ligatures:normal;font-variant-caps:normal;font-variant-numeric:normal;font-variant-east-asian:normal;text-align:center;text-anchor:middle;fill:#000000;fill-opacity:1;stroke:none;stroke-width:2.1524;stroke-opacity:1"
         x="16.962023"
         y="26.083565"
         id="tspan1-8-7-2-5-37-3">WORDY </tspan></text><path
       class="st0"
       d="m 20.868095,25.284262 c -0.01629,0.02218 -0.01389,0.05169 0.0054,0.06585 l 0.232765,0.179573 c 0.001,7.51e-4 0.0022,0.0012 0.0033,0.0019 5.04e-4,2.75e-4 9.55e-4,5.75e-4 0.0015,8.01e-4 0.0201,0.01121 0.04678,0.0053 0.06452,-0.01429 5.01e-4,-5.5e-4 0.0011,-9.27e-4 0.0016,-0.0015 l 0.285302,-0.337513 c 0.01624,-0.01822 0.01649,-0.04442 7.04e-4,-0.05848 -0.01584,-0.01409 -0.04181,-0.0107 -0.058,0.0075 L 21.13841,25.41295 20.93252,25.26957 c -0.01926,-0.01416 -0.04813,-0.0076 -0.06442,0.01469 z"
       id="path1371"
       style="stroke-width:0.00275085" /><path
       class="st0"
       d="m 20.583745,25.460149 c 0,-0.01231 2.37e-4,-0.02464 0.0015,-0.03675 h -0.146108 c -8.89e-4,0.01211 -0.0011,0.02444 -0.0011,0.03675 0,0.01256 2.39e-4,0.02467 0.0011,0.03677 h 0.146111 c -0.0013,-0.0121 -0.0015,-0.02444 -0.0015,-0.03677 z"
       id="path1373"
       style="stroke-width:0.00275085" /><path
       class="st0"
       d="m 21.845381,25.423403 h -0.146109 -0.0016 v 0.07352 h 0.0016 0.146109 c 8.91e-4,-0.0121 0.0011,-0.02444 0.0011,-0.03677 0,-0.01231 -2.12e-4,-0.02464 -0.0011,-0.03675 z"
       id="path1375"
       style="stroke-width:0.00275085" /><path
       class="st0"
       d="m 20.842163,24.989033 c 0.0138,-0.0087 0.0279,-0.01697 0.04221,-0.02426 0.002,-9.79e-4 0.0037,-0.002 0.0056,-0.0027 l -0.07281,-0.126533 c -0.01821,0.0093 -0.03598,0.01945 -0.05322,0.03061 l 0.07286,0.126533 c 0.0017,-0.0012 0.0037,-0.0024 0.0054,-0.0037 z"
       id="path1377"
       style="stroke-width:0.00275085" /><path
       class="st0"
       d="m 20.517747,25.135018 0.126484,0.07282 0.03061,-0.05316 -0.126534,-0.07287 c -0.01118,0.01725 -0.02137,0.03497 -0.03056,0.05322 z"
       id="path1379"
       style="stroke-width:0.00275085" /><path
       class="st0"
       d="m 21.637684,25.718027 c -0.0076,0.01431 -0.01556,0.0284 -0.02454,0.04198 -0.0012,0.0017 -0.0025,0.0037 -0.0037,0.0054 l 0.126533,0.07282 c 0.01118,-0.01722 0.02137,-0.03469 0.03081,-0.05289 l -0.126242,-0.07307 c -9.76e-4,0.0019 -0.002,0.0039 -0.0029,0.0058 z"
       id="path1381"
       style="stroke-width:0.00275085" /><path
       class="st0"
       d="m 20.646899,25.717802 -0.0029,-0.0056 -0.126244,0.07282 c 0.009,0.01825 0.01938,0.03592 0.03056,0.05314 l 0.126534,-0.07282 c -0.0012,-0.0017 -0.0025,-0.0036 -0.0037,-0.0054 -0.0087,-0.01359 -0.01697,-0.02767 -0.02428,-0.04221 z"
       id="path1383"
       style="stroke-width:0.00275085" /><path
       class="st0"
       d="m 21.766836,25.135018 c -0.0092,-0.01825 -0.01964,-0.03597 -0.03082,-0.05321 l -0.126534,0.07287 0.03084,0.05316 z"
       id="path1385"
       style="stroke-width:0.00275085" /><path
       class="st0"
       d="m 20.842163,25.93099 c -0.0017,-0.0012 -0.0036,-0.0024 -0.0054,-0.0037 l -0.07286,0.126534 c 0.01723,0.01118 0.03501,0.02161 0.05322,0.03088 l 0.07281,-0.126561 c -0.0019,-6.99e-4 -0.0036,-0.0017 -0.0056,-0.0027 -0.01431,-0.0073 -0.02841,-0.01554 -0.04221,-0.02454 z"
       id="path1387"
       style="stroke-width:0.00275085" /><path
       class="st0"
       d="m 21.394354,24.961813 0.05318,0.03088 0.07285,-0.126533 c -0.01723,-0.01115 -0.03474,-0.02136 -0.05293,-0.03061 z"
       id="path1389"
       style="stroke-width:0.00275085" /><path
       class="st0"
       d="m 21.105507,26.017141 v 0.145911 c 0.01213,0.0011 0.02444,0.0013 0.03676,0.0013 0.01233,0 0.02465,-2.25e-4 0.03677,-0.0013 v -0.145911 -0.0015 h -0.07353 z"
       id="path1391"
       style="stroke-width:0.00275085" /><path
       class="st0"
       d="m 21.17904,24.903181 v -0.14591 c -0.01212,-0.0011 -0.02444,-0.0013 -0.03677,-0.0013 -0.01232,0 -0.02463,2.26e-4 -0.03676,0.0013 v 0.14591 0.0015 h 0.07353 z"
       id="path1393"
       style="stroke-width:0.00275085" /><path
       class="st0"
       d="m 21.394354,25.958463 0.07311,0.126283 c 0.01819,-0.0095 0.0357,-0.0197 0.05293,-0.03088 l -0.07285,-0.126534 z"
       id="path1395"
       style="stroke-width:0.00275085" /><path
       id="rect1-5-7-3-8-0-4-7-7-8-4-0"
       style="fill:#ffffff;fill-opacity:1;stroke:none;stroke-width:1.04609;stroke-opacity:1;shape-rendering:crispEdges"
       d="M 14.135571 44.411759 C 13.908696 44.411759 13.726294 44.594678 13.726294 44.821554 L 13.726294 46.394584 C 13.726294 46.62146 13.908696 46.804378 14.135571 46.804378 L 23.341728 46.804378 C 23.568603 46.804378 23.751522 46.62146 23.751522 46.394584 L 23.751522 44.821554 C 23.751522 44.594678 23.568603 44.411759 23.341728 44.411759 L 14.135571 44.411759 z M 17.649569 44.913538 L 17.659904 44.913538 C 17.804598 44.913538 17.922075 44.97865 18.012337 45.108875 C 18.103288 45.23841 18.148763 45.406875 18.148763 45.61427 C 18.148763 45.829244 18.099843 46.000465 18.002002 46.127934 C 17.90485 46.255402 17.788062 46.319137 17.651636 46.319137 C 17.509698 46.319137 17.391531 46.254024 17.297135 46.1238 C 17.203429 45.992886 17.156576 45.826488 17.156576 45.624605 C 17.156576 45.400674 17.204807 45.226352 17.30127 45.10164 C 17.398421 44.976238 17.514521 44.913538 17.649569 44.913538 z M 19.425171 44.913538 C 19.540237 44.913538 19.640489 44.959013 19.725928 45.049963 C 19.811366 45.140225 19.854085 45.247368 19.854085 45.371391 C 19.854085 45.431337 19.843059 45.486459 19.821012 45.536755 C 19.799652 45.586362 19.761412 45.64045 19.706291 45.699019 L 19.332153 46.098995 L 19.833415 46.098995 L 19.833415 46.274695 L 18.934245 46.274695 L 19.605005 45.56156 C 19.655305 45.50644 19.680452 45.445807 19.680452 45.379659 C 19.680452 45.3018 19.653924 45.234276 19.600871 45.177087 C 19.547817 45.119901 19.485461 45.091305 19.413802 45.091305 C 19.354549 45.091305 19.298738 45.110255 19.24637 45.148149 C 19.19469 45.186042 19.160929 45.244608 19.145085 45.323848 L 18.971452 45.323848 C 18.988678 45.194313 19.039665 45.093716 19.124414 45.022058 C 19.209852 44.949711 19.310104 44.913538 19.425171 44.913538 z M 20.569287 44.913538 L 20.579622 44.913538 C 20.724316 44.913538 20.841794 44.97865 20.932056 45.108875 C 21.023006 45.23841 21.068481 45.406875 21.068481 45.61427 C 21.068481 45.829244 21.019561 46.000465 20.92172 46.127934 C 20.824568 46.255402 20.70778 46.319137 20.571354 46.319137 C 20.429416 46.319137 20.31125 46.254024 20.216854 46.1238 C 20.123147 45.992886 20.076294 45.826488 20.076294 45.624605 C 20.076294 45.400674 20.124525 45.226352 20.220988 45.10164 C 20.31814 44.976238 20.434239 44.913538 20.569287 44.913538 z M 21.760946 44.913538 C 21.876012 44.913538 21.976265 44.959013 22.061702 45.049963 C 22.147141 45.140225 22.18986 45.247368 22.18986 45.371391 C 22.18986 45.431337 22.178834 45.486459 22.156787 45.536755 C 22.135427 45.586362 22.097187 45.64045 22.042065 45.699019 L 21.667928 46.098995 L 22.169189 46.098995 L 22.169189 46.274695 L 21.27002 46.274695 L 21.94078 45.56156 C 21.99108 45.50644 22.016227 45.445807 22.016227 45.379659 C 22.016227 45.3018 21.989699 45.234276 21.936646 45.177087 C 21.883592 45.119901 21.821236 45.091305 21.749577 45.091305 C 21.690324 45.091305 21.634513 45.110255 21.582145 45.148149 C 21.530472 45.186042 21.49671 45.244608 21.480859 45.323848 L 21.307227 45.323848 C 21.324453 45.194313 21.37544 45.093716 21.460189 45.022058 C 21.545627 44.949711 21.64588 44.913538 21.760946 44.913538 z M 22.741764 44.955912 L 23.33501 44.955912 L 23.33501 45.133679 L 22.880257 45.133679 L 22.809977 45.38586 C 22.862344 45.380327 22.892661 45.377592 22.900928 45.377592 C 23.016683 45.377592 23.117624 45.423756 23.203752 45.516085 C 23.28988 45.608413 23.332943 45.716589 23.332943 45.840613 C 23.332943 45.973593 23.283678 46.086248 23.185148 46.178577 C 23.087307 46.270905 22.967762 46.317069 22.826514 46.317069 C 22.646679 46.317069 22.501296 46.238866 22.390365 46.082458 L 22.551595 45.980139 C 22.630832 46.079358 22.724884 46.128967 22.833748 46.128967 C 22.923321 46.128967 22.99739 46.101065 23.055957 46.045251 C 23.11521 45.988752 23.14484 45.917783 23.14484 45.832345 C 23.14484 45.749663 23.114176 45.680072 23.052856 45.623572 C 22.992223 45.566385 22.917465 45.537789 22.828581 45.537789 C 22.775527 45.537789 22.729363 45.547434 22.690088 45.566728 C 22.650815 45.585334 22.607407 45.615305 22.559863 45.656645 L 22.741764 44.955912 z M 14.187248 44.960046 L 14.377417 44.960046 L 14.789795 45.891256 L 15.205273 44.960046 L 15.39751 44.960046 L 14.787728 46.319137 L 14.187248 44.960046 z M 15.772681 44.962113 L 16.114779 44.962113 L 16.114779 46.274695 L 15.937012 46.274695 L 15.937012 45.135746 L 15.712736 45.135746 L 15.772681 44.962113 z M 17.651636 45.10164 C 17.559996 45.10164 17.485237 45.149182 17.42736 45.244267 C 17.36948 45.338662 17.340544 45.463374 17.340544 45.618404 C 17.340544 45.772055 17.369827 45.895734 17.428394 45.989441 C 17.48696 46.082459 17.562752 46.128967 17.65577 46.128967 C 17.745342 46.128967 17.818379 46.081426 17.874878 45.98634 C 17.932065 45.890567 17.960661 45.765854 17.960661 45.612203 C 17.960661 45.463374 17.931377 45.341074 17.872811 45.2453 C 17.814244 45.149527 17.740519 45.10164 17.651636 45.10164 z M 20.571354 45.10164 C 20.479714 45.10164 20.404956 45.149182 20.347078 45.244267 C 20.289199 45.338662 20.260262 45.463374 20.260262 45.618404 C 20.260262 45.772055 20.289545 45.895734 20.348112 45.989441 C 20.406679 46.082459 20.48247 46.128967 20.575488 46.128967 C 20.665061 46.128967 20.738097 46.081426 20.794596 45.98634 C 20.851783 45.890567 20.880379 45.765854 20.880379 45.612203 C 20.880379 45.463374 20.851096 45.341074 20.792529 45.2453 C 20.733963 45.149527 20.660237 45.10164 20.571354 45.10164 z M 16.834115 46.014246 C 16.872008 46.014246 16.904733 46.028027 16.9323 46.055587 C 16.95986 46.083147 16.973641 46.115872 16.973641 46.153772 C 16.973641 46.192359 16.95986 46.225431 16.9323 46.252991 C 16.905426 46.279864 16.872701 46.293298 16.834115 46.293298 C 16.795528 46.293298 16.762456 46.279864 16.734896 46.252991 C 16.708023 46.226117 16.694588 46.193045 16.694588 46.153772 C 16.694588 46.115879 16.708023 46.083153 16.734896 46.055587 C 16.762456 46.028027 16.795528 46.014246 16.834115 46.014246 z " /><path
       id="rect1-5-7-3-8-0-4-7-7-8-4-5-6"
       style="fill:#ffffff;fill-opacity:1;stroke:none;stroke-width:1.06206;stroke-opacity:1;shape-rendering:crispEdges"
       d="M 15.211991 48.138147 C 14.979114 48.138147 14.791345 48.321663 14.791345 48.549491 L 14.791345 50.115287 C 14.791345 50.343116 14.979114 50.526632 15.211991 50.526632 L 24.118424 50.526632 C 24.351302 50.526632 24.538554 50.343116 24.538554 50.115287 L 24.538554 48.549491 C 24.538554 48.321663 24.351302 48.138147 24.118424 48.138147 L 15.211991 48.138147 z M 16.331303 48.619771 L 16.75505 49.591288 L 17.152958 48.672481 L 17.338993 48.672481 L 16.75505 50.027437 L 16.331303 49.053853 L 15.907556 50.027437 L 15.323612 48.672481 L 15.509648 48.672481 L 15.909623 49.599556 L 16.331303 48.619771 z M 18.163749 48.62804 C 18.36012 48.62804 18.529274 48.696597 18.671212 48.833712 C 18.81315 48.970138 18.884119 49.132402 18.884119 49.320504 C 18.884119 49.519631 18.813839 49.688095 18.673279 49.825899 C 18.533408 49.963014 18.361498 50.031571 18.157548 50.031571 C 17.956354 50.031571 17.785133 49.962325 17.643884 49.823832 C 17.502636 49.685339 17.432011 49.517564 17.432011 49.320504 C 17.432011 49.130335 17.503669 48.967381 17.646985 48.831645 C 17.790301 48.695907 17.962555 48.62804 18.163749 48.62804 z M 23.321057 48.659562 C 23.333387 48.659562 23.345627 48.659496 23.357747 48.660596 L 23.357747 48.80684 L 23.357747 48.807874 L 23.284367 48.807874 L 23.284367 48.80684 L 23.284367 48.660596 C 23.296497 48.659522 23.308737 48.659562 23.321057 48.659562 z M 19.146635 48.670414 L 19.431889 48.670414 C 19.573827 48.670414 19.689238 48.705899 19.778121 48.776868 C 19.867694 48.847148 19.91248 48.93741 19.91248 49.047652 C 19.91248 49.135847 19.883543 49.213706 19.825663 49.28123 C 19.767783 49.348754 19.677522 49.396296 19.554879 49.423857 L 19.938318 49.98713 L 19.732646 49.98713 L 19.366777 49.445561 L 19.326469 49.445561 L 19.326469 49.98713 L 19.146635 49.98713 L 19.146635 48.670414 z M 20.17913 48.670414 L 20.49849 48.670414 C 20.75136 48.670414 20.939462 48.737249 21.062797 48.870919 C 21.186132 49.004589 21.247799 49.157206 21.247799 49.328772 C 21.247799 49.501716 21.184064 49.654678 21.056596 49.787659 C 20.929127 49.920639 20.743781 49.98713 20.500557 49.98713 L 20.17913 49.98713 L 20.17913 48.670414 z M 21.313944 48.670414 L 21.513416 48.670414 L 21.83691 49.199581 L 22.15627 48.670414 L 22.355741 48.670414 L 21.923726 49.383549 L 21.923726 49.98713 L 21.743892 49.98713 L 21.743892 49.385616 L 21.313944 48.670414 z M 22.996012 48.739144 L 23.068876 48.865751 C 23.066976 48.866451 23.065192 48.867356 23.063192 48.868335 C 23.048882 48.875625 23.034617 48.883923 23.020817 48.892623 C 23.019117 48.893923 23.017349 48.89504 23.015649 48.89624 L 22.942786 48.769633 C 22.960016 48.758473 22.977802 48.748444 22.996012 48.739144 z M 23.646102 48.739144 C 23.664292 48.748404 23.682099 48.758483 23.699329 48.769633 L 23.626465 48.89624 L 23.573238 48.865234 L 23.646102 48.739144 z M 18.14928 48.812008 C 18.003897 48.812008 17.879184 48.86265 17.775142 48.963936 C 17.671789 49.065222 17.620113 49.186833 17.620113 49.328772 C 17.620113 49.472776 17.673167 49.594733 17.779277 49.694641 C 17.886074 49.79386 18.016643 49.843469 18.170984 49.843469 C 18.312922 49.843469 18.435223 49.792826 18.537887 49.691541 C 18.641239 49.589565 18.692916 49.468642 18.692916 49.328772 C 18.692916 49.183389 18.64055 49.061089 18.535819 48.961869 C 18.431088 48.861961 18.302242 48.812008 18.14928 48.812008 z M 19.326469 48.829578 L 19.326469 49.288464 C 19.591742 49.293998 19.724377 49.217172 19.724377 49.057987 C 19.724377 49.002174 19.708875 48.956699 19.677869 48.921562 C 19.646862 48.885735 19.605521 48.861621 19.553845 48.849215 C 19.502165 48.836121 19.426373 48.829578 19.326469 48.829578 z M 20.358964 48.846114 L 20.358964 49.809363 L 20.369299 49.809363 C 20.502969 49.809363 20.603566 49.803506 20.67109 49.791793 C 20.738614 49.779393 20.802692 49.752864 20.863326 49.712211 C 20.923959 49.671558 20.972191 49.617814 21.00802 49.550981 C 21.043847 49.483457 21.061764 49.409387 21.061764 49.328772 C 21.061764 49.227486 21.033167 49.135847 20.975981 49.053853 C 20.918794 48.971859 20.850237 48.916738 20.770308 48.888489 C 20.691071 48.860242 20.584273 48.846114 20.449915 48.846114 L 20.358964 48.846114 z M 22.726778 48.985124 L 22.853385 49.057987 L 22.822896 49.111214 L 22.696289 49.03835 C 22.705479 49.0201 22.715598 49.002374 22.726778 48.985124 z M 23.914819 48.985124 C 23.925999 49.002364 23.936108 49.0201 23.945308 49.03835 L 23.819218 49.111214 L 23.788212 49.057987 L 23.914819 48.985124 z M 23.613029 49.015613 C 23.623525 49.014252 23.634048 49.016836 23.641968 49.023881 C 23.657754 49.037941 23.657691 49.064045 23.641451 49.082275 L 23.35568 49.420239 C 23.35518 49.420812 23.354631 49.42124 23.35413 49.42179 C 23.33639 49.44138 23.309634 49.446952 23.289535 49.435742 C 23.28899 49.435516 23.289005 49.4355 23.288501 49.435225 C 23.287401 49.434525 23.285884 49.433909 23.284884 49.433158 L 23.05234 49.253324 C 23.03305 49.239164 23.030365 49.209875 23.046655 49.187695 L 23.047172 49.187695 C 23.063462 49.165405 23.091991 49.159066 23.111251 49.173226 L 23.31744 49.31637 L 23.58409 49.031632 C 23.592185 49.022532 23.602533 49.016974 23.613029 49.015613 z M 22.617741 49.326705 L 22.763985 49.326705 C 22.762722 49.338815 22.762435 49.351085 22.762435 49.363395 C 22.762435 49.375725 22.762685 49.388502 22.763985 49.400602 L 22.617741 49.400602 C 22.61688 49.388502 22.616707 49.375955 22.616707 49.363395 C 22.616707 49.351085 22.616852 49.338815 22.617741 49.326705 z M 23.876579 49.326705 L 23.878129 49.326705 L 24.023857 49.326705 C 24.024745 49.338815 24.025407 49.351085 24.025407 49.363395 C 24.025407 49.375725 24.024748 49.388502 24.023857 49.400602 L 23.878129 49.400602 L 23.876579 49.400602 L 23.876579 49.326705 z M 22.822896 49.615576 L 22.82548 49.621261 C 22.83279 49.635801 22.841068 49.650045 22.849768 49.663635 C 22.850968 49.665435 22.852185 49.667103 22.853385 49.668803 L 22.726778 49.741667 C 22.715598 49.724447 22.705289 49.70669 22.696289 49.68844 L 22.822896 49.615576 z M 23.819218 49.615576 L 23.945308 49.688957 C 23.935858 49.707157 23.925999 49.724447 23.914819 49.741667 L 23.788212 49.668803 C 23.789412 49.667103 23.790629 49.665335 23.791829 49.663635 C 23.800799 49.650055 23.809034 49.635571 23.816634 49.621261 L 23.816117 49.621261 C 23.817017 49.619361 23.818242 49.617476 23.819218 49.615576 z M 23.015649 49.83055 C 23.017449 49.83185 23.019117 49.833484 23.020817 49.834684 L 23.020817 49.834167 C 23.034617 49.843167 23.048882 49.851672 23.063192 49.858972 C 23.065192 49.859972 23.066976 49.860857 23.068876 49.861556 L 22.996012 49.988163 C 22.977812 49.978893 22.960016 49.968337 22.942786 49.957157 L 23.015649 49.83055 z M 23.626465 49.83055 L 23.699329 49.957157 C 23.682089 49.968337 23.664292 49.978663 23.646102 49.988163 L 23.573238 49.862073 L 23.626465 49.83055 z M 23.284367 49.918917 L 23.357747 49.918917 L 23.357747 49.920467 L 23.357747 50.066711 C 23.345627 50.067786 23.333387 50.067745 23.321057 50.067745 C 23.308737 50.067745 23.296497 50.067811 23.284367 50.066711 L 23.284367 49.920467 L 23.284367 49.918917 z " /><rect
       style="fill:#ffffff;fill-opacity:1;stroke:none;stroke-width:1.04609;stroke-opacity:1;shape-rendering:crispEdges"
       id="rect1-5-7-3-8-0-4-7-7-8-6"
       width="5.6593022"
       height="2.4757607"
       x="11.429887"
       y="-19.369102"
       ry="0.40952304"
       rx="0.40952304"
       transform="rotate(90)" /><text
       xml:space="preserve"
       style="font-size:2.11667px;line-height:0.8;font-family:Calibri;-inkscape-font-specification:'Calibri, Normal';fill:#000000;fill-opacity:1;stroke:none;stroke-width:2.15238;stroke-opacity:1"
       x="14.305384"
       y="-17.450832"
       id="text2-6-5-7-3-1-4-9-4-5-87-6"
       transform="rotate(90)"><tspan
         sodipodi:role="line"
         style="font-style:normal;font-variant:normal;font-weight:normal;font-stretch:normal;font-size:2.11667px;line-height:0.8;font-family:'Tw Cen MT';-inkscape-font-specification:'Tw Cen MT, Normal';font-variant-ligatures:normal;font-variant-caps:normal;font-variant-numeric:normal;font-variant-east-asian:normal;text-align:center;text-anchor:middle;fill:#000000;fill-opacity:1;stroke:none;stroke-width:2.1524;stroke-opacity:1"
         x="14.305384"
         y="-17.450832"
         id="tspan1-8-7-2-5-3">RESET</tspan></text><path
       id="rect1-5-7-3-8-0-4-7-7-8-6-0"
       style="fill:#ffffff;fill-opacity:1;stroke:none;stroke-width:1.04609;stroke-opacity:1;shape-rendering:crispEdges"
       d="m 16.868738,37.638014 c -0.226875,0 -0.409277,0.182918 -0.409277,0.409793 v 4.840014 c 0,0.226877 0.182402,0.409795 0.409277,0.409795 h 1.656746 c 0.226876,0 0.409795,-0.182918 0.409795,-0.409795 v -4.840014 c 0,-0.226875 -0.182919,-0.409793 -0.409795,-0.409793 z m 0.148311,0.592211 h 1.316716 v 0.285254 c 0,0.141937 -0.03549,0.257349 -0.106454,0.346232 -0.07028,0.08957 -0.160541,0.134359 -0.270784,0.134359 -0.08819,0 -0.166054,-0.02894 -0.233578,-0.08682 -0.06752,-0.05788 -0.115066,-0.14814 -0.142627,-0.270784 l -0.563273,0.383438 v -0.205673 l 0.541569,-0.365868 v -0.04031 h -0.541569 z m 0.698666,0.179834 c -0.0055,0.265273 0.07131,0.397908 0.230477,0.397908 0.05581,0 0.101285,-0.0155 0.136425,-0.04651 0.03583,-0.03101 0.05995,-0.07235 0.07235,-0.124022 0.01309,-0.05168 0.01964,-0.127469 0.01964,-0.227377 z m -0.698666,0.836125 h 1.316716 v 0.72967 h -0.179834 v -0.551903 h -0.328662 v 0.551903 h -0.177767 v -0.551903 h -0.452686 v 0.551903 h -0.177767 z m 0.317294,0.882632 0.05064,0.179835 c -0.148139,0.06546 -0.222209,0.165709 -0.222209,0.300757 0,0.06546 0.01964,0.119889 0.05891,0.163297 0.03927,0.04341 0.08888,0.06511 0.148828,0.06511 0.03583,0 0.07166,-0.01137 0.107487,-0.03411 0.03652,-0.02274 0.06649,-0.05099 0.08992,-0.08475 0.02343,-0.03376 0.04995,-0.08785 0.07958,-0.162265 0.03032,-0.07372 0.05788,-0.130568 0.08268,-0.170532 0.02549,-0.03927 0.05547,-0.07338 0.08992,-0.102319 0.03514,-0.02894 0.06994,-0.0503 0.104387,-0.06408 0.03445,-0.01309 0.07131,-0.01964 0.110587,-0.01964 0.0944,0 0.174666,0.0379 0.240812,0.113687 0.06683,0.07579 0.100253,0.167777 0.100253,0.275953 0,0.07166 -0.0155,0.144349 -0.04651,0.218074 -0.03101,0.07373 -0.0782,0.135048 -0.141594,0.183968 l -0.116788,-0.145728 c 0.03996,-0.03858 0.06959,-0.07372 0.08888,-0.10542 0.01998,-0.03101 0.02997,-0.07614 0.02997,-0.135392 0,-0.06477 -0.01481,-0.117477 -0.04444,-0.158129 -0.02894,-0.03996 -0.06649,-0.05994 -0.112655,-0.05994 -0.03996,0 -0.07545,0.01757 -0.106453,0.05271 -0.03032,0.03514 -0.06374,0.09508 -0.100253,0.179832 -0.03583,0.08475 -0.06959,0.150551 -0.101285,0.197405 -0.03101,0.04754 -0.06546,0.08647 -0.103353,0.116788 -0.0379,0.03032 -0.07786,0.05271 -0.11989,0.06718 -0.04203,0.01516 -0.08647,0.02274 -0.133325,0.02274 -0.109554,0 -0.202916,-0.03996 -0.280086,-0.119889 -0.07717,-0.07924 -0.115755,-0.175355 -0.115755,-0.288354 0,-0.110243 0.02997,-0.207739 0.08992,-0.292489 0.06063,-0.08406 0.151239,-0.148827 0.271818,-0.194304 z m -0.317294,1.102777 h 1.316716 v 0.729671 h -0.179834 v -0.551906 h -0.328662 v 0.551906 h -0.177767 v -0.551906 h -0.452686 v 0.551906 h -0.177767 z m 1.136882,0.860929 h 0.179834 v 0.805119 h -0.179834 v -0.314193 h -1.136882 v -0.177767 h 1.136882 z" /><rect
       style="fill:#ffffff;fill-opacity:1;stroke:none;stroke-width:1.04609;stroke-opacity:1;shape-rendering:crispEdges"
       id="rect1-5-7-3-8-0-4-7-7-8-8"
       width="5.8817611"
       height="2.3645258"
       x="11.429887"
       y="-24.346846"
       ry="0.40952304"
       rx="0.40952304"
       transform="rotate(90)" /><text
       xml:space="preserve"
       style="font-size:2.11667px;line-height:0.8;font-family:Calibri;-inkscape-font-specification:'Calibri, Normal';fill:#000000;fill-opacity:1;stroke:none;stroke-width:2.15238;stroke-opacity:1"
       x="14.305384"
       y="-22.484194"
       id="text2-6-5-7-3-1-4-9-4-5-87-8"
       transform="rotate(90)"><tspan
         sodipodi:role="line"
         style="font-style:normal;font-variant:normal;font-weight:normal;font-stretch:normal;font-size:2.11667px;line-height:0.8;font-family:'Tw Cen MT';-inkscape-font-specification:'Tw Cen MT, Normal';font-variant-ligatures:normal;font-variant-caps:normal;font-variant-numeric:normal;font-variant-east-asian:normal;text-align:center;text-anchor:middle;fill:#000000;fill-opacity:1;stroke:none;stroke-width:2.1524;stroke-opacity:1"
         x="14.305384"
         y="-22.484194"
         id="tspan1-8-7-2-5-0">BOOT</tspan></text><path
       id="path3040"
       style="fill:#ffffff;stroke-width:1.04609;shape-rendering:crispEdges"
       d="M 20.958927 37.526908 C 20.732052 37.526908 20.54965 37.709828 20.54965 37.936702 L 20.54965 42.998926 C 20.54965 43.225801 20.732052 43.40872 20.958927 43.40872 L 22.504569 43.40872 C 22.731444 43.40872 22.914364 43.225801 22.914364 42.998926 L 22.914364 37.936702 C 22.914364 37.709828 22.731444 37.526908 22.504569 37.526908 L 20.958927 37.526908 z M 21.051428 37.962024 L 22.368144 37.962024 L 22.368144 38.170797 C 22.368144 38.307912 22.338173 38.419878 22.278227 38.506694 C 22.218973 38.59351 22.14387 38.636918 22.052917 38.636918 C 21.941986 38.636918 21.849313 38.572839 21.774898 38.444682 C 21.708752 38.643119 21.59403 38.742338 21.430733 38.742338 C 21.317045 38.742338 21.225405 38.691006 21.155815 38.588342 C 21.086223 38.486368 21.051428 38.349597 21.051428 38.178031 L 21.051428 37.962024 z M 21.212659 38.139791 L 21.212659 38.15426 C 21.212659 38.309289 21.237466 38.415054 21.287073 38.471554 C 21.336679 38.528053 21.387323 38.556303 21.439001 38.556303 C 21.507215 38.556303 21.561647 38.524605 21.602299 38.461218 C 21.642952 38.397832 21.663277 38.311016 21.663277 38.200769 L 21.663277 38.139791 L 21.212659 38.139791 z M 21.81934 38.139791 C 21.82074 38.239009 21.839691 38.314801 21.876184 38.367167 C 21.912704 38.42022 21.963002 38.446749 22.027079 38.446749 C 22.082893 38.446749 22.127334 38.422975 22.160404 38.375435 C 22.194164 38.327895 22.211047 38.264162 22.211047 38.184233 C 22.211047 38.167006 22.21038 38.152191 22.20898 38.139791 L 21.81934 38.139791 z M 21.718054 38.939742 C 21.908224 38.939742 22.071177 39.011401 22.206913 39.154716 C 22.34265 39.298033 22.410518 39.470288 22.410518 39.67148 C 22.410518 39.867851 22.341961 40.037006 22.204846 40.178943 C 22.06842 40.320881 21.906157 40.39185 21.718054 40.39185 C 21.518928 40.39185 21.350463 40.32157 21.212659 40.18101 C 21.075543 40.041139 21.006986 39.869229 21.006986 39.665279 C 21.006986 39.464085 21.076233 39.292863 21.214726 39.151615 C 21.353218 39.010366 21.520995 38.939742 21.718054 38.939742 z M 21.709786 39.127844 C 21.565781 39.127844 21.443825 39.180899 21.343917 39.287008 C 21.244698 39.393806 21.195089 39.524375 21.195089 39.678715 C 21.195089 39.820653 21.245732 39.942954 21.347017 40.045618 C 21.448993 40.148971 21.569915 40.200647 21.709786 40.200647 C 21.855169 40.200647 21.97747 40.148282 22.076689 40.043551 C 22.176597 39.93882 22.22655 39.809973 22.22655 39.657011 C 22.22655 39.511628 22.175907 39.386915 22.074622 39.282874 C 21.973336 39.179522 21.851724 39.127844 21.709786 39.127844 z M 21.718054 40.571684 C 21.908224 40.571684 22.071177 40.643343 22.206913 40.786658 C 22.34265 40.929975 22.410518 41.10223 22.410518 41.303422 C 22.410518 41.499793 22.341961 41.668947 22.204846 41.810885 C 22.06842 41.952822 21.906157 42.023792 21.718054 42.023792 C 21.518928 42.023792 21.350463 41.953512 21.212659 41.812952 C 21.075543 41.673081 21.006986 41.501171 21.006986 41.297221 C 21.006986 41.096027 21.076233 40.924805 21.214726 40.783557 C 21.353218 40.642308 21.520995 40.571684 21.718054 40.571684 z M 21.709786 40.759786 C 21.565781 40.759786 21.443825 40.812839 21.343917 40.918949 C 21.244698 41.025747 21.195089 41.156317 21.195089 41.310657 C 21.195089 41.452595 21.245732 41.574896 21.347017 41.677559 C 21.448993 41.780913 21.569915 41.832589 21.709786 41.832589 C 21.855169 41.832589 21.97747 41.780224 22.076689 41.675492 C 22.176597 41.570762 22.22655 41.441915 22.22655 41.288953 C 22.22655 41.143569 22.175907 41.018857 22.074622 40.914815 C 21.973336 40.811462 21.851724 40.759786 21.709786 40.759786 z M 22.18831 42.135413 L 22.368144 42.135413 L 22.368144 42.940531 L 22.18831 42.940531 L 22.18831 42.626339 L 21.051428 42.626339 L 21.051428 42.448572 L 22.18831 42.448572 L 22.18831 42.135413 z " /></g><style
     type="text/css"
     id="style1369">
	.st0{fill:#000000;}
</style></svg>
