<?xml version="1.0" encoding="UTF-8" standalone="no"?>
<!-- Created with Inkscape (http://www.inkscape.org/) -->

<svg
   width="12.169284mm"
   height="14.21257mm"
   viewBox="0 0 12.169284 14.21257"
   version="1.1"
   id="svg885"
   xml:space="preserve"
   sodipodi:docname="20250411 Wordy Watch Legends.svg"
   xmlns:inkscape="http://www.inkscape.org/namespaces/inkscape"
   xmlns:sodipodi="http://sodipodi.sourceforge.net/DTD/sodipodi-0.dtd"
   xmlns="http://www.w3.org/2000/svg"
   xmlns:svg="http://www.w3.org/2000/svg"><sodipodi:namedview
     id="namedview887"
     pagecolor="#8e8e8e"
     bordercolor="#000000"
     borderopacity="0.2627451"
     inkscape:showpageshadow="2"
     inkscape:pageopacity="0"
     inkscape:pagecheckerboard="0"
     inkscape:deskcolor="#d1d1d1"
     inkscape:document-units="mm"
     showgrid="false"
     inkscape:zoom="4.7572176"
     inkscape:cx="44.143451"
     inkscape:cy="143.0458"
     inkscape:window-width="2400"
     inkscape:window-height="1511"
     inkscape:window-x="-9"
     inkscape:window-y="-9"
     inkscape:window-maximized="1"
     inkscape:current-layer="g15-7" /><defs
     id="defs882" /><g
     inkscape:label="Layer 1"
     inkscape:groupmode="layer"
     id="layer1"
     transform="translate(-12.369272,-36.314063)"><path
       id="rect1-5-7-3-8-0-4-7-7-8-1"
       style="fill:#ffffff;fill-opacity:1;stroke:none;stroke-width:1.04609;stroke-opacity:1;shape-rendering:crispEdges"
       d="m 12.779065,36.314063 c -0.226875,0 -0.409794,0.182918 -0.409794,0.409794 v 6.619751 c 0,0.226875 0.182919,0.409793 0.409794,0.409793 h 1.656747 c 0.226875,0 0.409277,-0.182918 0.409277,-0.409793 v -6.619751 c 0,-0.226876 -0.182402,-0.409794 -0.409277,-0.409794 z m 0.147795,0.514697 h 1.316715 v 0.264583 c 0,0.149517 -0.03514,0.270096 -0.10542,0.361735 -0.07028,0.09164 -0.161575,0.137459 -0.273885,0.137459 -0.112999,0 -0.207739,-0.04858 -0.28422,-0.145726 -0.07648,-0.09646 -0.113688,-0.243225 -0.111621,-0.440284 H 12.92686 Z m 0.698665,0.177767 c 0.0014,0.135048 0.02033,0.234955 0.05684,0.299723 0.03721,0.06546 0.09646,0.09819 0.177767,0.09819 0.06132,0 0.114377,-0.0248 0.159164,-0.07441 0.04479,-0.04892 0.06718,-0.156752 0.06718,-0.323495 z m -0.03204,0.783415 c 0.190169,0 0.353122,0.07166 0.488859,0.214973 0.135737,0.143317 0.203605,0.315573 0.203605,0.516765 0,0.196371 -0.06856,0.365526 -0.205672,0.507463 -0.136426,0.141938 -0.29869,0.212907 -0.486792,0.212907 -0.199127,0 -0.367592,-0.07028 -0.505396,-0.21084 -0.137115,-0.139871 -0.205672,-0.311781 -0.205672,-0.515731 0,-0.201194 0.06925,-0.372416 0.207739,-0.513663 0.138493,-0.141251 0.306269,-0.211874 0.503329,-0.211874 z m -0.0083,0.188103 c -0.144005,0 -0.265961,0.05305 -0.365869,0.159163 -0.09922,0.106798 -0.148828,0.237367 -0.148828,0.391707 0,0.141938 0.05064,0.264239 0.151929,0.366903 0.101975,0.103353 0.222898,0.155028 0.362768,0.155028 0.145383,0 0.267684,-0.05237 0.366903,-0.157095 0.09991,-0.104731 0.149862,-0.233578 0.149862,-0.38654 0,-0.145384 -0.05064,-0.270096 -0.151929,-0.374138 -0.101286,-0.103351 -0.222898,-0.155028 -0.364836,-0.155028 z m 0.656291,1.367358 v 0.186035 l -0.927075,0.399975 0.979785,0.421681 -0.971517,0.423746 0.918807,0.397909 v 0.186033 L 12.88652,40.77684 13.860104,40.353094 12.88652,39.929346 Z m -1.314648,2.191081 h 1.316715 v 0.72967 h -0.179834 v -0.551903 h -0.328662 v 0.551903 H 13.55728 v -0.551903 h -0.452685 v 0.551903 H 12.92686 Z m 0,0.969449 h 1.316715 v 0.285254 c 0,0.141937 -0.03548,0.257349 -0.106453,0.346232 -0.07028,0.08957 -0.160542,0.134358 -0.270785,0.134358 -0.08819,0 -0.166054,-0.02894 -0.233577,-0.08682 -0.06752,-0.05788 -0.115067,-0.148137 -0.142627,-0.270783 l -0.563273,0.383438 v -0.205673 l 0.541569,-0.365868 v -0.04031 H 12.92686 Z m 0.698665,0.179834 c -0.0055,0.265271 0.07131,0.397909 0.230477,0.397909 0.05581,0 0.101286,-0.0155 0.136426,-0.04651 0.03583,-0.03101 0.05994,-0.07235 0.07235,-0.124022 0.01309,-0.05168 0.01964,-0.12747 0.01964,-0.227377 z" /><path
       id="rect1-5-7-3-8-0-4-7-7-8-4-0"
       style="fill:#ffffff;fill-opacity:1;stroke:none;stroke-width:1.04609;stroke-opacity:1;shape-rendering:crispEdges"
       d="m 14.135571,44.411759 c -0.226875,0 -0.409277,0.182919 -0.409277,0.409795 v 1.57303 c 0,0.226876 0.182402,0.409794 0.409277,0.409794 h 9.206157 c 0.226875,0 0.409794,-0.182918 0.409794,-0.409794 v -1.57303 c 0,-0.226876 -0.182919,-0.409795 -0.409794,-0.409795 z m 3.513998,0.501779 h 0.01034 c 0.144694,0 0.262171,0.06511 0.352433,0.195337 0.09095,0.129535 0.136426,0.298 0.136426,0.505395 0,0.214974 -0.04892,0.386195 -0.146761,0.513664 -0.09715,0.127468 -0.21394,0.191203 -0.350366,0.191203 -0.141938,0 -0.260105,-0.06511 -0.354501,-0.195337 -0.09371,-0.130914 -0.140559,-0.297312 -0.140559,-0.499195 0,-0.223931 0.04823,-0.398253 0.144694,-0.522965 0.09715,-0.125402 0.213251,-0.188102 0.348299,-0.188102 z m 1.775602,0 c 0.115066,0 0.215318,0.04547 0.300757,0.136425 0.08544,0.09026 0.128157,0.197405 0.128157,0.321428 0,0.05995 -0.01103,0.115068 -0.03307,0.165364 -0.02136,0.04961 -0.0596,0.103695 -0.114721,0.162264 l -0.374138,0.399976 h 0.501262 v 0.1757 h -0.89917 l 0.67076,-0.713135 c 0.0503,-0.05512 0.07545,-0.115753 0.07545,-0.181901 0,-0.07786 -0.02653,-0.145383 -0.07958,-0.202572 -0.05305,-0.05719 -0.11541,-0.08578 -0.187069,-0.08578 -0.05925,0 -0.115064,0.01895 -0.167432,0.05684 -0.05168,0.03789 -0.08544,0.09646 -0.101285,0.175699 h -0.173633 c 0.01723,-0.129535 0.06821,-0.230132 0.152962,-0.30179 0.08544,-0.07235 0.18569,-0.10852 0.300757,-0.10852 z m 1.144116,0 h 0.01034 c 0.144694,0 0.262172,0.06511 0.352434,0.195337 0.09095,0.129535 0.136425,0.298 0.136425,0.505395 0,0.214974 -0.04892,0.386195 -0.146761,0.513664 -0.09715,0.127468 -0.21394,0.191203 -0.350366,0.191203 -0.141938,0 -0.260104,-0.06511 -0.3545,-0.195337 -0.09371,-0.130914 -0.14056,-0.297312 -0.14056,-0.499195 0,-0.223931 0.04823,-0.398253 0.144694,-0.522965 0.09715,-0.125402 0.213251,-0.188102 0.348299,-0.188102 z m 1.191659,0 c 0.115066,0 0.215319,0.04547 0.300756,0.136425 0.08544,0.09026 0.128158,0.197405 0.128158,0.321428 0,0.05995 -0.01103,0.115068 -0.03307,0.165364 -0.02136,0.04961 -0.0596,0.103695 -0.114722,0.162264 l -0.374137,0.399976 h 0.501261 v 0.1757 H 21.27002 l 0.67076,-0.713135 c 0.0503,-0.05512 0.07545,-0.115753 0.07545,-0.181901 0,-0.07786 -0.02653,-0.145383 -0.07958,-0.202572 -0.05305,-0.05719 -0.11541,-0.08578 -0.187069,-0.08578 -0.05925,0 -0.115064,0.01895 -0.167432,0.05684 -0.05167,0.03789 -0.08544,0.09646 -0.101286,0.175699 h -0.173632 c 0.01723,-0.129535 0.06821,-0.230132 0.152962,-0.30179 0.08544,-0.07235 0.185691,-0.10852 0.300757,-0.10852 z m 0.980818,0.04237 h 0.593246 v 0.177767 h -0.454753 l -0.07028,0.252181 c 0.05237,-0.0055 0.08268,-0.0083 0.09095,-0.0083 0.115755,0 0.216696,0.04616 0.302824,0.138493 0.08613,0.09233 0.129191,0.200504 0.129191,0.324528 0,0.13298 -0.04927,0.245635 -0.147795,0.337964 -0.09784,0.09233 -0.217386,0.138492 -0.358634,0.138492 -0.179835,0 -0.325218,-0.0782 -0.436149,-0.234611 l 0.16123,-0.102319 c 0.07924,0.09922 0.173289,0.148828 0.282153,0.148828 0.08957,0 0.163642,-0.0279 0.222209,-0.08372 0.05925,-0.0565 0.08888,-0.127468 0.08888,-0.212906 0,-0.08268 -0.03066,-0.152273 -0.09198,-0.208773 -0.06063,-0.05719 -0.135391,-0.08578 -0.224275,-0.08578 -0.05305,0 -0.09922,0.0096 -0.138493,0.02894 -0.03927,0.01861 -0.08268,0.04858 -0.130225,0.08992 z m -8.554516,0.0041 h 0.190169 l 0.412378,0.93121 0.415478,-0.93121 h 0.192237 l -0.609782,1.359091 z m 1.585433,0.0021 h 0.342098 v 1.312582 h -0.177767 v -1.138949 h -0.224276 z m 1.878955,0.139527 c -0.09164,0 -0.166399,0.04754 -0.224276,0.142627 -0.05788,0.09439 -0.08682,0.219107 -0.08682,0.374137 0,0.153651 0.02928,0.27733 0.08785,0.371037 0.05857,0.09302 0.134358,0.139526 0.227376,0.139526 0.08957,0 0.162609,-0.04754 0.219108,-0.142627 0.05719,-0.09577 0.08578,-0.220486 0.08578,-0.374137 0,-0.148829 -0.02928,-0.271129 -0.08785,-0.366903 -0.05857,-0.09577 -0.132292,-0.14366 -0.221175,-0.14366 z m 2.919718,0 c -0.09164,0 -0.166398,0.04754 -0.224276,0.142627 -0.05788,0.09439 -0.08682,0.219107 -0.08682,0.374137 0,0.153651 0.02928,0.27733 0.08785,0.371037 0.05857,0.09302 0.134358,0.139526 0.227376,0.139526 0.08957,0 0.162609,-0.04754 0.219108,-0.142627 0.05719,-0.09577 0.08578,-0.220486 0.08578,-0.374137 0,-0.148829 -0.02928,-0.271129 -0.08785,-0.366903 -0.05857,-0.09577 -0.132292,-0.14366 -0.221175,-0.14366 z m -3.737239,0.912606 c 0.03789,0 0.07062,0.01378 0.09819,0.04134 0.02756,0.02756 0.04134,0.06029 0.04134,0.09818 0,0.03859 -0.01378,0.07166 -0.04134,0.09922 -0.02687,0.02687 -0.0596,0.04031 -0.09819,0.04031 -0.03859,0 -0.07166,-0.01343 -0.09922,-0.04031 -0.02687,-0.02687 -0.04031,-0.05995 -0.04031,-0.09922 0,-0.03789 0.01344,-0.07062 0.04031,-0.09818 0.02756,-0.02756 0.06063,-0.04134 0.09922,-0.04134 z" /><path
       id="rect1-5-7-3-8-0-4-7-7-8-4-5-6"
       style="fill:#ffffff;fill-opacity:1;stroke:none;stroke-width:1.06206;stroke-opacity:1;shape-rendering:crispEdges"
       d="m 15.211991,48.138147 c -0.232877,0 -0.420646,0.183516 -0.420646,0.411344 v 1.565796 c 0,0.227829 0.187769,0.411345 0.420646,0.411345 h 8.906433 c 0.232878,0 0.42013,-0.183516 0.42013,-0.411345 v -1.565796 c 0,-0.227828 -0.187252,-0.411344 -0.42013,-0.411344 z m 1.119312,0.481624 0.423747,0.971517 0.397908,-0.918807 h 0.186035 l -0.583943,1.354956 -0.423747,-0.973584 -0.423747,0.973584 -0.583944,-1.354956 h 0.186036 l 0.399975,0.927075 z m 1.832446,0.0083 c 0.196371,0 0.365525,0.06856 0.507463,0.205672 0.141938,0.136426 0.212907,0.29869 0.212907,0.486792 0,0.199127 -0.07028,0.367591 -0.21084,0.505395 -0.139871,0.137115 -0.311781,0.205672 -0.515731,0.205672 -0.201194,0 -0.372415,-0.06925 -0.513664,-0.207739 -0.141248,-0.138493 -0.211873,-0.306268 -0.211873,-0.503328 0,-0.190169 0.07166,-0.353123 0.214974,-0.488859 0.143316,-0.135738 0.31557,-0.203605 0.516764,-0.203605 z m 5.157308,0.03152 c 0.01233,0 0.02457,-6.6e-5 0.03669,10e-4 v 0.146244 10e-4 h -0.07338 v -10e-4 -0.146244 c 0.01213,-0.0011 0.02437,-10e-4 0.03669,-10e-4 z m -4.174422,0.01085 h 0.285254 c 0.141938,0 0.257349,0.03549 0.346232,0.106454 0.08957,0.07028 0.134359,0.160542 0.134359,0.270784 0,0.08819 -0.02894,0.166054 -0.08682,0.233578 -0.05788,0.06752 -0.148141,0.115066 -0.270784,0.142627 l 0.383439,0.563273 h -0.205672 l -0.365869,-0.541569 h -0.04031 v 0.541569 H 19.14663 Z m 1.032495,0 h 0.31936 c 0.25287,0 0.440972,0.06683 0.564307,0.200505 0.123335,0.13367 0.185002,0.286287 0.185002,0.457853 0,0.172944 -0.06374,0.325906 -0.191203,0.458887 -0.127469,0.13298 -0.312815,0.199471 -0.556039,0.199471 H 20.17913 Z m 1.134814,0 h 0.199472 l 0.323494,0.529167 0.31936,-0.529167 h 0.199471 l -0.432015,0.713135 v 0.603581 h -0.179834 v -0.601514 z m 1.682068,0.06873 0.07286,0.126607 c -0.0019,7e-4 -0.0037,0.0016 -0.0057,0.0026 -0.01431,0.0073 -0.02858,0.01559 -0.04237,0.02429 -0.0017,0.0013 -0.0035,0.0024 -0.0052,0.0036 l -0.07286,-0.126607 c 0.01723,-0.01116 0.03502,-0.02119 0.05323,-0.03049 z m 0.65009,0 c 0.01819,0.0093 0.036,0.01934 0.05323,0.03049 l -0.07286,0.126607 -0.05323,-0.03101 z m -5.496822,0.07286 c -0.145383,0 -0.270096,0.05064 -0.374138,0.151928 -0.103353,0.101286 -0.155029,0.222897 -0.155029,0.364836 0,0.144004 0.05305,0.265961 0.159164,0.365869 0.106797,0.09922 0.237366,0.148828 0.391707,0.148828 0.141938,0 0.264239,-0.05064 0.366903,-0.151928 0.103352,-0.101976 0.155029,-0.222899 0.155029,-0.362769 0,-0.145383 -0.05237,-0.267683 -0.157097,-0.366903 -0.104731,-0.09991 -0.233577,-0.149861 -0.386539,-0.149861 z m 1.177189,0.01757 v 0.458886 c 0.265273,0.0055 0.397908,-0.07129 0.397908,-0.230477 0,-0.05581 -0.0155,-0.101288 -0.04651,-0.136425 -0.03101,-0.03583 -0.07235,-0.05994 -0.124024,-0.07235 -0.05168,-0.01309 -0.127472,-0.01964 -0.227376,-0.01964 z m 1.032495,0.01654 v 0.963249 h 0.01034 c 0.13367,0 0.234267,-0.0059 0.301791,-0.01757 0.06752,-0.0124 0.131602,-0.03893 0.192236,-0.07958 0.06063,-0.04065 0.108865,-0.0944 0.144694,-0.16123 0.03583,-0.06752 0.05374,-0.141594 0.05374,-0.222209 0,-0.101286 -0.0286,-0.192925 -0.08578,-0.274919 -0.05719,-0.08199 -0.125744,-0.137115 -0.205673,-0.165364 -0.07924,-0.02825 -0.186035,-0.04237 -0.320393,-0.04237 z m 2.367814,0.13901 0.126607,0.07286 -0.03049,0.05323 -0.126607,-0.07286 c 0.0092,-0.01825 0.01931,-0.03598 0.03049,-0.05323 z m 1.188041,0 c 0.01118,0.01724 0.02129,0.03498 0.03049,0.05323 l -0.12609,0.07286 -0.03101,-0.05323 z m -0.30179,0.03049 c 0.0105,-0.0014 0.02102,0.0012 0.02894,0.0083 0.01579,0.01406 0.01572,0.04016 -5.17e-4,0.05839 l -0.285771,0.337964 c -5e-4,5.73e-4 -0.001,10e-4 -0.0015,0.0016 -0.01774,0.01959 -0.0445,0.02516 -0.0646,0.01395 -5.45e-4,-2.26e-4 -5.3e-4,-2.42e-4 -10e-4,-5.17e-4 -0.0011,-7e-4 -0.0026,-0.0013 -0.0036,-0.0021 L 23.05234,49.253324 c -0.01929,-0.01416 -0.02198,-0.04345 -0.0057,-0.06563 h 5.17e-4 c 0.01629,-0.02229 0.04482,-0.02863 0.06408,-0.01447 l 0.206189,0.143144 0.26665,-0.284738 c 0.0081,-0.0091 0.01844,-0.01466 0.02894,-0.01602 z m -0.995288,0.311092 h 0.146244 c -0.0013,0.01211 -0.0016,0.02438 -0.0016,0.03669 0,0.01233 2.5e-4,0.02511 0.0016,0.03721 h -0.146244 c -8.61e-4,-0.0121 -10e-4,-0.02465 -10e-4,-0.03721 0,-0.01231 1.45e-4,-0.02458 10e-4,-0.03669 z m 1.258838,0 h 0.0016 0.145728 c 8.88e-4,0.01211 0.0016,0.02438 0.0016,0.03669 0,0.01233 -6.59e-4,0.02511 -0.0016,0.03721 h -0.145728 -0.0016 z m -1.053683,0.288871 0.0026,0.0057 c 0.0073,0.01454 0.01559,0.02878 0.02429,0.04237 0.0012,0.0018 0.0024,0.0035 0.0036,0.0052 l -0.126607,0.07286 c -0.01118,-0.01722 -0.02149,-0.03498 -0.03049,-0.05323 z m 0.996322,0 0.12609,0.07338 c -0.0095,0.0182 -0.01931,0.03549 -0.03049,0.05271 l -0.126607,-0.07286 c 0.0012,-0.0017 0.0024,-0.0035 0.0036,-0.0052 0.009,-0.01358 0.01721,-0.02806 0.02481,-0.04237 h -5.17e-4 c 9e-4,-0.0019 0.0021,-0.0038 0.0031,-0.0057 z m -0.803569,0.214974 c 0.0018,0.0013 0.0035,0.0029 0.0052,0.0041 v -5.17e-4 c 0.0138,0.009 0.02806,0.0175 0.04237,0.02481 0.002,0.001 0.0038,0.0019 0.0057,0.0026 l -0.07286,0.126607 c -0.0182,-0.0093 -0.036,-0.01983 -0.05323,-0.03101 z m 0.610816,0 0.07286,0.126607 c -0.01724,0.01118 -0.03504,0.02151 -0.05323,0.03101 l -0.07286,-0.12609 z m -0.342098,0.08837 h 0.07338 v 0.0016 0.146244 c -0.01212,0.0011 -0.02436,10e-4 -0.03669,10e-4 -0.01232,0 -0.02456,6.6e-5 -0.03669,-10e-4 v -0.146244 z" /><path
       id="rect1-5-7-3-8-0-4-7-7-8-6-0"
       style="fill:#ffffff;fill-opacity:1;stroke:none;stroke-width:1.04609;stroke-opacity:1;shape-rendering:crispEdges"
       d="m 16.868738,37.638014 c -0.226875,0 -0.409277,0.182918 -0.409277,0.409793 v 4.840014 c 0,0.226877 0.182402,0.409795 0.409277,0.409795 h 1.656746 c 0.226876,0 0.409795,-0.182918 0.409795,-0.409795 v -4.840014 c 0,-0.226875 -0.182919,-0.409793 -0.409795,-0.409793 z m 0.148311,0.592211 h 1.316716 v 0.285254 c 0,0.141937 -0.03549,0.257349 -0.106454,0.346232 -0.07028,0.08957 -0.160541,0.134359 -0.270784,0.134359 -0.08819,0 -0.166054,-0.02894 -0.233578,-0.08682 -0.06752,-0.05788 -0.115066,-0.14814 -0.142627,-0.270784 l -0.563273,0.383438 v -0.205673 l 0.541569,-0.365868 v -0.04031 h -0.541569 z m 0.698666,0.179834 c -0.0055,0.265273 0.07131,0.397908 0.230477,0.397908 0.05581,0 0.101285,-0.0155 0.136425,-0.04651 0.03583,-0.03101 0.05995,-0.07235 0.07235,-0.124022 0.01309,-0.05168 0.01964,-0.127469 0.01964,-0.227377 z m -0.698666,0.836125 h 1.316716 v 0.72967 h -0.179834 v -0.551903 h -0.328662 v 0.551903 h -0.177767 v -0.551903 h -0.452686 v 0.551903 h -0.177767 z m 0.317294,0.882632 0.05064,0.179835 c -0.148139,0.06546 -0.222209,0.165709 -0.222209,0.300757 0,0.06546 0.01964,0.119889 0.05891,0.163297 0.03927,0.04341 0.08888,0.06511 0.148828,0.06511 0.03583,0 0.07166,-0.01137 0.107487,-0.03411 0.03652,-0.02274 0.06649,-0.05099 0.08992,-0.08475 0.02343,-0.03376 0.04995,-0.08785 0.07958,-0.162265 0.03032,-0.07372 0.05788,-0.130568 0.08268,-0.170532 0.02549,-0.03927 0.05547,-0.07338 0.08992,-0.102319 0.03514,-0.02894 0.06994,-0.0503 0.104387,-0.06408 0.03445,-0.01309 0.07131,-0.01964 0.110587,-0.01964 0.0944,0 0.174666,0.0379 0.240812,0.113687 0.06683,0.07579 0.100253,0.167777 0.100253,0.275953 0,0.07166 -0.0155,0.144349 -0.04651,0.218074 -0.03101,0.07373 -0.0782,0.135048 -0.141594,0.183968 l -0.116788,-0.145728 c 0.03996,-0.03858 0.06959,-0.07372 0.08888,-0.10542 0.01998,-0.03101 0.02997,-0.07614 0.02997,-0.135392 0,-0.06477 -0.01481,-0.117477 -0.04444,-0.158129 -0.02894,-0.03996 -0.06649,-0.05994 -0.112655,-0.05994 -0.03996,0 -0.07545,0.01757 -0.106453,0.05271 -0.03032,0.03514 -0.06374,0.09508 -0.100253,0.179832 -0.03583,0.08475 -0.06959,0.150551 -0.101285,0.197405 -0.03101,0.04754 -0.06546,0.08647 -0.103353,0.116788 -0.0379,0.03032 -0.07786,0.05271 -0.11989,0.06718 -0.04203,0.01516 -0.08647,0.02274 -0.133325,0.02274 -0.109554,0 -0.202916,-0.03996 -0.280086,-0.119889 -0.07717,-0.07924 -0.115755,-0.175355 -0.115755,-0.288354 0,-0.110243 0.02997,-0.207739 0.08992,-0.292489 0.06063,-0.08406 0.151239,-0.148827 0.271818,-0.194304 z m -0.317294,1.102777 h 1.316716 v 0.729671 h -0.179834 v -0.551906 h -0.328662 v 0.551906 h -0.177767 v -0.551906 h -0.452686 v 0.551906 h -0.177767 z m 1.136882,0.860929 h 0.179834 v 0.805119 h -0.179834 v -0.314193 h -1.136882 v -0.177767 h 1.136882 z" /><path
       id="path3040"
       style="fill:#ffffff;stroke-width:1.04609;shape-rendering:crispEdges"
       d="m 20.958927,37.526908 c -0.226875,0 -0.409277,0.18292 -0.409277,0.409794 v 5.062224 c 0,0.226875 0.182402,0.409794 0.409277,0.409794 h 1.545642 c 0.226875,0 0.409795,-0.182919 0.409795,-0.409794 v -5.062224 c 0,-0.226874 -0.18292,-0.409794 -0.409795,-0.409794 z m 0.0925,0.435116 h 1.316716 v 0.208773 c 0,0.137115 -0.02997,0.249081 -0.08992,0.335897 -0.05925,0.08682 -0.134357,0.130224 -0.22531,0.130224 -0.110931,0 -0.203604,-0.06408 -0.278019,-0.192236 -0.06615,0.198437 -0.180868,0.297656 -0.344165,0.297656 -0.113688,0 -0.205328,-0.05133 -0.274918,-0.153996 -0.06959,-0.101974 -0.104387,-0.238745 -0.104387,-0.410311 z m 0.161231,0.177767 v 0.01447 c 0,0.155029 0.02481,0.260794 0.07441,0.317294 0.04961,0.0565 0.10025,0.08475 0.151928,0.08475 0.06821,0 0.122646,-0.0317 0.163298,-0.09508 0.04065,-0.06339 0.06098,-0.150202 0.06098,-0.260449 v -0.06098 z m 0.606681,0 c 0.0014,0.09922 0.02035,0.17501 0.05684,0.227376 0.03652,0.05305 0.08682,0.07958 0.150895,0.07958 0.05581,0 0.100255,-0.02377 0.133325,-0.07131 0.03376,-0.04754 0.05064,-0.111273 0.05064,-0.191202 0,-0.01723 -6.67e-4,-0.03204 -0.0021,-0.04444 z m -0.101286,0.799951 c 0.19017,0 0.353123,0.07166 0.488859,0.214974 0.135737,0.143317 0.203605,0.315572 0.203605,0.516764 0,0.196371 -0.06856,0.365526 -0.205672,0.507463 -0.136426,0.141938 -0.298689,0.212907 -0.486792,0.212907 -0.199126,0 -0.367591,-0.07028 -0.505395,-0.21084 -0.137116,-0.139871 -0.205673,-0.311781 -0.205673,-0.515731 0,-0.201194 0.06925,-0.372416 0.20774,-0.513664 0.138492,-0.141249 0.306269,-0.211873 0.503328,-0.211873 z m -0.0083,0.188102 c -0.144005,0 -0.265961,0.05305 -0.365869,0.159164 -0.09922,0.106798 -0.148828,0.237367 -0.148828,0.391707 0,0.141938 0.05064,0.264239 0.151928,0.366903 0.101976,0.103353 0.222898,0.155029 0.362769,0.155029 0.145383,0 0.267684,-0.05236 0.366903,-0.157096 0.09991,-0.104731 0.149861,-0.233578 0.149861,-0.38654 0,-0.145383 -0.05064,-0.270096 -0.151928,-0.374137 -0.101286,-0.103352 -0.222898,-0.15503 -0.364836,-0.15503 z m 0.0083,1.44384 c 0.19017,0 0.353123,0.07166 0.488859,0.214974 0.135737,0.143317 0.203605,0.315572 0.203605,0.516764 0,0.196371 -0.06856,0.365525 -0.205672,0.507463 -0.136426,0.141937 -0.298689,0.212907 -0.486792,0.212907 -0.199126,0 -0.367591,-0.07028 -0.505395,-0.21084 -0.137116,-0.139871 -0.205673,-0.311781 -0.205673,-0.515731 0,-0.201194 0.06925,-0.372416 0.20774,-0.513664 0.138492,-0.141249 0.306269,-0.211873 0.503328,-0.211873 z m -0.0083,0.188102 c -0.144005,0 -0.265961,0.05305 -0.365869,0.159163 -0.09922,0.106798 -0.148828,0.237368 -0.148828,0.391708 0,0.141938 0.05064,0.264239 0.151928,0.366902 0.101976,0.103354 0.222898,0.15503 0.362769,0.15503 0.145383,0 0.267684,-0.05237 0.366903,-0.157097 0.09991,-0.10473 0.149861,-0.233577 0.149861,-0.386539 0,-0.145384 -0.05064,-0.270096 -0.151928,-0.374138 -0.101286,-0.103353 -0.222898,-0.155029 -0.364836,-0.155029 z m 0.478524,1.375627 h 0.179834 v 0.805118 H 22.18831 v -0.314192 h -1.136882 v -0.177767 h 1.136882 z" /></g><style
     type="text/css"
     id="style1369">
	.st0{fill:#000000;}
</style></svg>
